<svg width="105" height="70" viewBox="0 0 105 70" fill="none" xmlns="http://www.w3.org/2000/svg">
<path d="M82.4097 31.0315L85.3488 31.0999C117.543 31.6468 106.811 78.9464 72.362 66.438C46.9351 57.2105 51.6514 14.764 78.8554 7.79211C90.8853 4.71627 104.282 6.90353 94.3029 10.3211C85.7589 13.1919 78.8554 21.4622 79.3339 28.229C79.4706 29.7328 80.7693 31.0315 82.4097 31.0315Z" fill="url(#paint0_linear_8090_488)"/>
<path d="M19.5946 68.1478C-11.3688 56.2546 1.20787 4.30701 35.5888 2.0514C44.5429 1.43623 46.8669 3.55515 40.1001 6.08416C33.5383 8.54483 25.2678 20.1646 24.3792 28.0251C24.1741 29.5972 25.4043 30.896 26.9764 30.896C35.9989 30.896 39.7583 30.8957 45.0214 38.141C57.9399 56.0492 40.7836 76.2816 19.5946 68.1478Z" fill="url(#paint1_linear_8090_488)"/>
<path d="M80.4663 29.0882L83.4055 29.1566C115.599 29.7034 104.868 77.003 70.4186 64.4946C44.9917 55.2671 49.708 12.8206 76.912 5.84875C88.942 2.77291 102.339 4.96017 92.3596 8.37777C83.8156 11.2485 76.912 19.5188 77.3905 26.2857C77.5272 27.7894 78.8259 29.0882 80.4663 29.0882Z" fill="url(#paint2_linear_8090_488)"/>
<path d="M17.6512 66.2044C-13.3122 54.3112 -0.735487 2.36366 33.6455 0.10804C42.5995 -0.507126 44.9236 1.61179 38.1567 4.1408C31.595 6.60147 23.3244 18.2213 22.4358 26.0817C22.2308 27.6538 23.461 28.9527 25.0331 28.9527C34.0555 28.9527 37.815 28.9524 43.0781 36.1977C55.9966 54.1059 38.8403 74.3383 17.6512 66.2044Z" fill="url(#paint3_linear_8090_488)"/>
<defs>
<linearGradient id="paint0_linear_8090_488" x1="104.625" y1="68.543" x2="44.1444" y2="20.938" gradientUnits="userSpaceOnUse">
<stop stop-color="#1263FF"/>
<stop offset="1" stop-color="#27AFF9"/>
</linearGradient>
<linearGradient id="paint1_linear_8090_488" x1="49.4858" y1="70" x2="-14.4148" y2="25.3604" gradientUnits="userSpaceOnUse">
<stop stop-color="#1263FF"/>
<stop offset="1" stop-color="#27AFF9"/>
</linearGradient>
<linearGradient id="paint2_linear_8090_488" x1="102.682" y1="66.5996" x2="42.201" y2="18.9947" gradientUnits="userSpaceOnUse">
<stop stop-color="#1263FF"/>
<stop offset="1" stop-color="#27AFF9"/>
</linearGradient>
<linearGradient id="paint3_linear_8090_488" x1="47.5425" y1="68.0566" x2="-16.3582" y2="23.417" gradientUnits="userSpaceOnUse">
<stop stop-color="#1263FF"/>
<stop offset="1" stop-color="#27AFF9"/>
</linearGradient>
</defs>
</svg>
