<svg width="60" height="60" viewBox="0 0 60 60" fill="none" xmlns="http://www.w3.org/2000/svg">
<g clip-path="url(#clip0_8011_3415)">
<path d="M45.3517 25.2076L45.352 25.2077L59.102 29.8502L59.1024 29.8504C59.5484 29.9998 59.85 30.4197 59.85 30.8931V41.3406C59.85 47.4266 56.4055 51.9663 52.8675 55.0243C49.3309 58.0812 45.7192 59.6408 45.4266 59.765C45.2903 59.8221 45.1452 59.8506 45 59.8506C44.8548 59.8506 44.7097 59.822 44.5733 59.7649C44.2803 59.6406 40.6688 58.081 37.1325 55.0243C33.5945 51.9663 30.15 47.4266 30.15 41.3406V30.8931C30.15 30.4202 30.4512 30.0022 30.8982 29.8502C30.8982 29.8502 30.8982 29.8502 30.8983 29.8501L44.6478 25.2078C44.6479 25.2078 44.6479 25.2078 44.6479 25.2078C44.877 25.1307 45.1257 25.1308 45.3517 25.2076ZM32.452 31.651L32.35 31.6855V31.7931V41.3406C32.35 46.128 34.9156 49.8884 37.7608 52.5867C40.6065 55.2853 43.7471 56.9364 44.9349 57.5083L45.0001 57.5397L45.0652 57.5082C46.2519 56.935 49.3923 55.2777 52.2383 52.5763C55.0837 49.8754 57.65 46.1156 57.65 41.3406V31.7931V31.6855L57.548 31.651L45.048 27.4285L45 27.4123L44.952 27.4285L32.452 31.651Z" fill="#1263FF" stroke="#1263FF" stroke-width="0.3"/>
<path d="M43.7488 47.5006C43.7263 47.5006 43.7013 47.5006 43.6813 47.4981C43.3238 47.4781 42.9963 47.3106 42.7738 47.0306L37.7738 40.7806C37.3438 40.2406 37.4288 39.4556 37.9688 39.0231C38.5113 38.5981 39.2938 38.6831 39.7263 39.2181L43.8513 44.3756L51.6138 36.6156C52.1013 36.1281 52.8938 36.1281 53.3813 36.6156C53.8688 37.1031 53.8688 37.8956 53.3813 38.3831L44.6313 47.1331C44.3988 47.3681 44.0788 47.5006 43.7488 47.5006Z" fill="#1263FF"/>
<path d="M46.25 19.5H8.75C4.20114 19.5 0.5 15.7989 0.5 11.25C0.5 6.70114 4.20114 3 8.75 3H46.25C50.7989 3 54.5 6.70114 54.5 11.25C54.5 15.7989 50.7989 19.5 46.25 19.5ZM8.75 4.5C5.02636 4.5 2 7.52636 2 11.25C2 14.9736 5.02636 18 8.75 18H46.25C49.9736 18 53 14.9736 53 11.25C53 7.52636 49.9736 4.5 46.25 4.5H8.75Z" fill="#1263FF" stroke="#1263FF"/>
<path d="M11.25 15C9.1825 15 7.5 13.3175 7.5 11.25C7.5 9.1825 9.1825 7.5 11.25 7.5C13.3175 7.5 15 9.1825 15 11.25C15 13.3175 13.3175 15 11.25 15ZM11.25 10C10.5625 10 10 10.5625 10 11.25C10 11.9375 10.5625 12.5 11.25 12.5C11.9375 12.5 12.5 11.9375 12.5 11.25C12.5 10.5625 11.9375 10 11.25 10Z" fill="#1263FF"/>
<path d="M23.75 15C21.6825 15 20 13.3175 20 11.25C20 9.1825 21.6825 7.5 23.75 7.5C25.8175 7.5 27.5 9.1825 27.5 11.25C27.5 13.3175 25.8175 15 23.75 15ZM23.75 10C23.0625 10 22.5 10.5625 22.5 11.25C22.5 11.9375 23.0625 12.5 23.75 12.5C24.4375 12.5 25 11.9375 25 11.25C25 10.5625 24.4375 10 23.75 10Z" fill="#1263FF"/>
<path d="M51.2625 19.7093L51.2625 19.7093C51.5898 19.9645 51.6482 20.4351 51.3936 20.7621C51.1383 21.0875 50.6666 21.1461 50.3392 20.8926C49.1698 19.9806 47.7538 19.5 46.25 19.5H8.75C6.95169 19.5 5.25493 20.2057 3.97932 21.4786C2.70265 22.7525 2 24.4525 2 26.25C2 29.9736 5.02636 33 8.75 33H23.75C24.1639 33 24.5 33.3361 24.5 33.75C24.5 34.1639 24.1639 34.5 23.75 34.5H8.75C4.20114 34.5 0.5 30.7989 0.5 26.25C0.5 24.0479 1.35712 21.98 2.91855 20.4186C4.47999 18.8571 6.54789 18 8.75 18H46.25C48.0954 18 49.8293 18.5914 51.2625 19.7093Z" fill="#1263FF" stroke="#1263FF"/>
<path d="M11.25 30C9.1825 30 7.5 28.3175 7.5 26.25C7.5 24.1825 9.1825 22.5 11.25 22.5C13.3175 22.5 15 24.1825 15 26.25C15 28.3175 13.3175 30 11.25 30ZM11.25 25C10.5625 25 10 25.5625 10 26.25C10 26.9375 10.5625 27.5 11.25 27.5C11.9375 27.5 12.5 26.9375 12.5 26.25C12.5 25.5625 11.9375 25 11.25 25Z" fill="#1263FF"/>
<path d="M23.75 30C21.6825 30 20 28.3175 20 26.25C20 24.1825 21.6825 22.5 23.75 22.5C25.8175 22.5 27.5 24.1825 27.5 26.25C27.5 28.3175 25.8175 30 23.75 30ZM23.75 25C23.0625 25 22.5 25.5625 22.5 26.25C22.5 26.9375 23.0625 27.5 23.75 27.5C24.4375 27.5 25 26.9375 25 26.25C25 25.5625 24.4375 25 23.75 25Z" fill="#1263FF"/>
<path d="M23.75 49.85H8.75C4.00784 49.85 0.15 45.9922 0.15 41.25C0.15 38.9549 1.04414 36.798 2.67107 35.1711C4.298 33.5441 6.45487 32.65 8.75 32.65H23.75C24.3572 32.65 24.85 33.1428 24.85 33.75C24.85 34.3572 24.3572 34.85 23.75 34.85H8.75C7.04501 34.85 5.43698 35.5184 4.22655 36.7263C3.0158 37.9345 2.35 39.5452 2.35 41.25C2.35 44.7803 5.21966 47.65 8.75 47.65H23.75C24.3572 47.65 24.85 48.1428 24.85 48.75C24.85 49.3572 24.3572 49.85 23.75 49.85Z" fill="#1263FF" stroke="#1263FF" stroke-width="0.3"/>
<path d="M11.25 45C9.1825 45 7.5 43.3175 7.5 41.25C7.5 39.1825 9.1825 37.5 11.25 37.5C13.3175 37.5 15 39.1825 15 41.25C15 43.3175 13.3175 45 11.25 45ZM11.25 40C10.5625 40 10 40.5625 10 41.25C10 41.9375 10.5625 42.5 11.25 42.5C11.9375 42.5 12.5 41.9375 12.5 41.25C12.5 40.5625 11.9375 40 11.25 40Z" fill="#1263FF"/>
<path d="M23.75 45C21.6825 45 20 43.3175 20 41.25C20 39.1825 21.6825 37.5 23.75 37.5C25.8175 37.5 27.5 39.1825 27.5 41.25C27.5 43.3175 25.8175 45 23.75 45ZM23.75 40C23.0625 40 22.5 40.5625 22.5 41.25C22.5 41.9375 23.0625 42.5 23.75 42.5C24.4375 42.5 25 41.9375 25 41.25C25 40.5625 24.4375 40 23.75 40Z" fill="#1263FF"/>
</g>
<defs>
<clipPath id="clip0_8011_3415">
<rect width="60" height="60" fill="white"/>
</clipPath>
</defs>
</svg>
