<svg width="92" height="32" viewBox="0 0 92 32" fill="none" xmlns="http://www.w3.org/2000/svg">
<rect x="0.00195312" width="91.9985" height="32" fill="#060E28"/>
<path d="M18.2539 16L0.000228882 32L0.000228882 0L18.2539 16Z" fill="white"/>
<path d="M28.1484 15.9531H28.9453C29.6901 15.9531 30.2474 15.8073 30.6172 15.5156C30.987 15.2188 31.1719 14.7891 31.1719 14.2266C31.1719 13.6589 31.0156 13.2396 30.7031 12.9688C30.3958 12.6979 29.9115 12.5625 29.25 12.5625H28.1484V15.9531ZM33.6172 14.1406C33.6172 15.3698 33.2318 16.3099 32.4609 16.9609C31.6953 17.612 30.6042 17.9375 29.1875 17.9375H28.1484V22H25.7266V10.5781H29.375C30.7604 10.5781 31.8125 10.8776 32.5312 11.4766C33.2552 12.0703 33.6172 12.9583 33.6172 14.1406ZM37.4844 17.6172C37.4844 18.4818 37.625 19.1354 37.9062 19.5781C38.1927 20.0208 38.6562 20.2422 39.2969 20.2422C39.9323 20.2422 40.388 20.0234 40.6641 19.5859C40.9453 19.1432 41.0859 18.487 41.0859 17.6172C41.0859 16.7526 40.9453 16.1042 40.6641 15.6719C40.3828 15.2396 39.9219 15.0234 39.2812 15.0234C38.6458 15.0234 38.1875 15.2396 37.9062 15.6719C37.625 16.099 37.4844 16.7474 37.4844 17.6172ZM43.5234 17.6172C43.5234 19.0391 43.1484 20.151 42.3984 20.9531C41.6484 21.7552 40.6042 22.1562 39.2656 22.1562C38.4271 22.1562 37.6875 21.974 37.0469 21.6094C36.4062 21.2396 35.9141 20.7109 35.5703 20.0234C35.2266 19.3359 35.0547 18.5339 35.0547 17.6172C35.0547 16.1901 35.4271 15.0807 36.1719 14.2891C36.9167 13.4974 37.9635 13.1016 39.3125 13.1016C40.151 13.1016 40.8906 13.2839 41.5312 13.6484C42.1719 14.013 42.6641 14.5365 43.0078 15.2188C43.3516 15.901 43.5234 16.7005 43.5234 17.6172ZM50.2891 22.1562C49.263 22.1562 48.4583 21.7839 47.875 21.0391H47.75C47.8333 21.7682 47.875 22.1901 47.875 22.3047V25.8438H45.4922V13.2656H47.4297L47.7656 14.3984H47.875C48.4323 13.5339 49.2578 13.1016 50.3516 13.1016C51.3828 13.1016 52.1901 13.5 52.7734 14.2969C53.3568 15.0938 53.6484 16.2005 53.6484 17.6172C53.6484 18.5495 53.5104 19.3594 53.2344 20.0469C52.9635 20.7344 52.5755 21.2578 52.0703 21.6172C51.5651 21.9766 50.9714 22.1562 50.2891 22.1562ZM49.5859 15.0078C48.9974 15.0078 48.5677 15.1901 48.2969 15.5547C48.026 15.9141 47.8854 16.5104 47.875 17.3438V17.6016C47.875 18.5391 48.013 19.2109 48.2891 19.6172C48.5703 20.0234 49.013 20.2266 49.6172 20.2266C50.6849 20.2266 51.2188 19.3464 51.2188 17.5859C51.2188 16.7266 51.0859 16.0833 50.8203 15.6562C50.5599 15.224 50.1484 15.0078 49.5859 15.0078ZM61.8047 22L61.4844 20.8828H61.3594C61.1042 21.2891 60.7422 21.6042 60.2734 21.8281C59.8047 22.0469 59.2708 22.1562 58.6719 22.1562C57.6458 22.1562 56.8724 21.8828 56.3516 21.3359C55.8307 20.7839 55.5703 19.9922 55.5703 18.9609V13.2656H57.9531V18.3672C57.9531 18.9974 58.0651 19.4714 58.2891 19.7891C58.513 20.1016 58.8698 20.2578 59.3594 20.2578C60.026 20.2578 60.5078 20.0365 60.8047 19.5938C61.1016 19.1458 61.25 18.4062 61.25 17.375V13.2656H63.6328V22H61.8047ZM68.5156 22H66.1328V9.84375H68.5156V22ZM76.5703 22L76.1094 20.8125H76.0469C75.6458 21.3177 75.2318 21.6693 74.8047 21.8672C74.3828 22.0599 73.8307 22.1562 73.1484 22.1562C72.3099 22.1562 71.6484 21.9167 71.1641 21.4375C70.6849 20.9583 70.4453 20.276 70.4453 19.3906C70.4453 18.4635 70.7682 17.7812 71.4141 17.3438C72.0651 16.901 73.0443 16.6562 74.3516 16.6094L75.8672 16.5625V16.1797C75.8672 15.2943 75.4141 14.8516 74.5078 14.8516C73.8099 14.8516 72.9896 15.0625 72.0469 15.4844L71.2578 13.875C72.263 13.349 73.3776 13.0859 74.6016 13.0859C75.7734 13.0859 76.6719 13.3411 77.2969 13.8516C77.9219 14.362 78.2344 15.138 78.2344 16.1797V22H76.5703ZM75.8672 17.9531L74.9453 17.9844C74.2526 18.0052 73.737 18.1302 73.3984 18.3594C73.0599 18.5885 72.8906 18.9375 72.8906 19.4062C72.8906 20.0781 73.276 20.4141 74.0469 20.4141C74.599 20.4141 75.0391 20.2552 75.3672 19.9375C75.7005 19.6198 75.8672 19.1979 75.8672 18.6719V17.9531ZM85.5703 13.1016C85.8932 13.1016 86.1615 13.125 86.375 13.1719L86.1953 15.4062C86.0026 15.3542 85.7682 15.3281 85.4922 15.3281C84.7318 15.3281 84.138 15.5234 83.7109 15.9141C83.2891 16.3047 83.0781 16.8516 83.0781 17.5547V22H80.6953V13.2656H82.5L82.8516 14.7344H82.9688C83.2396 14.2448 83.6042 13.8516 84.0625 13.5547C84.526 13.2526 85.0286 13.1016 85.5703 13.1016Z" fill="white"/>
</svg>
