<svg width="1296" height="381" viewBox="0 0 1296 381" fill="none" xmlns="http://www.w3.org/2000/svg">
<path d="M0 381V42.1182H179.282C225.413 42.1182 260.012 50.1868 283.077 66.324C306.492 82.4613 318.2 103.762 318.2 130.227C318.2 147.978 313.482 163.47 304.046 176.703C294.61 189.612 281.679 199.618 265.254 206.718C248.828 213.818 229.957 217.368 208.638 217.368L218.599 197.52C241.664 197.52 262.109 201.07 279.932 208.17C297.755 214.948 311.56 225.114 321.345 238.67C331.48 252.225 336.547 268.846 336.547 288.534C336.547 317.581 324.141 340.334 299.328 356.794C274.515 372.931 237.995 381 189.767 381H0ZM84.399 321.938H183.476C205.493 321.938 222.093 318.71 233.277 312.255C244.809 305.478 250.576 294.827 250.576 280.304C250.576 266.103 244.809 255.614 233.277 248.836C222.093 241.736 205.493 238.186 183.476 238.186H78.1084V181.06H168.798C189.417 181.06 205.144 177.832 215.977 171.377C227.161 164.6 232.752 154.433 232.752 140.878C232.752 127.646 227.161 117.802 215.977 111.347C205.144 104.569 189.417 101.18 168.798 101.18H84.399V321.938Z" fill="#060E28"/>
<path d="M730.05 116.672C752.417 116.672 772.162 120.868 789.287 129.259C806.761 137.328 820.39 149.915 830.176 167.02C840.31 183.803 845.378 205.427 845.378 231.892V381H763.6V243.511C763.6 222.532 758.882 207.041 749.446 197.036C740.01 187.031 726.73 182.028 709.606 182.028C697.723 182.028 687.064 184.61 677.628 189.774C668.193 194.615 660.854 202.038 655.611 212.043C650.369 222.048 647.748 234.797 647.748 250.288V381H565.97V243.511C565.97 222.532 561.252 207.041 551.816 197.036C542.73 187.031 529.624 182.028 512.5 182.028C500.618 182.028 489.959 184.61 480.523 189.774C471.087 194.615 463.748 202.038 458.506 212.043C453.264 222.048 450.642 234.797 450.642 250.288V381H368.865V120.545H446.973V191.71L432.295 170.893C442.08 153.142 455.885 139.748 473.708 130.712C491.881 121.352 512.5 116.672 535.566 116.672C561.427 116.672 583.968 122.804 603.19 135.069C622.76 147.01 635.691 165.407 641.982 190.258L613.15 182.996C622.586 162.663 637.613 146.526 658.232 134.585C679.201 122.643 703.14 116.672 730.05 116.672Z" fill="#060E28"/>
<path d="M892.467 381V120.545H974.245V381H892.467ZM933.356 84.2364C918.329 84.2364 906.097 80.202 896.661 72.1334C887.225 64.0648 882.507 54.0597 882.507 42.1182C882.507 30.1766 887.225 20.1715 896.661 12.1029C906.097 4.03431 918.329 0 933.356 0C948.384 0 960.616 3.87294 970.052 11.6188C979.487 19.042 984.205 28.7243 984.205 40.6658C984.205 53.2529 979.487 63.7421 970.052 72.1334C960.965 80.202 948.733 84.2364 933.356 84.2364Z" fill="#060E28"/>
<path d="M988.284 381L1114.62 228.019L1113.05 269.653L991.954 120.545H1083.69L1160.23 217.853L1125.63 218.821L1204.79 120.545H1291.81L1170.19 268.201V227.535L1296 381H1203.21L1123.01 277.399L1157.08 281.756L1077.4 381H988.284Z" fill="#060E28"/>
</svg>
