<svg width="167" height="37" viewBox="0 0 167 37" fill="none" xmlns="http://www.w3.org/2000/svg">
<g clip-path="url(#clip0_8011_1625)">
<path d="M135.178 2.91211V33.9498H139.668V2.91211H135.178Z" fill="#060E28"/>
<path fill-rule="evenodd" clip-rule="evenodd" d="M94.578 34.4497C92.806 34.4497 91.3259 34.0323 90.1374 33.1971C90.0072 33.106 89.881 33.0109 89.7578 32.9122V33.9487H85.7959V3.41211H90.319V16.494C91.4287 15.7722 92.771 15.4112 94.3467 15.4112C96.0524 15.4112 97.538 15.8232 98.8037 16.647C100.069 17.471 101.049 18.601 101.742 20.0373C102.446 21.4624 102.798 23.0935 102.798 24.9304C102.798 26.734 102.452 28.354 101.758 29.7904C101.076 31.2266 100.119 32.3622 98.8864 33.1971C97.6537 34.0323 96.2177 34.4497 94.578 34.4497ZM90.1539 22.0581C89.8895 22.8818 89.7578 23.8392 89.7578 24.9304C89.7578 26.0213 89.8895 26.9792 90.1539 27.8029C90.4178 28.627 90.8473 29.2668 91.4413 29.7236C92.0466 30.18 92.8501 30.408 93.8515 30.408C94.8198 30.408 95.6124 30.1633 96.2287 29.6735C96.8451 29.1836 97.3016 28.5267 97.5986 27.7027C97.8959 26.8678 98.0443 25.9438 98.0443 24.9304C98.0443 23.9283 97.8904 23.0155 97.5821 22.1919C97.2741 21.3567 96.7955 20.6941 96.1461 20.2042C95.5077 19.7033 94.6877 19.4527 93.6863 19.4527C92.7509 19.4527 91.9915 19.681 91.4086 20.1375C90.8363 20.5939 90.4178 21.234 90.1539 22.0581Z" fill="#060E28"/>
<path d="M78.697 23.2942V33.9493H83.1867V22.0921C83.1867 20.1213 82.664 18.5291 81.6186 17.3156C80.5842 16.091 79.049 15.4785 77.0132 15.4785C75.8246 15.4785 74.7406 15.7457 73.7612 16.2802C72.8646 16.7648 72.1329 17.4305 71.5666 18.2779C71.1441 17.5089 70.5604 16.8764 69.8159 16.3804C68.9247 15.7791 67.7801 15.4785 66.3826 15.4785C65.161 15.4785 64.0549 15.7513 63.0646 16.2968C62.3161 16.7138 61.6833 17.2445 61.166 17.8889V15.9128H57.2046V33.9493H61.7274V23.0271C61.7274 21.9917 62.0081 21.1511 62.5695 20.5054C63.1417 19.8485 63.8953 19.52 64.8306 19.52C65.8104 19.52 66.5749 19.854 67.1252 20.522C67.6865 21.179 67.9673 22.1032 67.9673 23.2942V33.9493H72.457V23.0271C72.457 22.3367 72.5837 21.7299 72.837 21.2068C73.1008 20.6723 73.464 20.2604 73.9264 19.971C74.3886 19.6703 74.9333 19.52 75.5606 19.52C76.5401 19.52 77.3047 19.854 77.8549 20.522C78.4161 21.179 78.697 22.1032 78.697 23.2942Z" fill="#060E28"/>
<path d="M41.1178 33.7648C41.9981 34.2434 43.1371 34.483 44.5349 34.483C46.2844 34.483 47.7318 34.099 48.8763 33.3307C49.4195 32.9698 49.8982 32.5555 50.3123 32.0887V33.9486H54.2743V15.9121H49.7511V25.0638C49.7511 26.1772 49.6245 27.079 49.3716 27.7693C49.1293 28.4486 48.8159 28.9663 48.4303 29.3224C48.0453 29.6678 47.6327 29.9014 47.1927 30.0239C46.7525 30.1465 46.3395 30.2077 45.9545 30.2077C44.9971 30.2077 44.2541 29.9905 43.7258 29.5563C43.2087 29.1222 42.8347 28.5822 42.6034 27.9365C42.3725 27.2906 42.2349 26.6504 42.1908 26.0157C42.1467 25.3703 42.1247 24.8415 42.1247 24.4292V15.9121H37.5688V26.0324C37.5688 26.3333 37.5905 26.8119 37.6346 27.469C37.6787 28.1258 37.8053 28.8549 38.0145 29.6567C38.2234 30.447 38.5703 31.2097 39.0544 31.9447C39.5497 32.6793 40.2375 33.2861 41.1178 33.7648Z" fill="#060E28"/>
<path d="M104.779 15.9117V33.9482H109.302V24.7295C109.302 24.0393 109.396 23.4213 109.583 22.8757C109.77 22.319 110.045 21.8404 110.408 21.4397C110.772 21.0276 111.217 20.6992 111.745 20.4543C112.274 20.1982 112.862 20.0478 113.512 20.0034C114.172 19.9477 114.749 19.9978 115.245 20.1537V15.9117C114.706 15.8449 114.166 15.8337 113.627 15.8783C113.088 15.9117 112.565 16.0063 112.059 16.1622C111.553 16.307 111.085 16.5129 110.656 16.7802C110.095 17.1142 109.621 17.5372 109.236 18.0494C109.054 18.2918 108.889 18.5468 108.741 18.8141V15.9117H104.779Z" fill="#060E28"/>
<path fill-rule="evenodd" clip-rule="evenodd" d="M124.699 34.4505C122.872 34.4505 121.26 34.0554 119.863 33.2648C118.476 32.4634 117.386 31.3667 116.594 29.9748C115.812 28.5722 115.422 26.969 115.422 25.1651C115.422 23.1946 115.807 21.4801 116.578 20.0215C117.348 18.563 118.41 17.4329 119.763 16.6313C121.117 15.8186 122.674 15.4121 124.435 15.4121C126.306 15.4121 127.896 15.8575 129.206 16.7481C130.515 17.6388 131.484 18.8913 132.11 20.5058C132.738 22.1203 132.959 24.0183 132.772 26.2006H120.253C120.393 27.2833 120.725 28.1627 121.249 28.8391C121.975 29.7524 123.037 30.2088 124.435 30.2088C125.315 30.2088 126.069 30.0138 126.696 29.6242C127.324 29.2347 127.802 28.6724 128.132 27.9374L132.623 29.2402C131.951 30.8879 130.889 32.1681 129.436 33.0809C127.995 33.9941 126.416 34.4505 124.699 34.4505ZM127.456 20.5725C127.839 21.0999 128.097 21.8517 128.228 22.827H120.371C120.546 21.9941 120.839 21.3093 121.249 20.773C121.975 19.8265 123.103 19.3534 124.633 19.3534C125.943 19.3534 126.884 19.7598 127.456 20.5725Z" fill="#060E28"/>
<path d="M143.295 33.9498V2.91211H147.786V33.9498H143.295Z" fill="#060E28"/>
<path fill-rule="evenodd" clip-rule="evenodd" d="M152.784 33.7157C153.676 34.2055 154.76 34.4505 156.036 34.4505C157.576 34.4505 158.847 34.1832 159.849 33.6487C160.648 33.2186 161.401 32.5812 162.111 31.7356V33.9496H166.04V22.9272C166.04 22.1035 166.006 21.3574 165.94 20.6895C165.874 20.0215 165.665 19.3534 165.313 18.6854C164.685 17.483 163.761 16.6369 162.54 16.147C161.318 15.657 159.921 15.4121 158.346 15.4121C156.201 15.4121 154.506 15.8798 153.262 16.815C152.019 17.7502 151.172 18.9638 150.721 20.4556L154.782 21.7581C155.067 20.9344 155.568 20.361 156.283 20.0382C156.998 19.7153 157.687 19.5538 158.346 19.5538C159.536 19.5538 160.382 19.8044 160.889 20.3053C161.287 20.6988 161.528 21.2671 161.614 22.0109C160.853 22.1275 160.133 22.2381 159.453 22.3427C158.298 22.5099 157.262 22.6881 156.35 22.8771C155.436 23.0665 154.65 23.2837 153.989 23.5285C153.031 23.8847 152.266 24.3303 151.695 24.8647C151.132 25.388 150.726 25.9945 150.473 26.6847C150.22 27.3752 150.093 28.138 150.093 28.9729C150.093 29.9748 150.319 30.8932 150.77 31.7284C151.232 32.5521 151.904 33.2146 152.784 33.7157ZM159.073 30.4423C158.512 30.732 157.818 30.8768 156.993 30.8768C156.476 30.8768 156.03 30.7988 155.656 30.6429C155.283 30.4868 154.991 30.2645 154.782 29.9748C154.583 29.6743 154.484 29.3177 154.484 28.9059C154.484 28.6056 154.545 28.3325 154.666 28.0879C154.797 27.8427 154.996 27.6203 155.26 27.4197C155.535 27.2081 155.893 27.0135 156.333 26.8352C156.718 26.6904 157.164 26.5567 157.67 26.4345C158.176 26.3119 158.842 26.1783 159.667 26.0334C160.198 25.9335 160.832 25.8193 161.572 25.6916C161.561 26.0091 161.543 26.368 161.516 26.7683C161.483 27.4142 161.351 27.982 161.121 28.4718C160.999 28.7277 160.768 29.0452 160.427 29.4236C160.097 29.8021 159.646 30.142 159.073 30.4423Z" fill="#060E28"/>
<path fill-rule="evenodd" clip-rule="evenodd" d="M12.789 16.0433H0.596191V21.4152C0.596191 29.4364 7.02363 35.9392 14.9522 35.9392C22.8809 35.9392 29.3086 29.4364 29.3086 21.4152V16.0433H16.7223V7.48804C16.7223 4.08171 13.9928 1.32031 10.6258 1.32031C7.25883 1.32031 4.52937 4.08171 4.52937 7.48804H8.46254C8.46254 6.27933 9.43108 5.29949 10.6258 5.29949C11.8205 5.29949 12.789 6.27933 12.789 7.48804V16.0433ZM12.789 20.0225V27.583H16.7223V20.0225H25.3753V21.4152C25.3753 27.2391 20.7087 31.96 14.9522 31.96C9.19588 31.96 4.52937 27.2391 4.52937 21.4152V20.0225H12.789Z" fill="#060E28"/>
</g>
<defs>
<clipPath id="clip0_8011_1625">
<rect width="166.575" height="36.6897" fill="white" transform="translate(0.424805 0.0234375)"/>
</clipPath>
</defs>
</svg>
