<svg width="180" height="38" viewBox="0 0 180 38" fill="none" xmlns="http://www.w3.org/2000/svg">
<g clip-path="url(#clip0_8011_1612)">
<path d="M0 25.3594L12.7005 19.6406L20.0107 23.9296L21.4875 38.0009L12.479 37.9254L13.808 28.1433L12.2575 27.2405L4.6519 33.2605L0 25.3594Z" fill="#060E28"/>
<path d="M20.8232 23.3252L32.0471 31.6775L36.4774 23.6262L27.4687 19.939V18.1331L36.4774 14.3707L32.0471 6.39453L20.8232 14.747V23.3252Z" fill="#060E28"/>
<path d="M20.0107 14.0713L21.4875 0L12.479 0.150451L13.808 9.93265L12.2575 10.8356L4.57807 4.81579L0 12.6415L12.7005 18.3603L20.0107 14.0713Z" fill="#060E28"/>
<path d="M66.5313 17.3128V30.4954H71.3796V13.6953H64.3188V17.3128H66.5313Z" fill="#060E28"/>
<path d="M66.3813 11.3366C66.8258 11.8066 67.5025 12.0416 68.4115 12.0416C69.321 12.0416 69.9871 11.8066 70.4111 11.3366C70.8561 10.8459 71.0778 10.2327 71.0778 9.49716C71.0778 8.7408 70.8561 8.12765 70.4111 7.65767C69.9871 7.16722 69.321 6.92188 68.4115 6.92188C67.5025 6.92188 66.8258 7.16722 66.3813 7.65767C65.9573 8.12765 65.7451 8.7408 65.7451 9.49716C65.7451 10.2327 65.9573 10.8459 66.3813 11.3366Z" fill="#060E28"/>
<path d="M49.6537 30.1281C51.0272 30.7615 52.7141 31.0786 54.7138 31.0786C56.5927 31.0786 58.2085 30.7818 59.5625 30.1893C60.916 29.5969 61.9561 28.7689 62.6834 27.7059C63.4312 26.6228 63.8045 25.3659 63.8045 23.9351C63.8045 22.5454 63.4517 21.3701 62.7445 20.4094C62.0572 19.4285 61.0982 18.662 59.8653 18.1104C58.633 17.538 57.2089 17.1803 55.5926 17.0373L53.8959 16.884C52.8857 16.8021 52.1584 16.5264 51.714 16.0562C51.2695 15.5863 51.0472 15.0342 51.0472 14.4009C51.0472 13.9101 51.1689 13.4606 51.4106 13.0519C51.6534 12.6226 52.0168 12.2855 52.5018 12.0401C53.0069 11.795 53.6231 11.6723 54.3504 11.6723C55.1177 11.6723 55.7544 11.8152 56.2593 12.1015C56.3706 12.162 56.4761 12.2267 56.5752 12.2953L56.5993 12.3124C56.6363 12.3383 56.6728 12.3652 56.7084 12.3923C57.0152 12.6296 57.2594 12.9107 57.4411 13.2358C57.7034 13.6855 57.8356 14.1862 57.8356 14.7381H62.6834C62.6834 13.2664 62.35 11.989 61.6838 10.9058C61.0171 9.80223 60.0575 8.95407 58.8051 8.36118C57.5723 7.74803 56.0878 7.44141 54.3504 7.44141C52.6935 7.44141 51.2595 7.72777 50.0471 8.29994C48.8353 8.85187 47.8859 9.64894 47.1991 10.6911C46.5319 11.7335 46.1985 12.9702 46.1985 14.4009C46.1985 16.3832 46.8557 17.9773 48.1687 19.1834C49.4815 20.3892 51.2394 21.0841 53.4414 21.2679L55.1082 21.4212C56.4611 21.5439 57.4411 21.82 58.0473 22.2489C58.653 22.6577 58.9563 23.2198 58.9563 23.9351C58.9563 24.2639 58.9033 24.5722 58.7967 24.8602C58.7176 25.074 58.6094 25.2767 58.4718 25.4681C58.1479 25.8971 57.6734 26.2344 57.0472 26.48C56.421 26.725 55.6433 26.8476 54.7138 26.8476C53.6836 26.8476 52.8452 26.7048 52.199 26.4181C51.5523 26.1117 51.0677 25.7133 50.7439 25.2228C50.4411 24.7321 50.2899 24.201 50.2899 23.6285H45.4717C45.4717 25.0797 45.8251 26.367 46.5319 27.4913C47.2392 28.5951 48.2797 29.4738 49.6537 30.1281Z" fill="#060E28"/>
<path d="M82.1966 30.7102C80.5199 30.7102 79.1664 30.5055 78.1363 30.097C77.1057 29.6674 76.3483 28.9626 75.8633 27.9817C75.3988 26.98 75.1665 25.6314 75.1665 23.9348V17.2823H72.6514V13.6954H75.1665V9.1582H79.6815V13.6954H84.5302V17.2823H79.6815V24.119C79.6815 24.9161 79.8837 25.5292 80.2875 25.9581C80.7115 26.3668 81.3078 26.5713 82.0755 26.5713H84.5302V30.7102H82.1966Z" fill="#060E28"/>
<path fill-rule="evenodd" clip-rule="evenodd" d="M90.3673 30.3429C91.4579 30.8331 92.7108 31.0788 94.1249 31.0788C95.5184 31.0788 96.7512 30.8331 97.8219 30.3429C98.8926 29.8521 99.7816 29.1675 100.488 28.2889C101.196 27.4098 101.671 26.4082 101.912 25.2843H97.458C97.2563 25.7949 96.8724 26.2243 96.3067 26.5717C95.7411 26.9192 95.0133 27.0928 94.1249 27.0928C93.5743 27.0928 93.0823 27.027 92.6488 26.8954C92.3189 26.7951 92.0231 26.6569 91.7614 26.4801C91.1552 26.0709 90.7107 25.4987 90.4279 24.7632C90.3493 24.5535 90.2822 24.3344 90.2257 24.106C90.1681 23.8747 90.1215 23.634 90.0865 23.3835H102.216V21.728C102.216 20.195 101.892 18.785 101.246 17.4974C100.599 16.1891 99.6598 15.1366 98.4281 14.3395C97.2158 13.522 95.7206 13.1133 93.9427 13.1133C92.5892 13.1133 91.3768 13.3586 90.3063 13.849C89.2566 14.3191 88.3776 14.9628 87.6704 15.7804C86.9636 16.5979 86.418 17.528 86.0336 18.5705C85.6702 19.592 85.4885 20.6651 85.4885 21.7892V22.4023C85.4885 23.4857 85.6702 24.5484 86.0336 25.5909C86.418 26.6127 86.9636 27.5425 87.6704 28.3806C88.3977 29.1979 89.2962 29.8521 90.3673 30.3429ZM90.1701 20.352C90.1836 20.2872 90.1976 20.2232 90.2131 20.1603C90.2551 19.987 90.3037 19.8209 90.3588 19.6621C90.3898 19.5718 90.4229 19.4837 90.4584 19.3981C90.7613 18.6418 91.2058 18.0695 91.7913 17.6813C92.0106 17.5361 92.2479 17.4182 92.5026 17.3273C92.9311 17.175 93.4116 17.0987 93.9427 17.0987C94.7716 17.0987 95.4578 17.293 96.0034 17.6813C96.569 18.0491 96.9935 18.5907 97.2763 19.306C97.2993 19.3638 97.3209 19.4225 97.3419 19.4819C97.3754 19.5768 97.4065 19.674 97.4354 19.7738C97.478 19.9221 97.5155 20.0757 97.5486 20.2343C97.5726 20.3514 97.5932 20.4711 97.6116 20.5938H90.1235C90.1375 20.5117 90.153 20.4313 90.1701 20.352Z" fill="#060E28"/>
<path d="M104.218 30.495V13.695H108.067V17.9263C108.119 17.6749 108.179 17.4334 108.245 17.2018C108.302 17.0068 108.363 16.8187 108.43 16.6381C108.855 15.4934 109.491 14.6353 110.339 14.0628C111.188 13.4701 112.228 13.1738 113.461 13.1738H113.672C114.925 13.1738 115.966 13.4701 116.794 14.0628C117.642 14.6353 118.279 15.4934 118.703 16.6381L118.736 16.7245L118.765 16.8035C118.784 16.7477 118.804 16.6926 118.824 16.6381C119.269 15.4934 119.915 14.6353 120.764 14.0628C121.612 13.4701 122.653 13.1738 123.885 13.1738H124.097C125.349 13.1738 126.4 13.4701 127.248 14.0628C128.117 14.6353 128.774 15.4934 129.217 16.6381C129.662 17.7827 129.885 19.2133 129.885 20.9302V30.495H125.036V20.6542C125.036 19.7345 124.794 18.9885 124.309 18.4164C123.845 17.8439 123.178 17.5577 122.309 17.5577C121.44 17.5577 120.754 17.8542 120.249 18.4469C119.744 19.0191 119.491 19.7856 119.491 20.7463V30.495H114.612V20.6542C114.612 19.7345 114.37 18.9885 113.885 18.4164C113.42 17.8439 112.764 17.5577 111.916 17.5577C111.026 17.5577 110.329 17.8542 109.824 18.4469C109.319 19.0191 109.066 19.7856 109.066 20.7463V30.495H104.218Z" fill="#060E28"/>
<path fill-rule="evenodd" clip-rule="evenodd" d="M142.834 27.2609V30.4979H146.684V20.1971C146.684 18.6437 146.38 17.3768 145.774 16.3954C145.168 15.3941 144.28 14.6481 143.107 14.1576C141.957 13.6672 140.532 13.4219 138.835 13.4219C138.468 13.4219 138.083 13.4258 137.683 13.4339C137.446 13.4389 137.204 13.4451 136.956 13.4524C136.289 13.473 135.642 13.5035 135.017 13.5445L134.539 13.5772C134.293 13.5943 134.062 13.6114 133.845 13.6286C133.682 13.6415 133.527 13.6543 133.381 13.6672V17.806C134.007 17.765 134.703 17.724 135.472 17.6832C135.686 17.672 135.899 17.6612 136.11 17.6514C136.415 17.6371 136.716 17.6248 137.015 17.6139C137.249 17.6053 137.482 17.5977 137.714 17.5913C138.441 17.5707 139.026 17.5606 139.471 17.5606C140.36 17.5606 141.006 17.7751 141.411 18.2044C141.815 18.6336 142.017 19.2774 142.017 20.1358V20.1971H139.017C137.543 20.1971 136.239 20.3913 135.108 20.7796C133.977 21.1474 133.098 21.73 132.472 22.5271C131.846 23.3038 131.532 24.3053 131.532 25.5316C131.532 26.6558 131.784 27.6265 132.289 28.4439C132.795 29.241 133.491 29.8543 134.38 30.2831C135.29 30.7125 136.341 30.9273 137.532 30.9273C138.683 30.9273 139.653 30.7125 140.441 30.2831C141.249 29.8543 141.876 29.241 142.319 28.4439C142.398 28.3098 142.471 28.1705 142.54 28.0255C142.636 27.821 142.72 27.6053 142.796 27.3799L142.834 27.2609ZM142.017 24.2747V22.9257H138.987C138.138 22.9257 137.482 23.1402 137.017 23.5694C136.573 23.9783 136.35 24.5403 136.35 25.2556C136.35 25.5924 136.406 25.8982 136.516 26.1742C136.628 26.4508 136.794 26.6963 137.017 26.911C137.482 27.3202 138.138 27.5243 138.987 27.5243C139.148 27.5243 139.304 27.5162 139.454 27.5C139.577 27.4872 139.698 27.4685 139.813 27.4448C140.036 27.3987 140.245 27.3334 140.441 27.2482C140.886 27.0442 141.249 26.7069 141.531 26.2365C141.815 25.7665 141.976 25.1125 142.017 24.2747Z" fill="#060E28"/>
<path d="M149.584 30.495V13.695H153.434V19.2404C153.618 17.6573 154.083 16.3809 154.828 15.4118C155.837 14.1242 157.292 13.4805 159.191 13.4805H159.828V17.711H158.615C157.282 17.711 156.251 18.0789 155.525 18.8148C154.797 19.5301 154.433 20.5724 154.433 21.9416V30.495H149.584Z" fill="#060E28"/>
<path d="M165.977 22.6487H167.582L172.824 30.4969H178.279L171.631 20.8584L177.097 13.6968H172.007L165.977 21.6851V8.11719H161.128V30.4969H165.977V22.6487Z" fill="#060E28"/>
</g>
<defs>
<clipPath id="clip0_8011_1612">
<rect width="179.388" height="38" fill="white"/>
</clipPath>
</defs>
</svg>
