<svg width="11" height="18" viewBox="0 0 11 18" fill="none" xmlns="http://www.w3.org/2000/svg">
<path d="M9.73022 0.00360649L7.4713 0C4.93348 0 3.29343 1.67431 3.29343 4.26576V6.23256H1.02219C0.825923 6.23256 0.666992 6.39088 0.666992 6.58617V9.43584C0.666992 9.63113 0.826104 9.78928 1.02219 9.78928H3.29343V16.9799C3.29343 17.1752 3.45236 17.3333 3.64862 17.3333H6.61195C6.80821 17.3333 6.96714 17.175 6.96714 16.9799V9.78928H9.62276C9.81902 9.78928 9.97795 9.63113 9.97795 9.43584L9.97904 6.58617C9.97904 6.4924 9.94153 6.4026 9.87502 6.33624C9.80851 6.26988 9.7179 6.23256 9.62366 6.23256H6.96714V4.56528C6.96714 3.76391 7.15906 3.3571 8.20815 3.3571L9.72986 3.35656C9.92594 3.35656 10.0849 3.19824 10.0849 3.00312V0.357043C10.0849 0.162112 9.92612 0.00396714 9.73022 0.00360649Z" fill="#060E28"/>
</svg>
