<svg width="60" height="61" viewBox="0 0 60 61" fill="none" xmlns="http://www.w3.org/2000/svg">
<path d="M55.7143 31.2969H34.7619C33.6256 31.2981 32.5363 31.75 31.7328 32.5535C30.9294 33.357 30.4774 34.4463 30.4762 35.5826V52.1339L38.5138 44.0964C38.6464 43.9637 38.8038 43.8584 38.9772 43.7866C39.1505 43.7148 39.3362 43.6778 39.5238 43.6778C39.7114 43.6778 39.8972 43.7148 40.0705 43.7866C40.2438 43.8584 40.4012 43.9637 40.5339 44.0964L45.2381 48.8006L50.3609 43.6778H48.0952C47.7164 43.6778 47.353 43.5273 47.0851 43.2594C46.8172 42.9915 46.6667 42.6281 46.6667 42.2493C46.6667 41.8704 46.8172 41.507 47.0851 41.2391C47.353 40.9712 47.7164 40.8207 48.0952 40.8207H53.8095C54.1884 40.8208 54.5517 40.9713 54.8196 41.2392C55.0875 41.5071 55.238 41.8704 55.2381 42.2493V47.9635C55.2381 48.3424 55.0876 48.7058 54.8197 48.9737C54.5518 49.2416 54.1884 49.3921 53.8095 49.3921C53.4306 49.3921 53.0673 49.2416 52.7994 48.9737C52.5315 48.7058 52.381 48.3424 52.381 47.9635V45.6979L46.2481 51.8307C46.1155 51.9634 45.9581 52.0687 45.7848 52.1405C45.6115 52.2123 45.4257 52.2493 45.2381 52.2493C45.0505 52.2493 44.8647 52.2123 44.6914 52.1405C44.5181 52.0687 44.3607 51.9634 44.2281 51.8307L39.5238 47.1265L30.4762 56.1741V56.535C30.4774 57.6712 30.9294 58.7606 31.7328 59.5641C32.5363 60.3675 33.6256 60.8194 34.7619 60.8207H55.7143C56.8506 60.8194 57.9399 60.3675 58.7434 59.5641C59.5468 58.7606 59.9988 57.6712 60 56.535V35.5826C59.9988 34.4463 59.5468 33.357 58.7434 32.5535C57.9399 31.75 56.8506 31.2981 55.7143 31.2969Z" fill="#1263FF"/>
<path d="M55.7143 6.5346H39.0476V5.10603C39.0464 3.96976 38.5945 2.8804 37.791 2.07694C36.9875 1.27348 35.8982 0.82155 34.7619 0.820312H25.2381C24.1018 0.82155 23.0125 1.27348 22.209 2.07694C21.4055 2.8804 20.9536 3.96976 20.9524 5.10603V6.5346H4.28571C3.14945 6.53584 2.06008 6.98776 1.25662 7.79122C0.453165 8.59468 0.00123776 9.68405 0 10.8203V48.9156C0.00123776 50.0518 0.453165 51.1412 1.25662 51.9446C2.06008 52.7481 3.14945 53.2 4.28571 53.2013H26.1905C26.5694 53.2013 26.9327 53.0508 27.2006 52.7828C27.4685 52.5149 27.619 52.1516 27.619 51.7727C27.619 51.3938 27.4685 51.0304 27.2006 50.7625C26.9327 50.4946 26.5694 50.3441 26.1905 50.3441H4.28571C3.90696 50.3437 3.54384 50.1931 3.27602 49.9252C3.0082 49.6574 2.85756 49.2943 2.85714 48.9156V37.0108H10.4762V40.3441C10.4763 40.723 10.6268 41.0863 10.8947 41.3542C11.1626 41.6221 11.5259 41.7726 11.9048 41.7727H17.619C17.9979 41.7726 18.3612 41.6221 18.6291 41.3542C18.897 41.0863 19.0475 40.723 19.0476 40.3441V37.0108H26.1905C26.5694 37.0108 26.9327 36.8603 27.2006 36.5924C27.4685 36.3245 27.619 35.9611 27.619 35.5822C27.619 35.2033 27.4685 34.84 27.2006 34.5721C26.9327 34.3042 26.5694 34.1536 26.1905 34.1536H19.0476V31.7727C19.0475 31.3938 18.897 31.0305 18.6291 30.7626C18.3612 30.4948 17.9979 30.3442 17.619 30.3441H11.9048C11.5259 30.3442 11.1626 30.4948 10.8947 30.7626C10.6268 31.0305 10.4763 31.3938 10.4762 31.7727V34.1536H2.85714V10.8203C2.85756 10.4416 3.0082 10.0784 3.27602 9.81062C3.54384 9.5428 3.90696 9.39215 4.28571 9.39174H55.7143C56.093 9.39215 56.4562 9.5428 56.724 9.81062C56.9918 10.0784 57.1424 10.4416 57.1429 10.8203V27.0108C57.1429 27.3897 57.2934 27.753 57.5613 28.0209C57.8292 28.2888 58.1925 28.4394 58.5714 28.4394C58.9503 28.4394 59.3137 28.2888 59.5816 28.0209C59.8495 27.753 60 27.3897 60 27.0108V10.8203C59.9988 9.68405 59.5468 8.59468 58.7434 7.79122C57.9399 6.98776 56.8505 6.53584 55.7143 6.5346ZM13.3333 33.2013H16.1905V38.9156H13.3333V33.2013ZM23.8095 5.10603C23.8099 4.72727 23.9606 4.36415 24.2284 4.09633C24.4962 3.82851 24.8593 3.67787 25.2381 3.67746H34.7619C35.1407 3.67787 35.5038 3.82851 35.7716 4.09633C36.0394 4.36415 36.1901 4.72727 36.1905 5.10603V6.5346H23.8095V5.10603Z" fill="#060E28"/>
<path d="M46.6667 17.4872C46.6666 17.1083 46.5161 16.745 46.2482 16.4771C45.9803 16.2092 45.617 16.0587 45.2381 16.0586H14.7619C14.3831 16.0586 14.0197 16.2091 13.7518 16.477C13.4839 16.7449 13.3334 17.1083 13.3334 17.4872C13.3334 17.866 13.4839 18.2294 13.7518 18.4973C14.0197 18.7652 14.3831 18.9157 14.7619 18.9157H45.2381C45.617 18.9156 45.9803 18.7651 46.2482 18.4972C46.5161 18.2293 46.6666 17.866 46.6667 17.4872Z" fill="#060E28"/>
</svg>
