<svg width="60" height="61" viewBox="0 0 60 61" fill="none" xmlns="http://www.w3.org/2000/svg">
<path d="M26.235 6.60449C22.1902 6.60449 18.2362 7.80393 14.873 10.0511C11.5098 12.2983 8.88858 15.4923 7.34069 19.2293C5.7928 22.9662 5.3878 27.0782 6.17691 31.0454C6.96601 35.0125 8.91379 38.6565 11.7739 41.5166C14.6341 44.3768 18.2781 46.3245 22.2452 47.1137C26.2123 47.9028 30.3243 47.4978 34.0613 45.9499C37.7982 44.402 40.9923 41.7807 43.2394 38.4176C45.4866 35.0544 46.6861 31.1004 46.6861 27.0556C46.68 21.6334 44.5235 16.4351 40.6894 12.6011C36.8554 8.76711 31.6571 6.61052 26.235 6.60449ZM26.235 44.653C22.7546 44.653 19.3523 43.6209 16.4584 41.6873C13.5645 39.7537 11.309 37.0053 9.97711 33.7898C8.6452 30.5743 8.29671 27.036 8.97571 23.6225C9.65471 20.2089 11.3307 17.0733 13.7917 14.6123C16.2528 12.1513 19.3884 10.4753 22.8019 9.79626C26.2155 9.11726 29.7537 9.46575 32.9693 10.7977C36.1848 12.1296 38.9331 14.3851 40.8667 17.2789C42.8004 20.1728 43.8324 23.5751 43.8324 27.0556C43.8272 31.7211 41.9716 36.194 38.6725 39.4931C35.3735 42.7921 30.9005 44.6478 26.235 44.653Z" fill="#060E28"/>
<path d="M48.1759 41.2713C51.6976 35.841 53.0844 29.2992 52.069 22.9071C51.0536 16.5149 47.7078 10.7249 42.6766 6.65332C37.6454 2.58171 31.2851 0.516725 24.8217 0.85645C18.3583 1.19618 12.2495 3.91656 7.67286 8.49317C3.09625 13.0698 0.375863 19.1786 0.0361376 25.642C-0.303588 32.1054 1.7614 38.4657 5.83301 43.4969C9.90462 48.5281 15.6946 51.8739 22.0868 52.8893C28.4789 53.9048 35.0207 52.5179 40.451 48.9962L50.6786 59.2238C51.7033 60.2467 53.0922 60.8209 54.5401 60.8203C55.9879 60.8197 57.3763 60.2442 58.4001 59.2204C59.4239 58.1966 59.9994 56.8083 60 55.3604C60.0006 53.9125 59.4264 52.5236 58.4035 51.4989L48.1759 41.2713ZM2.93036 27.0554C2.93036 22.4461 4.29716 17.9404 6.85791 14.108C9.41866 10.2755 13.0584 7.28851 17.3167 5.52464C21.5751 3.76076 26.2609 3.29925 30.7816 4.19846C35.3022 5.09768 39.4548 7.31724 42.714 10.5765C45.9732 13.8357 48.1928 17.9882 49.092 22.5089C49.9912 27.0295 49.5297 31.7153 47.7658 35.9737C46.0019 40.2321 43.0149 43.8718 39.1825 46.4325C35.35 48.9933 30.8443 50.3601 26.2351 50.3601C20.0564 50.3532 14.1327 47.8957 9.76371 43.5267C5.39471 39.1577 2.93721 33.2341 2.93036 27.0554ZM46.4748 43.6055L48.949 46.0796L45.2593 49.7693L42.7852 47.2952C44.134 46.1902 45.3699 44.9543 46.4748 43.6055ZM54.5411 57.9698C54.1983 57.9707 53.8589 57.9037 53.5422 57.7727C53.2255 57.6416 52.938 57.4491 52.6962 57.2062L47.2769 51.7869L50.9666 48.0972L56.3859 53.5165C56.7506 53.8814 56.9989 54.3463 57.0994 54.8523C57.2 55.3583 57.1483 55.8827 56.9508 56.3593C56.7534 56.8359 56.4191 57.2433 55.9901 57.53C55.5612 57.8166 55.0569 57.9697 54.5411 57.9698Z" fill="#060E28"/>
<path d="M26.235 29.4338C27.5483 29.4338 28.613 28.3691 28.613 27.0558C28.613 25.7424 27.5483 24.6777 26.235 24.6777C24.9216 24.6777 23.8569 25.7424 23.8569 27.0558C23.8569 28.3691 24.9216 29.4338 26.235 29.4338Z" fill="#1263FF"/>
<path d="M21.7642 37.1991L23.2458 40.9018C23.3515 41.1667 23.5342 41.3938 23.7704 41.5538C24.0065 41.7137 24.2852 41.7992 24.5704 41.7991H27.8997C28.1849 41.7992 28.4636 41.7137 28.6997 41.5538C28.9359 41.3938 29.1186 41.1667 29.2243 40.9018L30.7059 37.1991L32.7848 35.9989L36.7318 36.5674C37.0141 36.6092 37.3024 36.5649 37.5591 36.4403C37.8158 36.3157 38.029 36.1165 38.1707 35.8689L39.8353 32.9855C39.9781 32.7386 40.0435 32.4545 40.0231 32.1701C40.0027 31.8856 39.8975 31.6137 39.7211 31.3896L37.2557 28.2555V25.8551L39.7211 22.721C39.8975 22.4969 40.0027 22.2251 40.0231 21.9406C40.0435 21.6561 39.9781 21.372 39.8353 21.1251L38.1707 18.2417C38.0288 17.9942 37.8156 17.7952 37.559 17.6706C37.3023 17.546 37.0141 17.5016 36.7318 17.5432L32.7848 18.1117L30.7059 16.9115L29.2243 13.2089C29.1186 12.9439 28.9359 12.7168 28.6997 12.5569C28.4636 12.3969 28.1849 12.3114 27.8997 12.3115H24.5704C24.2852 12.3114 24.0065 12.3969 23.7704 12.5569C23.5342 12.7168 23.3515 12.9439 23.2458 13.2089L21.7642 16.9115L19.6852 18.1117L15.7383 17.5432C15.456 17.5017 15.1678 17.5461 14.9112 17.6707C14.6545 17.7953 14.4414 17.9943 14.2994 18.2417L12.6348 21.1251C12.492 21.372 12.4266 21.6561 12.447 21.9406C12.4674 22.2251 12.5726 22.4969 12.749 22.721L15.2144 25.8551V28.2555L12.749 31.3896C12.5726 31.6137 12.4674 31.8856 12.447 32.1701C12.4266 32.4545 12.492 32.7386 12.6348 32.9855L14.2994 35.8689C14.4412 36.1165 14.6544 36.3156 14.911 36.4402C15.1677 36.5648 15.456 36.6091 15.7383 36.5674L19.6852 35.9989L21.7642 37.1991ZM26.235 21.8236C27.2698 21.8236 28.2813 22.1305 29.1416 22.7053C30.0019 23.2802 30.6725 24.0973 31.0685 25.0532C31.4644 26.0092 31.568 27.0611 31.3662 28.076C31.1643 29.0908 30.6661 30.023 29.9344 30.7547C29.2027 31.4863 28.2705 31.9846 27.2557 32.1865C26.2408 32.3883 25.1889 32.2847 24.233 31.8887C23.277 31.4928 22.4599 30.8222 21.8851 29.9619C21.3102 29.1015 21.0034 28.09 21.0034 27.0553C21.0051 25.6683 21.5568 24.3386 22.5376 23.3579C23.5184 22.3771 24.848 21.8254 26.235 21.8236Z" fill="#1263FF"/>
</svg>
