<svg width="60" height="61" viewBox="0 0 60 61" fill="none" xmlns="http://www.w3.org/2000/svg">
<path d="M1.42857 56.0584H4.7619V59.3917C4.7619 59.7706 4.91241 60.134 5.18032 60.4019C5.44823 60.6698 5.8116 60.8203 6.19048 60.8203C6.56936 60.8203 6.93272 60.6698 7.20063 60.4019C7.46854 60.134 7.61905 59.7706 7.61905 59.3917V56.0584H58.5714C58.9503 56.0584 59.3137 55.9079 59.5816 55.64C59.8495 55.3721 60 55.0087 60 54.6298C60 54.251 59.8495 53.8876 59.5816 53.6197C59.3137 53.3518 58.9503 53.2013 58.5714 53.2013H56.1905V30.8203C56.1894 29.9366 55.8379 29.0894 55.213 28.4645C54.5881 27.8396 53.7409 27.488 52.8571 27.487H46.1905C45.3068 27.488 44.4595 27.8396 43.8346 28.4645C43.2097 29.0894 42.8582 29.9366 42.8571 30.8203V53.2013H40V38.4394C39.9989 37.5556 39.6474 36.7084 39.0225 36.0835C38.3976 35.4586 37.5504 35.1071 36.6667 35.106H30C29.1163 35.1071 28.269 35.4586 27.6442 36.0835C27.0193 36.7084 26.6677 37.5556 26.6667 38.4394V53.2013H23.8095V44.1536C23.8085 43.2699 23.4569 42.4227 22.832 41.7978C22.2071 41.1729 21.3599 40.8214 20.4762 40.8203H13.8095C12.9258 40.8214 12.0786 41.1729 11.4537 41.7978C10.8288 42.4227 10.4773 43.2699 10.4762 44.1536V53.2013H7.61905V2.24888C7.61905 1.87 7.46854 1.50664 7.20063 1.23873C6.93272 0.970822 6.56936 0.820313 6.19048 0.820312C5.8116 0.820313 5.44823 0.970822 5.18032 1.23873C4.91241 1.50664 4.7619 1.87 4.7619 2.24888V53.2013H1.42857C1.04969 53.2013 0.686328 53.3518 0.418419 53.6197C0.15051 53.8876 0 54.251 0 54.6298C0 55.0087 0.15051 55.3721 0.418419 55.64C0.686328 55.9079 1.04969 56.0584 1.42857 56.0584ZM45.7143 30.8203C45.7145 30.6941 45.7647 30.573 45.8539 30.4838C45.9432 30.3945 46.0642 30.3443 46.1905 30.3441H52.8571C52.9834 30.3443 53.1044 30.3945 53.1937 30.4838C53.2829 30.573 53.3332 30.6941 53.3333 30.8203V53.2013H45.7143V30.8203ZM29.5238 38.4394C29.524 38.3131 29.5742 38.1921 29.6635 38.1028C29.7527 38.0136 29.8738 37.9633 30 37.9632H36.6667C36.7929 37.9633 36.9139 38.0136 37.0032 38.1028C37.0925 38.1921 37.1427 38.3131 37.1429 38.4394V53.2013H29.5238V38.4394ZM13.3333 44.1536C13.3335 44.0274 13.3837 43.9064 13.473 43.8171C13.5623 43.7278 13.6833 43.6776 13.8095 43.6775H20.4762C20.6024 43.6776 20.7235 43.7278 20.8127 43.8171C20.902 43.9064 20.9522 44.0274 20.9524 44.1536V53.2013H13.3333V44.1536Z" fill="#060E28"/>
<path d="M56.6666 24.6298H31.9047C31.5332 24.6259 31.165 24.5583 30.8162 24.4301L38.8067 15.5515L43.4933 18.6756C43.7788 18.866 44.1234 18.9472 44.4639 18.9045C44.8045 18.8617 45.1182 18.6977 45.3478 18.4426L51.4286 11.6863V14.6298C51.4286 15.0087 51.5791 15.3721 51.847 15.64C52.1149 15.9079 52.4782 16.0584 52.8571 16.0584C53.236 16.0584 53.5994 15.9079 53.8673 15.64C54.1352 15.3721 54.2857 15.0087 54.2857 14.6298V7.96317C54.2832 7.58505 54.1319 7.22313 53.8645 6.95575C53.5972 6.68838 53.2352 6.53707 52.8571 6.5346H46.1905C45.8116 6.5346 45.4482 6.68511 45.1803 6.95302C44.9124 7.22093 44.7619 7.58429 44.7619 7.96317C44.7619 8.34205 44.9124 8.70541 45.1803 8.97332C45.4482 9.24123 45.8116 9.39174 46.1905 9.39174H49.6493L44.0504 15.6129L39.3638 12.4889C39.0783 12.2983 38.7337 12.217 38.3931 12.2598C38.0525 12.3026 37.7388 12.4666 37.5093 12.7219L28.7812 22.4197C28.6459 22.0605 28.5749 21.6803 28.5714 21.2965V4.15365C28.5725 3.26992 28.924 2.42269 29.5489 1.7978C30.1738 1.17291 31.021 0.821381 31.9047 0.820312H56.6666C57.5504 0.821381 58.3976 1.17291 59.0225 1.7978C59.6474 2.42269 59.9989 3.26992 60 4.15365V21.2965C59.9989 22.1802 59.6474 23.0275 59.0225 23.6523C58.3976 24.2772 57.5504 24.6288 56.6666 24.6298Z" fill="#1263FF"/>
</svg>
