<svg width="60" height="61" viewBox="0 0 60 61" fill="none" xmlns="http://www.w3.org/2000/svg">
<path d="M31.321 46.4014V51.5216C31.757 51.2936 32.1345 50.9683 32.4245 50.5708C32.7144 50.1733 32.9089 49.7144 32.9928 49.2297C33.1081 48.6354 33.0017 48.0194 32.6936 47.4983C32.3856 46.9771 31.8973 46.5869 31.321 46.4014Z" fill="#1263FF"/>
<path d="M27.3413 39.4246C27.2438 39.8171 27.2446 40.2276 27.3437 40.6197C27.4427 41.0118 27.6369 41.3734 27.9091 41.6725C28.0868 41.8083 28.272 41.9337 28.4639 42.0483V37.9248C28.1612 38.0536 27.8979 38.2602 27.7008 38.5236C27.5036 38.787 27.3796 39.0978 27.3413 39.4246Z" fill="#1263FF"/>
<path d="M29.997 29.3916C26.889 29.3916 23.8508 30.3132 21.2666 32.0399C18.6824 33.7666 16.6683 36.2209 15.4789 39.0923C14.2895 41.9637 13.9783 45.1233 14.5847 48.1716C15.191 51.2199 16.6876 54.0199 18.8853 56.2176C21.083 58.4152 23.883 59.9119 26.9313 60.5182C29.9796 61.1246 33.1392 60.8134 36.0106 59.624C38.882 58.4346 41.3362 56.4205 43.063 53.8363C44.7897 51.2521 45.7113 48.2139 45.7113 45.1059C45.7065 40.9397 44.0494 36.9455 41.1034 33.9995C38.1574 31.0535 34.1632 29.3964 29.997 29.3916ZM35.8099 49.7032C35.6102 50.8588 35.08 51.9318 34.2833 52.7924C33.4867 53.653 32.4577 54.2643 31.3209 54.5525V55.7123C31.3209 56.0912 31.1704 56.4545 30.9025 56.7224C30.6346 56.9903 30.2713 57.1409 29.8924 57.1409C29.5135 57.1409 29.1501 56.9903 28.8822 56.7224C28.6143 56.4545 28.4638 56.0912 28.4638 55.7123V54.6904C27.1227 54.5879 25.8366 54.1145 24.7491 53.323C24.5919 53.2204 24.4564 53.0878 24.3505 52.9328C24.2445 52.7778 24.1702 52.6035 24.1317 52.4197C24.0931 52.236 24.0912 52.0464 24.126 51.8619C24.1608 51.6774 24.2317 51.5016 24.3345 51.3445C24.4373 51.1874 24.5701 51.0522 24.7252 50.9464C24.8803 50.8407 25.0548 50.7666 25.2386 50.7283C25.4224 50.6901 25.612 50.6884 25.7964 50.7235C25.9808 50.7586 26.1566 50.8297 26.3135 50.9327C26.944 51.405 27.6837 51.71 28.4638 51.8192V45.2659C27.6404 44.9112 26.8622 44.4597 26.1456 43.921C25.4555 43.3013 24.9425 42.5094 24.6593 41.6262C24.376 40.743 24.3327 39.8004 24.5338 38.8949C24.6761 37.9055 25.1365 36.9891 25.8455 36.2844C26.5544 35.5797 27.4735 35.1248 28.4638 34.9886V34.4995C28.4638 34.1206 28.6143 33.7572 28.8822 33.4893C29.1501 33.2214 29.5135 33.0709 29.8924 33.0709C30.2713 33.0709 30.6346 33.2214 30.9025 33.4893C31.1704 33.7572 31.3209 34.1206 31.3209 34.4995V35.1692C32.4042 35.4907 33.4053 36.042 34.2562 36.7855C34.5328 37.044 34.6955 37.4016 34.7087 37.7799C34.7218 38.1582 34.5843 38.5263 34.3263 38.8033C34.0683 39.0803 33.7109 39.2436 33.3326 39.2573C32.9543 39.271 32.586 39.134 32.3087 38.8764C32.006 38.6222 31.6745 38.4047 31.3209 38.2281V43.3519C31.6093 43.4594 31.8976 43.5644 32.1803 43.6643C33.4232 44.0466 34.4812 44.8744 35.1511 45.989C35.8209 47.1035 36.0556 48.4262 35.8099 49.7032Z" fill="#1263FF"/>
<path d="M44.3749 15.5399L31.0416 1.25419C30.9046 1.11667 30.7418 1.00755 30.5626 0.933097C30.3834 0.858641 30.1912 0.820312 29.9971 0.820312C29.803 0.820312 29.6108 0.858641 29.4316 0.933097C29.2524 1.00755 29.0896 1.11667 28.9526 1.25419L15.6193 15.5399C15.43 15.7436 15.3042 15.9981 15.2573 16.2722C15.2104 16.5463 15.2445 16.8282 15.3553 17.0832C15.4662 17.3383 15.649 17.5555 15.8814 17.7082C16.1138 17.861 16.3857 17.9426 16.6638 17.9432H21.9019V26.9908C21.9019 27.3697 22.0524 27.733 22.3203 28.0009C22.5882 28.2689 22.9515 28.4194 23.3304 28.4194C23.7093 28.4194 24.0727 28.2689 24.3406 28.0009C24.6085 27.733 24.759 27.3697 24.759 26.9908V16.5146C24.759 16.1357 24.6085 15.7724 24.3406 15.5045C24.0727 15.2366 23.7093 15.086 23.3304 15.086H19.9511L29.9971 4.32246L40.0431 15.086H36.6638C36.2849 15.086 35.9215 15.2366 35.6536 15.5045C35.3857 15.7724 35.2352 16.1357 35.2352 16.5146V26.9908C35.2352 27.3697 35.3857 27.733 35.6536 28.0009C35.9215 28.2689 36.2849 28.4194 36.6638 28.4194C37.0426 28.4194 37.406 28.2689 37.6739 28.0009C37.9418 27.733 38.0923 27.3697 38.0923 26.9908V17.9432H43.3304C43.6085 17.9426 43.8804 17.861 44.1128 17.7082C44.3453 17.5555 44.5281 17.3383 44.6389 17.0833C44.7498 16.8282 44.7838 16.5463 44.7369 16.2722C44.69 15.9981 44.5642 15.7436 44.3749 15.5399Z" fill="#060E28"/>
<path d="M59.6115 32.2624L49.3553 21.2737C49.2184 21.1362 49.0556 21.0271 48.8764 20.9526C48.6971 20.8782 48.505 20.8398 48.3109 20.8398C48.1168 20.8398 47.9246 20.8782 47.7454 20.9526C47.5662 21.0271 47.4034 21.1362 47.2664 21.2737L40.3798 28.6519C40.1213 28.9289 39.9834 29.2972 39.9965 29.6759C40.0095 30.0546 40.1725 30.4125 40.4495 30.671C40.7265 30.9295 41.0949 31.0674 41.4735 31.0543C41.8522 31.0413 42.2102 30.8783 42.4687 30.6013L48.3108 24.342L55.2798 31.8085H51.9004C51.5215 31.8085 51.1582 31.959 50.8903 32.2269C50.6224 32.4948 50.4719 32.8582 50.4718 33.2371V59.3913C50.4718 59.7702 50.6223 60.1335 50.8903 60.4014C51.1582 60.6693 51.5215 60.8198 51.9004 60.8198C52.2793 60.8198 52.6427 60.6693 52.9106 60.4014C53.1785 60.1335 53.329 59.7702 53.329 59.3913V34.6656H58.5671C58.8452 34.6651 59.1171 34.5835 59.3495 34.4307C59.5819 34.278 59.7647 34.0608 59.8756 33.8057C59.9864 33.5507 60.0205 33.2688 59.9736 32.9947C59.9267 32.7206 59.8009 32.4661 59.6115 32.2624Z" fill="#060E28"/>
<path d="M12.7276 21.2737C12.5907 21.1362 12.4279 21.0271 12.2487 20.9526C12.0694 20.8782 11.8773 20.8398 11.6832 20.8398C11.4891 20.8398 11.2969 20.8782 11.1177 20.9526C10.9384 21.0271 10.7757 21.1362 10.6387 21.2737L0.382484 32.2624C0.193166 32.4661 0.06736 32.7206 0.0204714 32.9947C-0.0264173 33.2688 0.00764642 33.5506 0.118491 33.8057C0.229336 34.0607 0.412151 34.2779 0.64455 34.4307C0.876949 34.5834 1.14884 34.6651 1.42694 34.6656H6.66504V59.3913C6.66504 59.7702 6.81555 60.1335 7.08345 60.4014C7.35136 60.6693 7.71473 60.8198 8.09361 60.8198C8.47249 60.8198 8.83585 60.6693 9.10376 60.4014C9.37167 60.1335 9.52218 59.7702 9.52218 59.3913V33.2371C9.52216 32.8582 9.37164 32.4948 9.10374 32.2269C8.83583 31.959 8.47248 31.8085 8.09361 31.8085H4.71424L11.6832 24.342L17.5253 30.6013C17.6533 30.7384 17.8071 30.849 17.9778 30.9268C18.1486 31.0045 18.333 31.0479 18.5205 31.0543C18.708 31.0608 18.8949 31.0303 19.0706 30.9645C19.2463 30.8988 19.4073 30.799 19.5445 30.671C19.6817 30.543 19.7923 30.3893 19.87 30.2185C19.9477 30.0478 19.9911 29.8634 19.9976 29.6759C20.004 29.4884 19.9735 29.3015 19.9078 29.1258C19.842 28.9501 19.7423 28.789 19.6143 28.6519L12.7276 21.2737Z" fill="#060E28"/>
</svg>
