<svg width="55" height="61" viewBox="0 0 55 61" fill="none" xmlns="http://www.w3.org/2000/svg">
<path d="M15.4682 38.2627C17.2192 35.9239 19.6712 34.2054 22.467 33.3574C20.9156 31.5171 20.0565 29.1923 20.0382 26.7853C19.9945 25.84 20.1485 24.896 20.4904 24.0137C20.8323 23.1313 21.3545 22.3299 22.0237 21.6609C22.6929 20.9918 23.4943 20.4697 24.3767 20.1279C25.2591 19.7861 26.2032 19.6322 27.1484 19.676C28.0939 19.6322 29.0381 19.7862 29.9206 20.128C30.8032 20.4699 31.6047 20.9922 32.2739 21.6615C32.9431 22.3308 33.4653 23.1324 33.8071 24.015C34.1488 24.8976 34.3026 25.8418 34.2587 26.7872C34.2404 29.1942 33.3813 31.519 31.8299 33.3593C33.8964 33.9831 35.7854 35.0882 37.3418 36.5838C38.8982 38.0795 40.0776 39.923 40.7832 41.9631C42.895 39.3813 44.2307 36.2532 44.6351 32.9423C45.0394 29.6314 44.4957 26.2738 43.0672 23.2597C41.6386 20.2456 39.384 17.6989 36.5653 15.9156C33.7466 14.1322 30.4796 13.1855 27.1442 13.1855C23.8087 13.1855 20.5417 14.1322 17.723 15.9156C14.9043 17.6989 12.6497 20.2456 11.2212 23.2597C9.79265 26.2738 9.24895 29.6314 9.65326 32.9423C10.0576 36.2532 11.3933 39.3813 13.5052 41.9631C13.9651 40.6359 14.6273 39.3877 15.4682 38.2627Z" fill="#1263FF"/>
<path d="M36.5532 39.9915C35.6576 38.7874 34.5218 37.7824 33.2177 37.0398C31.9137 36.2973 30.4697 35.8335 28.9772 35.6777H25.3197C23.8311 35.8335 22.3909 36.2955 21.0896 37.0348C19.7882 37.774 18.6539 38.7746 17.7579 39.9734C16.7992 41.2576 16.1425 42.7416 15.8368 44.3148C19.0031 46.9811 23.0095 48.4433 27.1489 48.4433C31.2883 48.4433 35.2947 46.9811 38.461 44.3148C38.157 42.749 37.505 41.2715 36.5532 39.9915Z" fill="#1263FF"/>
<path d="M31.4013 26.7877C31.4386 26.2195 31.3541 25.6499 31.1536 25.117C30.9531 24.5841 30.6411 24.1001 30.2385 23.6974C29.8359 23.2947 29.352 22.9826 28.8191 22.782C28.2862 22.5813 27.7167 22.4968 27.1485 22.5339C26.5803 22.4968 26.0107 22.5813 25.4778 22.782C24.945 22.9826 24.461 23.2947 24.0585 23.6974C23.6559 24.1001 23.3439 24.5841 23.1434 25.117C22.9428 25.6499 22.8584 26.2195 22.8957 26.7877C22.8957 29.8356 25.0025 32.8188 27.1485 32.8188C29.2944 32.8188 31.4013 29.8308 31.4013 26.7877Z" fill="#1263FF"/>
<path d="M54.294 30.8203C54.297 27.5768 53.7163 24.3591 52.5796 21.3213C53.2378 20.5776 53.6453 19.6457 53.7445 18.6576C53.8437 17.6695 53.6294 16.6752 53.1321 15.8156C52.6349 14.956 51.8797 14.2746 50.9737 13.868C50.0677 13.4614 49.0567 13.3501 48.0839 13.55C43.9258 8.50574 38.085 5.13394 31.6375 4.05569C31.3234 3.11355 30.7208 2.29412 29.9152 1.71345C29.1095 1.13278 28.1416 0.820312 27.1484 0.820312C26.1553 0.820313 25.1874 1.13278 24.3817 1.71345C23.576 2.29412 22.9735 3.11355 22.6594 4.05569C16.2125 5.13533 10.3727 8.50813 6.21584 13.5528C5.24336 13.353 4.23264 13.464 3.32676 13.8703C2.42088 14.2765 1.66573 14.9574 1.16821 15.8166C0.670691 16.6757 0.456006 17.6696 0.554546 18.6575C0.653086 19.6454 1.05986 20.5773 1.71729 21.3213C-0.572429 27.447 -0.572429 34.1936 1.71729 40.3194C1.05909 41.063 0.651549 41.9949 0.552379 42.983C0.453209 43.9711 0.667439 44.9654 1.16473 45.825C1.66201 46.6847 2.41715 47.366 3.32318 47.7726C4.22921 48.1793 5.24021 48.2905 6.21298 48.0906C10.371 53.1349 16.2118 56.5067 22.6594 57.5849C22.9735 58.5271 23.576 59.3465 24.3817 59.9272C25.1874 60.5079 26.1553 60.8203 27.1484 60.8203C28.1416 60.8203 29.1095 60.5079 29.9152 59.9272C30.7208 59.3465 31.3234 58.5271 31.6375 57.5849C38.0844 56.5053 43.9242 53.1325 48.081 48.0878C49.0538 48.2877 50.0648 48.1764 50.9708 47.7698C51.8769 47.3632 52.632 46.6818 53.1293 45.8222C53.6266 44.9626 53.8408 43.9683 53.7416 42.9802C53.6425 41.992 53.2349 41.0602 52.5767 40.3165C53.714 37.2797 54.2957 34.0631 54.294 30.8203ZM48.0553 16.5503C48.3816 16.3619 48.7564 16.2745 49.1324 16.2991C49.5084 16.3238 49.8686 16.4593 50.1675 16.6887C50.4664 16.918 50.6906 17.2309 50.8117 17.5876C50.9328 17.9444 50.9454 18.3291 50.8479 18.693C50.7504 19.0569 50.5472 19.3838 50.2639 19.6322C49.9806 19.8806 49.6301 20.0395 49.2565 20.0887C48.883 20.1378 48.5032 20.0751 48.1653 19.9085C47.8274 19.7419 47.5465 19.4788 47.3581 19.1525C47.1055 18.7149 47.0371 18.195 47.1678 17.707C47.2986 17.219 47.6178 16.8029 48.0553 16.5503ZM27.1484 3.6747C27.5252 3.6747 27.8935 3.78643 28.2068 3.99574C28.52 4.20506 28.7642 4.50258 28.9084 4.85066C29.0526 5.19875 29.0903 5.58177 29.0168 5.9513C28.9433 6.32082 28.7619 6.66025 28.4954 6.92666C28.229 7.19308 27.8896 7.37451 27.5201 7.44801C27.1506 7.52151 26.7675 7.48379 26.4194 7.33961C26.0714 7.19543 25.7738 6.95126 25.5645 6.63799C25.3552 6.32473 25.2435 5.95642 25.2435 5.57966C25.2435 5.07443 25.4442 4.5899 25.8014 4.23265C26.1587 3.8754 26.6432 3.6747 27.1484 3.6747ZM3.63939 17.2475C3.82777 16.9212 4.10867 16.6581 4.44659 16.4915C4.7845 16.3248 5.16424 16.2621 5.53778 16.3113C5.91133 16.3605 6.2619 16.5193 6.54517 16.7678C6.82844 17.0162 7.03168 17.343 7.12919 17.707C7.2267 18.0709 7.2141 18.4556 7.09298 18.8123C6.97187 19.1691 6.74768 19.4819 6.44876 19.7113C6.14985 19.9407 5.78963 20.0762 5.41367 20.1009C5.03771 20.1255 4.66288 20.0381 4.3366 19.8497C3.89908 19.5971 3.57983 19.181 3.44908 18.693C3.31833 18.205 3.38678 17.685 3.63939 17.2475ZM6.24155 45.0903C5.91527 45.2787 5.54045 45.3661 5.16448 45.3415C4.78852 45.3169 4.42831 45.1813 4.12939 44.952C3.83048 44.7226 3.60629 44.4098 3.48517 44.053C3.36406 43.6962 3.35146 43.3115 3.44897 42.9476C3.54648 42.5837 3.74972 42.2568 4.03298 42.0084C4.31625 41.76 4.66682 41.6011 5.04037 41.552C5.41391 41.5028 5.79365 41.5655 6.13157 41.7321C6.46948 41.8988 6.75039 42.1619 6.93877 42.4882C7.19137 42.9257 7.25982 43.4456 7.12907 43.9336C6.99832 44.4216 6.67907 44.8377 6.24155 45.0903ZM27.1484 57.9659C26.7717 57.9659 26.4034 57.8542 26.0901 57.6449C25.7768 57.4356 25.5327 57.1381 25.3885 56.79C25.2443 56.4419 25.2066 56.0589 25.2801 55.6893C25.3536 55.3198 25.535 54.9804 25.8014 54.714C26.0678 54.4475 26.4073 54.2661 26.7768 54.1926C27.1463 54.1191 27.5293 54.1568 27.8774 54.301C28.2255 54.4452 28.523 54.6894 28.7323 55.0026C28.9417 55.3159 29.0534 55.6842 29.0534 56.061C29.0534 56.5662 28.8527 57.0507 28.4954 57.408C28.1382 57.7652 27.6537 57.9659 27.1484 57.9659ZM50.6575 44.3931C50.4691 44.7194 50.1882 44.9825 49.8503 45.1492C49.5124 45.3158 49.1326 45.3785 48.7591 45.3293C48.3855 45.2801 48.035 45.1213 47.7517 44.8729C47.4684 44.6244 47.2652 44.2976 47.1677 43.9337C47.0702 43.5697 47.0828 43.1851 47.2039 42.8283C47.325 42.4715 47.5492 42.1587 47.8481 41.9293C48.147 41.7 48.5072 41.5644 48.8832 41.5398C49.2592 41.5151 49.634 41.6026 49.9603 41.791C50.3978 42.0436 50.717 42.4596 50.8478 42.9476C50.9785 43.4356 50.9101 43.9556 50.6575 44.3931ZM50.0736 38.8211C49.0841 38.5862 48.0452 38.6763 47.111 39.0783C46.1767 39.4802 45.3969 40.1725 44.8871 41.0526C44.3772 41.9326 44.1646 42.9535 44.2806 43.9639C44.3966 44.9743 44.8352 45.9204 45.5313 46.6619C41.9517 50.8203 37.0691 53.6435 31.6794 54.6713C31.3873 53.6966 30.7887 52.8422 29.9725 52.2347C29.1563 51.6272 28.1659 51.2991 27.1484 51.2991C26.131 51.2991 25.1406 51.6272 24.3244 52.2347C23.5082 52.8422 22.9096 53.6966 22.6175 54.6713C17.2278 53.6435 12.3452 50.8203 8.76562 46.6619C9.46167 45.9204 9.90022 44.9743 10.0163 43.9639C10.1323 42.9535 9.91965 41.9326 9.40983 41.0526C8.9 40.1725 8.12016 39.4802 7.18592 39.0783C6.25168 38.6763 5.21278 38.5862 4.22325 38.8211C2.40634 33.642 2.40634 27.9987 4.22325 22.8195C5.21278 23.0545 6.25168 22.9643 7.18592 22.5623C8.12016 22.1604 8.9 21.4681 9.40983 20.5881C9.91965 19.708 10.1323 18.6871 10.0163 17.6767C9.90022 16.6663 9.46167 15.7202 8.76562 14.9787C12.3452 10.8203 17.2278 7.99713 22.6175 6.96932C22.9096 7.94398 23.5082 8.79847 24.3244 9.40596C25.1406 10.0135 26.131 10.3415 27.1484 10.3415C28.1659 10.3415 29.1563 10.0135 29.9725 9.40596C30.7887 8.79847 31.3873 7.94398 31.6794 6.96932C37.0691 7.99713 41.9517 10.8203 45.5313 14.9787C44.8352 15.7202 44.3966 16.6663 44.2806 17.6767C44.1646 18.6871 44.3772 19.708 44.8871 20.5881C45.3969 21.4681 46.1767 22.1604 47.111 22.5623C48.0452 22.9643 49.0841 23.0545 50.0736 22.8195C51.8905 27.9987 51.8905 33.642 50.0736 38.8211Z" fill="#060E28"/>
</svg>
