<svg width="60" height="61" viewBox="0 0 60 61" fill="none" xmlns="http://www.w3.org/2000/svg">
<path d="M44.2867 0.820323C41.5328 0.817105 38.8266 1.53845 36.4397 2.91194C34.0529 4.28542 32.0694 6.26269 30.6884 8.64522C29.3074 11.0278 28.5775 13.7317 28.5721 16.4855C28.5666 19.2393 29.2857 21.9461 30.6573 24.3341L28.6455 30.3694C28.562 30.6211 28.5501 30.891 28.6112 31.149C28.6723 31.4071 28.804 31.643 28.9915 31.8305C29.179 32.0179 29.415 32.1496 29.6731 32.2106C29.9311 32.2716 30.201 32.2597 30.4527 32.1761L36.4879 30.1644C38.5773 31.3602 40.9135 32.0598 43.3163 32.2093C45.719 32.3587 48.1239 31.954 50.3454 31.0263C52.5668 30.0985 54.5453 28.6727 56.1281 26.8588C57.711 25.045 58.8557 22.8916 59.4741 20.565C60.0924 18.2384 60.1678 15.8008 59.6943 13.4404C59.2209 11.0801 58.2113 8.86011 56.7436 6.95193C55.2758 5.04376 53.3891 3.49843 51.2293 2.43527C49.0694 1.37212 46.694 0.819581 44.2867 0.820323ZM50.2977 17.2288L45.5357 25.8004C45.3504 26.129 45.0425 26.371 44.6793 26.4735C44.3162 26.576 43.9272 26.5307 43.5974 26.3475C43.2675 26.1643 43.0235 25.858 42.9186 25.4955C42.8137 25.133 42.8565 24.7438 43.0376 24.4127L46.6211 17.9635H39.5247C39.276 17.9633 39.0316 17.8982 38.8158 17.7746C38.6 17.6511 38.4201 17.4733 38.294 17.259C38.1679 17.0447 38.0998 16.8012 38.0966 16.5525C38.0934 16.3038 38.155 16.0586 38.2756 15.8411L43.0376 7.26948C43.2229 6.94081 43.5308 6.69881 43.894 6.59631C44.2571 6.4938 44.6461 6.53911 44.976 6.72234C45.3058 6.90558 45.5498 7.21186 45.6547 7.57434C45.7596 7.93682 45.7168 8.32607 45.5357 8.65713L41.9522 15.1063H49.0487C49.2973 15.1066 49.5417 15.1717 49.7575 15.2952C49.9733 15.4188 50.1532 15.5965 50.2793 15.8108C50.4055 16.0252 50.4735 16.2687 50.4767 16.5174C50.48 16.766 50.4183 17.0112 50.2977 17.2288Z" fill="#1263FF"/>
<path d="M35.715 33.5096C35.3361 33.5097 34.9728 33.6602 34.7048 33.9281C34.4369 34.196 34.2864 34.5594 34.2864 34.9382V57.4615L2.8572 47.858V39.4965L24.1239 32.9981C24.3033 32.9433 24.4702 32.8536 24.615 32.7343C24.7597 32.6149 24.8796 32.4683 24.9677 32.3026C25.0558 32.137 25.1104 31.9556 25.1284 31.7688C25.1464 31.5821 25.1274 31.3936 25.0726 31.2142C25.0177 31.0348 24.9281 30.8679 24.8087 30.7231C24.6894 30.5783 24.5427 30.4585 24.3771 30.3704C24.2114 30.2823 24.03 30.2277 23.8433 30.2097C23.6565 30.1917 23.4681 30.2107 23.2886 30.2655L1.01099 37.0728C0.718375 37.1622 0.462204 37.3432 0.280199 37.5892C0.0981945 37.8351 -2.60935e-05 38.133 1.00609e-08 38.439V48.9154C-3.62941e-05 49.2214 0.0981796 49.5193 0.280185 49.7653C0.462191 50.0112 0.718367 50.1923 1.01099 50.2817L2.8572 50.8458V55.7636C2.85716 56.0696 2.95538 56.3675 3.13738 56.6135C3.31939 56.8594 3.57557 57.0405 3.86819 57.1299L15.297 60.6223C15.5106 60.6874 15.7364 60.7016 15.9565 60.6636C16.1765 60.6257 16.3846 60.5368 16.564 60.404C16.7435 60.2711 16.8894 60.0981 16.99 59.8988C17.0905 59.6995 17.143 59.4793 17.1432 59.2561V55.211L35.2974 60.7581C35.511 60.8232 35.7368 60.8374 35.9569 60.7995C36.1769 60.7615 36.385 60.6726 36.5645 60.5398C36.7439 60.407 36.8898 60.2339 36.9904 60.0346C37.0909 59.8353 37.1434 59.6151 37.1436 59.3918V34.9382C37.1436 34.5594 36.9931 34.196 36.7251 33.9281C36.4572 33.6602 36.0939 33.5097 35.715 33.5096ZM14.286 57.3257L5.7144 54.7066V51.7189L14.286 54.338V57.3257Z" fill="#060E28"/>
<path d="M41.4296 45.1062H50.0012C50.3801 45.1062 50.7434 44.9557 51.0113 44.6878C51.2793 44.4199 51.4298 44.0565 51.4298 43.6776C51.4298 43.2987 51.2793 42.9354 51.0113 42.6674C50.7434 42.3995 50.3801 42.249 50.0012 42.249H41.4296C41.0507 42.249 40.6873 42.3995 40.4194 42.6674C40.1515 42.9354 40.001 43.2987 40.001 43.6776C40.001 44.0565 40.1515 44.4199 40.4194 44.6878C40.6873 44.9557 41.0507 45.1062 41.4296 45.1062Z" fill="#060E28"/>
<path d="M50.4186 50.1688L41.847 47.5497C41.4847 47.4389 41.0932 47.4767 40.7586 47.6546C40.593 47.7427 40.4463 47.8625 40.327 48.0073C40.2076 48.1521 40.118 48.3189 40.0631 48.4984C40.0083 48.6778 39.9893 48.8663 40.0073 49.053C40.0253 49.2398 40.0799 49.4211 40.168 49.5868C40.3459 49.9213 40.6494 50.1715 41.0118 50.2823L49.5834 52.9014C49.7628 52.9562 49.9513 52.9752 50.138 52.9572C50.3248 52.9392 50.5062 52.8846 50.6718 52.7965C50.8375 52.7084 50.9842 52.5886 51.1035 52.4438C51.2228 52.299 51.3125 52.1321 51.3673 51.9527C51.4221 51.7733 51.4411 51.5848 51.4231 51.3981C51.4051 51.2113 51.3505 51.0299 51.2624 50.8643C51.1743 50.6986 51.0545 50.552 50.9097 50.4326C50.7649 50.3133 50.5981 50.2237 50.4186 50.1688Z" fill="#060E28"/>
<path d="M41.847 39.8057L50.4186 37.1866C50.5981 37.1317 50.7649 37.0421 50.9097 36.9227C51.0545 36.8034 51.1743 36.6567 51.2624 36.4911C51.3505 36.3254 51.4051 36.1441 51.4231 35.9573C51.4411 35.7706 51.4221 35.5821 51.3673 35.4027C51.3125 35.2232 51.2228 35.0564 51.1035 34.9116C50.9842 34.7668 50.8375 34.647 50.6718 34.5589C50.5062 34.4708 50.3248 34.4162 50.138 34.3982C49.9513 34.3802 49.7628 34.3992 49.5834 34.454L41.0118 37.0731C40.8324 37.1279 40.6655 37.2176 40.5207 37.3369C40.376 37.4563 40.2561 37.6029 40.168 37.7686C40.0799 37.9342 40.0253 38.1156 40.0073 38.3024C39.9893 38.4891 40.0083 38.6776 40.0631 38.857C40.118 39.0364 40.2076 39.2033 40.327 39.3481C40.4463 39.4929 40.593 39.6127 40.7586 39.7008C40.9243 39.7889 41.1056 39.8435 41.2924 39.8615C41.4792 39.8795 41.6676 39.8605 41.847 39.8057Z" fill="#060E28"/>
</svg>
