<svg width="70" height="70" viewBox="0 0 70 70" fill="none" xmlns="http://www.w3.org/2000/svg">
<path d="M28.7022 62.6215C25.5904 61.9169 22.6214 60.6869 19.9229 58.9844C19.6033 58.7825 19.2245 58.6954 18.8489 58.7374C18.4732 58.7794 18.123 58.948 17.8559 59.2155L16.1436 60.9277L9.07222 53.8563L10.7844 52.1441C11.0518 51.8769 11.2203 51.5268 11.2624 51.1512C11.3045 50.7756 11.2177 50.3968 11.0161 50.0771C9.31368 47.3784 8.08336 44.4096 7.37793 41.2978C7.29435 40.9292 7.08793 40.6 6.79257 40.3641C6.49721 40.1283 6.13045 39.9999 5.7525 40H3.33333V30H5.7525C6.13045 30.0001 6.49721 29.8717 6.79257 29.6359C7.08793 29.4 7.29435 29.0708 7.37793 28.7022C8.08278 25.5902 9.31316 22.6213 11.0162 19.9229C11.2177 19.6032 11.3046 19.2244 11.2625 18.8488C11.2204 18.4732 11.0518 18.1231 10.7845 17.8559L9.07228 16.1436L16.1437 9.07222L17.8559 10.7844C18.123 11.0519 18.4732 11.2206 18.8489 11.2626C19.2246 11.3046 19.6034 11.2175 19.9229 11.0156C22.6214 9.3131 25.5904 8.08312 28.7022 7.37848C29.0707 7.29472 29.3999 7.08826 29.6356 6.79293C29.8714 6.49761 29.9999 6.13094 30 5.75303V3.33333H40V5.75303C40.0001 6.13094 40.1286 6.49761 40.3644 6.79293C40.6001 7.08826 40.9293 7.29472 41.2978 7.37848C44.4096 8.08314 47.3786 9.31314 50.0771 11.0156C50.2622 11.1335 50.4687 11.2137 50.6849 11.2515C50.9011 11.2894 51.1226 11.2842 51.3368 11.2361C51.5509 11.1881 51.7535 11.0983 51.9328 10.9718C52.1121 10.8453 52.2647 10.6846 52.3817 10.4989C52.4988 10.3133 52.578 10.1063 52.6149 9.89C52.6517 9.67365 52.6455 9.45216 52.5965 9.23824C52.5475 9.02431 52.4567 8.82217 52.3294 8.64343C52.202 8.46469 52.0406 8.31286 51.8544 8.19667C49.2161 6.53146 46.3441 5.269 43.3333 4.45096V1.66667C43.3333 1.22465 43.1577 0.800737 42.8451 0.488181C42.5326 0.175626 42.1087 2.35725e-05 41.6667 0H28.3333C27.8913 2.35725e-05 27.4674 0.175626 27.1548 0.488181C26.8423 0.800737 26.6667 1.22465 26.6667 1.66667V4.45096C24.0884 5.15137 21.6101 6.17819 19.292 7.50651L17.322 5.53711C17.1673 5.38231 16.9836 5.25951 16.7814 5.17573C16.5792 5.09195 16.3625 5.04883 16.1436 5.04883C15.9247 5.04883 15.708 5.09195 15.5058 5.17573C15.3036 5.25951 15.1199 5.38231 14.9652 5.53711L5.53711 14.9653C5.38231 15.12 5.25951 15.3037 5.17573 15.5059C5.09195 15.7081 5.04883 15.9248 5.04883 16.1437C5.04883 16.3625 5.09195 16.5792 5.17573 16.7814C5.25951 16.9836 5.38231 17.1673 5.53711 17.322L7.50711 19.2925C6.17819 21.6102 5.15114 24.0884 4.45095 26.6667H1.66667C1.22465 26.6667 0.800737 26.8423 0.488181 27.1549C0.175626 27.4674 2.35725e-05 27.8913 0 28.3333V41.6667C2.06262e-05 42.1087 0.175622 42.5326 0.488178 42.8452C0.800734 43.1577 1.22465 43.3333 1.66667 43.3333H4.45095C5.15132 45.9115 6.17834 48.3897 7.50706 50.7075L5.53706 52.678C5.38226 52.8327 5.25946 53.0164 5.17567 53.2186C5.09189 53.4208 5.04877 53.6375 5.04877 53.8563C5.04877 54.0752 5.09189 54.2919 5.17567 54.4941C5.25946 54.6963 5.38226 54.88 5.53706 55.0347L14.9652 64.4629C15.1199 64.6177 15.3036 64.7405 15.5058 64.8243C15.708 64.9081 15.9247 64.9512 16.1436 64.9512C16.3625 64.9512 16.5792 64.9081 16.7814 64.8243C16.9836 64.7405 17.1673 64.6177 17.322 64.4629L19.292 62.4935C21.6101 63.8218 24.0884 64.8486 26.6667 65.549V68.3333C26.6667 68.7754 26.8423 69.1993 27.1548 69.5118C27.4674 69.8244 27.8913 70 28.3333 70C28.7754 70 29.1993 69.8244 29.5118 69.5118C29.8244 69.1993 30 68.7754 30 68.3333V64.247C29.9999 63.8691 29.8714 63.5024 29.6356 63.2071C29.3999 62.9118 29.0707 62.7053 28.7022 62.6215Z" fill="#060E28"/>
<path d="M68.3332 26.6663H65.5489C64.7308 23.6557 63.4686 20.7838 61.8038 18.1452C61.5681 17.7713 61.1935 17.5063 60.7625 17.4085C60.3314 17.3107 59.8791 17.3882 59.5051 17.6239C59.1311 17.8596 58.8661 18.2342 58.7683 18.6652C58.6706 19.0963 58.748 19.5486 58.9837 19.9226C60.6862 22.6212 61.9165 25.5901 62.622 28.7019C62.7056 29.0705 62.912 29.3997 63.2073 29.6355C63.5027 29.8713 63.8694 29.9997 64.2474 29.9996H68.3332C68.7753 29.9996 69.1992 29.824 69.5117 29.5115C69.8243 29.1989 69.9999 28.775 69.9999 28.333C69.9999 27.8909 69.8243 27.467 69.5117 27.1545C69.1992 26.8419 68.7753 26.6663 68.3332 26.6663Z" fill="#060E28"/>
<path d="M68.3335 0H58.2358C57.7938 6.58672e-09 57.3698 0.175595 57.0573 0.488155C56.7447 0.800716 56.5691 1.22464 56.5691 1.66667C56.5691 2.10869 56.7447 2.53262 57.0573 2.84518C57.3698 3.15774 57.7938 3.33333 58.2358 3.33333H64.31L23.2898 44.3536C21.2223 41.777 20.0646 38.5892 19.9968 35.2865C19.929 31.9837 20.955 28.7511 22.915 26.0919C24.8749 23.4326 27.659 21.4959 30.8339 20.5831C34.0088 19.6703 37.3964 19.8327 40.4694 21.0449C40.8809 21.2065 41.3398 21.198 41.745 21.0213C42.1503 20.8445 42.4687 20.514 42.6303 20.1025C42.7919 19.691 42.7834 19.2321 42.6067 18.8269C42.4299 18.4216 42.0995 18.1032 41.6879 17.9416C37.2188 16.187 32.2395 16.2565 27.821 18.135C23.4025 20.0136 19.8978 23.5512 18.0605 27.987C16.2233 32.4229 16.2003 37.4026 17.9965 41.8552C19.7927 46.3078 23.2646 49.8776 27.6656 51.7969C27.8663 51.8859 28.0826 51.9344 28.3021 51.9395C28.5216 51.9447 28.7399 51.9064 28.9446 51.827C29.1492 51.7475 29.3362 51.6283 29.4946 51.4764C29.6531 51.3244 29.78 51.1426 29.8679 50.9415C29.9559 50.7403 30.0033 50.5238 30.0074 50.3043C30.0114 50.0848 29.972 49.8666 29.8915 49.6624C29.811 49.4581 29.6909 49.2718 29.5381 49.1141C29.3853 48.9564 29.2029 48.8305 29.0013 48.7435C27.7993 48.215 26.6718 47.5311 25.6478 46.7092L66.6668 5.6901V11.7643C66.6668 12.2063 66.8424 12.6303 67.1549 12.9428C67.4675 13.2554 67.8914 13.431 68.3335 13.431C68.7755 13.431 69.1994 13.2554 69.512 12.9428C69.8245 12.6303 70.0001 12.2063 70.0001 11.7643V1.66667C69.9985 1.22512 69.8224 0.802113 69.5102 0.489892C69.198 0.177672 68.775 0.0015723 68.3335 0Z" fill="#060E28"/>
<path d="M49.898 27.3697C49.4866 27.5312 49.1561 27.8496 48.9793 28.2547C48.8025 28.6598 48.7938 29.1185 48.9551 29.5301C49.6436 31.2716 49.998 33.1272 50 34.9999C50 35.4419 50.1756 35.8658 50.4881 36.1784C50.8007 36.491 51.2246 36.6666 51.6667 36.6666C52.1087 36.6666 52.5326 36.491 52.8452 36.1784C53.1577 35.8658 53.3333 35.4419 53.3333 34.9999C53.3317 32.7106 52.8991 30.442 52.0584 28.3126C51.8967 27.9013 51.5783 27.5709 51.1733 27.3941C50.7682 27.2173 50.3095 27.2085 49.898 27.3697Z" fill="#060E28"/>
<path d="M67.2221 33.333H62.7777C62.0412 33.3338 61.3351 33.6267 60.8144 34.1475C60.2936 34.6682 60.0007 35.3743 59.9999 36.1108V66.6663H56.6666V42.7775C56.6658 42.041 56.3729 41.3349 55.8521 40.8141C55.3314 40.2934 54.6253 40.0004 53.8888 39.9997H49.4444C48.7079 40.0004 48.0018 40.2934 47.481 40.8141C46.9603 41.3349 46.6674 42.041 46.6666 42.7775V66.6663H43.3333V49.4441C43.3325 48.7076 43.0396 48.0016 42.5188 47.4808C41.998 46.96 41.2919 46.6671 40.5555 46.6663H36.111C35.3746 46.6671 34.6685 46.96 34.1477 47.4808C33.6269 48.0016 33.334 48.7076 33.3333 49.4441V68.333C33.3333 68.775 33.5089 69.1989 33.8214 69.5115C34.134 69.8241 34.5579 69.9997 34.9999 69.9997H68.3333C68.7753 69.9997 69.1992 69.8241 69.5117 69.5115C69.8243 69.1989 69.9999 68.775 69.9999 68.333V36.1108C69.9991 35.3743 69.7062 34.6682 69.1855 34.1475C68.6647 33.6267 67.9586 33.3338 67.2221 33.333Z" fill="#1263FF"/>
</svg>
