<svg width="60" height="60" viewBox="0 0 60 60" fill="none" xmlns="http://www.w3.org/2000/svg">
<circle cx="30" cy="30" r="29.5" stroke="white"/>
<path fill-rule="evenodd" clip-rule="evenodd" d="M30.0003 18.6699C31.2522 18.6699 32.267 19.6847 32.267 20.9366C32.267 24.6921 35.3115 27.7366 39.067 27.7366C40.3188 27.7366 41.3337 28.7514 41.3337 30.0033C41.3337 31.2551 40.3188 32.2699 39.067 32.2699C35.3115 32.2699 32.267 35.3144 32.267 39.0699C32.267 40.3218 31.2522 41.3366 30.0003 41.3366C28.7485 41.3366 27.7337 40.3218 27.7337 39.0699C27.7337 35.3144 24.6892 32.2699 20.9337 32.2699C19.6818 32.2699 18.667 31.2551 18.667 30.0033C18.667 28.7514 19.6818 27.7366 20.9337 27.7366C24.6892 27.7366 27.7337 24.6921 27.7337 20.9366C27.7337 19.6847 28.7485 18.6699 30.0003 18.6699Z" fill="white"/>
</svg>
