<svg width="70" height="70" viewBox="0 0 70 70" fill="none" xmlns="http://www.w3.org/2000/svg">
<path d="M48.7667 49.4814H20.9889C18.5343 49.4814 16.5444 51.4713 16.5444 53.9259C16.5444 56.3805 18.5343 58.3704 20.9889 58.3704H48.7667C51.2213 58.3704 53.2112 56.3805 53.2112 53.9259C53.2112 51.4713 51.2213 49.4814 48.7667 49.4814Z" fill="#1263FF"/>
<path d="M23.3335 62.2227C23.3335 64.2855 24.1529 66.2638 25.6116 67.7224C27.0702 69.181 29.0485 70.0005 31.1113 70.0005H38.8891C40.9519 70.0005 42.9302 69.181 44.3888 67.7224C45.8474 66.2638 46.6669 64.2855 46.6669 62.2227H23.3335Z" fill="#1263FF"/>
<path d="M32.1041 0.753705C27.09 1.32614 22.3591 3.37577 18.5122 6.6423C14.6653 9.90883 11.8759 14.2449 10.4983 19.0999C9.12062 23.9549 9.21687 29.1098 10.7748 33.91C12.3327 38.7102 15.282 42.9391 19.2482 46.0598C19.42 46.1952 19.6169 46.2955 19.8274 46.3549C20.038 46.4142 20.2583 46.4315 20.4756 46.4058C20.6928 46.3801 20.9029 46.3118 21.0938 46.2048C21.2847 46.0979 21.4527 45.9544 21.5881 45.7826C21.7236 45.6107 21.8238 45.4139 21.8832 45.2033C21.9426 44.9927 21.9599 44.7724 21.9341 44.5552C21.9084 44.3379 21.8401 44.1278 21.7332 43.9369C21.6262 43.746 21.4827 43.578 21.3109 43.4426C17.6958 40.5979 15.0568 36.6976 13.7607 32.2839C12.4646 27.8701 12.5758 23.1622 14.0789 18.8146C15.5819 14.467 18.4021 10.6957 22.1475 8.02484C25.8928 5.35401 30.3772 3.91641 34.9773 3.91186C39.5774 3.9073 44.0647 5.33603 47.8153 7.99944C51.566 10.6628 54.3936 14.4286 55.9053 18.7732C57.4169 23.1179 57.5374 27.8255 56.2501 32.2418C54.9627 36.6581 52.3314 40.5636 48.722 43.4155C48.3763 43.6901 48.1536 44.0906 48.1029 44.5292C48.0522 44.9678 48.1775 45.4085 48.4514 45.7548C48.7252 46.1011 49.1253 46.3246 49.5637 46.3763C50.0022 46.428 50.4433 46.3036 50.7901 46.0305C55.1356 42.5973 58.2432 37.8411 59.6421 32.4827C61.041 27.1244 60.6548 21.456 58.5421 16.3369C56.4294 11.2177 52.7054 6.92693 47.9345 4.11486C43.1636 1.30279 37.606 0.122787 32.1041 0.753705Z" fill="#060E28"/>
<path d="M42.2222 16.1484C40.7493 16.1502 39.3373 16.736 38.2958 17.7775C37.2543 18.819 36.6684 20.2311 36.6667 21.704V23.9262H33.3333V21.704C33.3333 20.6052 33.0075 19.5311 32.397 18.6175C31.7866 17.7039 30.9189 16.9918 29.9038 16.5713C28.8886 16.1508 27.7716 16.0408 26.6939 16.2552C25.6162 16.4696 24.6263 16.9987 23.8494 17.7756C23.0724 18.5526 22.5433 19.5425 22.3289 20.6202C22.1146 21.6978 22.2246 22.8149 22.6451 23.83C23.0656 24.8452 23.7776 25.7128 24.6912 26.3233C25.6048 26.9338 26.679 27.2596 27.7777 27.2596H30V44.4818C30 44.9239 30.1756 45.3478 30.4881 45.6604C30.8007 45.9729 31.2246 46.1485 31.6666 46.1485C32.1087 46.1485 32.5326 45.9729 32.8452 45.6604C33.1577 45.3478 33.3333 44.9239 33.3333 44.4818V27.2596H36.6667V44.4818C36.6667 44.9239 36.8422 45.3478 37.1548 45.6604C37.4674 45.9729 37.8913 46.1485 38.3333 46.1485C38.7754 46.1485 39.1993 45.9729 39.5118 45.6604C39.8244 45.3478 40 44.9239 40 44.4818V27.2596H42.2222C43.6957 27.2596 45.1087 26.6743 46.1506 25.6324C47.1925 24.5905 47.7778 23.1774 47.7778 21.704C47.7778 20.2306 47.1925 18.8175 46.1506 17.7756C45.1087 16.7338 43.6957 16.1484 42.2222 16.1484ZM25.5555 21.704C25.5555 21.1146 25.7896 20.5494 26.2064 20.1327C26.6231 19.7159 27.1884 19.4818 27.7777 19.4818C28.3671 19.4818 28.9323 19.7159 29.3491 20.1327C29.7658 20.5494 30 21.1146 30 21.704V23.9262H27.7777C27.1886 23.9256 26.6237 23.6913 26.207 23.2747C25.7904 22.8581 25.5561 22.2932 25.5555 21.704ZM42.2222 23.9262H40V21.704C40 21.2645 40.1303 20.8349 40.3745 20.4694C40.6187 20.104 40.9658 19.8191 41.3718 19.6509C41.7779 19.4827 42.2247 19.4387 42.6558 19.5245C43.0868 19.6102 43.4828 19.8219 43.7936 20.1327C44.1044 20.4434 44.316 20.8394 44.4018 21.2705C44.4875 21.7015 44.4435 22.1484 44.2753 22.5544C44.1071 22.9605 43.8223 23.3075 43.4568 23.5517C43.0914 23.7959 42.6617 23.9262 42.2222 23.9262Z" fill="#060E28"/>
<path d="M5.00001 25.0371H1.66667C1.22464 25.0371 0.800718 25.2127 0.488157 25.5253C0.175595 25.8378 0 26.2618 0 26.7038C0 27.1458 0.175595 27.5697 0.488157 27.8823C0.800718 28.1949 1.22464 28.3705 1.66667 28.3705H5.00001C5.44204 28.3705 5.86597 28.1949 6.17853 27.8823C6.49109 27.5697 6.66668 27.1458 6.66668 26.7038C6.66668 26.2618 6.49109 25.8378 6.17853 25.5253C5.86597 25.2127 5.44204 25.0371 5.00001 25.0371Z" fill="#060E28"/>
<path d="M68.3335 23.9258H65.0002C64.5581 23.9258 64.1342 24.1014 63.8217 24.4139C63.5091 24.7265 63.3335 25.1504 63.3335 25.5925C63.3335 26.0345 63.5091 26.4584 63.8217 26.771C64.1342 27.0835 64.5581 27.2591 65.0002 27.2591H68.3335C68.7755 27.2591 69.1995 27.0835 69.512 26.771C69.8246 26.4584 70.0002 26.0345 70.0002 25.5925C70.0002 25.1504 69.8246 24.7265 69.512 24.4139C69.1995 24.1014 68.7755 23.9258 68.3335 23.9258Z" fill="#060E28"/>
<path d="M13.0013 46.576L10.644 48.9328C10.4887 49.0874 10.3655 49.2712 10.2814 49.4735C10.1972 49.6758 10.1538 49.8927 10.1536 50.1118C10.1534 50.331 10.1964 50.548 10.2801 50.7505C10.3639 50.9529 10.4867 51.1369 10.6417 51.2919C10.7966 51.4468 10.9806 51.5697 11.1831 51.6534C11.3856 51.7372 11.6026 51.7802 11.8217 51.78C12.0408 51.7798 12.2577 51.7363 12.4601 51.6522C12.6624 51.568 12.8461 51.4448 13.0008 51.2896L15.3581 48.9328C15.5128 48.778 15.6356 48.5943 15.7193 48.3921C15.8031 48.1899 15.8462 47.9732 15.8462 47.7544C15.8462 47.5355 15.8031 47.3188 15.7193 47.1166C15.6356 46.9145 15.5128 46.7307 15.3581 46.576C15.2033 46.4212 15.0196 46.2985 14.8174 46.2147C14.6152 46.131 14.3985 46.0879 14.1797 46.0879C13.9608 46.0879 13.7441 46.131 13.5419 46.2147C13.3398 46.2985 13.156 46.4212 13.0013 46.576Z" fill="#060E28"/>
<path d="M56.9989 5.2022L59.3563 2.84489C59.6688 2.53236 59.8444 2.10848 59.8444 1.6665C59.8444 1.22452 59.6688 0.800637 59.3563 0.488108C59.0437 0.175579 58.6199 1.04188e-06 58.1779 0C57.7359 -1.04187e-06 57.312 0.175575 56.9995 0.488102L54.6422 2.84539C54.4874 3.00013 54.3647 3.18385 54.2809 3.38604C54.1972 3.58822 54.1541 3.80493 54.1541 4.02378C54.1541 4.46576 54.3296 4.88964 54.6422 5.20216C54.9547 5.51469 55.3786 5.69027 55.8206 5.69027C56.2625 5.69027 56.6864 5.51473 56.9989 5.2022Z" fill="#060E28"/>
<path d="M12.2158 5.2022C12.3705 5.35695 12.5543 5.4797 12.7564 5.56345C12.9586 5.6472 13.1753 5.6903 13.3942 5.6903C13.613 5.6903 13.8297 5.64719 14.0319 5.56344C14.2341 5.47969 14.4178 5.35693 14.5726 5.20218C14.7273 5.04743 14.8501 4.86372 14.9338 4.66152C15.0176 4.45933 15.0607 4.24263 15.0607 4.02378C15.0607 3.80493 15.0176 3.58823 14.9338 3.38604C14.8501 3.18385 14.7273 3.00013 14.5726 2.84539L12.2152 0.488102C12.0605 0.333354 11.8768 0.210601 11.6746 0.126853C11.4724 0.0431041 11.2557 -5.15878e-07 11.0369 0C10.5949 1.04188e-06 10.171 0.175579 9.85846 0.488108C9.54594 0.800637 9.37036 1.22452 9.37036 1.6665C9.37036 2.10848 9.54594 2.53236 9.85847 2.84489L12.2158 5.2022Z" fill="#060E28"/>
<path d="M57.7843 45.7899C57.4718 45.4773 57.0479 45.3018 56.6059 45.3018C56.164 45.3018 55.7401 45.4773 55.4276 45.7899C55.115 46.1024 54.9395 46.5263 54.9395 46.9683C54.9395 47.4102 55.115 47.8341 55.4276 48.1466L57.7849 50.5034C57.9395 50.6587 58.1233 50.7819 58.3256 50.866C58.5279 50.9502 58.7448 50.9936 58.9639 50.9938C59.1831 50.994 59.4001 50.951 59.6026 50.8673C59.805 50.7835 59.989 50.6607 60.144 50.5057C60.2989 50.3508 60.4218 50.1668 60.5055 49.9643C60.5893 49.7618 60.6323 49.5448 60.6321 49.3257C60.6319 49.1066 60.5884 48.8897 60.5043 48.6873C60.4201 48.485 60.2969 48.3013 60.1417 48.1466L57.7843 45.7899Z" fill="#060E28"/>
</svg>
