<svg width="70" height="70" viewBox="0 0 70 70" fill="none" xmlns="http://www.w3.org/2000/svg">
<path d="M34.9662 0C31.3402 0 27.7956 1.07523 24.7807 3.08972C21.7658 5.10422 19.416 7.96749 18.0284 11.3175C16.6408 14.6674 16.2777 18.3537 16.9851 21.91C17.6925 25.4663 19.4386 28.733 22.0025 31.297C24.5665 33.8609 27.8332 35.607 31.3895 36.3144C34.9458 37.0218 38.632 36.6587 41.982 35.2711C45.332 33.8835 48.1953 31.5337 50.2098 28.5188C52.2243 25.5039 53.2995 21.9593 53.2995 18.3333C53.294 13.4727 51.3607 8.81275 47.9237 5.37578C44.4867 1.9388 39.8268 0.00549348 34.9662 0ZM41.7484 23.6968C41.5154 25.0452 40.8968 26.2972 39.9672 27.3013C39.0377 28.3054 37.8371 29.0187 36.5107 29.3549V30.708C36.5107 31.15 36.3351 31.574 36.0226 31.8865C35.71 32.1991 35.2861 32.3747 34.8441 32.3747C34.402 32.3747 33.9781 32.1991 33.6656 31.8865C33.353 31.574 33.1774 31.15 33.1774 30.708V29.5157C31.6129 29.3962 30.1124 28.8441 28.8436 27.921C28.4737 27.6791 28.215 27.3001 28.1245 26.8674C28.034 26.4347 28.1191 25.9838 28.3611 25.6139C28.603 25.2439 28.982 24.9853 29.4147 24.8948C29.8473 24.8043 30.2982 24.8893 30.6682 25.1313C31.4033 25.6834 32.2668 26.0394 33.1774 26.1657V18.5197C32.2167 18.106 31.3088 17.5791 30.4729 16.9504C29.6677 16.2276 29.0693 15.3037 28.7388 14.2734C28.4084 13.2431 28.3579 12.1435 28.5924 11.0872C28.7587 9.93299 29.2959 8.86415 30.123 8.04206C30.9501 7.21998 32.0222 6.68928 33.1774 6.53009V5.95866C33.1774 5.51663 33.353 5.09271 33.6656 4.78014C33.9781 4.46758 34.402 4.29199 34.8441 4.29199C35.2861 4.29199 35.71 4.46758 36.0226 4.78014C36.3351 5.09271 36.5107 5.51663 36.5107 5.95866V6.74072C37.7744 7.11604 38.9423 7.75915 39.9352 8.62628C40.2572 8.92785 40.4466 9.34483 40.4617 9.78578C40.4768 10.2267 40.3164 10.6557 40.0157 10.9786C39.715 11.3015 39.2986 11.4919 38.8577 11.5082C38.4167 11.5246 37.9874 11.3654 37.6636 11.0656C37.3102 10.7696 36.9233 10.5161 36.5108 10.3103V16.2867C36.8472 16.4122 37.1835 16.5348 37.5134 16.6515C38.9633 17.0977 40.1974 18.0636 40.979 19.3638C41.7606 20.664 42.0346 22.207 41.7484 23.6968Z" fill="#1263FF"/>
<path d="M36.5107 19.8447V25.8189C37.0193 25.5528 37.4598 25.1731 37.798 24.7093C38.1363 24.2455 38.3632 23.7101 38.4612 23.1445C38.5957 22.4511 38.4716 21.7325 38.1122 21.1245C37.7528 20.5164 37.1831 20.0612 36.5107 19.8447Z" fill="#1263FF"/>
<path d="M31.8678 11.7043C31.7541 12.1623 31.755 12.6413 31.8706 13.0988C31.9861 13.5563 32.2127 13.9783 32.5302 14.3274C32.7374 14.4857 32.9535 14.632 33.1774 14.7655V9.9541C32.8243 10.1046 32.5172 10.3458 32.2873 10.6531C32.0573 10.9604 31.9126 11.3231 31.8678 11.7043Z" fill="#1263FF"/>
<path d="M68.3318 28.8887C57.2224 28.8887 47.7438 33.8149 40.9197 43.1356C38.4931 46.4875 36.5038 50.1351 35 53.9903C33.4962 50.1352 31.5069 46.4876 29.0804 43.1356C22.2563 33.8149 12.7772 28.8887 1.66833 28.8887C1.44934 28.8885 1.23248 28.9315 1.03011 29.0152C0.827749 29.0989 0.643856 29.2216 0.488935 29.3764C0.334014 29.5312 0.211102 29.715 0.127218 29.9172C0.0433338 30.1195 0.000122036 30.3364 5.05692e-05 30.5553C-0.00733886 34.1485 0.795199 37.6971 2.34801 40.9374C3.90082 44.1777 6.16397 47.0264 8.96924 49.2717C19.1836 57.485 30.6157 53.5936 31.2141 53.5838C31.936 55.238 32.4543 56.6776 32.8057 57.7548C29.5971 58.0698 26.5004 59.1022 23.7448 60.7757C20.9891 62.4492 18.645 64.7209 16.886 67.4227C16.7223 67.6744 16.6296 67.9655 16.6176 68.2655C16.6056 68.5655 16.6748 68.8631 16.8179 69.127C16.961 69.3909 17.1726 69.6113 17.4306 69.7649C17.6885 69.9185 17.9831 69.9997 18.2833 69.9998H51.6489C51.9491 69.9997 52.2437 69.9185 52.5017 69.7649C52.7596 69.6113 52.9712 69.3909 53.1143 69.127C53.2574 68.8631 53.3266 68.5655 53.3146 68.2655C53.3027 67.9655 53.2099 67.6744 53.0462 67.4227C51.2933 64.7302 48.9593 62.4647 46.2159 60.7927C43.4724 59.1208 40.3891 58.0848 37.1926 57.7609C37.5439 56.6831 38.0625 55.2415 38.786 53.5838C39.5287 53.596 50.6237 57.6421 61.0309 49.2717C63.8361 47.0264 66.0993 44.1777 67.6521 40.9374C69.2049 37.6971 70.0074 34.1485 70 30.5553C70 30.3364 69.9568 30.1195 69.8729 29.9172C69.789 29.715 69.6661 29.5312 69.5112 29.3764C69.3562 29.2216 69.1723 29.0989 68.97 29.0152C68.7676 28.9315 68.5508 28.8885 68.3318 28.8887ZM11.0612 46.6751C8.87027 44.922 7.06103 42.7393 5.7446 40.2613C4.42818 37.7833 3.63239 35.0623 3.40613 32.2654C12.7658 32.7358 20.4903 37.0484 26.3874 45.1029C27.6343 46.8153 28.7527 48.6179 29.7332 50.4957C26.5407 51.3834 23.183 51.5 19.9367 50.8357C16.6904 50.1715 13.6483 48.7455 11.0612 46.6751ZM21.7116 66.6664C23.4187 64.8672 25.4742 63.4343 27.7529 62.4551C30.0317 61.4759 32.4859 60.9709 34.9661 60.9709C37.4463 60.9709 39.9006 61.4759 42.1793 62.4551C44.458 63.4343 46.5135 64.8672 48.2206 66.6664H21.7116ZM58.9389 46.6751C50.2664 53.6486 40.6584 50.4993 40.2663 50.4957C41.2471 48.6178 42.3658 46.8152 43.6132 45.1029C49.5098 37.0484 57.2343 32.7358 66.5939 32.2654C66.3677 35.0622 65.5719 37.7833 64.2555 40.2613C62.9391 42.7393 61.1298 44.922 58.9389 46.6751Z" fill="#060E28"/>
</svg>
