<svg width="16" height="16" viewBox="0 0 16 16" fill="none" xmlns="http://www.w3.org/2000/svg">
<path d="M15.0893 15.0112V15.0106H15.093V9.49947C15.093 6.8034 14.5097 4.72656 11.3422 4.72656C9.81944 4.72656 8.79757 5.55805 8.38038 6.34633H8.33634V4.97826H5.33301V15.0106H8.4603V10.0429C8.4603 8.73498 8.70947 7.47022 10.3373 7.47022C11.9412 7.47022 11.9651 8.96289 11.9651 10.1268V15.0112H15.0893Z" fill="#060E28"/>
<path d="M0.239258 4.99414H3.37033V15.0265H0.239258V4.99414Z" fill="#060E28"/>
<path d="M1.81345 0C0.81234 0 0 0.808321 0 1.80448C0 2.80063 0.81234 3.62586 1.81345 3.62586C2.81456 3.62586 3.6269 2.80063 3.6269 1.80448C3.62627 0.808321 2.81393 0 1.81345 0V0Z" fill="#060E28"/>
</svg>
