<svg width="17" height="17" viewBox="0 0 17 17" fill="none" xmlns="http://www.w3.org/2000/svg">
<path d="M11.1892 0.00390625H5.08496C2.27597 0.00390625 -0.00195312 2.27055 -0.00195312 5.06564V11.1397C-0.00195312 13.9348 2.27597 16.2014 5.08496 16.2014H11.1892C13.9982 16.2014 16.2762 13.9348 16.2762 11.1397V5.06564C16.2762 2.27055 13.9982 0.00390625 11.1892 0.00390625ZM14.7501 11.1397C14.7501 13.0935 13.1528 14.6829 11.1892 14.6829H5.08496C3.12141 14.6829 1.52412 13.0935 1.52412 11.1397V5.06564C1.52412 3.11181 3.12141 1.52243 5.08496 1.52243H11.1892C13.1528 1.52243 14.7501 3.11181 14.7501 5.06564V11.1397Z" fill="#060E28"/>
<path d="M8.06757 4.00391C5.82018 4.00391 3.99805 5.81702 3.99805 8.05329C3.99805 10.2896 5.82018 12.1027 8.06757 12.1027C10.315 12.1027 12.1371 10.2896 12.1371 8.05329C12.1371 5.81702 10.315 4.00391 8.06757 4.00391ZM8.06757 10.5842C6.66562 10.5842 5.52412 9.4483 5.52412 8.05329C5.52412 6.65727 6.66562 5.52243 8.06757 5.52243C9.46953 5.52243 10.611 6.65727 10.611 8.05329C10.611 9.4483 9.46953 10.5842 8.06757 10.5842Z" fill="#060E28"/>
<path d="M12.503 4.30456C12.8035 4.30456 13.0471 4.06237 13.0471 3.76361C13.0471 3.46485 12.8035 3.22266 12.503 3.22266C12.2026 3.22266 11.959 3.46485 11.959 3.76361C11.959 4.06237 12.2026 4.30456 12.503 4.30456Z" fill="#060E28"/>
</svg>
