<svg width="18" height="19" viewBox="0 0 18 19" fill="none" xmlns="http://www.w3.org/2000/svg">
<path d="M14.1853 13.2688C13.3536 14.1005 11.6426 15.8115 10.4133 17.0408C9.63221 17.8219 8.36709 17.8215 7.58604 17.0404C6.37846 15.8329 4.70033 14.1547 3.81439 13.2688C0.950543 10.4049 0.950543 5.76173 3.81439 2.89788C6.67823 0.0340389 11.3214 0.0340389 14.1853 2.89788C17.0491 5.76173 17.0491 10.4049 14.1853 13.2688Z" stroke="#1263FF" stroke-width="1.5" stroke-linecap="round" stroke-linejoin="round"/>
<path d="M11.7498 8.08333C11.7498 9.60212 10.5186 10.8333 8.99984 10.8333C7.48105 10.8333 6.24984 9.60212 6.24984 8.08333C6.24984 6.56455 7.48105 5.33333 8.99984 5.33333C10.5186 5.33333 11.7498 6.56455 11.7498 8.08333Z" stroke="#1263FF" stroke-width="1.5" stroke-linecap="round" stroke-linejoin="round"/>
</svg>
