<svg width="18" height="18" viewBox="0 0 18 18" fill="none" xmlns="http://www.w3.org/2000/svg">
<path d="M0.749878 2.58333C0.749878 1.57081 1.57069 0.75 2.58321 0.75H5.58918C5.98374 0.75 6.33404 1.00248 6.45881 1.37679L7.8318 5.49578C7.97606 5.92855 7.78014 6.40153 7.37212 6.60554L5.30297 7.64012C6.31336 9.88112 8.11876 11.6865 10.3598 12.6969L11.3943 10.6278C11.5983 10.2197 12.0713 10.0238 12.5041 10.1681L16.6231 11.5411C16.9974 11.6658 17.2499 12.0161 17.2499 12.4107V15.4167C17.2499 16.4292 16.4291 17.25 15.4165 17.25H14.4999C6.90596 17.25 0.749878 11.0939 0.749878 3.5V2.58333Z" stroke="#1263FF" stroke-width="1.5" stroke-linecap="round" stroke-linejoin="round"/>
</svg>
