<svg width="16" height="16" viewBox="0 0 16 16" fill="none" xmlns="http://www.w3.org/2000/svg">
<path fill-rule="evenodd" clip-rule="evenodd" d="M8 0.320312C8.82843 0.320312 9.5 0.991885 9.5 1.82031V6.32031L14 6.32031C14.8284 6.32031 15.5 6.99189 15.5 7.82031C15.5 8.64874 14.8284 9.32031 14 9.32031H9.5V13.8203C9.5 14.6487 8.82843 15.3203 8 15.3203C7.17157 15.3203 6.5 14.6487 6.5 13.8203V9.32031H2C1.17157 9.32031 0.5 8.64874 0.5 7.82031C0.5 6.99188 1.17157 6.32031 2 6.32031L6.5 6.32031V1.82031C6.5 0.991885 7.17157 0.320312 8 0.320312Z" fill="#1263FF"/>
</svg>
