<svg width="24" height="23" viewBox="0 0 24 23" fill="none" xmlns="http://www.w3.org/2000/svg">
<path d="M10.5734 1.71128C11.0224 0.329313 12.9775 0.329314 13.4266 1.71128L15.0309 6.64897C15.2317 7.26701 15.8077 7.68545 16.4575 7.68545H21.6493C23.1024 7.68545 23.7065 9.54487 22.531 10.399L18.3307 13.4506C17.805 13.8326 17.585 14.5097 17.7858 15.1277L19.3902 20.0654C19.8392 21.4473 18.2575 22.5965 17.0819 21.7424L12.8817 18.6908C12.3559 18.3088 11.644 18.3088 11.1183 18.6908L6.91804 21.7424C5.74247 22.5965 4.16075 21.4473 4.60978 20.0654L6.21414 15.1277C6.41495 14.5097 6.19496 13.8326 5.66923 13.4506L1.46898 10.399C0.293405 9.54487 0.897569 7.68545 2.35065 7.68545H7.54245C8.19229 7.68545 8.76823 7.26701 8.96904 6.64897L10.5734 1.71128Z" fill="#FFC900"/>
</svg>
