<svg width="20" height="20" viewBox="0 0 20 20" fill="none" xmlns="http://www.w3.org/2000/svg">
<path d="M6.07532 17.3528L1.66602 18.3327L2.64586 13.9233C2.02055 12.754 1.66602 11.4181 1.66602 9.99935C1.66602 5.39697 5.39697 1.66602 9.99935 1.66602C14.6017 1.66602 18.3327 5.39697 18.3327 9.99935C18.3327 14.6017 14.6017 18.3327 9.99935 18.3327C8.5806 18.3327 7.24468 17.9782 6.07532 17.3528ZM6.31664 15.5919L6.86125 15.8831C7.81808 16.3948 8.88727 16.666 9.99935 16.666C13.6813 16.666 16.666 13.6813 16.666 9.99935C16.666 6.31745 13.6813 3.33268 9.99935 3.33268C6.31745 3.33268 3.33268 6.31745 3.33268 9.99935C3.33268 11.1114 3.60392 12.1806 4.11559 13.1374L4.40682 13.682L3.86115 16.1375L6.31664 15.5919Z" fill="#1263FF"/>
</svg>
