<svg width="100" height="100" viewBox="0 0 100 100" fill="none" xmlns="http://www.w3.org/2000/svg">
<path d="M50 100C22.3857 100 0 77.614 0 50C0 22.3857 22.3857 0 50 0C77.614 0 100 22.3857 100 50C100 77.614 77.614 100 50 100ZM43.1095 32.0729C42.781 31.8539 42.395 31.7371 42 31.7371C40.8955 31.7371 40 32.6325 40 33.737V66.263C40 66.658 40.117 67.044 40.336 67.3725C40.9485 68.2915 42.1905 68.54 43.1095 67.927L67.504 51.664C67.7235 51.5175 67.912 51.329 68.0585 51.1095C68.6715 50.1905 68.423 48.9485 67.504 48.336L43.1095 32.0729Z" fill="#1263FF"/>
</svg>
