<svg width="149" height="41" viewBox="0 0 149 41" fill="none" xmlns="http://www.w3.org/2000/svg">
<path d="M50.9883 35.8962V8.34424H64.4462C67.9091 8.34424 70.5062 9.00024 72.2376 10.3122C73.9953 11.6242 74.8741 13.3561 74.8741 15.5078C74.8741 16.951 74.52 18.2105 73.8117 19.2863C73.1033 20.3359 72.1327 21.1494 70.8997 21.7266C69.6667 22.3039 68.2501 22.5926 66.6498 22.5926L67.3975 20.9788C69.1289 20.9788 70.6636 21.2674 72.0015 21.8447C73.3395 22.3958 74.3757 23.2223 75.1102 24.3244C75.871 25.4265 76.2514 26.7778 76.2514 28.3785C76.2514 30.7401 75.3201 32.59 73.4575 33.9282C71.5949 35.2402 68.8535 35.8962 65.2332 35.8962H50.9883ZM57.3237 31.0943H64.761C66.4137 31.0943 67.6598 30.8319 68.4993 30.3071C69.365 29.7561 69.7979 28.8902 69.7979 27.7094C69.7979 26.5548 69.365 25.702 68.4993 25.151C67.6598 24.5737 66.4137 24.285 64.761 24.285H56.8515V19.6406H63.6592C65.207 19.6406 66.3875 19.3782 67.2007 18.8534C68.0402 18.3023 68.46 17.4758 68.46 16.3737C68.46 15.2978 68.0402 14.4975 67.2007 13.9727C66.3875 13.4217 65.207 13.1462 63.6592 13.1462H57.3237V31.0943Z" fill="#060E28"/>
<path d="M105.79 14.4057C107.469 14.4057 108.951 14.7468 110.237 15.429C111.548 16.085 112.571 17.1084 113.306 18.4991C114.067 19.8636 114.447 21.6217 114.447 23.7734V35.8962H108.308V24.718C108.308 23.0124 107.954 21.7529 107.246 20.9394C106.538 20.126 105.541 19.7193 104.255 19.7193C103.363 19.7193 102.563 19.9292 101.855 20.349C101.147 20.7426 100.596 21.3462 100.202 22.1596C99.8086 22.973 99.6118 24.0095 99.6118 25.269V35.8962H93.4731V24.718C93.4731 23.0124 93.119 21.7529 92.4107 20.9394C91.7286 20.126 90.7448 19.7193 89.4594 19.7193C88.5674 19.7193 87.7673 19.9292 87.059 20.349C86.3507 20.7426 85.7998 21.3462 85.4063 22.1596C85.0128 22.973 84.816 24.0095 84.816 25.269V35.8962H78.6773V14.7206H84.5405V20.5065L83.4387 18.814C84.1733 17.3708 85.2095 16.2818 86.5474 15.5471C87.9116 14.7862 89.4594 14.4057 91.1908 14.4057C93.1321 14.4057 94.8242 14.9042 96.267 15.9014C97.7361 16.8722 98.7068 18.3679 99.179 20.3884L97.0147 19.798C97.723 18.1449 98.8511 16.8329 100.399 15.862C101.973 14.8911 103.77 14.4057 105.79 14.4057Z" fill="#060E28"/>
<path d="M117.982 35.8962V14.7206H124.121V35.8962H117.982ZM121.051 11.7686C119.923 11.7686 119.005 11.4406 118.297 10.7846C117.588 10.1286 117.234 9.31512 117.234 8.34424C117.234 7.37336 117.588 6.55992 118.297 5.90392C119.005 5.24792 119.923 4.91992 121.051 4.91992C122.179 4.91992 123.097 5.2348 123.806 5.86456C124.514 6.46808 124.868 7.25528 124.868 8.22616C124.868 9.24952 124.514 10.1023 123.806 10.7846C123.124 11.4406 122.205 11.7686 121.051 11.7686Z" fill="#060E28"/>
<path d="M125.174 35.8962L134.658 23.4585L134.54 26.8434L125.45 14.7206H132.336L138.081 22.6319L135.484 22.7106L141.426 14.7206H147.958L138.829 26.7254V23.4191L148.273 35.8962H141.308L135.288 27.4732L137.845 27.8274L131.864 35.8962H125.174Z" fill="#060E28"/>
<path d="M0 4.73077C0 2.11804 2.11753 0 4.72964 0H36.2606C38.8727 0 40.9903 2.11804 40.9903 4.73077V36.2692C40.9903 38.882 38.8727 41 36.2606 41H4.72965C2.11753 41 0 38.882 0 36.2692V4.73077Z" fill="#1263FF"/>
<path d="M29.5404 22.2421C29.5404 25.9603 26.5023 28.9735 22.7542 28.9735H16.9505C10.3814 28.9735 5.12378 23.4911 5.12378 17.0493C5.12378 10.6075 10.3803 5.125 16.9494 5.125H23.8325V8.20216H16.9494C12.1676 8.20216 8.2247 12.2323 8.2247 17.0493C8.2247 21.8663 12.1676 25.8964 16.9494 25.8964H22.7531C24.7874 25.8964 26.4363 24.2598 26.4363 22.2421C26.4363 20.2244 24.7874 18.5879 22.7531 18.5879H17.1304C16.9275 18.5887 16.7265 18.5496 16.5388 18.4727C16.3511 18.3958 16.1803 18.2827 16.0363 18.1399C15.8923 17.997 15.7778 17.8271 15.6994 17.64C15.621 17.4529 15.5802 17.2522 15.5794 17.0493C15.5801 16.8463 15.6208 16.6455 15.6991 16.4584C15.7775 16.2712 15.8919 16.1013 16.036 15.9584C16.18 15.8155 16.3509 15.7024 16.5386 15.6256C16.7264 15.5487 16.9275 15.5097 17.1304 15.5107H22.7531C26.5002 15.5107 29.5404 18.524 29.5404 22.2421Z" fill="white"/>
<path d="M10.3718 17.0492C10.3718 13.331 13.4099 10.3178 17.158 10.3178H22.9607C29.5308 10.3178 34.7884 15.8002 34.7884 22.242C34.7884 28.6838 29.5298 34.1663 22.9617 34.1663H16.0776V31.0891H22.9607C27.7425 31.0891 31.6865 27.059 31.6865 22.242C31.6865 17.425 27.7425 13.3949 22.9607 13.3949H17.158C15.1227 13.3949 13.4727 15.0315 13.4727 17.0492C13.4727 19.0669 15.1227 20.7035 17.1559 20.7035H22.7797C23.6366 20.7035 24.3307 21.3924 24.3307 22.242C24.3307 23.0917 23.6366 23.7806 22.7797 23.7806H17.157C13.4088 23.7806 10.3718 20.7673 10.3718 17.0492Z" fill="white"/>
</svg>
