<svg width="109" height="30" viewBox="0 0 109 30" fill="none" xmlns="http://www.w3.org/2000/svg">
<path d="M37.3359 26.2672V6.10716H47.1908C49.7266 6.10716 51.6284 6.58716 52.8963 7.54716C54.1833 8.50716 54.8269 9.77436 54.8269 11.3488C54.8269 12.4048 54.5675 13.3264 54.0489 14.1136C53.5302 14.8816 52.8194 15.4768 51.9165 15.8992C51.0136 16.3216 49.9763 16.5328 48.8045 16.5328L49.352 15.352C50.6198 15.352 51.7436 15.5632 52.7234 15.9856C53.7031 16.3888 54.4619 16.9936 54.9998 17.8C55.5569 18.6064 55.8354 19.5952 55.8354 20.7664C55.8354 22.4944 55.1535 23.848 53.7895 24.8272C52.4256 25.7872 50.4181 26.2672 47.7671 26.2672H37.3359ZM41.9752 22.7536H47.4213C48.6316 22.7536 49.5441 22.5616 50.1588 22.1776C50.7927 21.7744 51.1097 21.1408 51.1097 20.2768C51.1097 19.432 50.7927 18.808 50.1588 18.4048C49.5441 17.9824 48.6316 17.7712 47.4213 17.7712H41.6294V14.3728H46.6145C47.7479 14.3728 48.6124 14.1808 49.2079 13.7968C49.8226 13.3936 50.13 12.7888 50.13 11.9824C50.13 11.1952 49.8226 10.6096 49.2079 10.2256C48.6124 9.82236 47.7479 9.62076 46.6145 9.62076H41.9752V22.7536Z" fill="white"/>
<path d="M77.4656 10.5424C78.6951 10.5424 79.7805 10.792 80.7218 11.2912C81.6823 11.7712 82.4315 12.52 82.9694 13.5376C83.5265 14.536 83.805 15.8224 83.805 17.3968V26.2672H79.3098V18.088C79.3098 16.84 79.0505 15.9184 78.5318 15.3232C78.0131 14.728 77.2832 14.4304 76.3419 14.4304C75.6887 14.4304 75.1028 14.584 74.5841 14.8912C74.0654 15.1792 73.662 15.6208 73.3739 16.216C73.0857 16.8112 72.9416 17.5696 72.9416 18.4912V26.2672H68.4464V18.088C68.4464 16.84 68.1871 15.9184 67.6684 15.3232C67.1689 14.728 66.4486 14.4304 65.5073 14.4304C64.8541 14.4304 64.2682 14.584 63.7495 14.8912C63.2308 15.1792 62.8274 15.6208 62.5393 16.216C62.2511 16.8112 62.107 17.5696 62.107 18.4912V26.2672H57.6118V10.7728H61.9053V15.0064L61.0985 13.768C61.6364 12.712 62.3952 11.9152 63.3749 11.3776C64.3739 10.8208 65.5073 10.5424 66.7751 10.5424C68.1967 10.5424 69.4358 10.9072 70.4923 11.6368C71.5681 12.3472 72.2789 13.4416 72.6247 14.92L71.0398 14.488C71.5585 13.2784 72.3845 12.3184 73.5179 11.608C74.6706 10.8976 75.9865 10.5424 77.4656 10.5424Z" fill="white"/>
<path d="M86.3935 26.2672V10.7728H90.8887V26.2672H86.3935ZM88.6411 8.61276C87.815 8.61276 87.1427 8.37276 86.624 7.89276C86.1053 7.41276 85.846 6.81756 85.846 6.10716C85.846 5.39676 86.1053 4.80156 86.624 4.32156C87.1427 3.84156 87.815 3.60156 88.6411 3.60156C89.4671 3.60156 90.1395 3.83196 90.6581 4.29276C91.1768 4.73436 91.4362 5.31036 91.4362 6.02076C91.4362 6.76956 91.1768 7.39356 90.6581 7.89276C90.1587 8.37276 89.4863 8.61276 88.6411 8.61276Z" fill="white"/>
<path d="M91.6604 26.2672L98.6049 17.1664L98.5185 19.6432L91.8621 10.7728H96.9048L101.112 16.5616L99.21 16.6192L103.561 10.7728H108.344L101.659 19.5568V17.1376L108.575 26.2672H103.475L99.0659 20.104L100.939 20.3632L96.559 26.2672H91.6604Z" fill="white"/>
<path d="M0 3.46154C0 1.54978 1.55061 0 3.46339 0H26.5526C28.4654 0 30.016 1.54978 30.016 3.46154V26.5385C30.016 28.4502 28.4654 30 26.5526 30H3.46339C1.55061 30 0 28.4502 0 26.5385V3.46154Z" fill="white"/>
<path d="M21.6316 16.2747C21.6316 18.9953 19.4069 21.2002 16.6623 21.2002H12.4124C7.60201 21.2002 3.752 17.1886 3.752 12.4751C3.752 7.76156 7.60123 3.75 12.4116 3.75H17.4519V6.00158H12.4116C8.91003 6.00158 6.02272 8.95046 6.02272 12.4751C6.02272 15.9997 8.91003 18.9486 12.4116 18.9486H16.6615C18.1511 18.9486 19.3586 17.7511 19.3586 16.2747C19.3586 14.7983 18.1511 13.6009 16.6615 13.6009H12.5441C12.3956 13.6015 12.2484 13.5729 12.1109 13.5166C11.9734 13.4604 11.8484 13.3776 11.7429 13.2731C11.6375 13.1685 11.5537 13.0443 11.4962 12.9073C11.4388 12.7704 11.409 12.6235 11.4084 12.4751C11.4089 12.3266 11.4387 12.1797 11.496 12.0427C11.5534 11.9057 11.6372 11.7814 11.7427 11.6769C11.8482 11.5723 11.9733 11.4895 12.1108 11.4333C12.2483 11.3771 12.3955 11.3486 12.5441 11.3493H16.6615C19.4054 11.3493 21.6316 13.5541 21.6316 16.2747Z" fill="#1263FF"/>
<path d="M7.59498 12.475C7.59498 9.75442 9.8197 7.54958 12.5644 7.54958H16.8135C21.6246 7.54958 25.4746 11.5611 25.4746 16.2747C25.4746 20.9882 21.6238 24.9997 16.8143 24.9997H11.7732V22.7482H16.8135C20.315 22.7482 23.2031 19.7993 23.2031 16.2747C23.2031 12.75 20.315 9.80116 16.8135 9.80116H12.5644C11.0739 9.80116 9.86569 10.9986 9.86569 12.475C9.86569 13.9514 11.0739 15.1489 12.5628 15.1489H16.681C17.3085 15.1489 17.8167 15.6529 17.8167 16.2747C17.8167 16.8964 17.3085 17.4004 16.681 17.4004H12.5636C9.81892 17.4004 7.59498 15.1956 7.59498 12.475Z" fill="#1263FF"/>
</svg>
