<svg width="95" height="26" viewBox="0 0 95 26" fill="none" xmlns="http://www.w3.org/2000/svg">
<path d="M32.3594 22.7646V5.29261H40.9003C43.0979 5.29261 44.7462 5.70861 45.845 6.54061C46.9605 7.37261 47.5182 8.47085 47.5182 9.83533C47.5182 10.7505 47.2934 11.5493 46.8439 12.2315C46.3944 12.8971 45.7784 13.4129 44.9959 13.779C44.2134 14.1451 43.3143 14.3281 42.2988 14.3281L42.7733 13.3048C43.8721 13.3048 44.846 13.4878 45.6951 13.8539C46.5442 14.2033 47.2019 14.7275 47.668 15.4264C48.1508 16.1253 48.3923 16.9822 48.3923 17.9973C48.3923 19.4949 47.8012 20.668 46.6192 21.5166C45.4371 22.3486 43.6973 22.7646 41.3997 22.7646H32.3594ZM36.3801 19.7195H41.1C42.1489 19.7195 42.9397 19.5531 43.4725 19.2203C44.0219 18.8709 44.2966 18.3217 44.2966 17.5729C44.2966 16.8408 44.0219 16.3 43.4725 15.9505C42.9397 15.5845 42.1489 15.4014 41.1 15.4014H36.0804V12.4561H40.4008C41.3831 12.4561 42.1323 12.2897 42.6484 11.9569C43.1812 11.6075 43.4475 11.0833 43.4475 10.3845C43.4475 9.70222 43.1812 9.19469 42.6484 8.86189C42.1323 8.51245 41.3831 8.33773 40.4008 8.33773H36.3801V19.7195Z" fill="white"/>
<path d="M67.1385 9.13646C68.204 9.13646 69.1446 9.35277 69.9604 9.78541C70.7929 10.2014 71.4422 10.8504 71.9084 11.7323C72.3912 12.5976 72.6326 13.7125 72.6326 15.0769V22.7646H68.7367V15.676C68.7367 14.5944 68.512 13.7957 68.0625 13.2798C67.6129 12.764 66.9803 12.5061 66.1645 12.5061C65.5984 12.5061 65.0906 12.6392 64.6411 12.9054C64.1916 13.155 63.842 13.5377 63.5922 14.0536C63.3425 14.5694 63.2176 15.2267 63.2176 16.0254V22.7646H59.3218V15.676C59.3218 14.5944 59.097 13.7957 58.6475 13.2798C58.2146 12.764 57.5903 12.5061 56.7745 12.5061C56.2085 12.5061 55.7007 12.6392 55.2511 12.9054C54.8016 13.155 54.452 13.5377 54.2023 14.0536C53.9525 14.5694 53.8277 15.2267 53.8277 16.0254V22.7646H49.9318V9.33613H53.6529V13.0053L52.9536 11.932C53.4198 11.0168 54.0774 10.3262 54.9265 9.86029C55.7922 9.37773 56.7745 9.13646 57.8733 9.13646C59.1054 9.13646 60.1792 9.45261 61.0949 10.0849C62.0272 10.7006 62.6433 11.6491 62.9429 12.9304L61.5694 12.556C62.0189 11.5077 62.7348 10.6757 63.7171 10.06C64.716 9.44429 65.8565 9.13646 67.1385 9.13646Z" fill="white"/>
<path d="M74.8759 22.7646V9.33613H78.7717V22.7646H74.8759ZM76.8238 7.46413C76.1079 7.46413 75.5252 7.25613 75.0757 6.84013C74.6262 6.42413 74.4014 5.90829 74.4014 5.29261C74.4014 4.67693 74.6262 4.16109 75.0757 3.74509C75.5252 3.32909 76.1079 3.12109 76.8238 3.12109C77.5397 3.12109 78.1224 3.32077 78.5719 3.72013C79.0215 4.10285 79.2462 4.60205 79.2462 5.21774C79.2462 5.86669 79.0215 6.40749 78.5719 6.84013C78.1391 7.25613 77.5564 7.46413 76.8238 7.46413Z" fill="white"/>
<path d="M79.4406 22.7646L85.4591 14.8773L85.3842 17.0238L79.6154 9.33613H83.9857L87.6318 14.3531L85.9836 14.403L89.7545 9.33613H93.9001L88.1063 16.9489V14.8523L94.0999 22.7646H89.6796L85.8587 17.4232L87.482 17.6478L83.686 22.7646H79.4406Z" fill="white"/>
<path d="M0 3C0 1.34315 1.34386 0 3.0016 0H23.0123C24.67 0 26.0139 1.34315 26.0139 3V23C26.0139 24.6569 24.67 26 23.0123 26H3.0016C1.34386 26 0 24.6569 0 23V3Z" fill="#1263FF"/>
<path d="M18.7474 14.1048C18.7474 16.4626 16.8193 18.3735 14.4406 18.3735H10.7574C6.58841 18.3735 3.25174 14.8968 3.25174 10.8117C3.25174 6.72668 6.58773 3.25 10.7567 3.25H15.125V5.20137H10.7567C7.72202 5.20137 5.21969 7.75706 5.21969 10.8117C5.21969 13.8664 7.72202 16.4221 10.7567 16.4221H14.4399C15.731 16.4221 16.7774 15.3843 16.7774 14.1048C16.7774 12.8252 15.731 11.7874 14.4399 11.7874H10.8716C10.7428 11.788 10.6153 11.7631 10.4961 11.7144C10.377 11.6657 10.2686 11.5939 10.1772 11.5033C10.0858 11.4127 10.0132 11.305 9.96341 11.1864C9.91366 11.0677 9.88778 10.9404 9.88724 10.8117C9.88769 10.683 9.91351 10.5557 9.96323 10.437C10.013 10.3183 10.0856 10.2106 10.177 10.1199C10.2684 10.0293 10.3768 9.95761 10.496 9.90889C10.6152 9.86018 10.7428 9.83543 10.8716 9.83605H14.4399C16.818 9.83605 18.7474 11.7469 18.7474 14.1048Z" fill="white"/>
<path d="M6.58232 10.8117C6.58232 8.45383 8.51041 6.54297 10.8891 6.54297H14.5717C18.7413 6.54297 22.078 10.0197 22.078 14.1047C22.078 18.1898 18.7407 21.6664 14.5724 21.6664H10.2034V19.7151H14.5717C17.6064 19.7151 20.1094 17.1594 20.1094 14.1047C20.1094 11.05 17.6064 8.49434 14.5717 8.49434H10.8891C9.59741 8.49434 8.55027 9.53215 8.55027 10.8117C8.55027 12.0912 9.59741 13.129 10.8878 13.129H14.4568C15.0007 13.129 15.4411 13.5659 15.4411 14.1047C15.4411 14.6435 15.0007 15.0804 14.4568 15.0804H10.8884C8.50973 15.0804 6.58232 13.1695 6.58232 10.8117Z" fill="white"/>
</svg>
