<svg width="56" height="55" viewBox="0 0 56 55" fill="none" xmlns="http://www.w3.org/2000/svg">
<g clip-path="url(#clip0_8011_2038)">
<path d="M23.5358 54.9994C10.9316 54.9994 0.619141 44.6869 0.619141 32.0827C0.619141 19.4785 10.9316 9.16602 23.5358 9.16602C36.14 9.16602 46.4525 19.4785 46.4525 32.0827C46.4525 44.6869 36.14 54.9994 23.5358 54.9994ZM23.5358 11.4577C12.0775 11.4577 2.91081 20.6243 2.91081 32.0827C2.91081 43.541 12.0775 52.7077 23.5358 52.7077C34.9941 52.7077 44.1608 43.541 44.1608 32.0827C44.1608 20.6243 34.9941 11.4577 23.5358 11.4577Z" fill="#1263FF"/>
<path d="M23.5365 46.9792C15.2865 46.9792 8.64062 40.3333 8.64062 32.0833C8.64062 23.8333 15.2865 17.1875 23.5365 17.1875C31.7865 17.1875 38.4323 23.8333 38.4323 32.0833C38.4323 40.3333 31.7865 46.9792 23.5365 46.9792ZM23.5365 19.4792C16.6615 19.4792 10.9323 25.2083 10.9323 32.0833C10.9323 38.9583 16.6615 44.6875 23.5365 44.6875C30.4115 44.6875 36.1406 38.9583 36.1406 32.0833C36.1406 25.2083 30.4115 19.4792 23.5365 19.4792Z" fill="#1263FF"/>
<path d="M23.5352 38.959C19.6393 38.959 16.6602 35.9798 16.6602 32.084C16.6602 28.1882 19.6393 25.209 23.5352 25.209C27.431 25.209 30.4102 28.1882 30.4102 32.084C30.4102 35.9798 27.431 38.959 23.5352 38.959ZM23.5352 27.5007C21.0143 27.5007 18.9518 29.5632 18.9518 32.084C18.9518 34.6048 21.0143 36.6673 23.5352 36.6673C26.056 36.6673 28.1185 34.6048 28.1185 32.084C28.1185 29.5632 26.056 27.5007 23.5352 27.5007Z" fill="#1263FF"/>
<path d="M23.5358 33.2279C23.3066 33.2279 22.8483 33.2279 22.6191 32.9987C22.1608 32.5404 22.1608 31.8529 22.6191 31.3945L39.8066 14.207C40.265 13.7487 40.9525 13.7487 41.4108 14.207C41.8691 14.6654 41.8691 15.3529 41.4108 15.8112L24.2233 32.9987C24.2233 33.2279 23.765 33.2279 23.5358 33.2279Z" fill="#1263FF"/>
<path d="M46.4531 16.0417H40.724C40.0365 16.0417 39.5781 15.5833 39.5781 14.8958V9.16667C39.5781 8.9375 39.8073 8.47917 39.8073 8.25L47.8281 0.229167C48.2865 0 48.7448 0 49.2031 0C49.6615 0.229167 49.8906 0.6875 49.8906 1.14583V5.72917H54.474C54.9323 5.72917 55.3906 5.95833 55.6198 6.41667C55.6198 6.875 55.6198 7.33333 55.3906 7.79167L47.3698 15.8125C47.1406 15.8125 46.6823 16.0417 46.4531 16.0417ZM41.8698 13.75H45.9948L51.724 8.02083H48.7448C48.0573 8.02083 47.599 7.5625 47.599 6.875V3.89583L41.8698 9.625V13.75Z" fill="#1263FF"/>
</g>
<defs>
<clipPath id="clip0_8011_2038">
<rect width="55" height="55" fill="white" transform="translate(0.619141)"/>
</clipPath>
</defs>
</svg>
