<svg width="56" height="55" viewBox="0 0 56 55" fill="none" xmlns="http://www.w3.org/2000/svg">
<path d="M21.8897 6.07256C13.5173 6.07256 6.70674 12.8616 6.70674 21.2072C6.70674 29.5528 13.5184 36.3419 21.8897 36.3419C30.2622 36.3419 37.0728 29.5528 37.0728 21.2072C37.0728 12.8627 30.2622 6.07256 21.8897 6.07256ZM21.8897 35.0539C14.2284 35.0539 7.9958 28.8428 7.9958 21.2083C7.9958 13.5738 14.2284 7.3627 21.8897 7.3627C29.5511 7.3627 35.7837 13.5738 35.7837 21.2083C35.7837 28.8428 29.5511 35.0539 21.8897 35.0539ZM54.0035 47.1679C53.9434 45.6661 53.3074 44.3276 52.2128 43.3995L38.4649 31.7356C40.4168 28.6924 41.5501 25.0798 41.5501 21.2072C41.549 10.4027 32.7308 1.61133 21.8897 1.61133C11.0487 1.61133 2.23047 10.4027 2.23047 21.2083C2.23047 32.0139 11.0498 40.8053 21.8897 40.8053C25.6893 40.8053 29.2406 39.7235 32.2506 37.8555L43.9896 51.6012C44.9199 52.6904 46.2616 53.3242 47.7666 53.3844C47.8461 53.3876 47.9267 53.3887 48.0062 53.3887C49.5917 53.3887 51.1268 52.7581 52.2504 51.6388C53.431 50.4614 54.0701 48.8318 54.0035 47.1679ZM3.51953 21.2083C3.51953 11.1128 11.7609 2.90039 21.8897 2.90039C32.0186 2.90039 40.26 11.1128 40.26 21.2083C40.26 31.3038 32.0186 39.5162 21.8897 39.5162C11.7609 39.5162 3.51953 31.3027 3.51953 21.2083ZM37.7291 32.8023L40.275 34.9615L35.5216 39.6988L33.3312 37.1347C35.0156 35.9294 36.5002 34.4652 37.7291 32.8023ZM51.3405 50.7257C50.4274 51.6355 49.1115 52.149 47.8182 52.0964C46.6763 52.0502 45.6644 51.5775 44.9693 50.7633L36.3605 40.6817L41.2601 35.7983L51.3781 44.3813C52.1945 45.0731 52.6683 46.0808 52.7145 47.2184C52.7671 48.5053 52.2525 49.8158 51.3405 50.7257ZM15.2414 20.7238H12.1842C11.8286 20.7238 11.5396 21.0128 11.5396 21.3684V28.4034C11.5396 28.759 11.8286 29.0479 12.1842 29.0479H15.2414C15.597 29.0479 15.8859 28.759 15.8859 28.4034V21.3684C15.8859 21.0128 15.597 20.7238 15.2414 20.7238ZM14.5969 27.7589H12.8287V22.0129H14.5969V27.7589ZM20.6931 15.719H17.6358C17.2803 15.719 16.9913 16.008 16.9913 16.3636V28.4045C16.9913 28.7601 17.2803 29.049 17.6358 29.049H20.6931C21.0486 29.049 21.3376 28.7601 21.3376 28.4045V16.3636C21.3376 16.0069 21.0486 15.719 20.6931 15.719ZM20.0485 27.7589H18.2804V17.0081H20.0485V27.7589ZM26.1447 18.2198H23.0875C22.7319 18.2198 22.443 18.5088 22.443 18.8644V28.4034C22.443 28.759 22.7319 29.0479 23.0875 29.0479H26.1447C26.5003 29.0479 26.7893 28.759 26.7893 28.4034V18.8644C26.7893 18.5088 26.5003 18.2198 26.1447 18.2198ZM25.5002 27.7589H23.732V19.5089H25.5002V27.7589ZM31.5964 13.3676H28.5381C28.1825 13.3676 27.8936 13.6565 27.8936 14.0121V28.4034C27.8936 28.759 28.1825 29.0479 28.5381 29.0479H31.5953C31.9509 29.0479 32.2398 28.759 32.2398 28.4034V14.0121C32.2409 13.6565 31.952 13.3676 31.5964 13.3676ZM30.9519 27.7589H29.1826V14.6566H30.9508V27.7589H30.9519Z" fill="#1263FF"/>
</svg>
