<svg width="56" height="55" viewBox="0 0 56 55" fill="none" xmlns="http://www.w3.org/2000/svg">
<path d="M28.1203 1.71875H28.1192C25.1074 1.7194 22.1487 2.51126 19.5392 4.01504C16.9298 5.51881 14.7612 7.68173 13.2505 10.2872C11.7399 12.8927 10.9403 15.8494 10.9317 18.8611C10.9231 21.8728 11.7059 24.834 13.2017 27.448C14.6478 29.9633 16.7033 32.0744 19.1791 33.5871C19.5492 33.8181 19.8542 34.1398 20.0652 34.5217C20.2762 34.9036 20.3862 35.333 20.3848 35.7693V36.242C19.9855 36.3829 19.6272 36.6201 19.3414 36.9325C19.0557 37.2449 18.8514 37.6229 18.7465 38.0331C18.6417 38.4433 18.6396 38.873 18.7405 39.2842C18.8413 39.6954 19.0419 40.0755 19.3246 40.3906C18.9006 40.8627 18.666 41.4748 18.666 42.1094C18.666 42.7439 18.9006 43.3561 19.3246 43.8281C19.0418 44.1433 18.8411 44.5233 18.7402 44.9346C18.6393 45.3458 18.6414 45.7756 18.7462 46.1859C18.8511 46.5962 19.0554 46.9743 19.3412 47.2867C19.627 47.5991 19.9855 47.8363 20.3848 47.9772V48.9844C20.3861 50.1236 20.8392 51.2158 21.6447 52.0213C22.4503 52.8269 23.5425 53.28 24.6817 53.2812H31.5567C32.6959 53.28 33.7881 52.8269 34.5936 52.0213C35.3991 51.2158 35.8523 50.1236 35.8535 48.9844V47.9772C36.2529 47.8363 36.6113 47.5991 36.8971 47.2867C37.1829 46.9743 37.3873 46.5962 37.4921 46.1859C37.5969 45.7756 37.599 45.3458 37.4981 44.9346C37.3972 44.5233 37.1965 44.1433 36.9137 43.8281C37.3377 43.3561 37.5723 42.7439 37.5723 42.1094C37.5723 41.4748 37.3377 40.8627 36.9137 40.3906C37.1965 40.0755 37.3972 39.6954 37.4981 39.2842C37.599 38.8729 37.5969 38.4431 37.4921 38.0329C37.3873 37.6226 37.1829 37.2445 36.8971 36.9321C36.6113 36.6196 36.2529 36.3824 35.8535 36.2416V35.7689C35.8532 35.3255 35.9674 34.8895 36.1851 34.5033C36.4028 34.117 36.7167 33.7936 37.0962 33.5643C39.6055 32.0287 41.6783 29.8743 43.116 27.3077C44.5537 24.741 45.308 21.8481 45.3067 18.9062C45.3067 9.42971 37.5969 1.71939 28.1203 1.71875ZM21.2442 37.8125H34.9942C35.2221 37.8125 35.4407 37.903 35.6018 38.0642C35.763 38.2254 35.8535 38.444 35.8535 38.6719C35.8535 38.8998 35.763 39.1184 35.6018 39.2795C35.4407 39.4407 35.2221 39.5312 34.9942 39.5312H21.2442C21.0162 39.5312 20.7977 39.4407 20.6365 39.2795C20.4753 39.1184 20.3848 38.8998 20.3848 38.6719C20.3848 38.444 20.4753 38.2254 20.6365 38.0642C20.7977 37.903 21.0162 37.8125 21.2442 37.8125ZM25.541 27.5H24.6817C24.5117 27.5 24.3455 27.4496 24.2042 27.3552C24.0629 27.2607 23.9528 27.1265 23.8877 26.9695C23.8227 26.8125 23.8056 26.6397 23.8388 26.473C23.872 26.3063 23.9538 26.1531 24.074 26.033C24.1942 25.9128 24.3473 25.8309 24.514 25.7978C24.6807 25.7646 24.8535 25.7816 25.0105 25.8467C25.1676 25.9117 25.3018 26.0219 25.3962 26.1632C25.4906 26.3045 25.541 26.4707 25.541 26.6406V27.5ZM27.2598 29.2188H28.9785V36.0938H27.2598V29.2188ZM35.8535 42.1094C35.8533 42.3372 35.7627 42.5557 35.6016 42.7168C35.4404 42.8779 35.222 42.9685 34.9942 42.9688H21.2442C21.0162 42.9688 20.7977 42.8782 20.6365 42.717C20.4753 42.5559 20.3848 42.3373 20.3848 42.1094C20.3848 41.8815 20.4753 41.6629 20.6365 41.5017C20.7977 41.3405 21.0162 41.25 21.2442 41.25H34.9942C35.222 41.2503 35.4404 41.3409 35.6016 41.502C35.7627 41.6631 35.8533 41.8815 35.8535 42.1094ZM31.5567 51.5625H24.6817C23.9981 51.5617 23.3428 51.2899 22.8595 50.8065C22.3762 50.3232 22.1043 49.6679 22.1035 48.9844V48.125H34.1348V48.9844C34.134 49.6679 33.8622 50.3232 33.3788 50.8065C32.8955 51.2899 32.2402 51.5617 31.5567 51.5625ZM34.9942 46.4062H21.2442C21.0162 46.4062 20.7977 46.3157 20.6365 46.1545C20.4753 45.9934 20.3848 45.7748 20.3848 45.5469C20.3848 45.319 20.4753 45.1004 20.6365 44.9392C20.7977 44.778 21.0162 44.6875 21.2442 44.6875H34.9942C35.2221 44.6875 35.4407 44.778 35.6018 44.9392C35.763 45.1004 35.8535 45.319 35.8535 45.5469C35.8535 45.7748 35.763 45.9934 35.6018 46.1545C35.4407 46.3157 35.2221 46.4062 34.9942 46.4062ZM36.1973 32.0995C35.5665 32.4817 35.0452 33.0203 34.6838 33.6632C34.3225 34.3061 34.1334 35.0315 34.1348 35.769V36.0938H30.6973V29.2188H31.5567C32.0666 29.2188 32.565 29.0675 32.989 28.7843C33.413 28.501 33.7434 28.0983 33.9385 27.6272C34.1337 27.1561 34.1847 26.6378 34.0853 26.1377C33.9858 25.6376 33.7402 25.1782 33.3797 24.8176C33.0191 24.4571 32.5597 24.2115 32.0596 24.112C31.5595 24.0126 31.0412 24.0636 30.5701 24.2587C30.099 24.4539 29.6963 24.7843 29.413 25.2083C29.1297 25.6323 28.9785 26.1307 28.9785 26.6406V27.5H27.2598V26.6406C27.2598 26.1307 27.1086 25.6323 26.8253 25.2083C26.542 24.7843 26.1394 24.4539 25.6683 24.2587C25.1972 24.0636 24.6788 24.0126 24.1787 24.112C23.6786 24.2115 23.2192 24.4571 22.8587 24.8176C22.4981 25.1782 22.2526 25.6376 22.1531 26.1377C22.0536 26.6378 22.1047 27.1561 22.2998 27.6272C22.4949 28.0983 22.8254 28.501 23.2493 28.7843C23.6733 29.0675 24.1718 29.2188 24.6817 29.2188H25.541V36.0938H22.1035V35.7693C22.104 35.0386 21.9178 34.3198 21.5627 33.6812C21.2076 33.0425 20.6952 32.5051 20.0742 32.1199C17.19 30.3662 14.9587 27.7171 13.7208 24.5768C12.4828 21.4365 12.3061 17.9774 13.2177 14.7273C14.1293 11.4772 16.0791 8.6146 18.7696 6.57617C21.4602 4.53775 24.7437 3.43546 28.1192 3.4375H28.1203C36.6491 3.43814 43.5879 10.377 43.5879 18.9062C43.5969 21.5557 42.9212 24.1626 41.6263 26.4741C40.3315 28.7856 38.4614 30.7233 36.1973 32.0995ZM30.6973 27.5V26.6406C30.6973 26.4707 30.7477 26.3045 30.8421 26.1632C30.9366 26.0219 31.0708 25.9117 31.2278 25.8467C31.3848 25.7816 31.5576 25.7646 31.7243 25.7978C31.891 25.8309 32.0442 25.9128 32.1643 26.033C32.2845 26.1531 32.3664 26.3063 32.3995 26.473C32.4327 26.6397 32.4157 26.8125 32.3506 26.9695C32.2856 27.1265 32.1754 27.2607 32.0341 27.3552C31.8928 27.4496 31.7266 27.5 31.5567 27.5H30.6973Z" fill="#1263FF"/>
<path d="M28.1191 5.15625H27.2598C27.0318 5.15625 26.8133 5.24679 26.6521 5.40796C26.4909 5.56912 26.4004 5.7877 26.4004 6.01562C26.4004 6.24355 26.4909 6.46213 26.6521 6.62329C26.8133 6.78446 27.0318 6.875 27.2598 6.875H28.1191C31.3089 6.87861 34.367 8.14734 36.6225 10.4029C38.878 12.6584 40.1468 15.7165 40.1504 18.9062V19.7656C40.1504 19.9935 40.2409 20.2121 40.4021 20.3733C40.5633 20.5345 40.7818 20.625 41.0098 20.625C41.2377 20.625 41.4563 20.5345 41.6174 20.3733C41.7786 20.2121 41.8691 19.9935 41.8691 19.7656V18.9062C41.865 15.2608 40.415 11.7658 37.8373 9.18809C35.2596 6.61035 31.7646 5.16037 28.1191 5.15625Z" fill="#1263FF"/>
</svg>
