<svg width="57" height="57" viewBox="0 0 57 57" fill="none" xmlns="http://www.w3.org/2000/svg">
<g clip-path="url(#clip0_8011_2074)">
<path d="M23.8515 44.4296L23.8341 43.9299L23.3344 43.9474L7.25251 44.509C4.83013 44.5936 2.78623 42.6876 2.70163 40.2652L1.59619 8.60952C1.51164 6.18824 3.41676 4.1516 5.84025 4.06697L49.3471 2.54768C51.7706 2.46305 53.8131 4.36184 53.8976 6.78311L55.0028 38.4305C55.0874 40.8529 53.1814 42.8968 50.759 42.9814L34.6855 43.5427L34.1858 43.5601L34.2033 44.0598L34.2664 45.867C34.3365 47.8753 36.0333 49.4576 38.0415 49.3874L38.1581 49.3834C38.1673 49.383 38.1762 49.3838 38.188 49.3867C38.2013 49.3899 38.2211 49.3965 38.2522 49.4106L38.3146 49.4392L38.3824 49.4498C40.1046 49.7205 41.4479 51.1812 41.5106 52.9769C41.5146 53.0923 41.4251 53.1883 41.3096 53.1924L17.3992 54.0273C17.3488 54.0291 17.2918 54.0089 17.2507 53.9706C17.2073 53.9301 17.1857 53.882 17.1837 53.8264C17.1501 52.863 17.5197 51.8924 18.1871 51.1767L18.1871 51.1767L18.1918 51.1715C18.6892 50.623 19.3411 50.2551 20.066 50.0896L20.124 50.0763L20.1773 50.0498C20.2347 50.0213 20.2604 50.0167 20.2776 50.0161L20.3942 50.012C22.4025 49.9419 23.9848 48.2451 23.9146 46.2369L23.8515 44.4296ZM53.9218 33.7404L54.4215 33.7229L54.404 33.2232L53.4812 6.79765C53.4047 4.60618 51.5614 2.88727 49.3699 2.9638L5.85479 4.48338C3.66487 4.55986 1.93602 6.40195 2.01261 8.59498L2.93541 35.0205L2.95286 35.5202L3.45255 35.5028L53.9218 33.7404ZM40.4956 52.8039L41.1454 52.7812L40.9566 52.159C40.5347 50.7687 39.2141 49.7717 37.6982 49.8247L20.7669 50.4159C19.8839 50.4468 19.0762 50.8203 18.4873 51.4621L18.486 51.4635C18.097 51.8907 17.8094 52.4083 17.6795 52.9709L17.533 53.6057L18.1842 53.583L40.4956 52.8039ZM34.7352 49.5029L35.8983 49.4623L35.0682 48.6466C34.3525 47.9433 33.8875 46.9717 33.8416 45.8801L33.7785 44.0746L33.7611 43.575L33.2614 43.5924L24.7416 43.8899L24.2419 43.9074L24.2593 44.4071L24.3224 46.2143C24.3603 47.2987 23.9719 48.3062 23.3018 49.0555L22.5202 49.9295L23.6919 49.8885L34.7352 49.5029ZM3.47542 35.9189L2.97573 35.9364L2.99318 36.436L3.12638 40.2504C3.2029 42.4419 5.04621 44.1608 7.23768 44.0842L50.7528 42.5647C52.9443 42.4881 54.6632 40.6448 54.5867 38.4534L54.4535 34.639L54.436 34.1393L53.9363 34.1568L3.47542 35.9189Z" fill="white" stroke="white"/>
<path d="M30.7285 39.105C30.7648 40.1449 29.9519 41.0166 28.912 41.0529C27.8722 41.0892 27.0004 40.2763 26.9641 39.2364C26.9282 38.2083 27.7378 37.3416 28.7812 37.3052C29.8233 37.2688 30.6928 38.084 30.7285 39.105ZM30.3121 39.1195C30.284 38.3159 29.5936 37.7021 28.796 37.7299C27.9984 37.7578 27.3525 38.4183 27.3805 39.2219C27.4088 40.0309 28.0885 40.6647 28.8975 40.6365C29.7065 40.6082 30.3403 39.9285 30.3121 39.1195Z" fill="white" stroke="white"/>
<path d="M10.6174 12.8964L6.90298 13.0262C6.78752 13.0302 6.69153 12.9407 6.6875 12.8252C6.68347 12.7098 6.77298 12.6138 6.88844 12.6097L10.6028 12.48C10.7183 12.476 10.8143 12.5655 10.8183 12.681C10.8223 12.7964 10.7328 12.8924 10.6174 12.8964Z" fill="white" stroke="white"/>
<path d="M16.9259 9.18116L16.0514 9.2117C15.9398 9.2156 15.8398 9.12171 15.8359 9.01076C15.8319 8.89531 15.9214 8.79932 16.0369 8.79529L16.9113 8.76475C17.0268 8.76072 17.1228 8.85023 17.1268 8.96569C17.1309 9.08114 17.0413 9.17713 16.9259 9.18116Z" fill="white" stroke="white"/>
<path d="M13.2446 9.31024L6.78189 9.53592C6.67024 9.53982 6.57028 9.44593 6.56641 9.33498C6.56238 9.21953 6.65189 9.12354 6.76734 9.11951L13.2301 8.89382C13.3455 8.88979 13.4415 8.9793 13.4455 9.09476C13.4496 9.21021 13.3601 9.3062 13.2446 9.31024Z" fill="white" stroke="white"/>
<path d="M16.338 23.1531L16.3379 23.1531L16.3382 23.1637L16.6052 30.809C16.6093 30.9245 16.5197 31.0205 16.4043 31.0245L10.3496 31.2359C10.2342 31.24 10.1382 31.1505 10.1342 31.035L9.86719 23.3897C9.86316 23.2742 9.95267 23.1782 10.0681 23.1742L16.1228 22.9628C16.2526 22.9582 16.3366 23.0517 16.338 23.1531ZM15.6818 30.6328L16.1815 30.6154L16.1641 30.1157L15.9466 23.8861L15.9291 23.3864L15.4294 23.4039L10.7906 23.5659L10.2909 23.5833L10.3083 24.083L10.5259 30.3126L10.5433 30.8123L11.043 30.7948L15.6818 30.6328Z" fill="white" stroke="white"/>
<path d="M20.6958 17.3628L20.1961 17.3802L20.2136 17.8799L20.6353 29.9559L20.6527 30.4556L21.1524 30.4381L25.7913 30.2761L26.291 30.2587L26.2735 29.759L25.8518 17.683L25.8344 17.1833L25.3347 17.2008L20.6958 17.3628ZM26.5137 30.6678L20.4591 30.8793C20.3436 30.8833 20.2476 30.7938 20.2436 30.6783L19.7725 17.1865C19.7684 17.0711 19.8579 16.9751 19.9734 16.9711L26.028 16.7596C26.1435 16.7556 26.2395 16.8451 26.2435 16.9606L26.7147 30.4523C26.7187 30.5678 26.6292 30.6638 26.5137 30.6678Z" fill="white" stroke="white"/>
<path d="M30.5257 8.70674L30.0261 8.72419L30.0435 9.22388L30.7552 29.6031L30.7726 30.1028L31.2723 30.0854L35.9111 29.9234L36.4108 29.9059L36.3934 29.4062L35.6817 9.02699L35.6643 8.52729L35.1646 8.54474L30.5257 8.70674ZM36.6253 30.3154L30.5706 30.5268C30.4552 30.5308 30.3592 30.4413 30.3551 30.3259L29.5938 8.52248C29.5897 8.40703 29.6792 8.31104 29.7947 8.30701L35.8493 8.09557C35.9648 8.09154 36.0608 8.18105 36.0648 8.29651L36.8262 30.0999C36.8302 30.2153 36.7407 30.3113 36.6253 30.3154Z" fill="white" stroke="white"/>
<path d="M40.4741 29.985L40.4742 29.985L40.4738 29.9744L39.882 13.0264C39.878 12.9109 39.9675 12.8149 40.0829 12.8109L46.1376 12.5995C46.253 12.5954 46.349 12.685 46.3531 12.8004L46.9449 29.7484C46.9489 29.8639 46.8594 29.9599 46.744 29.9639L40.6893 30.1753C40.5595 30.1799 40.4755 30.0864 40.4741 29.985ZM40.8054 13.2026L40.3057 13.22L40.3231 13.7197L40.8655 29.2519L40.883 29.7516L41.3827 29.7342L46.0215 29.5722L46.5212 29.5548L46.5038 29.0551L45.9614 13.5229L45.9439 13.0232L45.4442 13.0406L40.8054 13.2026Z" fill="white" stroke="white"/>
</g>
<defs>
<clipPath id="clip0_8011_2074">
<rect width="55" height="55" fill="white" transform="translate(0.0283203 1.93555) rotate(-2)"/>
</clipPath>
</defs>
</svg>
