<svg width="55" height="44" viewBox="0 0 55 44" fill="none" xmlns="http://www.w3.org/2000/svg">
<path d="M7.66275 23.4585C10.0757 23.4585 12.0298 21.4959 12.0298 19.0915C12.0298 18.1654 11.7324 17.3073 11.2396 16.5936L18.5888 9.21896C19.2855 9.69474 20.1351 9.97512 21.0442 9.97512C22.1827 9.97512 23.2107 9.52482 23.9923 8.81114L30.5089 13.6454C30.2285 14.2232 30.0586 14.8604 30.0586 15.5401C30.0586 17.953 32.0212 19.9071 34.4256 19.9071C36.8385 19.9071 38.7926 17.9445 38.7926 15.5401C38.7926 14.5545 38.4528 13.6624 37.909 12.9318L46.6261 3.33963L46.1758 6.58515C46.1163 7.03545 46.4222 7.45176 46.8725 7.51123C46.9149 7.51973 46.9489 7.51973 46.9914 7.51973C47.3907 7.51973 47.7476 7.22236 47.807 6.81455L48.6312 0.935216C48.6312 0.918224 48.6227 0.901232 48.6227 0.875744C48.6312 0.790782 48.6227 0.714317 48.5972 0.637851C48.5887 0.603867 48.5802 0.561386 48.5717 0.527401C48.5462 0.450936 48.4952 0.382967 48.4442 0.314998C48.4273 0.289509 48.4188 0.255525 48.3933 0.238532C48.3848 0.230036 48.3763 0.230036 48.3678 0.22154C48.3678 0.22154 48.3678 0.213044 48.3593 0.213044C48.3508 0.213044 48.3508 0.204548 48.3423 0.204548C48.1809 0.0686094 47.977 -0.00785571 47.7731 0.000640435H47.7646C47.7391 0.000640435 47.7136 0.000640435 47.6966 0.000640435L41.8173 0.824766C41.367 0.884239 41.0526 1.30055 41.1206 1.75085C41.18 2.20114 41.5964 2.5155 42.0466 2.44753L45.683 1.93776L36.7026 11.8273C36.0399 11.4195 35.2667 11.1731 34.4341 11.1731C33.2956 11.1731 32.2676 11.6234 31.4944 12.337L24.9779 7.50274C25.2583 6.9335 25.4197 6.29628 25.4197 5.61659C25.4197 3.20369 23.4571 1.24957 21.0527 1.24957C18.6483 1.24957 16.6857 3.21218 16.6857 5.61659C16.6857 6.52568 16.966 7.3668 17.4418 8.07198L10.0757 15.4551C9.38747 14.9963 8.55484 14.7245 7.67125 14.7245C5.25834 14.7245 3.30423 16.6871 3.30423 19.0915C3.29573 21.5044 5.24984 23.4585 7.66275 23.4585ZM34.4341 12.8128C35.9379 12.8128 37.1614 14.0363 37.1614 15.5401C37.1614 17.0439 35.9379 18.2674 34.4341 18.2674C32.9303 18.2674 31.7068 17.0439 31.7068 15.5401C31.7068 14.0363 32.9303 12.8128 34.4341 12.8128ZM21.0442 2.88083C22.548 2.88083 23.7714 4.10428 23.7714 5.6081C23.7714 7.11191 22.548 8.33536 21.0442 8.33536C19.5404 8.33536 18.3169 7.11191 18.3169 5.6081C18.3169 4.10428 19.5404 2.88083 21.0442 2.88083ZM7.66275 16.3642C9.16657 16.3642 10.39 17.5877 10.39 19.0915C10.39 20.5953 9.16657 21.8187 7.66275 21.8187C6.15893 21.8187 4.93549 20.5953 4.93549 19.0915C4.93549 17.5877 6.15893 16.3642 7.66275 16.3642Z" fill="#1263FF"/>
<path d="M54.0344 42.3517H52.4881V14.9092C52.4881 13.5498 51.3836 12.4453 50.0242 12.4453H45.6232C44.2638 12.4453 43.1593 13.5498 43.1593 14.9092V42.3517H39.1067V27.2286C39.1067 25.8692 38.0022 24.7647 36.6428 24.7647H32.2418C30.8824 24.7647 29.7779 25.8692 29.7779 27.2286V42.3433H25.7253V20.6611C25.7253 19.3017 24.6208 18.1972 23.2614 18.1972H18.8604C17.501 18.1972 16.3965 19.3017 16.3965 20.6611V42.3517H12.3438V34.6287C12.3438 33.2694 11.2393 32.1649 9.87994 32.1649H5.46194C4.10256 32.1649 2.99806 33.2694 2.99806 34.6287V42.3517H1.44327C0.992971 42.3517 0.619141 42.7171 0.619141 43.1759C0.619141 43.6347 0.984475 44 1.44327 44H54.0259C54.4762 44 54.85 43.6347 54.85 43.1759C54.85 42.7171 54.4847 42.3517 54.0344 42.3517ZM4.63782 42.3517V34.6287C4.63782 34.1785 5.00315 33.8046 5.46194 33.8046H9.86295C10.3132 33.8046 10.6871 34.17 10.6871 34.6287V42.3517H4.63782ZM18.0192 42.3517V20.6611C18.0192 20.2108 18.3846 19.837 18.8434 19.837H23.2444C23.6947 19.837 24.0685 20.2023 24.0685 20.6611V42.3517H18.0192ZM31.4092 42.3517V27.2286C31.4092 26.7783 31.7745 26.4045 32.2333 26.4045H36.6343C37.0846 26.4045 37.4584 26.7698 37.4584 27.2286V42.3433H31.4092V42.3517ZM44.7906 42.3517V14.9092C44.7906 14.4589 45.1559 14.0851 45.6147 14.0851H50.0157C50.466 14.0851 50.8399 14.4504 50.8399 14.9092V42.3517H44.7906Z" fill="#1263FF"/>
</svg>
