<svg width="56" height="55" viewBox="0 0 56 55" fill="none" xmlns="http://www.w3.org/2000/svg">
<path d="M17.1554 27.9902C17.1125 27.99 17.0697 27.9869 17.0272 27.9808L8.99174 26.811C8.83033 26.7873 8.67867 26.7193 8.55369 26.6145C8.42871 26.5096 8.33533 26.3721 8.28399 26.2173C8.23264 26.0624 8.22534 25.8964 8.26291 25.7376C8.30048 25.5789 8.38144 25.4337 8.49674 25.3183L12.2538 21.5601C12.4188 21.3953 12.6426 21.3027 12.8758 21.3027H12.8802L19.736 21.3346C19.9694 21.3351 20.193 21.4283 20.3577 21.5937C20.5223 21.7591 20.6146 21.9832 20.6141 22.2166C20.6136 22.4499 20.5203 22.6736 20.355 22.8382C20.1896 23.0029 19.9655 23.0951 19.7321 23.0946H19.7277L13.2377 23.0644L10.9827 25.3194L17.2819 26.2362C17.5024 26.2677 17.7028 26.3815 17.8426 26.5549C17.9825 26.7282 18.0514 26.9481 18.0355 27.1703C18.0196 27.3924 17.92 27.6003 17.7569 27.752C17.5938 27.9036 17.3792 27.9878 17.1565 27.9874L17.1554 27.9902Z" fill="#1263FF"/>
<path d="M29.6821 47.3841C29.4707 47.3841 29.2663 47.3079 29.1064 47.1695C28.9466 47.0311 28.8418 46.8398 28.8115 46.6306L27.6411 38.5929C27.6074 38.3618 27.6669 38.1267 27.8065 37.9395C27.9461 37.7522 28.1543 37.6281 28.3855 37.5944C28.6166 37.5607 28.8517 37.6202 29.0389 37.7598C29.2262 37.8994 29.3503 38.1077 29.384 38.3388L30.3014 44.6413L32.5592 42.3863L32.5284 35.8864C32.5278 35.7707 32.55 35.6562 32.5937 35.5491C32.6374 35.4421 32.7018 35.3447 32.7832 35.2626C32.8645 35.1805 32.9613 35.1152 33.0679 35.0705C33.1745 35.0257 33.2889 35.0025 33.4045 35.002H33.4084C33.6411 35.002 33.8643 35.0941 34.0292 35.2583C34.1942 35.4225 34.2873 35.6454 34.2884 35.8781L34.3208 42.7449C34.3213 42.8611 34.2988 42.9764 34.2545 43.0839C34.2103 43.1914 34.1451 43.2891 34.0629 43.3713L30.3058 47.1284C30.2238 47.2099 30.1264 47.2744 30.0194 47.3183C29.9124 47.3622 29.7978 47.3846 29.6821 47.3841Z" fill="#1263FF"/>
<path d="M27.3994 39.8041C27.166 39.804 26.9423 39.7112 26.7773 39.5461L16.0771 28.8464C15.9556 28.725 15.8724 28.5706 15.8376 28.4024C15.8028 28.2342 15.818 28.0595 15.8813 27.8999C16.0463 27.478 16.1997 27.1079 16.3438 26.768C16.6661 26.0046 16.9802 25.3259 17.3041 24.6939C17.8184 23.6874 18.3854 22.6952 18.9882 21.7448C22.3066 16.4926 26.9021 12.1673 32.3454 9.17272C37.7887 6.17819 43.9023 4.61223 50.1149 4.62113C50.3483 4.62113 50.5721 4.71385 50.7372 4.87888C50.9022 5.04391 50.9949 5.26774 50.9949 5.50113C50.9982 9.2525 50.4292 12.9824 49.3075 16.5622C46.6919 24.8602 41.2269 31.9664 33.8784 36.6245C32.906 37.2411 31.8929 37.8186 30.8671 38.3405C30.2363 38.6623 29.5785 38.9681 28.8574 39.2755C28.4972 39.4301 28.1259 39.5824 27.7228 39.7419C27.6198 39.7827 27.5101 39.8038 27.3994 39.8041ZM17.7326 28.0126L27.6106 37.8906C27.8003 37.8125 27.984 37.7355 28.165 37.658C28.8503 37.3654 29.4729 37.0755 30.0685 36.7719C31.0453 36.2769 32.01 35.7269 32.9357 35.1379C39.9333 30.703 45.1377 23.937 47.6289 16.0358C48.6081 12.9115 49.145 9.66539 49.2239 6.39213C43.4601 6.52924 37.8195 8.08859 32.8037 10.9315C27.7879 13.7744 23.5524 17.8128 20.4738 22.6875C19.8996 23.5923 19.36 24.5372 18.8694 25.4958C18.5658 26.0893 18.2694 26.7295 17.9636 27.4538C17.8888 27.6298 17.8129 27.8152 17.7326 28.0126Z" fill="#1263FF"/>
<path d="M48.4696 17.1787C48.246 17.179 48.0308 17.0938 47.8679 16.9406C47.8602 16.9329 47.8519 16.9257 47.8442 16.9175L38.7643 7.74402C38.7582 7.73852 38.7527 7.73302 38.7472 7.72697C38.5858 7.55835 38.498 7.33251 38.5031 7.09915C38.5082 6.86578 38.6058 6.644 38.7745 6.4826C38.9431 6.32119 39.1689 6.23339 39.4023 6.23849C39.6357 6.2436 39.8574 6.3412 40.0188 6.50982L49.0922 15.6756C49.2156 15.7986 49.2997 15.9555 49.3338 16.1264C49.3679 16.2973 49.3505 16.4745 49.2839 16.6355C49.2172 16.7965 49.1042 16.934 48.9592 17.0308C48.8143 17.1275 48.6439 17.179 48.4696 17.1787Z" fill="#1263FF"/>
<path d="M32.9946 27.8172C31.6168 27.8172 30.2955 27.2699 29.3213 26.2957C28.3471 25.3215 27.7998 24.0002 27.7998 22.6225C27.7998 21.2448 28.3471 19.9234 29.3213 18.9492C30.2955 17.975 31.6168 17.4277 32.9946 17.4277C34.3723 17.4277 35.6936 17.975 36.6678 18.9492C37.642 19.9234 38.1893 21.2448 38.1893 22.6225C38.1893 24.0002 37.642 25.3215 36.6678 26.2957C35.6936 27.2699 34.3723 27.8172 32.9946 27.8172ZM32.9946 19.1877C32.0836 19.1877 31.21 19.5496 30.5658 20.1938C29.9217 20.8379 29.5598 21.7115 29.5598 22.6225C29.5598 23.5334 29.9217 24.4071 30.5658 25.0512C31.21 25.6954 32.0836 26.0572 32.9946 26.0572C33.9055 26.0572 34.7791 25.6954 35.4233 25.0512C36.0674 24.4071 36.4293 23.5334 36.4293 22.6225C36.4293 21.7115 36.0674 20.8379 35.4233 20.1938C34.7791 19.5496 33.9055 19.1877 32.9946 19.1877Z" fill="#1263FF"/>
<path d="M22.8027 42.7292C22.6869 42.7293 22.5723 42.7066 22.4654 42.6623C22.3585 42.6181 22.2613 42.5532 22.1795 42.4713L13.1524 33.4436C13.0108 33.3021 12.9217 33.1165 12.8998 32.9175C12.8779 32.7185 12.9245 32.518 13.0319 32.3491L15.9579 27.7511C16.0287 27.64 16.1235 27.5461 16.2354 27.4765C16.3473 27.4069 16.4733 27.3634 16.6043 27.349C16.7353 27.3346 16.8678 27.3499 16.9921 27.3936C17.1164 27.4373 17.2293 27.5083 17.3225 27.6015L28.0222 38.3012C28.1153 38.3944 28.1864 38.5073 28.2301 38.6316C28.2738 38.7559 28.289 38.8884 28.2747 39.0194C28.2603 39.1503 28.2167 39.2764 28.1471 39.3883C28.0775 39.5002 27.9837 39.595 27.8726 39.6657L23.2751 42.5917C23.1339 42.6816 22.97 42.7293 22.8027 42.7292ZM14.8959 32.6983L22.9259 40.7283L26.002 38.7703L16.8539 29.6216L14.8959 32.6983Z" fill="#1263FF"/>
<path d="M17.2918 44.6412C17.0586 44.6414 16.8349 44.549 16.6698 44.3844L11.2385 38.9537C11.0882 38.803 10.9976 38.603 10.9834 38.3906C10.9692 38.1782 11.0325 37.968 11.1615 37.7987L14.3768 33.5906C14.5197 33.4086 14.7285 33.2902 14.958 33.261C15.1875 33.2317 15.4193 33.2941 15.6032 33.4345C15.7871 33.575 15.9083 33.7822 15.9405 34.0113C15.9728 34.2404 15.9135 34.473 15.7755 34.6587L13.0255 38.2552L17.3672 42.5969L20.9636 39.8469C21.0555 39.7767 21.1602 39.7253 21.2719 39.6956C21.3836 39.6659 21.5001 39.6586 21.6146 39.6739C21.7292 39.6892 21.8396 39.7269 21.9396 39.7849C22.0395 39.8429 22.1271 39.92 22.1973 40.0119C22.2675 40.1037 22.3188 40.2085 22.3485 40.3202C22.3782 40.4319 22.3856 40.5483 22.3703 40.6629C22.355 40.7774 22.3172 40.8878 22.2592 40.9878C22.2012 41.0878 22.1241 41.1754 22.0323 41.2455L17.8237 44.4608C17.6709 44.5774 17.4841 44.6408 17.2918 44.6412Z" fill="#1263FF"/>
<path d="M6.1232 50.3793C5.98624 50.3793 5.85117 50.3473 5.72874 50.2859C5.60631 50.2246 5.4999 50.1354 5.41797 50.0257C5.33605 49.9159 5.28087 49.7886 5.25683 49.6538C5.23279 49.5189 5.24055 49.3803 5.2795 49.249C5.2949 49.194 5.67165 47.929 6.1782 46.5177C7.1418 43.8343 7.6874 43.0901 8.0141 42.7634C8.6578 42.1269 9.52731 41.7709 10.4326 41.7735C11.3379 41.776 12.2055 42.1367 12.8456 42.7769C13.4858 43.417 13.8465 44.2845 13.849 45.1899C13.8516 46.0952 13.4956 46.9647 12.859 47.6084C12.5323 47.9351 11.7876 48.4807 9.1042 49.4437C7.6929 49.9503 6.42625 50.327 6.37345 50.343C6.29218 50.3669 6.20791 50.3791 6.1232 50.3793ZM10.4363 43.5208C10.2175 43.5204 10.0008 43.5632 9.7986 43.6468C9.59641 43.7305 9.41276 43.8532 9.2582 44.0081C8.8556 44.4107 8.11255 46.2427 7.47345 48.149C9.37975 47.5088 11.2134 46.7663 11.6144 46.3637C11.8476 46.1309 12.0064 45.8341 12.0708 45.5109C12.1352 45.1877 12.1022 44.8527 11.9761 44.5483C11.8499 44.2439 11.6363 43.9837 11.3622 43.8008C11.088 43.6179 10.7658 43.5204 10.4363 43.5208Z" fill="#1263FF"/>
</svg>
