<svg width="40" height="40" viewBox="0 0 40 40" fill="none" xmlns="http://www.w3.org/2000/svg">
<path d="M32.1172 26.9673C34.4651 23.3471 35.3896 18.9859 34.7127 14.7245C34.0357 10.4631 31.8052 6.60308 28.4511 3.88867C25.0969 1.17426 20.8567 -0.202392 16.5478 0.0240917C12.2389 0.250575 8.16632 2.06416 5.11524 5.11524C2.06416 8.16632 0.250575 12.2389 0.0240917 16.5478C-0.202392 20.8567 1.17426 25.0969 3.88867 28.4511C6.60308 31.8052 10.4631 34.0357 14.7245 34.7127C18.9859 35.3896 23.3471 34.4651 26.9673 32.1172L33.7857 38.9357C34.4689 39.6176 35.3948 40.0004 36.36 40C37.3253 39.9996 38.2509 39.616 38.9334 38.9334C39.616 38.2509 39.9996 37.3253 40 36.36C40.0004 35.3948 39.6176 34.4689 38.9357 33.7857L32.1172 26.9673ZM1.95357 17.49C1.95357 14.4172 2.86477 11.4134 4.57194 8.85844C6.27911 6.30348 8.70557 4.31213 11.5445 3.13622C14.3834 1.9603 17.5073 1.65262 20.5211 2.2521C23.5348 2.85158 26.3032 4.33128 28.476 6.5041C30.6488 8.67691 32.1285 11.4452 32.728 14.459C33.3275 17.4728 33.0198 20.5967 31.8439 23.4356C30.6679 26.2745 28.6766 28.701 26.1216 30.4081C23.5667 32.1153 20.5629 33.0265 17.49 33.0265C13.3709 33.0219 9.4218 31.3836 6.50914 28.4709C3.59648 25.5583 1.95814 21.6092 1.95357 17.49ZM30.9832 28.5235L32.6326 30.1729L30.1729 32.6326L28.5235 30.9832C29.4226 30.2466 30.2466 29.4226 30.9832 28.5235ZM36.3607 38.0996C36.1322 38.1003 35.9059 38.0556 35.6948 37.9682C35.4837 37.8809 35.292 37.7525 35.1308 37.5906L31.5179 33.9777L33.9777 31.5179L37.5906 35.1308C37.8337 35.3741 37.9992 35.684 38.0663 36.0213C38.1333 36.3586 38.0988 36.7083 37.9672 37.026C37.8356 37.3437 37.6127 37.6153 37.3268 37.8064C37.0408 37.9975 36.7046 38.0996 36.3607 38.0996Z" fill="#060E28"/>
<path d="M17.6673 20.0007C18.956 20.0007 20.0007 18.956 20.0007 17.6673C20.0007 16.3787 18.956 15.334 17.6673 15.334C16.3787 15.334 15.334 16.3787 15.334 17.6673C15.334 18.956 16.3787 20.0007 17.6673 20.0007Z" fill="url(#paint0_linear_8105_4360)"/>
<path d="M13.8837 26.1527L15.137 29.25C15.2264 29.4716 15.381 29.6616 15.5808 29.7954C15.7805 29.9292 16.0163 30.0007 16.2576 30.0007H19.0738C19.3151 30.0007 19.5509 29.9292 19.7506 29.7954C19.9504 29.6616 20.1049 29.4716 20.1944 29.25L21.4477 26.1527L23.2063 25.1487L26.5451 25.6243C26.7839 25.6593 27.0278 25.6222 27.245 25.518C27.4621 25.4137 27.6424 25.2471 27.7623 25.04L29.1705 22.628C29.2912 22.4214 29.3465 22.1838 29.3293 21.9459C29.312 21.7079 29.2231 21.4805 29.0738 21.293L26.9883 18.6713V16.6634L29.0738 14.0416C29.2231 13.8542 29.312 13.6268 29.3293 13.3888C29.3465 13.1508 29.2912 12.9132 29.1705 12.7066L27.7623 10.2947C27.6423 10.0876 27.4619 9.92114 27.2448 9.81691C27.0277 9.71268 26.7839 9.67554 26.5451 9.71033L23.2063 10.1859L21.4477 9.18194L20.1944 6.08462C20.1049 5.86301 19.9504 5.67302 19.7506 5.53921C19.5509 5.4054 19.3151 5.33391 19.0738 5.33398H16.2576C16.0163 5.33391 15.7805 5.4054 15.5808 5.53921C15.381 5.67302 15.2264 5.86301 15.137 6.08462L13.8837 9.18194L12.1251 10.1859L8.78625 9.71033C8.54749 9.67562 8.30369 9.7128 8.0866 9.81703C7.86951 9.92125 7.68917 10.0877 7.56906 10.2947L6.16093 12.7066C6.0402 12.9132 5.98487 13.1508 6.0021 13.3888C6.01933 13.6268 6.10833 13.8542 6.25758 14.0416L8.34307 16.6634V18.6713L6.25758 21.293C6.10833 21.4805 6.01933 21.7079 6.00211 21.9459C5.98488 22.1838 6.0402 22.4214 6.16093 22.628L7.56906 25.04C7.68904 25.2471 7.86935 25.4136 8.08648 25.5179C8.30361 25.6221 8.54748 25.6592 8.78625 25.6243L12.1251 25.1487L13.8837 26.1527ZM17.6657 13.291C18.541 13.291 19.3966 13.5476 20.1244 14.0285C20.8522 14.5094 21.4194 15.1929 21.7544 15.9926C22.0893 16.7922 22.177 17.6722 22.0062 18.5211C21.8355 19.37 21.414 20.1498 20.795 20.7619C20.1761 21.3739 19.3876 21.7907 18.5291 21.9596C17.6706 22.1284 16.7808 22.0418 15.9721 21.7105C15.1634 21.3793 14.4722 20.8184 13.986 20.0987C13.4997 19.379 13.2401 18.5329 13.2401 17.6673C13.2416 16.5071 13.7083 15.3948 14.5379 14.5744C15.3676 13.754 16.4924 13.2924 17.6657 13.291Z" fill="url(#paint1_linear_8105_4360)"/>
<defs>
<linearGradient id="paint0_linear_8105_4360" x1="20.0007" y1="15.334" x2="15.334" y2="20.0007" gradientUnits="userSpaceOnUse">
<stop stop-color="#1263FF"/>
<stop offset="1" stop-color="#27AFF9"/>
</linearGradient>
<linearGradient id="paint1_linear_8105_4360" x1="29.3324" y1="5.33398" x2="4.70373" y2="28.6313" gradientUnits="userSpaceOnUse">
<stop stop-color="#1263FF"/>
<stop offset="1" stop-color="#27AFF9"/>
</linearGradient>
</defs>
</svg>
