<svg width="32" height="40" viewBox="0 0 32 40" fill="none" xmlns="http://www.w3.org/2000/svg">
<path d="M24.6477 12.7635L19.1176 11.9599L16.6422 6.94578C16.5707 6.80111 16.4602 6.67932 16.3232 6.59416C16.1861 6.509 16.028 6.46387 15.8666 6.46387C15.7052 6.46387 15.5471 6.509 15.41 6.59416C15.273 6.67932 15.1625 6.80111 15.091 6.94578L12.6157 11.9599L7.08806 12.7635C6.92832 12.7868 6.7783 12.8544 6.65494 12.9585C6.53157 13.0627 6.43979 13.1992 6.38995 13.3528C6.34011 13.5063 6.33419 13.6708 6.37288 13.8275C6.41156 13.9842 6.4933 14.127 6.60886 14.2398L10.6106 18.14L9.66558 23.648C9.63852 23.8071 9.65646 23.9707 9.71739 24.1202C9.77832 24.2697 9.87981 24.3992 10.0104 24.4941C10.141 24.589 10.2955 24.6455 10.4565 24.6572C10.6175 24.669 10.7786 24.6356 10.9217 24.5607L15.8679 21.9596L20.8141 24.5619C20.9571 24.6368 21.1182 24.6703 21.2792 24.6585C21.4402 24.6467 21.5948 24.5902 21.7254 24.4953C21.856 24.4004 21.9574 24.2709 22.0184 24.1214C22.0793 23.9719 22.0972 23.8084 22.0702 23.6492L21.1251 18.1413L25.1269 14.241C25.2428 14.1284 25.3249 13.9855 25.3638 13.8285C25.4027 13.6716 25.3969 13.5069 25.347 13.3532C25.2971 13.1994 25.2052 13.0626 25.0816 12.9584C24.958 12.8542 24.8077 12.7866 24.6477 12.7635Z" fill="#1263FF"/>
<path d="M26.4214 27.7164C28.8231 25.5771 30.5181 22.7585 31.2816 19.634C32.045 16.5096 31.841 13.2269 30.6964 10.221C29.5519 7.21518 27.5209 4.62814 24.8726 2.80279C22.2244 0.97745 19.0839 0 15.8675 0C12.6512 0 9.51073 0.97745 6.86248 2.80279C4.21423 4.62814 2.18323 7.21518 1.03867 10.221C-0.105895 13.2269 -0.309963 16.5096 0.453508 19.634C1.21698 22.7585 2.91194 25.5771 5.31372 27.7164L1.3735 34.344C1.28276 34.4967 1.23654 34.6717 1.24007 34.8493C1.2436 35.0268 1.29674 35.1999 1.39347 35.3489C1.4902 35.4978 1.62668 35.6168 1.78746 35.6922C1.94825 35.7677 2.12694 35.7966 2.30334 35.7759L8.4079 35.0555L12.463 39.6755C12.5803 39.8093 12.7327 39.9076 12.903 39.9591C13.0733 40.0107 13.2547 40.0135 13.4265 39.9673C13.5983 39.921 13.7537 39.8275 13.8751 39.6974C13.9965 39.5673 14.079 39.4058 14.1132 39.2312L15.6054 31.7417H16.1335L17.6257 39.2312C17.6599 39.4058 17.7424 39.5673 17.8638 39.6974C17.9852 39.8275 18.1406 39.921 18.3124 39.9673C18.4842 40.0135 18.6656 40.0107 18.8359 39.9591C19.0062 39.9076 19.1586 39.8093 19.2759 39.6755L23.331 35.0555L29.4356 35.7759C29.612 35.7966 29.7906 35.7677 29.9514 35.6922C30.1122 35.6168 30.2487 35.4978 30.3454 35.3489C30.4422 35.1999 30.4953 35.0268 30.4988 34.8493C30.5023 34.6717 30.4561 34.4967 30.3654 34.344L26.4214 27.7164ZM12.6217 36.9697L9.51164 33.4237C9.41082 33.307 9.28277 33.217 9.13884 33.1616C8.99491 33.1063 8.83955 33.0873 8.68653 33.1063L3.99862 33.6591L6.82368 28.9065C8.86903 30.3336 11.2237 31.2552 13.6943 31.5957L12.6217 36.9697ZM15.8675 29.8446C13.1058 29.8446 10.4061 29.0256 8.10987 27.4913C5.8136 25.957 4.02387 23.7762 2.96701 21.2247C1.91015 18.6732 1.63363 15.8656 2.17241 13.157C2.71119 10.4484 4.04108 7.96032 5.9939 6.00749C7.94672 4.05467 10.4348 2.72478 13.1434 2.186C15.8521 1.64722 18.6596 1.92374 21.2111 2.9806C23.7626 4.03746 25.9434 5.82719 27.4777 8.12346C29.012 10.4197 29.831 13.1194 29.831 15.8811C29.8268 19.5832 28.3543 23.1324 25.7365 25.7501C23.1188 28.3679 19.5696 29.8404 15.8675 29.8446ZM23.053 33.1063C22.9 33.0875 22.7447 33.1066 22.6008 33.1619C22.4569 33.2173 22.3289 33.3072 22.2279 33.4237L19.1147 36.9704L18.0446 31.5957C20.5152 31.2552 22.8699 30.3336 24.9152 28.9065L27.7365 33.6591L23.053 33.1063Z" fill="#060E28"/>
</svg>
