<svg width="40" height="40" viewBox="0 0 40 40" fill="none" xmlns="http://www.w3.org/2000/svg">
<path d="M27.868 28.2754H11.9948C10.5921 28.2754 9.45508 29.4125 9.45508 30.8151C9.45508 32.2178 10.5921 33.3548 11.9948 33.3548H27.868C29.2707 33.3548 30.4077 32.2178 30.4077 30.8151C30.4077 29.4125 29.2707 28.2754 27.868 28.2754Z" fill="#1263FF"/>
<path d="M13.334 35.5557C13.334 36.7344 13.8022 37.8649 14.6358 38.6984C15.4693 39.5319 16.5997 40.0002 17.7785 40.0002H22.223C23.4018 40.0002 24.5322 39.5319 25.3657 38.6984C26.1992 37.8649 26.6675 36.7344 26.6675 35.5557H13.334Z" fill="#1263FF"/>
<path d="M18.3452 0.429713C15.48 0.756824 12.7766 1.92805 10.5783 3.79466C8.38006 5.66127 6.78611 8.13906 5.99887 10.9134C5.21164 13.6877 5.26664 16.6334 6.15689 19.3764C7.04713 22.1194 8.73247 24.5359 10.9989 26.3192C11.0971 26.3966 11.2096 26.4539 11.3299 26.4878C11.4502 26.5217 11.5761 26.5316 11.7002 26.5169C11.8244 26.5022 11.9445 26.4632 12.0535 26.4021C12.1626 26.341 12.2586 26.259 12.336 26.1608C12.4134 26.0626 12.4707 25.9501 12.5046 25.8297C12.5385 25.7094 12.5484 25.5836 12.5337 25.4594C12.519 25.3352 12.48 25.2152 12.4189 25.1061C12.3578 24.997 12.2758 24.901 12.1776 24.8236C10.1118 23.1981 8.60378 20.9693 7.86315 18.4472C7.12251 15.925 7.18605 13.2347 8.04495 10.7504C8.90384 8.26597 10.5154 6.11089 12.6556 4.58469C14.7959 3.05849 17.3584 2.23699 19.9871 2.23439C22.6157 2.23179 25.1799 3.04821 27.3231 4.57018C29.4664 6.09214 31.0822 8.24402 31.946 10.7267C32.8098 13.2094 32.8787 15.8995 32.1431 18.4231C31.4074 20.9468 29.9038 23.1785 27.8412 24.8081C27.6437 24.9651 27.5165 25.1939 27.4875 25.4445C27.4585 25.6952 27.5301 25.947 27.6866 26.1449C27.8431 26.3428 28.0717 26.4705 28.3223 26.5001C28.5728 26.5296 28.8248 26.4585 29.0231 26.3024C31.5062 24.3406 33.282 21.6228 34.0814 18.5608C34.8808 15.4988 34.6601 12.2597 33.4528 9.33447C32.2455 6.40922 30.1175 3.95731 27.3913 2.35039C24.665 0.743481 21.4892 0.0691848 18.3452 0.429713Z" fill="#060E28"/>
<path d="M24.1279 9.22656C23.2863 9.22755 22.4794 9.56234 21.8842 10.1575C21.2891 10.7526 20.9543 11.5595 20.9533 12.4012V13.6711H19.0485V12.4012C19.0485 11.7733 18.8623 11.1595 18.5135 10.6375C18.1647 10.1154 17.6688 9.7085 17.0888 9.46822C16.5087 9.22794 15.8703 9.16507 15.2545 9.28756C14.6387 9.41006 14.073 9.71241 13.6291 10.1564C13.1851 10.6004 12.8827 11.166 12.7602 11.7819C12.6377 12.3977 12.7006 13.036 12.9409 13.6161C13.1812 14.1962 13.5881 14.692 14.1101 15.0408C14.6322 15.3897 15.246 15.5759 15.8739 15.5759H17.1437V25.4173C17.1437 25.6699 17.2441 25.9121 17.4227 26.0907C17.6013 26.2693 17.8435 26.3697 18.0961 26.3697C18.3487 26.3697 18.591 26.2693 18.7696 26.0907C18.9482 25.9121 19.0485 25.6699 19.0485 25.4173V15.5759H20.9533V25.4173C20.9533 25.6699 21.0536 25.9121 21.2323 26.0907C21.4109 26.2693 21.6531 26.3697 21.9057 26.3697C22.1583 26.3697 22.4005 26.2693 22.5791 26.0907C22.7577 25.9121 22.8581 25.6699 22.8581 25.4173V15.5759H24.1279C24.9699 15.5759 25.7774 15.2414 26.3728 14.646C26.9681 14.0507 27.3026 13.2432 27.3026 12.4012C27.3026 11.5592 26.9681 10.7518 26.3728 10.1564C25.7774 9.56103 24.9699 9.22656 24.1279 9.22656ZM14.604 12.4012C14.604 12.0644 14.7378 11.7414 14.9759 11.5033C15.2141 11.2651 15.5371 11.1314 15.8739 11.1314C16.2107 11.1314 16.5336 11.2651 16.7718 11.5033C17.0099 11.7414 17.1437 12.0644 17.1437 12.4012V13.6711H15.8739C15.5372 13.6707 15.2144 13.5368 14.9763 13.2988C14.7382 13.0607 14.6043 12.7379 14.604 12.4012ZM24.1279 13.6711H22.8581V12.4012C22.8581 12.1501 22.9326 11.9045 23.0721 11.6957C23.2116 11.4869 23.41 11.3241 23.642 11.228C23.874 11.1319 24.1294 11.1068 24.3757 11.1558C24.622 11.2048 24.8483 11.3257 25.0259 11.5033C25.2035 11.6809 25.3244 11.9071 25.3734 12.1535C25.4224 12.3998 25.3973 12.6551 25.3011 12.8872C25.205 13.1192 25.0423 13.3175 24.8334 13.4571C24.6246 13.5966 24.3791 13.6711 24.1279 13.6711Z" fill="#060E28"/>
<path d="M2.85718 14.3066H0.952394C0.699803 14.3066 0.457558 14.407 0.27895 14.5856C0.100341 14.7642 0 15.0064 0 15.259C0 15.5116 0.100341 15.7539 0.27895 15.9325C0.457558 16.1111 0.699803 16.2114 0.952394 16.2114H2.85718C3.10977 16.2114 3.35202 16.1111 3.53063 15.9325C3.70923 15.7539 3.80958 15.5116 3.80958 15.259C3.80958 15.0064 3.70923 14.7642 3.53063 14.5856C3.35202 14.407 3.10977 14.3066 2.85718 14.3066Z" fill="#060E28"/>
<path d="M39.0496 13.6719H37.1448C36.8922 13.6719 36.6499 13.7722 36.4713 13.9508C36.2927 14.1294 36.1924 14.3717 36.1924 14.6243C36.1924 14.8769 36.2927 15.1191 36.4713 15.2977C36.6499 15.4763 36.8922 15.5767 37.1448 15.5767H39.0496C39.3022 15.5767 39.5444 15.4763 39.723 15.2977C39.9016 15.1191 40.002 14.8769 40.002 14.6243C40.002 14.3717 39.9016 14.1294 39.723 13.9508C39.5444 13.7722 39.3022 13.6719 39.0496 13.6719Z" fill="#060E28"/>
<path d="M7.43003 26.6158L6.08297 27.9626C5.99426 28.0509 5.92385 28.1559 5.87576 28.2716C5.82767 28.3872 5.80286 28.5111 5.80273 28.6363C5.80261 28.7616 5.82718 28.8856 5.87504 29.0013C5.92291 29.117 5.99312 29.2221 6.08165 29.3106C6.17019 29.3992 6.27533 29.4694 6.39103 29.5173C6.50674 29.5651 6.63075 29.5897 6.75596 29.5896C6.88117 29.5894 7.00513 29.5646 7.12075 29.5165C7.23636 29.4685 7.34135 29.398 7.42972 29.3093L8.77678 27.9626C8.86521 27.8742 8.93535 27.7692 8.98321 27.6536C9.03107 27.5381 9.0557 27.4143 9.0557 27.2892C9.0557 27.1642 9.03107 27.0403 8.98321 26.9248C8.93535 26.8092 8.86521 26.7043 8.77678 26.6158C8.68835 26.5274 8.58337 26.4573 8.46783 26.4094C8.35229 26.3615 8.22846 26.3369 8.1034 26.3369C7.97835 26.3369 7.85451 26.3615 7.73898 26.4094C7.62344 26.4573 7.51846 26.5274 7.43003 26.6158Z" fill="#060E28"/>
<path d="M32.572 2.97272L33.919 1.62567C34.0976 1.44708 34.1979 1.20486 34.1979 0.952295C34.1979 0.699731 34.0976 0.457512 33.919 0.278922C33.7404 0.100332 33.4982 5.95364e-07 33.2456 0C32.9931 -5.95359e-07 32.7509 0.100329 32.5723 0.278919L31.2252 1.62595C31.1368 1.71438 31.0666 1.81936 31.0188 1.9349C30.9709 2.05044 30.9463 2.17427 30.9463 2.29933C30.9463 2.55189 31.0466 2.79411 31.2252 2.9727C31.4038 3.15129 31.646 3.25162 31.8986 3.25162C32.1511 3.25162 32.3934 3.15131 32.572 2.97272Z" fill="#060E28"/>
<path d="M6.98047 2.97272C7.0689 3.06115 7.17388 3.13129 7.28942 3.17915C7.40496 3.22701 7.52879 3.25164 7.65385 3.25164C7.7789 3.25163 7.90274 3.227 8.01828 3.17914C8.13381 3.13128 8.23879 3.06114 8.32722 2.97271C8.41565 2.88428 8.48579 2.7793 8.53365 2.66376C8.58151 2.54822 8.60614 2.42439 8.60614 2.29933C8.60614 2.17427 8.5815 2.05044 8.53364 1.9349C8.48579 1.81936 8.41564 1.71438 8.32721 1.62595L6.98016 0.278918C6.89173 0.19049 6.78675 0.120345 6.67121 0.0724881C6.55567 0.0246312 6.43184 -2.9479e-07 6.30678 0C6.05422 5.95364e-07 5.812 0.100332 5.63341 0.278922C5.45482 0.457512 5.35449 0.699731 5.35449 0.952295C5.35449 1.20486 5.45482 1.44708 5.63341 1.62567L6.98047 2.97272Z" fill="#060E28"/>
<path d="M33.0192 26.1666C32.8406 25.988 32.5984 25.8877 32.3458 25.8877C32.0933 25.8877 31.8511 25.988 31.6725 26.1666C31.4939 26.3452 31.3936 26.5874 31.3936 26.84C31.3936 27.0926 31.4939 27.3348 31.6725 27.5134L33.0195 28.8601C33.1079 28.9488 33.2129 29.0192 33.3285 29.0673C33.4441 29.1154 33.5681 29.1402 33.6933 29.1403C33.8185 29.1405 33.9425 29.1159 34.0582 29.068C34.1739 29.0202 34.2791 28.95 34.3676 28.8614C34.4561 28.7729 34.5263 28.6678 34.5742 28.552C34.6221 28.4363 34.6466 28.3123 34.6465 28.1871C34.6464 28.0619 34.6216 27.9379 34.5735 27.8223C34.5254 27.7067 34.455 27.6017 34.3663 27.5134L33.0192 26.1666Z" fill="#060E28"/>
</svg>
