<svg width="190" height="190" viewBox="0 0 190 190" fill="none" xmlns="http://www.w3.org/2000/svg">
<g filter="url(#filter0_d_8105_1360)">
<circle cx="95" cy="91" r="35" fill="white"/>
</g>
<path d="M107.117 97.9673C109.465 94.3471 110.39 89.9859 109.713 85.7245C109.036 81.4631 106.805 77.6031 103.451 74.8887C100.097 72.1743 95.8567 70.7976 91.5478 71.0241C87.2389 71.2506 83.1663 73.0642 80.1152 76.1152C77.0642 79.1663 75.2506 83.2389 75.0241 87.5478C74.7976 91.8567 76.1743 96.0969 78.8887 99.4511C81.6031 102.805 85.4631 105.036 89.7245 105.713C93.9859 106.39 98.3471 105.465 101.967 103.117L108.786 109.936C109.469 110.618 110.395 111 111.36 111C112.325 111 113.251 110.616 113.933 109.933C114.616 109.251 115 108.325 115 107.36C115 106.395 114.618 105.469 113.936 104.786L107.117 97.9673ZM76.9536 88.49C76.9536 85.4172 77.8648 82.4134 79.5719 79.8584C81.2791 77.3035 83.7056 75.3121 86.5445 74.1362C89.3834 72.9603 92.5073 72.6526 95.5211 73.2521C98.5348 73.8516 101.303 75.3313 103.476 77.5041C105.649 79.6769 107.129 82.4452 107.728 85.459C108.327 88.4728 108.02 91.5967 106.844 94.4356C105.668 97.2745 103.677 99.701 101.122 101.408C98.5667 103.115 95.5629 104.027 92.49 104.027C88.3709 104.022 84.4218 102.384 81.5091 99.4709C78.5965 96.5583 76.9581 92.6092 76.9536 88.49ZM105.983 99.5235L107.633 101.173L105.173 103.633L103.523 101.983C104.423 101.247 105.247 100.423 105.983 99.5235ZM111.361 109.1C111.132 109.1 110.906 109.056 110.695 108.968C110.484 108.881 110.292 108.753 110.131 108.591L106.518 104.978L108.978 102.518L112.591 106.131C112.834 106.374 112.999 106.684 113.066 107.021C113.133 107.359 113.099 107.708 112.967 108.026C112.836 108.344 112.613 108.615 112.327 108.806C112.041 108.998 111.705 109.1 111.361 109.1Z" fill="#060E28"/>
<path d="M92.6673 91.0007C93.956 91.0007 95.0007 89.956 95.0007 88.6673C95.0007 87.3787 93.956 86.334 92.6673 86.334C91.3787 86.334 90.334 87.3787 90.334 88.6673C90.334 89.956 91.3787 91.0007 92.6673 91.0007Z" fill="url(#paint0_linear_8105_1360)"/>
<path d="M88.8837 97.1527L90.137 100.25C90.2264 100.472 90.381 100.662 90.5808 100.795C90.7805 100.929 91.0163 101.001 91.2576 101.001H94.0738C94.3151 101.001 94.5509 100.929 94.7506 100.795C94.9504 100.662 95.1049 100.472 95.1944 100.25L96.4477 97.1527L98.2063 96.1487L101.545 96.6243C101.784 96.6593 102.028 96.6222 102.245 96.518C102.462 96.4137 102.642 96.2471 102.762 96.04L104.17 93.628C104.291 93.4214 104.347 93.1838 104.329 92.9459C104.312 92.7079 104.223 92.4805 104.074 92.293L101.988 89.6713V87.6634L104.074 85.0416C104.223 84.8542 104.312 84.6268 104.329 84.3888C104.347 84.1508 104.291 83.9132 104.17 83.7066L102.762 81.2947C102.642 81.0876 102.462 80.9211 102.245 80.8169C102.028 80.7127 101.784 80.6755 101.545 80.7103L98.2063 81.1859L96.4477 80.1819L95.1944 77.0846C95.1049 76.863 94.9504 76.673 94.7506 76.5392C94.5509 76.4054 94.3151 76.3339 94.0738 76.334H91.2576C91.0163 76.3339 90.7805 76.4054 90.5808 76.5392C90.381 76.673 90.2264 76.863 90.137 77.0846L88.8837 80.1819L87.1251 81.1859L83.7862 80.7103C83.5475 80.6756 83.3037 80.7128 83.0866 80.817C82.8695 80.9212 82.6892 81.0877 82.5691 81.2947L81.1609 83.7066C81.0402 83.9132 80.9849 84.1508 81.0021 84.3888C81.0193 84.6268 81.1083 84.8542 81.2576 85.0416L83.3431 87.6634V89.6713L81.2576 92.293C81.1083 92.4805 81.0193 92.7079 81.0021 92.9459C80.9849 93.1838 81.0402 93.4214 81.1609 93.628L82.5691 96.04C82.689 96.2471 82.8694 96.4136 83.0865 96.5179C83.3036 96.6221 83.5475 96.6592 83.7862 96.6243L87.1251 96.1487L88.8837 97.1527ZM92.6657 84.291C93.541 84.291 94.3966 84.5476 95.1244 85.0285C95.8522 85.5094 96.4194 86.1929 96.7544 86.9926C97.0893 87.7922 97.177 88.6722 97.0062 89.5211C96.8355 90.37 96.414 91.1498 95.795 91.7619C95.1761 92.3739 94.3876 92.7907 93.5291 92.9596C92.6706 93.1284 91.7808 93.0418 90.9721 92.7105C90.1634 92.3793 89.4722 91.8184 88.986 91.0987C88.4997 90.379 88.2401 89.5329 88.2401 88.6673C88.2416 87.5071 88.7083 86.3948 89.5379 85.5744C90.3676 84.754 91.4924 84.2924 92.6657 84.291Z" fill="url(#paint1_linear_8105_1360)"/>
<defs>
<filter id="filter0_d_8105_1360" x="0" y="0" width="190" height="190" filterUnits="userSpaceOnUse" color-interpolation-filters="sRGB">
<feFlood flood-opacity="0" result="BackgroundImageFix"/>
<feColorMatrix in="SourceAlpha" type="matrix" values="0 0 0 0 0 0 0 0 0 0 0 0 0 0 0 0 0 0 127 0" result="hardAlpha"/>
<feOffset dy="4"/>
<feGaussianBlur stdDeviation="30"/>
<feComposite in2="hardAlpha" operator="out"/>
<feColorMatrix type="matrix" values="0 0 0 0 0 0 0 0 0 0 0 0 0 0 0 0 0 0 0.1 0"/>
<feBlend mode="normal" in2="BackgroundImageFix" result="effect1_dropShadow_8105_1360"/>
<feBlend mode="normal" in="SourceGraphic" in2="effect1_dropShadow_8105_1360" result="shape"/>
</filter>
<linearGradient id="paint0_linear_8105_1360" x1="95.0007" y1="86.334" x2="90.334" y2="91.0007" gradientUnits="userSpaceOnUse">
<stop stop-color="#1263FF"/>
<stop offset="1" stop-color="#27AFF9"/>
</linearGradient>
<linearGradient id="paint1_linear_8105_1360" x1="104.332" y1="76.334" x2="79.7037" y2="99.6313" gradientUnits="userSpaceOnUse">
<stop stop-color="#1263FF"/>
<stop offset="1" stop-color="#27AFF9"/>
</linearGradient>
</defs>
</svg>
