<svg width="589" height="173" viewBox="0 0 589 173" fill="none" xmlns="http://www.w3.org/2000/svg">
<path d="M0 173V19.1245H81.4064C102.353 19.1245 118.063 22.7882 128.536 30.1156C139.168 37.443 144.484 47.1152 144.484 59.1322C144.484 67.1923 142.342 74.2266 138.058 80.2351C133.773 86.097 127.902 90.64 120.443 93.864C112.985 97.0881 104.416 98.7001 94.7361 98.7001L99.2587 89.6874C109.732 89.6874 119.015 91.2995 127.108 94.5235C135.201 97.601 141.469 102.217 145.913 108.372C150.515 114.527 152.816 122.075 152.816 131.014C152.816 144.203 147.182 154.535 135.915 162.009C124.649 169.336 108.066 173 86.167 173H0ZM38.3229 146.182H83.3106C93.3079 146.182 100.846 144.716 105.924 141.785C111.16 138.708 113.779 133.872 113.779 127.277C113.779 120.829 111.16 116.066 105.924 112.989C100.846 109.765 93.3079 108.152 83.3106 108.152H35.4665V82.2135H76.6458C86.0083 82.2135 93.1492 80.748 98.0685 77.817C103.146 74.7395 105.685 70.1233 105.685 63.9682C105.685 57.9598 103.146 53.4901 98.0685 50.5591C93.1492 47.4816 86.0083 45.9428 76.6458 45.9428H38.3229V146.182Z" fill="#060E28"/>
<path d="M331.493 52.9771C341.649 52.9771 350.614 54.8823 358.39 58.6925C366.324 62.3562 372.513 68.0716 376.956 75.8386C381.558 83.4591 383.859 93.2778 383.859 105.295V173H346.727V110.571C346.727 101.045 344.584 94.0106 340.3 89.4676C336.015 84.9246 329.985 82.6531 322.209 82.6531C316.814 82.6531 311.974 83.8255 307.69 86.1703C303.405 88.3685 300.073 91.7391 297.692 96.2821C295.312 100.825 294.122 106.614 294.122 113.648V173H256.989V110.571C256.989 101.045 254.847 94.0106 250.562 89.4676C246.436 84.9246 240.486 82.6531 232.71 82.6531C227.315 82.6531 222.475 83.8255 218.19 86.1703C213.906 88.3685 210.573 91.7391 208.193 96.2821C205.813 100.825 204.622 106.614 204.622 113.648V173H167.49V54.7357H202.956V87.0496L196.291 77.5972C200.735 69.5371 207.003 63.4553 215.096 59.352C223.347 55.1021 232.71 52.9771 243.183 52.9771C254.926 52.9771 265.161 55.7616 273.889 61.3304C282.776 66.7527 288.647 75.1059 291.504 86.3901L278.412 83.0928C282.696 73.8602 289.52 66.5328 298.882 61.1106C308.404 55.6883 319.274 52.9771 331.493 52.9771Z" fill="#060E28"/>
<path d="M405.241 173V54.7357H442.374V173H405.241ZM423.808 38.2491C416.984 38.2491 411.43 36.4172 407.145 32.7535C402.861 29.0898 400.719 24.5468 400.719 19.1245C400.719 13.7022 402.861 9.15926 407.145 5.49556C411.43 1.83185 416.984 0 423.808 0C430.631 0 436.185 1.75858 440.47 5.27574C444.754 8.64635 446.896 13.0428 446.896 18.4651C446.896 24.1804 444.754 28.9433 440.47 32.7535C436.344 36.4172 430.79 38.2491 423.808 38.2491Z" fill="#060E28"/>
<path d="M448.749 173L506.114 103.536L505.4 122.441L450.415 54.7357H492.07L526.823 98.92L511.113 99.3596L547.055 54.7357H586.568L531.345 121.781V103.316L588.472 173H546.341L509.922 125.958L525.394 127.936L489.214 173H448.749Z" fill="#060E28"/>
</svg>
