<svg width="100" height="50" viewBox="0 0 100 50" fill="none" xmlns="http://www.w3.org/2000/svg">
<path d="M81.1442 27.7804C77.3166 27.0554 74.8457 26.6848 74.6034 27.281C74.3612 27.8771 76.3961 29.2466 80.0783 30.7772C82.2499 31.6586 84.4717 32.4118 86.7321 33.0328C88.0241 33.3873 89.3807 33.7256 90.8019 34.0317L93.0144 34.4667C93.6981 34.653 94.4139 34.6905 95.1133 34.5765C95.8127 34.4625 96.4794 34.1998 97.0681 33.8062C97.6037 33.3891 98.012 32.8311 98.247 32.195C98.3597 31.8749 98.4461 31.5462 98.5054 31.2122L98.6185 30.4711C98.7154 29.7944 98.8284 29.1338 98.9253 28.4893C99.0868 27.2004 99.2483 25.9437 99.3937 24.7514C99.6844 22.3508 99.862 20.1919 99.9428 18.3068C100.104 14.6495 99.9427 12.3455 99.216 12.2489C98.4893 12.1522 97.601 14.295 96.5513 17.8235C96.0345 19.5958 95.5015 21.7064 94.9363 24.0587C94.7102 25.1704 94.4679 26.3465 94.2095 27.5549C93.3052 25.4239 92.1793 23.3935 90.8503 21.4969C89.2393 19.1766 87.4057 17.0182 85.3755 15.0523C82.5464 12.2047 79.3854 9.7057 75.96 7.60873C66.2627 1.7632 54.9409 -0.823313 43.6601 0.229642C37.4741 0.789458 31.4228 2.36262 25.7497 4.88589C20.39 7.26203 15.4748 10.531 11.2147 14.5528C10.223 15.4984 9.27976 16.4932 8.38849 17.5335C7.95244 18.049 7.51639 18.5324 7.09649 19.1446C6.67659 19.7569 6.27283 20.2402 5.93369 20.7558C4.62259 22.83 3.53966 25.0394 2.70369 27.3454C1.22644 31.1478 0.333501 35.1511 0.0550903 39.2197C-0.316359 46.0671 1.29864 50.095 1.67009 49.9983C2.04154 49.9016 1.39554 45.8576 2.44529 39.4291C3.04238 35.6739 4.12821 32.0125 5.67529 28.5377C6.58942 26.4859 7.70948 24.5318 9.01834 22.7053C9.35059 22.2366 9.70634 21.7849 10.0842 21.3519C10.4718 20.9169 10.924 20.4819 11.3439 20.0308C12.1676 19.1124 13.1366 18.2907 14.0733 17.4207C18.157 13.9074 22.7884 11.0829 27.7846 9.05878C32.9784 6.95827 38.4728 5.69125 44.0638 5.30478C54.061 4.63071 64.0227 7.05612 72.5847 12.2489C77.8448 15.4109 82.4808 19.5062 86.2637 24.3326C87.8787 26.4915 89.0738 28.1993 89.9136 29.4721L87.798 29.1016L81.1119 27.8288" fill="white"/>
</svg>
