<svg width="100" height="50" viewBox="0 0 100 50" fill="none" xmlns="http://www.w3.org/2000/svg">
<path d="M81.1442 22.2196C77.3166 22.9446 74.8457 23.3152 74.6034 22.719C74.3612 22.1229 76.3961 20.7534 80.0783 19.2228C82.2499 18.3414 84.4717 17.5882 86.7321 16.9672C88.0241 16.6127 89.3807 16.2744 90.8019 15.9683L93.0144 15.5333C93.6981 15.347 94.4139 15.3095 95.1133 15.4235C95.8127 15.5375 96.4794 15.8002 97.0681 16.1938C97.6037 16.6109 98.012 17.1689 98.247 17.805C98.3597 18.1251 98.4461 18.4538 98.5054 18.7878L98.6185 19.5289C98.7154 20.2056 98.8284 20.8662 98.9253 21.5107C99.0868 22.7996 99.2483 24.0563 99.3937 25.2486C99.6844 27.6492 99.862 29.8081 99.9428 31.6932C100.104 35.3505 99.9427 37.6545 99.216 37.7511C98.4893 37.8478 97.601 35.705 96.5513 32.1765C96.0345 30.4042 95.5015 28.2936 94.9363 25.9413C94.7102 24.8296 94.4679 23.6535 94.2095 22.4451C93.3052 24.5761 92.1793 26.6065 90.8503 28.5031C89.2393 30.8234 87.4057 32.9818 85.3755 34.9477C82.5464 37.7953 79.3854 40.2943 75.96 42.3913C66.2627 48.2368 54.9409 50.8233 43.6601 49.7704C37.4741 49.2105 31.4228 47.6374 25.7497 45.1141C20.39 42.738 15.4748 39.469 11.2147 35.4472C10.223 34.5016 9.27976 33.5068 8.38849 32.4665C7.95244 31.951 7.51639 31.4676 7.09649 30.8554C6.67659 30.2431 6.27283 29.7598 5.93369 29.2442C4.62259 27.17 3.53966 24.9606 2.70369 22.6546C1.22644 18.8522 0.333501 14.8489 0.0550903 10.7803C-0.316359 3.93293 1.29864 -0.0949669 1.67009 0.00170135C2.04154 0.0983696 1.39554 4.14238 2.44529 10.5709C3.04238 14.3261 4.12821 17.9875 5.67529 21.4623C6.58942 23.5141 7.70948 25.4682 9.01834 27.2947C9.35059 27.7634 9.70634 28.2151 10.0842 28.6481C10.4718 29.0831 10.924 29.5181 11.3439 29.9692C12.1676 30.8876 13.1366 31.7093 14.0733 32.5793C18.157 36.0926 22.7884 38.9171 27.7846 40.9412C32.9784 43.0417 38.4728 44.3088 44.0638 44.6952C54.061 45.3693 64.0227 42.9439 72.5847 37.7511C77.8448 34.5891 82.4808 30.4938 86.2637 25.6674C87.8787 23.5085 89.0738 21.8007 89.9136 20.5279L87.798 20.8984L81.1119 22.1712" fill="white"/>
</svg>
