<svg width="20" height="20" viewBox="0 0 20 20" fill="none" xmlns="http://www.w3.org/2000/svg">
<path fill-rule="evenodd" clip-rule="evenodd" d="M10.0004 19.6004C15.3023 19.6004 19.6004 15.3023 19.6004 10.0004C19.6004 4.69846 15.3023 0.400391 10.0004 0.400391C4.69846 0.400391 0.400391 4.69846 0.400391 10.0004C0.400391 15.3023 4.69846 19.6004 10.0004 19.6004ZM11.0004 5.20039C11.0004 4.64811 10.5527 4.20039 10.0004 4.20039C9.44811 4.20039 9.00039 4.64811 9.00039 5.20039V10.0004C9.00039 10.2656 9.10575 10.52 9.29328 10.7075L12.6874 14.1016C13.0779 14.4921 13.7111 14.4921 14.1016 14.1016C14.4921 13.7111 14.4921 13.0779 14.1016 12.6874L11.0004 9.58618V5.20039Z" fill="#1263FF"/>
</svg>
