<svg width="20" height="16" viewBox="0 0 20 16" fill="none" xmlns="http://www.w3.org/2000/svg">
<path d="M2.80039 0.800781C1.47491 0.800781 0.400391 1.8753 0.400391 3.20078V8.00078C0.400391 9.32627 1.47491 10.4008 2.80039 10.4008L2.80039 3.20078H14.8004C14.8004 1.8753 13.7259 0.800781 12.4004 0.800781H2.80039Z" fill="#1263FF"/>
<path fill-rule="evenodd" clip-rule="evenodd" d="M5.20039 8.00078C5.20039 6.6753 6.27491 5.60078 7.60039 5.60078H17.2004C18.5259 5.60078 19.6004 6.6753 19.6004 8.00078V12.8008C19.6004 14.1263 18.5259 15.2008 17.2004 15.2008H7.60039C6.27491 15.2008 5.20039 14.1263 5.20039 12.8008V8.00078ZM12.4004 12.8008C13.7259 12.8008 14.8004 11.7263 14.8004 10.4008C14.8004 9.0753 13.7259 8.00078 12.4004 8.00078C11.0749 8.00078 10.0004 9.0753 10.0004 10.4008C10.0004 11.7263 11.0749 12.8008 12.4004 12.8008Z" fill="#1263FF"/>
</svg>
