<svg width="22" height="21" viewBox="0 0 22 21" fill="none" xmlns="http://www.w3.org/2000/svg">
<path d="M5.02322 2.95799C5.02293 3.52465 4.79756 4.068 4.39666 4.46849C3.99577 4.86898 3.4522 5.09381 2.88554 5.09353C2.31888 5.09325 1.77553 4.86787 1.37504 4.46698C0.974551 4.06608 0.749717 3.52252 0.75 2.95585C0.750284 2.38919 0.975662 1.84585 1.37655 1.44536C1.77745 1.04486 2.32101 0.820029 2.88768 0.820313C3.45434 0.820596 3.99768 1.04597 4.39818 1.44687C4.79867 1.84776 5.0235 2.39133 5.02322 2.95799ZM5.08732 6.67569H0.814098V20.0509H5.08732V6.67569ZM11.839 6.67569H7.58715V20.0509H11.7963V13.0321C11.7963 9.12211 16.8921 8.75888 16.8921 13.0321V20.0509H21.1119V11.5792C21.1119 4.98777 13.5697 5.23348 11.7963 8.47044L11.839 6.67569Z" fill="#060E28"/>
</svg>
