<svg width="21" height="22" viewBox="0 0 21 22" fill="none" xmlns="http://www.w3.org/2000/svg">
<path d="M11.7042 0.821569C12.4496 0.818709 13.1951 0.826201 13.9404 0.844044L14.1386 0.851196C14.3674 0.859368 14.5932 0.869584 14.866 0.881843C15.9529 0.932923 16.6946 1.10455 17.3454 1.35688C18.0196 1.61636 18.5876 1.96779 19.1556 2.53579C19.675 3.04619 20.0769 3.66357 20.3335 4.34503C20.5858 4.99578 20.7575 5.73847 20.8086 6.82544C20.8208 7.09718 20.831 7.32398 20.8392 7.55281L20.8453 7.751C20.8635 8.49593 20.8713 9.24108 20.8688 9.98623L20.8699 10.7483V12.0866C20.8724 12.8321 20.8645 13.5776 20.8464 14.3229L20.8402 14.5211C20.8321 14.7499 20.8218 14.9757 20.8096 15.2484C20.7585 16.3354 20.5848 17.0771 20.3335 17.7278C20.0778 18.41 19.6757 19.0279 19.1556 19.5381C18.6448 20.0574 18.0271 20.4593 17.3454 20.716C16.6946 20.9683 15.9529 21.1399 14.866 21.191C14.5932 21.2033 14.3674 21.2135 14.1386 21.2217L13.9404 21.2278C13.1951 21.2459 12.4497 21.2538 11.7042 21.2513L10.9421 21.2523H9.6048C8.85931 21.2548 8.11382 21.247 7.36854 21.2288L7.17035 21.2227C6.92784 21.2139 6.68538 21.2037 6.44298 21.192C5.35601 21.1409 4.61434 20.9673 3.96257 20.716C3.28085 20.4599 2.66335 20.0579 2.15334 19.5381C1.63339 19.0276 1.23107 18.4098 0.974423 17.7278C0.722091 17.0771 0.550464 16.3354 0.499385 15.2484C0.488007 15.006 0.477791 14.7636 0.468737 14.5211L0.463629 14.3229C0.444795 13.5776 0.436281 12.8321 0.438089 12.0866V9.98623C0.435238 9.24109 0.442731 8.49594 0.460564 7.751L0.467716 7.55281C0.475888 7.32398 0.486104 7.09718 0.498363 6.82544C0.549443 5.73745 0.721069 4.9968 0.973401 4.34503C1.2302 3.66324 1.63331 3.04602 2.15436 2.53682C2.66402 2.01657 3.28113 1.61389 3.96257 1.35688C4.61434 1.10455 5.35499 0.932923 6.44298 0.881843L7.17035 0.851196L7.36854 0.846088C8.11347 0.827263 8.85862 0.818749 9.60378 0.820548L11.7042 0.821569ZM10.654 5.92951C9.97717 5.91994 9.30522 6.04497 8.67717 6.29735C8.04912 6.54973 7.47749 6.92441 6.9955 7.39963C6.51352 7.87485 6.13079 8.44112 5.86955 9.06554C5.60832 9.68996 5.47379 10.3601 5.47379 11.0369C5.47379 11.7138 5.60832 12.3839 5.86955 13.0083C6.13079 13.6328 6.51352 14.199 6.9955 14.6742C7.47749 15.1495 8.04912 15.5241 8.67717 15.7765C9.30522 16.0289 9.97717 16.1539 10.654 16.1444C12.0087 16.1444 13.3079 15.6062 14.2658 14.6483C15.2238 13.6904 15.7619 12.3911 15.7619 11.0364C15.7619 9.68172 15.2238 8.38249 14.2658 7.42457C13.3079 6.46664 12.0087 5.92951 10.654 5.92951ZM10.654 7.97268C11.0611 7.96518 11.4656 8.03888 11.8439 8.18947C12.2222 8.34006 12.5667 8.56453 12.8573 8.84976C13.1479 9.13499 13.3787 9.47527 13.5363 9.85071C13.6939 10.2262 13.7751 10.6292 13.7752 11.0364C13.7753 11.4436 13.6942 11.8467 13.5367 12.2222C13.3792 12.5977 13.1485 12.938 12.858 13.2234C12.5675 13.5087 12.2231 13.7333 11.8449 13.884C11.4666 14.0347 11.0621 14.1086 10.655 14.1012C9.84216 14.1012 9.06263 13.7783 8.48787 13.2035C7.91312 12.6288 7.59023 11.8493 7.59023 11.0364C7.59023 10.2236 7.91312 9.44406 8.48787 8.86931C9.06263 8.29456 9.84216 7.97166 10.655 7.97166L10.654 7.97268ZM16.0173 4.39713C15.6877 4.41032 15.376 4.55052 15.1475 4.78837C14.919 5.02621 14.7914 5.34325 14.7914 5.67309C14.7914 6.00292 14.919 6.31997 15.1475 6.55781C15.376 6.79566 15.6877 6.93586 16.0173 6.94905C16.356 6.94905 16.6808 6.81451 16.9203 6.57503C17.1598 6.33555 17.2943 6.01075 17.2943 5.67207C17.2943 5.33339 17.1598 5.00858 16.9203 4.7691C16.6808 4.52962 16.356 4.39508 16.0173 4.39508V4.39713Z" fill="#060E28"/>
</svg>
