<svg width="12" height="20" viewBox="0 0 12 20" fill="none" xmlns="http://www.w3.org/2000/svg">
<path fill-rule="evenodd" clip-rule="evenodd" d="M0.501592 0.460892C0.797084 0.165768 1.19764 0 1.61527 0C2.03289 0 2.43345 0.165768 2.72894 0.460892L11.134 8.86598C11.4291 9.16147 11.5949 9.56202 11.5949 9.97965C11.5949 10.3973 11.4291 10.7978 11.134 11.0933L2.72894 19.4984C2.58466 19.6532 2.41068 19.7774 2.21736 19.8636C2.02404 19.9497 1.81536 19.996 1.60375 19.9998C1.39215 20.0035 1.18196 19.9646 0.985729 19.8853C0.789495 19.806 0.611238 19.6881 0.461588 19.5384C0.311938 19.3888 0.193962 19.2105 0.1147 19.0143C0.0354376 18.818 -0.00348825 18.6078 0.00024526 18.3962C0.00397877 18.1846 0.050295 17.976 0.13643 17.7826C0.222565 17.5893 0.346756 17.4153 0.501592 17.2711L7.793 9.97965L0.501592 2.68824C0.206468 2.39275 0.0406986 1.9922 0.0406986 1.57457C0.0406986 1.15694 0.206468 0.756384 0.501592 0.460892Z" fill="white"/>
</svg>
