<svg width="55" height="55" viewBox="0 0 55 55" fill="none" xmlns="http://www.w3.org/2000/svg">
<path d="M42.3385 44.5835L54.8762 36.8683C54.6255 36.2936 55.1595 36.7812 43.0247 29.293C42.8184 29.1659 42.5808 29.0986 42.3385 29.0986C42.0962 29.0986 41.8586 29.1659 41.6522 29.293C29.4102 36.8474 30.0436 36.3118 29.8008 36.8683L42.3385 44.5835Z" fill="#1263FF"/>
<path d="M43.6445 46.8524V54.7088L54.3695 48.1089C54.56 47.9917 54.7172 47.8276 54.8263 47.6324C54.9354 47.4373 54.9927 47.2174 54.9927 46.9938V39.8691L43.6445 46.8524Z" fill="#1263FF"/>
<path d="M41.0279 46.8524L29.6797 39.8691V46.9938C29.6797 47.2174 29.737 47.4372 29.8461 47.6324C29.9552 47.8276 30.1124 47.9916 30.3029 48.1088L41.0279 54.7088V46.8524Z" fill="#1263FF"/>
<path d="M53.9116 6.39379L43.993 0.458416C43.4927 0.158446 42.9204 0 42.337 0C41.7537 0 41.1814 0.158446 40.6811 0.458416L30.7634 6.39379C30.4383 6.59484 30.1688 6.87419 29.9795 7.20629C29.7902 7.53838 29.6872 7.91263 29.6799 8.29481V11.3501H25.3152V8.29481C25.3077 7.91267 25.2046 7.53849 25.0154 7.20642C24.8261 6.87435 24.5567 6.59498 24.2317 6.39379L14.3131 0.458416C13.8129 0.158446 13.2405 0 12.6572 0C12.0739 0 11.5015 0.158446 11.0013 0.458416L1.08354 6.39379C0.75843 6.59484 0.488914 6.87419 0.299633 7.20629C0.110353 7.53838 0.00734816 7.91263 3.81475e-05 8.29481V17.0826C-0.00257188 17.6069 0.128791 18.1231 0.381668 18.5824C0.634545 19.0417 1.00055 19.4288 1.44498 19.7069C9.71781 24.8815 11.0423 25.7391 11.3482 25.8868V29.0886C11.0327 29.2291 9.60114 30.114 1.08354 35.2007C0.75843 35.4018 0.488914 35.6811 0.299633 36.0132C0.110353 36.3453 0.00734816 36.7196 3.81475e-05 37.1017V45.8895C-0.00257188 46.4138 0.128791 46.9301 0.381668 47.3893C0.634545 47.8486 1.00055 48.2357 1.44498 48.5139L11.0473 54.5332C11.529 54.8381 12.0875 55 12.6576 55C13.2278 55 13.7862 54.8381 14.268 54.5332L23.8703 48.5139C24.3147 48.2357 24.6807 47.8486 24.9336 47.3893C25.1865 46.9301 25.3178 46.4138 25.3152 45.8895V43.6488H26.6246C26.9719 43.6488 27.3049 43.5108 27.5505 43.2652C27.7961 43.0197 27.934 42.6866 27.934 42.3394C27.934 41.9921 27.7961 41.659 27.5505 41.4135C27.3049 41.1679 26.9719 41.0299 26.6246 41.0299H25.3152V37.1017C25.3077 36.7196 25.2046 36.3454 25.0154 36.0133C24.8261 35.6813 24.5567 35.4019 24.2317 35.2007C15.6796 30.0938 14.2825 29.2296 13.967 29.089V25.8867C14.2736 25.7387 15.5805 24.892 23.8703 19.7069C24.3147 19.4288 24.6807 19.0417 24.9336 18.5824C25.1865 18.1231 25.3178 17.6069 25.3152 17.0826V13.9689H29.6799V17.0826C29.6773 17.6069 29.8086 18.1231 30.0615 18.5824C30.3144 19.0417 30.6804 19.4288 31.1248 19.7069C39.3977 24.8815 40.7221 25.7391 41.0281 25.8868V26.6265C41.0281 26.9738 41.166 27.3068 41.4116 27.5524C41.6571 27.7979 41.9902 27.9359 42.3375 27.9359C42.6847 27.9359 43.0178 27.7979 43.2634 27.5524C43.5089 27.3068 43.6469 26.9738 43.6469 26.6265V25.8867C43.9534 25.7387 45.2603 24.892 53.5501 19.7069C53.9945 19.4288 54.3605 19.0417 54.6134 18.5824C54.8663 18.1231 54.9977 17.6069 54.9951 17.0826V8.29481C54.9876 7.91267 54.8845 7.53849 54.6952 7.20642C54.506 6.87435 54.2365 6.59498 53.9116 6.39379ZM2.83621 17.4879C2.76888 17.444 2.71368 17.3839 2.67569 17.3131C2.63771 17.2422 2.61816 17.163 2.61885 17.0826V11.1146L11.0021 16.1312C11.1138 16.1969 11.2294 16.2558 11.3482 16.3075V22.8238L2.83621 17.4879ZM11.3482 51.6307L2.83621 46.2948C2.76888 46.2509 2.71368 46.1908 2.67569 46.12C2.63771 46.0491 2.61816 45.9699 2.61885 45.8895V39.9215C11.4543 45.1955 10.9596 44.9412 11.3482 45.1145V51.6307ZM22.6964 45.8895C22.6971 45.9699 22.6775 46.0491 22.6396 46.12C22.6016 46.1908 22.5464 46.2509 22.479 46.2948L13.967 51.6307V45.1149C14.3549 44.9422 13.8441 45.2061 22.6964 39.9216V45.8895ZM22.3085 37.1017L12.9696 42.691C12.8752 42.7467 12.7676 42.776 12.658 42.776C12.5485 42.776 12.4409 42.7467 12.3465 42.691L3.00673 37.1017L12.3456 31.5125C12.4401 31.4569 12.5476 31.4276 12.6572 31.4276C12.7668 31.4276 12.8743 31.4569 12.9688 31.5125L22.3085 37.1017ZM12.9696 13.8841C12.8752 13.9398 12.7676 13.9691 12.658 13.9691C12.5485 13.9691 12.4409 13.9398 12.3465 13.8841L3.00673 8.29481L12.3456 2.70555C12.44 2.64988 12.5476 2.62051 12.6572 2.62051C12.7668 2.62051 12.8744 2.64988 12.9688 2.70555L22.3085 8.29481L12.9696 13.8841ZM22.6964 17.0826C22.6971 17.163 22.6775 17.2422 22.6396 17.3131C22.6016 17.3839 22.5464 17.444 22.479 17.4879L13.967 22.8238V16.3079C14.0861 16.2561 14.202 16.1971 14.314 16.1312L22.6964 11.1147V17.0826ZM42.0255 2.70555C42.1199 2.64988 42.2275 2.62051 42.3371 2.62051C42.4466 2.62051 42.5542 2.64988 42.6486 2.70555L51.9884 8.29481L42.6495 13.8841C42.5551 13.9398 42.4475 13.9691 42.3379 13.9691C42.2283 13.9691 42.1207 13.9398 42.0263 13.8841L32.6866 8.29481L42.0255 2.70555ZM32.5161 17.4879C32.4487 17.444 32.3935 17.3839 32.3555 17.3131C32.3176 17.2422 32.298 17.163 32.2987 17.0826V11.1146C41.1341 16.3886 40.6394 16.1343 41.0281 16.3076V22.8238L32.5161 17.4879ZM52.3762 17.0826C52.3769 17.163 52.3574 17.2422 52.3194 17.3131C52.2814 17.3839 52.2262 17.444 52.1589 17.4879L43.6469 22.8238V16.3079C44.0348 16.1353 43.524 16.3992 52.3762 11.1147V17.0826Z" fill="#060E28"/>
</svg>
