<svg width="60" height="60" viewBox="0 0 60 60" fill="none" xmlns="http://www.w3.org/2000/svg">
<path d="M26.2343 5.78418C22.1894 5.78418 18.2354 6.98361 14.8723 9.23081C11.5091 11.478 8.88785 14.672 7.33996 18.409C5.79206 22.1459 5.38706 26.2579 6.17617 30.225C6.96528 34.1922 8.91306 37.8362 11.7732 40.6963C14.6333 43.5565 18.2774 45.5042 22.2445 46.2933C26.2116 47.0825 30.3236 46.6775 34.0606 45.1296C37.7975 43.5817 40.9915 40.9604 43.2387 37.5972C45.4859 34.2341 46.6853 30.2801 46.6853 26.2352C46.6793 20.8131 44.5227 15.6148 40.6887 11.7808C36.8547 7.9468 31.6564 5.7902 26.2343 5.78418ZM26.2343 43.8327C22.7538 43.8327 19.3516 42.8006 16.4577 40.867C13.5638 38.9333 11.3083 36.185 9.97637 32.9695C8.64447 29.754 8.29598 26.2157 8.97498 22.8022C9.65398 19.3886 11.33 16.253 13.791 13.792C16.2521 11.3309 19.3876 9.65495 22.8012 8.97595C26.2148 8.29695 29.753 8.64543 32.9685 9.97734C36.184 11.3092 38.9324 13.5648 40.866 16.4586C42.7996 19.3525 43.8317 22.7548 43.8317 26.2352C43.8265 30.9008 41.9708 35.3737 38.6718 38.6728C35.3728 41.9718 30.8998 43.8275 26.2343 43.8327Z" fill="#060E28"/>
<path d="M48.1759 40.451C51.6976 35.0207 53.0844 28.4789 52.069 22.0868C51.0536 15.6946 47.7078 9.90462 42.6766 5.83301C37.6454 1.7614 31.2851 -0.303588 24.8217 0.0361376C18.3583 0.375863 12.2495 3.09625 7.67286 7.67286C3.09625 12.2495 0.375863 18.3583 0.0361376 24.8217C-0.303588 31.2851 1.7614 37.6454 5.83301 42.6766C9.90462 47.7078 15.6946 51.0536 22.0868 52.069C28.4789 53.0844 35.0207 51.6976 40.451 48.1759L50.6786 58.4035C51.7033 59.4264 53.0922 60.0006 54.5401 60C55.9879 59.9994 57.3763 59.4239 58.4001 58.4001C59.4239 57.3763 59.9994 55.9879 60 54.5401C60.0006 53.0922 59.4264 51.7033 58.4035 50.6786L48.1759 40.451ZM2.93036 26.2351C2.93036 21.6258 4.29716 17.1201 6.85791 13.2877C9.41866 9.45522 13.0584 6.4682 17.3167 4.70432C21.5751 2.94045 26.2609 2.47893 30.7816 3.37815C35.3022 4.27737 39.4548 6.49693 42.714 9.75615C45.9732 13.0154 48.1928 17.1679 49.092 21.6885C49.9912 26.2092 49.5297 30.895 47.7658 35.1534C46.0019 39.4118 43.0149 43.0515 39.1825 45.6122C35.35 48.173 30.8443 49.5398 26.2351 49.5398C20.0564 49.5329 14.1327 47.0754 9.76371 42.7064C5.39471 38.3374 2.93721 32.4137 2.93036 26.2351ZM46.4748 42.7852L48.949 45.2593L45.2593 48.949L42.7852 46.4749C44.134 45.3699 45.3699 44.134 46.4748 42.7852ZM54.5411 57.1495C54.1983 57.1504 53.8589 57.0834 53.5422 56.9524C53.2255 56.8213 52.938 56.6288 52.6962 56.3859L47.2769 50.9666L50.9666 47.2769L56.3859 52.6962C56.7506 53.0611 56.9989 53.526 57.0994 54.032C57.2 54.5379 57.1483 55.0624 56.9508 55.539C56.7534 56.0156 56.4191 56.423 55.9901 56.7096C55.5612 56.9963 55.0569 57.1493 54.5411 57.1495Z" fill="#060E28"/>
<path d="M26.2355 28.6135C27.5488 28.6135 28.6135 27.5488 28.6135 26.2355C28.6135 24.9221 27.5488 23.8574 26.2355 23.8574C24.9221 23.8574 23.8574 24.9221 23.8574 26.2355C23.8574 27.5488 24.9221 28.6135 26.2355 28.6135Z" fill="#1263FF"/>
<path d="M21.7642 36.3788L23.2458 40.0815C23.3515 40.3464 23.5342 40.5735 23.7704 40.7335C24.0065 40.8934 24.2852 40.9789 24.5704 40.9788H27.8997C28.1849 40.9789 28.4636 40.8934 28.6997 40.7335C28.9359 40.5735 29.1186 40.3464 29.2243 40.0815L30.7059 36.3788L32.7848 35.1786L36.7318 35.7471C37.0141 35.7889 37.3024 35.7446 37.5591 35.62C37.8158 35.4954 38.029 35.2962 38.1707 35.0486L39.8353 32.1652C39.9781 31.9183 40.0435 31.6342 40.0231 31.3497C40.0027 31.0653 39.8975 30.7934 39.7211 30.5693L37.2557 27.4352V25.0348L39.7211 21.9007C39.8975 21.6766 40.0027 21.4047 40.0231 21.1203C40.0435 20.8358 39.9781 20.5517 39.8353 20.3048L38.1707 17.4214C38.0288 17.1739 37.8156 16.9749 37.559 16.8503C37.3023 16.7257 37.0141 16.6813 36.7318 16.7229L32.7848 17.2914L30.7059 16.0912L29.2243 12.3885C29.1186 12.1236 28.9359 11.8965 28.6997 11.7365C28.4636 11.5766 28.1849 11.4911 27.8997 11.4912H24.5704C24.2852 11.4911 24.0065 11.5766 23.7704 11.7365C23.5342 11.8965 23.3515 12.1236 23.2458 12.3885L21.7642 16.0912L19.6852 17.2914L15.7383 16.7229C15.456 16.6814 15.1678 16.7258 14.9112 16.8504C14.6545 16.975 14.4414 17.174 14.2994 17.4214L12.6348 20.3048C12.492 20.5517 12.4266 20.8358 12.447 21.1203C12.4674 21.4047 12.5726 21.6766 12.749 21.9007L15.2144 25.0348V27.4352L12.749 30.5693C12.5726 30.7934 12.4674 31.0653 12.447 31.3497C12.4266 31.6342 12.492 31.9183 12.6348 32.1652L14.2994 35.0486C14.4412 35.2962 14.6544 35.4953 14.911 35.6199C15.1677 35.7445 15.456 35.7888 15.7383 35.7471L19.6852 35.1786L21.7642 36.3788ZM26.235 21.0033C27.2698 21.0033 28.2813 21.3102 29.1416 21.885C30.0019 22.4599 30.6725 23.277 31.0685 24.2329C31.4644 25.1889 31.568 26.2408 31.3662 27.2556C31.1643 28.2705 30.6661 29.2027 29.9344 29.9343C29.2027 30.666 28.2705 31.1643 27.2557 31.3661C26.2408 31.568 25.1889 31.4644 24.233 31.0684C23.277 30.6725 22.4599 30.0019 21.8851 29.1416C21.3102 28.2812 21.0034 27.2697 21.0034 26.235C21.0051 24.848 21.5568 23.5183 22.5376 22.5376C23.5184 21.5568 24.848 21.0051 26.235 21.0033Z" fill="#1263FF"/>
</svg>
