<svg width="55" height="55" viewBox="0 0 55 55" fill="none" xmlns="http://www.w3.org/2000/svg">
<g clip-path="url(#clip0_8105_1073)">
<path d="M32.0797 31.7747L31.6576 31.6596L31.7727 32.0816L33.2286 37.4198C30.8897 38.9699 28.0874 39.8737 25.0775 39.8737C16.9201 39.8737 10.2832 33.2369 10.2832 25.0794C10.2832 16.9221 16.9201 10.2852 25.0775 10.2852C33.2349 10.2852 39.8718 16.9221 39.8718 25.0794C39.8718 28.0894 38.9681 30.8918 37.4179 33.2305L32.0797 31.7747ZM30.0922 20.3147H30.3422V20.0647V16.7215V16.4715H30.0922H26.9991V13.3783V13.1283H26.7491H23.4059H23.1559V13.3783V16.8356C21.2011 17.6046 19.8127 19.5103 19.8127 21.7363C19.8127 24.6394 22.1742 27.001 25.0775 27.001C25.861 27.001 26.4991 27.639 26.4991 28.4226C26.4991 29.2062 25.861 29.8442 25.0775 29.8442H20.0627H19.8127V30.0942V33.4374V33.6874H20.0627H23.1559V36.7805V37.0305H23.4059H26.7491H26.9991V36.7805V33.3232C28.9538 32.5542 30.3422 30.6486 30.3422 28.4226C30.3422 25.5194 27.9807 23.1579 25.0775 23.1579C24.2938 23.1579 23.6559 22.5199 23.6559 21.7363C23.6559 20.9526 24.2938 20.3147 25.0775 20.3147H30.0922Z" fill="white" stroke="url(#paint0_linear_8105_1073)" stroke-width="0.5"/>
<path d="M25.0776 44.4669C14.3865 44.4669 5.69014 35.7707 5.69014 25.0795C5.69014 14.3883 14.3865 5.69202 25.0776 5.69202C35.7688 5.69202 44.4651 14.3883 44.4651 25.0795C44.4651 28.2165 43.7148 31.1829 42.3856 33.8079L46.9961 35.0653C50.9977 26.2911 49.4779 15.4342 42.1003 8.05661C32.6919 -1.35172 17.4644 -1.35269 8.05486 8.05661C8.05485 8.05661 8.05485 8.05662 8.05484 8.05662M25.0776 44.4669L36.248 47.5407C32.8208 49.2492 29.0189 50.1533 25.0777 50.1533C11.2182 50.1533 0.00390625 38.9369 0.00390625 25.0795C0.00390625 18.382 2.61203 12.0853 7.34774 7.34951L8.05484 8.05662M25.0776 44.4669C28.2147 44.4669 31.1811 43.7167 33.8061 42.3875L35.0635 46.9981M25.0776 44.4669L35.0635 46.9981M8.05484 8.05662C3.50667 12.6049 1.00391 18.6472 1.00391 25.0795C1.00391 38.3847 11.7706 49.1533 25.0777 49.1533C28.5835 49.1533 31.9712 48.409 35.0635 46.9981M8.05484 8.05662L35.0635 46.9981" fill="white" stroke="url(#paint1_linear_8105_1073)" stroke-width="2"/>
<path d="M47.4172 42.6913L49.7812 40.3272L36.7793 36.7812L40.3253 49.7831L42.6892 47.4191L50.2708 55.0008L54.9987 50.2729L47.4172 42.6913Z" fill="white"/>
</g>
<defs>
<linearGradient id="paint0_linear_8105_1073" x1="40.1218" y1="10.0352" x2="10.0332" y2="40.1237" gradientUnits="userSpaceOnUse">
<stop stop-color="#1263FF"/>
<stop offset="1" stop-color="#27AFF9"/>
</linearGradient>
<linearGradient id="paint1_linear_8105_1073" x1="50.1552" y1="0" x2="0.00196079" y2="50.1513" gradientUnits="userSpaceOnUse">
<stop stop-color="#1263FF"/>
<stop offset="1" stop-color="#27AFF9"/>
</linearGradient>
<clipPath id="clip0_8105_1073">
<rect width="55" height="55" fill="white"/>
</clipPath>
</defs>
</svg>
