<svg width="55" height="55" viewBox="0 0 55 55" fill="none" xmlns="http://www.w3.org/2000/svg">
<path d="M31.0236 26.2289C32.2275 26.2289 33.2035 25.2529 33.2035 24.049C33.2035 22.8451 32.2275 21.8691 31.0236 21.8691C29.8197 21.8691 28.8438 22.8451 28.8438 24.049C28.8438 25.2529 29.8197 26.2289 31.0236 26.2289Z" fill="#1263FF"/>
<path d="M44.1612 37.0801C47.3895 32.1023 48.6607 26.1057 47.7299 20.2462C46.7991 14.3867 43.7321 9.07924 39.1202 5.34693C34.5083 1.61461 28.678 -0.278289 22.7532 0.0331261C16.8284 0.344541 11.2287 2.83823 7.03346 7.03346C2.83823 11.2287 0.344541 16.8284 0.0331261 22.7532C-0.278289 28.678 1.61461 34.5083 5.34693 39.1202C9.07924 43.7321 14.3867 46.7991 20.2462 47.7299C26.1057 48.6607 32.1023 47.3895 37.0801 44.1612L46.4554 53.5365C47.3947 54.4742 48.6678 55.0006 49.9951 55C51.3223 54.9994 52.595 54.4719 53.5334 53.5334C54.4719 52.595 54.9994 51.3223 55 49.9951C55.0006 48.6678 54.4742 47.3947 53.5365 46.4554L44.1612 37.0801ZM2.68616 24.0488C2.68616 19.8237 3.93906 15.6934 6.28642 12.1804C8.63377 8.66729 11.9702 5.92918 15.8737 4.3123C19.7772 2.69541 24.0725 2.27236 28.2164 3.09664C32.3604 3.92092 36.1669 5.95552 39.1545 8.94313C42.1421 11.9308 44.1767 15.7372 45.001 19.8812C45.8253 24.0251 45.4022 28.3204 43.7853 32.2239C42.1684 36.1274 39.4303 39.4638 35.9173 41.8112C32.4042 44.1586 28.2739 45.4114 24.0488 45.4114C18.385 45.4051 12.955 43.1524 8.95015 39.1475C4.94525 35.1426 2.69251 29.7126 2.68616 24.0488ZM49.996 52.387C49.6818 52.3879 49.3706 52.3265 49.0803 52.2063C48.7901 52.0862 48.5265 51.9097 48.3049 51.6871L39.2198 42.6019C40.4561 41.589 41.5891 40.4561 42.602 39.2198L51.6871 48.3049C52.0214 48.6394 52.249 49.0655 52.3411 49.5293C52.4333 49.9931 52.3859 50.4739 52.2049 50.9108C52.0239 51.3476 51.7175 51.7211 51.3243 51.9838C50.9311 52.2466 50.4689 52.3869 49.996 52.387Z" fill="#060E28"/>
<path d="M39.3091 24.0491C39.3091 21.0311 38.4142 18.0809 36.7375 15.5716C35.0608 13.0623 32.6777 11.1065 29.8894 9.95157C27.1012 8.79665 24.0331 8.49447 21.0732 9.08324C18.1132 9.67202 15.3943 11.1253 13.2603 13.2593C11.1263 15.3933 9.67299 18.1122 9.08422 21.0722C8.49545 24.0321 8.79763 27.1002 9.95255 29.8885C11.1075 32.6767 13.0633 35.0598 15.5726 36.7365C18.0819 38.4132 21.0321 39.3081 24.0501 39.3081C28.0956 39.3035 31.9741 37.6944 34.8347 34.8337C37.6953 31.9731 39.3045 28.0946 39.3091 24.0491ZM31.0256 28.8448C29.9827 28.843 28.9687 28.5016 28.137 27.8723C27.3054 27.2431 26.7012 26.3601 26.4159 25.357H20.9982V28.4088C20.9982 28.7557 20.8604 29.0884 20.6152 29.3336C20.3699 29.5789 20.0372 29.7167 19.6903 29.7167C19.3434 29.7167 19.0108 29.5789 18.7655 29.3336C18.5202 29.0884 18.3824 28.7557 18.3824 28.4088V25.357H15.7666V28.4088C15.7666 28.7557 15.6288 29.0884 15.3835 29.3336C15.1382 29.5789 14.8055 29.7167 14.4587 29.7167C14.1118 29.7167 13.7791 29.5789 13.5338 29.3336C13.2885 29.0884 13.1507 28.7557 13.1507 28.4088V24.0491C13.1508 23.7022 13.2886 23.3695 13.5338 23.1243C13.7791 22.879 14.1118 22.7412 14.4587 22.7412H26.4159C26.6595 21.8833 27.1376 21.1103 27.7964 20.5093C28.4553 19.9082 29.2687 19.5028 30.1453 19.3387C31.0219 19.1746 31.9269 19.2583 32.7585 19.5803C33.5901 19.9023 34.3155 20.45 34.853 21.1616C35.3904 21.8733 35.7187 22.7207 35.801 23.6088C35.8832 24.4968 35.7161 25.3901 35.3185 26.1884C34.9208 26.9866 34.3084 27.6581 33.55 28.1274C32.7917 28.5967 31.9174 28.8451 31.0256 28.8448Z" fill="#1263FF"/>
</svg>
