<svg width="200" height="60" viewBox="0 0 200 60" fill="none" xmlns="http://www.w3.org/2000/svg">
<path d="M166.484 0H0V60H166.484L200 29.3878L166.484 0Z" fill="url(#paint0_linear_8116_848)"/>
<path d="M70.512 39.288C69.184 39.288 67.896 39.112 66.648 38.76C65.416 38.392 64.424 37.92 63.672 37.344L64.992 34.416C65.712 34.944 66.568 35.368 67.56 35.688C68.552 36.008 69.544 36.168 70.536 36.168C71.64 36.168 72.456 36.008 72.984 35.688C73.512 35.352 73.776 34.912 73.776 34.368C73.776 33.968 73.616 33.64 73.296 33.384C72.992 33.112 72.592 32.896 72.096 32.736C71.616 32.576 70.96 32.4 70.128 32.208C68.848 31.904 67.8 31.6 66.984 31.296C66.168 30.992 65.464 30.504 64.872 29.832C64.296 29.16 64.008 28.264 64.008 27.144C64.008 26.168 64.272 25.288 64.8 24.504C65.328 23.704 66.12 23.072 67.176 22.608C68.248 22.144 69.552 21.912 71.088 21.912C72.16 21.912 73.208 22.04 74.232 22.296C75.256 22.552 76.152 22.92 76.92 23.4L75.72 26.352C74.168 25.472 72.616 25.032 71.064 25.032C69.976 25.032 69.168 25.208 68.64 25.56C68.128 25.912 67.872 26.376 67.872 26.952C67.872 27.528 68.168 27.96 68.76 28.248C69.368 28.52 70.288 28.792 71.52 29.064C72.8 29.368 73.848 29.672 74.664 29.976C75.48 30.28 76.176 30.76 76.752 31.416C77.344 32.072 77.64 32.96 77.64 34.08C77.64 35.04 77.368 35.92 76.824 36.72C76.296 37.504 75.496 38.128 74.424 38.592C73.352 39.056 72.048 39.288 70.512 39.288ZM88.2407 38.376C87.8727 38.648 87.4167 38.856 86.8727 39C86.3447 39.128 85.7847 39.192 85.1927 39.192C83.6567 39.192 82.4647 38.8 81.6167 38.016C80.7847 37.232 80.3687 36.08 80.3687 34.56V29.256H78.3767V26.376H80.3687V23.232H84.1127V26.376H87.3287V29.256H84.1127V34.512C84.1127 35.056 84.2487 35.48 84.5207 35.784C84.8087 36.072 85.2087 36.216 85.7207 36.216C86.3127 36.216 86.8167 36.056 87.2327 35.736L88.2407 38.376ZM102.472 32.592C102.472 32.64 102.448 32.976 102.4 33.6H92.6319C92.8079 34.4 93.2239 35.032 93.8799 35.496C94.5359 35.96 95.3519 36.192 96.3279 36.192C96.9999 36.192 97.5919 36.096 98.1039 35.904C98.6319 35.696 99.1199 35.376 99.5679 34.944L101.56 37.104C100.344 38.496 98.5679 39.192 96.2319 39.192C94.7759 39.192 93.4879 38.912 92.3679 38.352C91.2479 37.776 90.3839 36.984 89.7759 35.976C89.1679 34.968 88.8639 33.824 88.8639 32.544C88.8639 31.28 89.1599 30.144 89.7519 29.136C90.3599 28.112 91.1839 27.32 92.2239 26.76C93.2799 26.184 94.4559 25.896 95.7519 25.896C97.0159 25.896 98.1599 26.168 99.1839 26.712C100.208 27.256 101.008 28.04 101.584 29.064C102.176 30.072 102.472 31.248 102.472 32.592ZM95.7759 28.728C94.9279 28.728 94.2159 28.968 93.6399 29.448C93.0639 29.928 92.7119 30.584 92.5839 31.416H98.9439C98.8159 30.6 98.4639 29.952 97.8879 29.472C97.3119 28.976 96.6079 28.728 95.7759 28.728ZM112.477 25.896C113.677 25.896 114.765 26.176 115.741 26.736C116.733 27.28 117.509 28.056 118.069 29.064C118.629 30.056 118.909 31.216 118.909 32.544C118.909 33.872 118.629 35.04 118.069 36.048C117.509 37.04 116.733 37.816 115.741 38.376C114.765 38.92 113.677 39.192 112.477 39.192C110.829 39.192 109.533 38.672 108.589 37.632V43.656H104.845V26.088H108.421V27.576C109.349 26.456 110.701 25.896 112.477 25.896ZM111.829 36.12C112.789 36.12 113.573 35.8 114.181 35.16C114.805 34.504 115.117 33.632 115.117 32.544C115.117 31.456 114.805 30.592 114.181 29.952C113.573 29.296 112.789 28.968 111.829 28.968C110.869 28.968 110.077 29.296 109.453 29.952C108.845 30.592 108.541 31.456 108.541 32.544C108.541 33.632 108.845 34.504 109.453 35.16C110.077 35.8 110.869 36.12 111.829 36.12ZM121.049 30.744H127.841V33.744H121.049V30.744ZM135.839 22.2V39H131.951V25.32H128.591V22.2H135.839Z" fill="white"/>
<defs>
<linearGradient id="paint0_linear_8116_848" x1="200" y1="0" x2="166.972" y2="110.092" gradientUnits="userSpaceOnUse">
<stop stop-color="#1263FF"/>
<stop offset="1" stop-color="#27AFF9"/>
</linearGradient>
</defs>
</svg>
