<svg width="55" height="55" viewBox="0 0 55 55" fill="none" xmlns="http://www.w3.org/2000/svg">
<path d="M40.7196 43.651C42.8892 43.651 44.6481 41.8922 44.6481 39.7225C44.6481 37.5528 42.8892 35.7939 40.7196 35.7939C38.5499 35.7939 36.791 37.5528 36.791 39.7225C36.791 41.8922 38.5499 43.651 40.7196 43.651Z" fill="#1263FF"/>
<path d="M26.72 44.3842C26.558 44.5899 26.4615 44.8394 26.4428 45.1004C26.4241 45.3615 26.4841 45.6222 26.6151 45.8489L28.3611 48.8729C28.4918 49.0996 28.6875 49.282 28.923 49.3963C29.1584 49.5107 29.4227 49.5518 29.6817 49.5144L33.8861 48.9083L36.1795 50.2323L37.7571 54.1766C37.8543 54.4196 38.022 54.6279 38.2387 54.7746C38.4554 54.9213 38.7111 54.9997 38.9728 54.9997H42.4649C42.7266 54.9997 42.9823 54.9213 43.199 54.7746C43.4157 54.6279 43.5834 54.4196 43.6806 54.1766L45.2582 50.2323L47.5516 48.9083L51.756 49.5144C52.015 49.5518 52.2794 49.5107 52.5148 49.3963C52.7502 49.282 52.9459 49.0996 53.0766 48.8729L54.8226 45.8489C54.9536 45.6222 55.0136 45.3615 54.9949 45.1004C54.9762 44.8394 54.8797 44.5899 54.7178 44.3842L52.091 41.046V38.398L54.7177 35.0599C54.8797 34.8542 54.9762 34.6047 54.9949 34.3436C55.0136 34.0825 54.9536 33.8218 54.8226 33.5952L53.0766 30.5712C52.9454 30.3449 52.7496 30.1629 52.5143 30.0485C52.279 29.9342 52.0149 29.8928 51.756 29.9296L47.5516 30.5358L45.2582 29.2118L43.6806 25.2675C43.5834 25.0245 43.4156 24.8162 43.1989 24.6695C42.9822 24.5228 42.7266 24.4443 42.4649 24.4443H38.9728C38.7111 24.4443 38.4554 24.5228 38.2387 24.6695C38.022 24.8162 37.8543 25.0245 37.7571 25.2675L36.1794 29.2118L33.886 30.5358L29.6818 29.9296C29.4228 29.8928 29.1587 29.9342 28.9234 30.0485C28.6881 30.1628 28.4923 30.3448 28.3612 30.5712L26.6151 33.5952C26.4841 33.8218 26.4241 34.0825 26.4428 34.3436C26.4615 34.6047 26.5581 34.8542 26.72 35.0599L29.3467 38.398V41.046L26.72 44.3842ZM40.7188 33.1744C42.0138 33.1744 43.2797 33.5585 44.3565 34.2779C45.4332 34.9974 46.2724 36.02 46.768 37.2164C47.2636 38.4128 47.3933 39.7293 47.1406 40.9994C46.888 42.2695 46.2644 43.4362 45.3487 44.3519C44.433 45.2676 43.2663 45.8912 41.9962 46.1438C40.7261 46.3964 39.4096 46.2668 38.2132 45.7712C37.0168 45.2756 35.9942 44.4364 35.2747 43.3597C34.5553 42.2829 34.1713 41.017 34.1713 39.722C34.1732 37.9861 34.8636 36.3218 36.0911 35.0943C37.3186 33.8668 38.9829 33.1763 40.7188 33.1744Z" fill="#1263FF"/>
<path d="M51.0712 0H3.92855C2.88698 0.00113461 1.8884 0.415399 1.1519 1.1519C0.415399 1.8884 0.00113461 2.88698 0 3.92855V45.8331C0.00113461 46.8747 0.415399 47.8732 1.1519 48.6097C1.8884 49.3462 2.88698 49.7605 3.92855 49.7616H24.0078C24.3551 49.7616 24.6882 49.6237 24.9338 49.3781C25.1794 49.1325 25.3173 48.7994 25.3173 48.4521C25.3173 48.1048 25.1794 47.7717 24.9338 47.5261C24.6882 47.2806 24.3551 47.1426 24.0078 47.1426H3.92855C3.58136 47.1422 3.2485 47.0041 3.003 46.7586C2.7575 46.5131 2.61941 46.1803 2.61903 45.8331V9.60312H52.3807V27.4998C52.3807 27.8472 52.5186 28.1802 52.7642 28.4258C53.0098 28.6714 53.3429 28.8094 53.6902 28.8094C54.0375 28.8094 54.3706 28.6714 54.6162 28.4258C54.8617 28.1802 54.9997 27.8472 54.9997 27.4998V3.92855C54.9986 2.88698 54.5843 1.8884 53.8478 1.1519C53.1113 0.415399 52.1127 0.00113461 51.0712 0ZM2.61903 6.98409V3.92855C2.61941 3.58136 2.7575 3.2485 3.003 3.003C3.2485 2.7575 3.58136 2.61941 3.92855 2.61903H51.0712C51.4183 2.61941 51.7512 2.7575 51.9967 3.003C52.2422 3.2485 52.3803 3.58136 52.3807 3.92855V6.98409H2.61903Z" fill="#060E28"/>
<path d="M6.5478 14.8407H13.5319C13.8792 14.8407 14.2123 14.7027 14.4579 14.4572C14.7034 14.2116 14.8414 13.8785 14.8414 13.5312C14.8414 13.1839 14.7034 12.8508 14.4579 12.6052C14.2123 12.3596 13.8792 12.2217 13.5319 12.2217H6.5478C6.20049 12.2217 5.86741 12.3596 5.62183 12.6052C5.37625 12.8508 5.23828 13.1839 5.23828 13.5312C5.23828 13.8785 5.37625 14.2116 5.62183 14.4572C5.86741 14.7027 6.20049 14.8407 6.5478 14.8407Z" fill="#060E28"/>
<path d="M48.4519 14.8407C48.7992 14.8407 49.1323 14.7027 49.3778 14.4572C49.6234 14.2116 49.7614 13.8785 49.7614 13.5312C49.7614 13.1839 49.6234 12.8508 49.3778 12.6052C49.1323 12.3596 48.7992 12.2217 48.4519 12.2217H43.2138C42.8665 12.2217 42.5334 12.3596 42.2878 12.6052C42.0423 12.8508 41.9043 13.1839 41.9043 13.5312C41.9043 13.8785 42.0423 14.2116 42.2878 14.4572C42.5334 14.7027 42.8665 14.8407 43.2138 14.8407H48.4519Z" fill="#060E28"/>
<path d="M37.9753 14.8407C38.3226 14.8407 38.6557 14.7027 38.9013 14.4572C39.1469 14.2116 39.2848 13.8785 39.2848 13.5312C39.2848 13.1839 39.1469 12.8508 38.9013 12.6052C38.6557 12.3596 38.3226 12.2217 37.9753 12.2217H32.7373C32.3899 12.2217 32.0569 12.3596 31.8113 12.6052C31.5657 12.8508 31.4277 13.1839 31.4277 13.5312C31.4277 13.8785 31.5657 14.2116 31.8113 14.4572C32.0569 14.7027 32.3899 14.8407 32.7373 14.8407H37.9753Z" fill="#060E28"/>
<path d="M5.23828 34.4837C5.23825 34.6557 5.27211 34.826 5.33791 34.9849C5.40371 35.1438 5.50017 35.2882 5.62177 35.4098C5.74338 35.5314 5.88775 35.6278 6.04664 35.6936C6.20553 35.7594 6.37582 35.7933 6.5478 35.7933H22.262C22.6093 35.7933 22.9424 35.6553 23.188 35.4097C23.4335 35.1641 23.5715 34.8311 23.5715 34.4837C23.5715 34.1364 23.4335 33.8034 23.188 33.5578C22.9424 33.3122 22.6093 33.1742 22.262 33.1742H7.85731V21.8251H47.1428V25.7536C47.1428 26.1009 47.2808 26.434 47.5264 26.6796C47.7719 26.9252 48.105 27.0632 48.4523 27.0632C48.7996 27.0632 49.1327 26.9252 49.3783 26.6796C49.6239 26.434 49.7618 26.1009 49.7618 25.7536V20.5156C49.7619 20.3436 49.728 20.1733 49.6622 20.0144C49.5964 19.8555 49.5 19.7111 49.3784 19.5895C49.2568 19.4679 49.1124 19.3715 48.9535 19.3057C48.7946 19.2399 48.6243 19.206 48.4523 19.2061H6.5478C6.37582 19.206 6.20553 19.2399 6.04664 19.3057C5.88775 19.3715 5.74338 19.4679 5.62177 19.5895C5.50017 19.7111 5.40371 19.8555 5.33791 20.0144C5.27211 20.1733 5.23825 20.3436 5.23828 20.5156V34.4837Z" fill="#060E28"/>
<path d="M6.5478 42.7772H24.008C24.3553 42.7772 24.6884 42.6393 24.934 42.3937C25.1796 42.1481 25.3175 41.815 25.3175 41.4677C25.3175 41.1204 25.1796 40.7873 24.934 40.5418C24.6884 40.2962 24.3553 40.1582 24.008 40.1582H6.5478C6.20049 40.1582 5.86741 40.2962 5.62183 40.5418C5.37625 40.7873 5.23828 41.1204 5.23828 41.4677C5.23828 41.815 5.37625 42.1481 5.62183 42.3937C5.86741 42.6393 6.20049 42.7772 6.5478 42.7772Z" fill="#060E28"/>
</svg>
