<svg width="12" height="20" viewBox="0 0 12 20" fill="none" xmlns="http://www.w3.org/2000/svg">
<path d="M11.1239 0.00416134L8.51539 0C5.58488 0 3.69105 1.9319 3.69105 4.92203V7.19141H1.06836C0.841727 7.19141 0.658203 7.37409 0.658203 7.59943V10.8875C0.658203 11.1128 0.841936 11.2953 1.06836 11.2953H3.69105V19.5922C3.69105 19.8175 3.87457 20 4.1012 20H7.52307C7.7497 20 7.93322 19.8173 7.93322 19.5922V11.2953H10.9998C11.2264 11.2953 11.4099 11.1128 11.4099 10.8875L11.4112 7.59943C11.4112 7.49124 11.3679 7.38762 11.2911 7.31105C11.2143 7.23448 11.1096 7.19141 11.0008 7.19141H7.93322V5.26763C7.93322 4.34298 8.15483 3.87358 9.36625 3.87358L11.1234 3.87295C11.3499 3.87295 11.5334 3.69027 11.5334 3.46514V0.411972C11.5334 0.187052 11.3501 0.00457747 11.1239 0.00416134Z" fill="white"/>
</svg>
