<svg width="200" height="60" viewBox="0 0 200 60" fill="none" xmlns="http://www.w3.org/2000/svg">
<path d="M166.484 0H0V60H166.484L200 29.3878L166.484 0Z" fill="url(#paint0_linear_8116_866)"/>
<path d="M67.512 39.288C66.184 39.288 64.896 39.112 63.648 38.76C62.416 38.392 61.424 37.92 60.672 37.344L61.992 34.416C62.712 34.944 63.568 35.368 64.56 35.688C65.552 36.008 66.544 36.168 67.536 36.168C68.64 36.168 69.456 36.008 69.984 35.688C70.512 35.352 70.776 34.912 70.776 34.368C70.776 33.968 70.616 33.64 70.296 33.384C69.992 33.112 69.592 32.896 69.096 32.736C68.616 32.576 67.96 32.4 67.128 32.208C65.848 31.904 64.8 31.6 63.984 31.296C63.168 30.992 62.464 30.504 61.872 29.832C61.296 29.16 61.008 28.264 61.008 27.144C61.008 26.168 61.272 25.288 61.8 24.504C62.328 23.704 63.12 23.072 64.176 22.608C65.248 22.144 66.552 21.912 68.088 21.912C69.16 21.912 70.208 22.04 71.232 22.296C72.256 22.552 73.152 22.92 73.92 23.4L72.72 26.352C71.168 25.472 69.616 25.032 68.064 25.032C66.976 25.032 66.168 25.208 65.64 25.56C65.128 25.912 64.872 26.376 64.872 26.952C64.872 27.528 65.168 27.96 65.76 28.248C66.368 28.52 67.288 28.792 68.52 29.064C69.8 29.368 70.848 29.672 71.664 29.976C72.48 30.28 73.176 30.76 73.752 31.416C74.344 32.072 74.64 32.96 74.64 34.08C74.64 35.04 74.368 35.92 73.824 36.72C73.296 37.504 72.496 38.128 71.424 38.592C70.352 39.056 69.048 39.288 67.512 39.288ZM85.2407 38.376C84.8727 38.648 84.4167 38.856 83.8727 39C83.3447 39.128 82.7847 39.192 82.1927 39.192C80.6567 39.192 79.4647 38.8 78.6167 38.016C77.7847 37.232 77.3687 36.08 77.3687 34.56V29.256H75.3767V26.376H77.3687V23.232H81.1127V26.376H84.3287V29.256H81.1127V34.512C81.1127 35.056 81.2487 35.48 81.5207 35.784C81.8087 36.072 82.2087 36.216 82.7207 36.216C83.3127 36.216 83.8167 36.056 84.2327 35.736L85.2407 38.376ZM99.4719 32.592C99.4719 32.64 99.4479 32.976 99.3999 33.6H89.6319C89.8079 34.4 90.2239 35.032 90.8799 35.496C91.5359 35.96 92.3519 36.192 93.3279 36.192C93.9999 36.192 94.5919 36.096 95.1039 35.904C95.6319 35.696 96.1199 35.376 96.5679 34.944L98.5599 37.104C97.3439 38.496 95.5679 39.192 93.2319 39.192C91.7759 39.192 90.4879 38.912 89.3679 38.352C88.2479 37.776 87.3839 36.984 86.7759 35.976C86.1679 34.968 85.8639 33.824 85.8639 32.544C85.8639 31.28 86.1599 30.144 86.7519 29.136C87.3599 28.112 88.1839 27.32 89.2239 26.76C90.2799 26.184 91.4559 25.896 92.7519 25.896C94.0159 25.896 95.1599 26.168 96.1839 26.712C97.2079 27.256 98.0079 28.04 98.5839 29.064C99.1759 30.072 99.4719 31.248 99.4719 32.592ZM92.7759 28.728C91.9279 28.728 91.2159 28.968 90.6399 29.448C90.0639 29.928 89.7119 30.584 89.5839 31.416H95.9439C95.8159 30.6 95.4639 29.952 94.8879 29.472C94.3119 28.976 93.6079 28.728 92.7759 28.728ZM109.477 25.896C110.677 25.896 111.765 26.176 112.741 26.736C113.733 27.28 114.509 28.056 115.069 29.064C115.629 30.056 115.909 31.216 115.909 32.544C115.909 33.872 115.629 35.04 115.069 36.048C114.509 37.04 113.733 37.816 112.741 38.376C111.765 38.92 110.677 39.192 109.477 39.192C107.829 39.192 106.533 38.672 105.589 37.632V43.656H101.845V26.088H105.421V27.576C106.349 26.456 107.701 25.896 109.477 25.896ZM108.829 36.12C109.789 36.12 110.573 35.8 111.181 35.16C111.805 34.504 112.117 33.632 112.117 32.544C112.117 31.456 111.805 30.592 111.181 29.952C110.573 29.296 109.789 28.968 108.829 28.968C107.869 28.968 107.077 29.296 106.453 29.952C105.845 30.592 105.541 31.456 105.541 32.544C105.541 33.632 105.845 34.504 106.453 35.16C107.077 35.8 107.869 36.12 108.829 36.12ZM118.049 30.744H124.841V33.744H118.049V30.744ZM134.254 29.04C135.726 29.28 136.854 29.832 137.638 30.696C138.422 31.544 138.814 32.6 138.814 33.864C138.814 34.84 138.558 35.744 138.046 36.576C137.534 37.392 136.75 38.048 135.694 38.544C134.654 39.04 133.374 39.288 131.854 39.288C130.67 39.288 129.502 39.136 128.35 38.832C127.214 38.512 126.246 38.064 125.446 37.488L126.958 34.512C127.598 34.992 128.334 35.368 129.166 35.64C130.014 35.896 130.878 36.024 131.758 36.024C132.734 36.024 133.502 35.84 134.062 35.472C134.622 35.088 134.902 34.552 134.902 33.864C134.902 32.488 133.854 31.8 131.758 31.8H129.982V29.232L133.438 25.32H126.286V22.2H138.046V24.72L134.254 29.04Z" fill="white"/>
<defs>
<linearGradient id="paint0_linear_8116_866" x1="200" y1="0" x2="166.972" y2="110.092" gradientUnits="userSpaceOnUse">
<stop stop-color="#1263FF"/>
<stop offset="1" stop-color="#27AFF9"/>
</linearGradient>
</defs>
</svg>
