<svg width="55" height="55" viewBox="0 0 55 55" fill="none" xmlns="http://www.w3.org/2000/svg">
<path d="M24.881 55.0002C31.4775 54.9927 37.8017 52.3689 42.4662 47.7045C47.1306 43.04 49.7544 36.7158 49.7619 30.1192C49.7618 29.772 49.6238 29.4389 49.3783 29.1934C49.1327 28.9478 48.7997 28.8098 48.4524 28.8097H26.1905V6.54781C26.1905 6.2005 26.0525 5.86743 25.8069 5.62185C25.5613 5.37627 25.2283 5.2383 24.881 5.23828C18.2821 5.23828 11.9535 7.85966 7.28746 12.5257C2.62138 17.1918 0 23.5204 0 30.1192C0 36.7181 2.62138 43.0466 7.28746 47.7127C11.9535 52.3788 18.2821 55.0002 24.881 55.0002ZM6.58321 42.778H16.2219L12.812 48.8108C10.3632 47.224 8.2474 45.1748 6.58321 42.778ZM4.22307 21.8256H23.5714V26.1907H2.97237C3.23809 24.6965 3.65721 23.2337 4.22307 21.8256ZM8.7041 14.8415H23.5714V19.2065H5.48752C6.37892 17.6266 7.45903 16.1608 8.7041 14.8415ZM23.5714 28.8097V29.7749L21.6497 33.1748H2.83394C2.69248 32.1624 2.62068 31.1415 2.61905 30.1192C2.61905 29.6793 2.63594 29.2434 2.66125 28.8097H23.5714ZM20.1694 35.7938L17.7022 40.1589H5.02123C4.31295 38.7669 3.75428 37.3037 3.35459 35.7938H20.1694ZM47.1045 31.4288C46.8903 35.0913 45.7737 38.6441 43.8543 41.7708C41.9349 44.8975 39.2722 47.5011 36.1031 49.3498C32.9341 51.1985 29.3572 52.2349 25.6907 52.3668C22.0242 52.4987 18.382 51.7219 15.0884 50.1057L25.6449 31.4288H47.1045ZM23.5714 12.2224H11.6612C15.1248 9.65027 19.2645 8.14626 23.5714 7.89527V12.2224Z" fill="#060E28"/>
<path d="M30.1181 0C29.7708 1.85213e-05 29.4377 0.137992 29.1922 0.383571C28.9466 0.62915 28.8086 0.962222 28.8086 1.30952V24.881C28.8086 25.2283 28.9466 25.5613 29.1922 25.8069C29.4377 26.0525 29.7708 26.1905 30.1181 26.1905H53.6895C54.0368 26.1905 54.3699 26.0525 54.6155 25.8069C54.8611 25.5613 54.9991 25.2283 54.9991 24.881C54.9916 18.2844 52.3678 11.9602 47.7033 7.29574C43.0389 2.63127 36.7147 0.00749108 30.1181 0Z" fill="#1263FF"/>
</svg>
