<svg width="17" height="16" viewBox="0 0 17 16" fill="none" xmlns="http://www.w3.org/2000/svg">
<path d="M11.2195 0.675781H5.43641C2.77524 0.675781 0.617188 2.82149 0.617188 5.46745V11.2174C0.617188 13.8634 2.77524 16.0091 5.43641 16.0091H11.2195C13.8807 16.0091 16.0387 13.8634 16.0387 11.2174V5.46745C16.0387 2.82149 13.8807 0.675781 11.2195 0.675781ZM14.5929 11.2174C14.5929 13.067 13.0797 14.5716 11.2195 14.5716H5.43641C3.57619 14.5716 2.06295 13.067 2.06295 11.2174V5.46745C2.06295 3.61786 3.57619 2.11328 5.43641 2.11328H11.2195C13.0797 2.11328 14.5929 3.61786 14.5929 5.46745V11.2174Z" fill="white"/>
<path d="M8.26553 4.45996C6.1364 4.45996 4.41016 6.17634 4.41016 8.29329C4.41016 10.4103 6.1364 12.1266 8.26553 12.1266C10.3947 12.1266 12.1209 10.4103 12.1209 8.29329C12.1209 6.17634 10.3947 4.45996 8.26553 4.45996ZM8.26553 10.6891C6.93736 10.6891 5.85592 9.61388 5.85592 8.29329C5.85592 6.97175 6.93736 5.89746 8.26553 5.89746C9.59371 5.89746 10.6751 6.97175 10.6751 8.29329C10.6751 9.61388 9.59371 10.6891 8.26553 10.6891Z" fill="white"/>
<path d="M12.463 4.74488C12.7479 4.74488 12.9788 4.51561 12.9788 4.23279C12.9788 3.94997 12.7479 3.7207 12.463 3.7207C12.1782 3.7207 11.9473 3.94997 11.9473 4.23279C11.9473 4.51561 12.1782 4.74488 12.463 4.74488Z" fill="white"/>
</svg>
