<svg width="55" height="55" viewBox="0 0 55 55" fill="none" xmlns="http://www.w3.org/2000/svg">
<path d="M48.125 42.1094H6.875C6.19124 42.1094 5.53548 41.8377 5.05199 41.3543C4.5685 40.8708 4.29688 40.215 4.29688 39.5312V10.3125C4.29688 9.62874 4.5685 8.97298 5.05199 8.48949C5.53548 8.006 6.19124 7.73438 6.875 7.73438H48.125C48.8088 7.73438 49.4645 8.006 49.948 8.48949C50.4315 8.97298 50.7031 9.62874 50.7031 10.3125V39.5312C50.7031 40.215 50.4315 40.8708 49.948 41.3543C49.4645 41.8377 48.8088 42.1094 48.125 42.1094ZM6.875 9.45312C6.64708 9.45312 6.42849 9.54367 6.26733 9.70483C6.10617 9.86599 6.01562 10.0846 6.01562 10.3125V39.5312C6.01562 39.7592 6.10617 39.9778 6.26733 40.1389C6.42849 40.3001 6.64708 40.3906 6.875 40.3906H48.125C48.3529 40.3906 48.5715 40.3001 48.7327 40.1389C48.8938 39.9778 48.9844 39.7592 48.9844 39.5312V10.3125C48.9844 10.0846 48.8938 9.86599 48.7327 9.70483C48.5715 9.54367 48.3529 9.45312 48.125 9.45312H6.875Z" fill="white"/>
<path d="M18.9062 46.0469H36.0938C36.6449 46.0469 37.1735 46.2658 37.5632 46.6555L37.9148 46.304L37.5632 46.6555C37.9529 47.0453 38.1719 47.5738 38.1719 48.125C38.1719 48.6762 37.9529 49.2047 37.5632 49.5945C37.1735 49.9842 36.6449 50.2031 36.0938 50.2031H18.9062C18.3551 50.2031 17.8265 49.9842 17.4368 49.5945C17.0471 49.2047 16.8281 48.6762 16.8281 48.125C16.8281 47.5738 17.0471 47.0453 17.4368 46.6555C17.8265 46.2658 18.3551 46.0469 18.9062 46.0469Z" fill="white" stroke="url(#paint0_linear_8105_1056)"/>
<path d="M49.1667 37.9102H5.83333C5.61232 37.9102 5.40036 37.964 5.24408 38.0599C5.0878 38.1558 5 38.2859 5 38.4215V40.467C5 40.8738 5.26339 41.264 5.73223 41.5517C6.20107 41.8394 6.83696 42.0011 7.5 42.0011H47.5C48.163 42.0011 48.7989 41.8394 49.2678 41.5517C49.7366 41.264 50 40.8738 50 40.467V38.4215C50 38.2859 49.9122 38.1558 49.7559 38.0599C49.5996 37.964 49.3877 37.9102 49.1667 37.9102Z" fill="white"/>
<path d="M35.189 46.1347L33.4703 40.9784C33.4133 40.8074 33.304 40.6586 33.1578 40.5531C33.0116 40.4476 32.8359 40.3908 32.6556 40.3906H22.3431C22.1628 40.3908 21.9871 40.4476 21.8409 40.5531C21.6947 40.6586 21.5854 40.8074 21.5284 40.9784L19.8097 46.1347C19.7667 46.2638 19.7549 46.4013 19.7755 46.5358C19.796 46.6704 19.8482 46.7981 19.9277 46.9086C20.0073 47.019 20.1119 47.1089 20.233 47.171C20.3541 47.2331 20.4883 47.2655 20.6243 47.2656H34.3743C34.5104 47.2655 34.6446 47.2331 34.7657 47.171C34.8868 47.1089 34.9914 47.019 35.071 46.9086C35.1505 46.7981 35.2027 46.6704 35.2232 46.5358C35.2438 46.4013 35.232 46.2638 35.189 46.1347Z" fill="white"/>
<path d="M22.3438 33.5156C23.7676 33.5156 24.9219 32.3614 24.9219 30.9375C24.9219 29.5136 23.7676 28.3594 22.3438 28.3594C20.9199 28.3594 19.7656 29.5136 19.7656 30.9375C19.7656 32.3614 20.9199 33.5156 22.3438 33.5156Z" fill="white"/>
<path d="M19.7656 31.7969H11.1719C10.944 31.7969 10.7254 31.7063 10.5642 31.5452C10.403 31.384 10.3125 31.1654 10.3125 30.9375C10.3125 30.7096 10.403 30.491 10.5642 30.3298C10.7254 30.1687 10.944 30.0781 11.1719 30.0781H19.7656C19.9935 30.0781 20.2121 30.1687 20.3733 30.3298C20.5345 30.491 20.625 30.7096 20.625 30.9375C20.625 31.1654 20.5345 31.384 20.3733 31.5452C20.2121 31.7063 19.9935 31.7969 19.7656 31.7969Z" fill="white"/>
<path d="M43.8281 31.7969H28.3594C28.1315 31.7969 27.9129 31.7063 27.7517 31.5452C27.5905 31.384 27.5 31.1654 27.5 30.9375C27.5 30.7096 27.5905 30.491 27.7517 30.3298C27.9129 30.1687 28.1315 30.0781 28.3594 30.0781H43.8281C44.056 30.0781 44.2746 30.1687 44.4358 30.3298C44.597 30.491 44.6875 30.7096 44.6875 30.9375C44.6875 31.1654 44.597 31.384 44.4358 31.5452C44.2746 31.7063 44.056 31.7969 43.8281 31.7969Z" fill="white"/>
<path d="M25.7812 11.8594L30.1727 14.6094L25.7812 17.3594V11.8594Z" fill="white"/>
<path d="M27.5 4.29688C25.4604 4.29688 23.4666 4.90169 21.7707 6.03484C20.0748 7.168 18.753 8.77859 17.9725 10.663C17.192 12.5473 16.9877 14.6208 17.3857 16.6212C17.7836 18.6217 18.7657 20.4592 20.208 21.9014C21.6502 23.3436 23.4877 24.3258 25.4881 24.7237C27.4886 25.1216 29.5621 24.9174 31.4464 24.1369C33.3308 23.3564 34.9414 22.0346 36.0745 20.3387C37.2077 18.6428 37.8125 16.649 37.8125 14.6094C37.8102 11.875 36.723 9.25332 34.7895 7.31985C32.8561 5.38637 30.2344 4.29915 27.5 4.29688ZM32.2523 15.3398L25.3773 19.6367C25.2403 19.7209 25.0827 19.7655 24.9219 19.7656C24.7767 19.7673 24.6339 19.7286 24.5094 19.6539C24.3744 19.5811 24.2617 19.4732 24.183 19.3416C24.1043 19.21 24.0627 19.0596 24.0625 18.9062V10.3125C24.0644 10.1598 24.1065 10.0103 24.1848 9.87921C24.263 9.74808 24.3745 9.63996 24.508 9.5658C24.6415 9.49165 24.7922 9.45409 24.9449 9.45694C25.0975 9.45979 25.2467 9.50295 25.3773 9.58203L32.2523 13.8789C32.3767 13.956 32.4793 14.0635 32.5505 14.1914C32.6217 14.3192 32.659 14.4631 32.659 14.6094C32.659 14.7557 32.6217 14.8996 32.5505 15.0274C32.4793 15.1552 32.3767 15.2628 32.2523 15.3398Z" fill="white"/>
<defs>
<linearGradient id="paint0_linear_8105_1056" x1="38.6719" y1="45.5469" x2="36.4124" y2="55.338" gradientUnits="userSpaceOnUse">
<stop stop-color="#1263FF"/>
<stop offset="1" stop-color="#27AFF9"/>
</linearGradient>
</defs>
</svg>
