<svg width="55" height="55" viewBox="0 0 55 55" fill="none" xmlns="http://www.w3.org/2000/svg">
<path fill-rule="evenodd" clip-rule="evenodd" d="M27.4158 27.5971C27.4158 25.3101 25.5478 23.4495 23.2521 23.4495H19.5977C17.302 23.4495 15.434 25.3101 15.434 27.5971V29.1708H27.4158V27.5971ZM40.7963 36.2467L35.8968 41.1301L44.5056 51.2105C45.2006 52.0237 46.2114 52.4975 47.3533 52.5437C48.6467 52.5963 49.9626 52.0828 50.8757 51.1729C51.7877 50.2631 52.3022 48.9525 52.2507 47.6667C52.2045 46.5291 51.7297 45.5215 50.9144 44.8286L40.7963 36.2467ZM37.2643 33.2496L39.8102 35.4088L35.0567 40.1461L32.8664 37.5819C34.5508 36.3767 36.0354 34.9125 37.2643 33.2496ZM21.4249 7.55752C29.2237 7.55752 35.5681 13.8814 35.5681 21.6556C35.5681 29.4297 29.2237 35.7536 21.4249 35.7536C13.6271 35.7536 7.28281 29.4297 7.28281 21.6556C7.28281 13.8814 13.6271 7.55752 21.4249 7.55752ZM21.4249 39.9635C11.2961 39.9635 3.05469 31.7511 3.05469 21.6556C3.05469 11.5601 11.2961 3.34766 21.4249 3.34766C31.5548 3.34766 39.7951 11.5601 39.7951 21.6556C39.7951 31.7511 31.5548 39.9635 21.4249 39.9635ZM21.4249 19.6919C22.961 19.6919 24.2114 18.4469 24.2114 16.9172C24.2114 15.3864 22.961 14.1425 21.4249 14.1425C19.8888 14.1425 18.6384 15.3875 18.6384 16.9172C18.6384 18.4458 19.8888 19.6919 21.4249 19.6919Z" fill="white"/>
</svg>
