<svg width="55" height="55" viewBox="0 0 55 55" fill="none" xmlns="http://www.w3.org/2000/svg">
<path d="M48.4524 29.683C48.2804 29.683 48.1101 29.7168 47.9512 29.7826C47.7923 29.8484 47.648 29.9449 47.5264 30.0665C47.4047 30.1881 47.3083 30.3325 47.2425 30.4914C47.1767 30.6503 47.1428 30.8206 47.1429 30.9925V47.9107L36.2826 37.0508C36.037 36.8052 35.704 36.6673 35.3567 36.6673C35.0094 36.6673 34.6764 36.8052 34.4308 37.0508C34.1853 37.2963 34.0473 37.6294 34.0473 37.9767C34.0473 38.3239 34.1853 38.657 34.4308 38.9025L47.0564 51.5277C46.9638 51.7777 46.7971 51.9934 46.5785 52.146C46.3599 52.2985 46.0999 52.3807 45.8333 52.3814H3.92857C3.66199 52.3807 3.402 52.2986 3.1834 52.146C2.96481 51.9934 2.79806 51.7777 2.70548 51.5277L15.3302 38.9025C15.4518 38.7809 15.5482 38.6366 15.6141 38.4777C15.6799 38.3189 15.7137 38.1486 15.7137 37.9767C15.7137 37.8047 15.6799 37.6344 15.6141 37.4756C15.5482 37.3167 15.4518 37.1724 15.3302 37.0508C15.2086 36.9292 15.0643 36.8327 14.9054 36.7669C14.7466 36.7011 14.5763 36.6673 14.4043 36.6673C14.2324 36.6673 14.0621 36.7011 13.9033 36.7669C13.7444 36.8327 13.6 36.9292 13.4785 37.0508L2.61905 47.9106V20.2686L22.0526 40.4222C22.4189 40.8026 22.8581 41.1052 23.3441 41.3119C23.83 41.5186 24.3527 41.6252 24.8807 41.6252C25.4088 41.6252 25.9315 41.5186 26.4174 41.3119C26.9034 41.1052 27.3426 40.8026 27.7089 40.4222L35.4266 32.4189C35.5466 32.2952 35.641 32.1491 35.7045 31.9889C35.7679 31.8287 35.7991 31.6576 35.7962 31.4853C35.7934 31.313 35.7566 31.143 35.6879 30.985C35.6192 30.8269 35.52 30.684 35.3959 30.5644C35.2719 30.4448 35.1255 30.3509 34.9651 30.288C34.8047 30.2251 34.6334 30.1945 34.4611 30.1979C34.2889 30.2013 34.119 30.2387 33.9612 30.3079C33.8034 30.3771 33.6608 30.4768 33.5416 30.6012L25.8234 38.6046C25.5725 38.8528 25.2337 38.9921 24.8807 38.9921C24.5277 38.9921 24.189 38.8528 23.938 38.6046L2.70143 16.5815C2.79207 16.3284 2.95852 16.1094 3.1781 15.9543C3.39769 15.7992 3.65974 15.7156 3.92857 15.7148H22.2619C22.6092 15.7148 22.9423 15.5768 23.1879 15.3312C23.4335 15.0856 23.5714 14.7525 23.5714 14.4052C23.5714 14.0579 23.4335 13.7248 23.1879 13.4793C22.9423 13.2337 22.6092 13.0957 22.2619 13.0957H3.92857C2.89502 13.0972 1.90368 13.5058 1.1692 14.233C0.434728 14.9602 0.0162422 15.9474 0.00436508 16.9809C0.00405079 16.9902 0.00174602 16.999 0.0015976 17.0083L0 17.0243V51.072C0.00121085 52.1135 0.415557 53.1122 1.15204 53.8487C1.88853 54.5851 2.88706 54.9993 3.92857 55.0005H45.8333C46.8749 54.9993 47.8735 54.5851 48.61 53.8486C49.3465 53.1121 49.7608 52.1135 49.7619 51.0719V30.9925C49.7619 30.8206 49.7281 30.6503 49.6623 30.4914C49.5965 30.3325 49.5 30.1881 49.3784 30.0665C49.2568 29.9449 49.1124 29.8484 48.9535 29.7826C48.7947 29.7168 48.6244 29.683 48.4524 29.683Z" fill="#060E28"/>
<path d="M40.2688 11.5928C39.2218 11.5928 38.1387 12.612 38.1387 14.3175C38.1387 16.0521 39.195 17.2171 40.1814 17.2171C41.2593 17.2171 42.1359 15.9054 42.1362 14.2932V14.2916C42.136 12.7025 41.368 11.5928 40.2688 11.5928Z" fill="#1263FF"/>
<path d="M40.5962 0C37.7472 0 34.9622 0.844825 32.5933 2.42764C30.2245 4.01046 28.3782 6.26017 27.2879 8.8923C26.1976 11.5244 25.9124 14.4207 26.4682 17.215C27.024 20.0092 28.3959 22.5759 30.4105 24.5905C32.425 26.605 34.9917 27.9769 37.7859 28.5327C40.5802 29.0886 43.4765 28.8033 46.1086 27.713C48.7408 26.6228 50.9905 24.7765 52.5733 22.4076C54.1561 20.0388 55.0009 17.2538 55.0009 14.4048C54.9966 10.5857 53.4776 6.92431 50.7771 4.22382C48.0766 1.52334 44.4152 0.00431631 40.5962 0ZM49.3131 17.358C49.0068 18.1973 48.4524 18.9235 47.7237 19.4402C46.9949 19.957 46.1261 20.2398 45.2328 20.2512C44.741 20.2462 44.2579 20.1206 43.826 19.8854C43.394 19.6503 43.0263 19.3127 42.7552 18.9024C42.0317 19.5028 41.1219 19.8329 40.1818 19.836C37.6113 19.836 35.52 17.3602 35.52 14.3174C35.52 11.3207 37.6062 8.97358 40.2692 8.97358C42.869 8.97358 44.7558 11.2102 44.7558 14.2922L44.7555 14.2979L44.7558 14.3003L44.74 16.9168C44.7383 17.3356 45.0369 17.6321 45.2328 17.6321C45.6009 17.6172 45.9557 17.4904 46.2498 17.2686C46.5439 17.0468 46.7634 16.7405 46.8789 16.3907C47.4608 15.1326 47.5941 13.7129 47.2567 12.3685C46.7236 10.6423 45.5357 9.19354 43.9475 8.33252C42.3592 7.4715 40.497 7.26668 38.7596 7.76193C37.0222 8.25718 35.5478 9.41313 34.6523 10.9822C33.7567 12.5512 33.5113 14.4085 33.9684 16.1563C34.353 17.5995 35.192 18.8805 36.3613 19.8096C37.5305 20.7388 38.9679 21.2669 40.4606 21.3156C40.8051 21.3243 41.1322 21.4686 41.3711 21.7169C41.6099 21.9653 41.7413 22.2978 41.7366 22.6423C41.732 22.9869 41.5917 23.3157 41.3462 23.5576C41.1007 23.7994 40.7698 23.9347 40.4252 23.9342L40.3882 23.9337C38.1383 23.8708 35.9832 23.0136 34.3048 21.514C32.6264 20.0144 31.533 17.9691 31.2181 15.7404C30.9033 13.5118 31.3874 11.2436 32.5848 9.33776C33.7821 7.43188 35.6153 6.01129 37.7597 5.32761C38.9637 4.94389 40.232 4.80348 41.4908 4.91454C42.7496 5.0256 43.9737 5.38593 45.0919 5.97455C46.2101 6.56317 47.2001 7.36831 48.0042 8.34313C48.8083 9.31796 49.4104 10.443 49.7757 11.6527L49.7818 11.6797L49.7872 11.6941C50.2789 13.5809 50.1117 15.5791 49.3131 17.358Z" fill="#1263FF"/>
</svg>
