<svg width="22" height="21" viewBox="0 0 22 21" fill="none" xmlns="http://www.w3.org/2000/svg">
<path d="M9.66806 1.67734C10.0872 0.387502 11.9119 0.387503 12.331 1.67734L13.8284 6.28585C14.0158 6.86268 14.5534 7.25323 15.1599 7.25323H20.0056C21.3618 7.25323 21.9257 8.98869 20.8285 9.78585L16.9082 12.6341C16.4176 12.9906 16.2122 13.6225 16.3997 14.1993L17.8971 18.8078C18.3161 20.0977 16.8399 21.1702 15.7427 20.3731L11.8224 17.5249C11.3318 17.1684 10.6673 17.1684 10.1766 17.5249L6.2564 20.3731C5.1592 21.1702 3.68293 20.0977 4.10202 18.8078L5.59942 14.1993C5.78685 13.6225 5.58152 12.9906 5.09084 12.6341L1.1706 9.78585C0.0734054 8.98869 0.637291 7.25323 1.9935 7.25323H6.83918C7.4457 7.25323 7.98324 6.86268 8.17066 6.28585L9.66806 1.67734Z" fill="#1263FF"/>
</svg>
