<svg width="386" height="200" viewBox="0 0 386 200" fill="none" xmlns="http://www.w3.org/2000/svg">
<path d="M105.711 6.6401C106.596 6.6401 108.455 6.81717 111.288 7.17132L111.023 14.6082C110.491 26.2948 110.049 40.2833 109.695 56.5737C109.34 72.687 109.163 87.3838 109.163 100.664V100.93C111.642 100.93 113.502 101.018 114.741 101.195L121.912 101.461L121.647 106.773L123.506 107.039L127.224 106.773L125.631 149.801C122.444 150.863 119.522 151.394 116.866 151.394L111.819 151.129C110.403 151.129 108.367 151.394 105.711 151.926H106.507C108.278 151.926 109.163 152.722 109.163 154.316C107.57 178.398 106.33 192.652 105.445 197.078C104.382 198.495 102.169 199.292 98.8048 199.469C95.4405 199.823 89.4201 200 80.7437 200H63.745C63.0368 199.292 62.6826 197.521 62.6826 194.688H58.4329C57.5476 193.803 57.1049 190.615 57.1049 185.126C57.1049 178.398 57.7247 167.419 58.9642 152.191L59.2298 148.473H40.3718C30.2789 148.473 22.5764 148.384 17.2643 148.207C11.9522 147.853 9.03055 147.233 8.49934 146.348C8.49934 145.994 8.4108 145.551 8.23373 145.02C8.05666 144.489 7.79106 143.692 7.43692 142.629C4.60381 142.275 2.65604 139.796 1.59363 135.193C0.531209 130.589 0 121.824 0 108.898C0 105.356 0.354139 102.523 1.06242 100.398C1.94776 98.2736 3.62993 94.9978 6.1089 90.5711C6.81718 88.9774 7.87959 87.0297 9.29615 84.7278C21.5139 61.0004 38.3356 33.4661 59.761 2.12484L67.9947 1.85922C78.6189 1.50509 87.6494 1.32802 95.0863 1.32802H99.6016C102.258 1.32802 104.382 1.50509 105.976 1.85922L105.711 6.6401ZM101.461 103.851C101.284 103.143 101.195 100.221 101.195 95.0863C101.195 77.2023 101.815 48.7826 103.054 9.82736L103.32 4.24966H102.789C101.904 4.07259 99.4245 3.98406 95.3519 3.98406C86.8526 3.98406 77.645 4.16113 67.7291 4.51528L61.089 4.78088L60.8234 5.04648C43.6476 30.8986 27.7114 57.1935 13.0146 83.9309C8.05666 93.4927 4.69234 99.2475 2.92165 101.195C2.74458 103.143 2.65604 105.799 2.65604 109.163C2.65604 116.6 3.01018 123.152 3.71846 128.818C4.42674 134.484 5.04648 138.114 5.57769 139.708C5.75476 139.885 9.47322 140.062 16.7331 140.239C23.9929 140.416 29.3935 140.505 32.9349 140.505C51.1731 140.505 61.0005 140.682 62.417 141.036L61.6202 152.988C60.0266 172.112 59.2298 184.683 59.2298 190.704V191.766C59.2298 191.943 59.3183 192.032 59.4954 192.032H75.4316C83.5768 192.032 89.1545 191.943 92.1647 191.766C95.1749 191.589 97.0341 191.058 97.7424 190.173C98.2736 187.694 99.4245 173.971 101.195 149.004C101.195 147.41 101.195 146.171 101.195 145.286C101.372 144.223 101.461 143.603 101.461 143.426C101.992 143.249 103.143 143.161 104.914 143.161L112.085 143.426C114.033 143.426 115.892 143.161 117.663 142.629L119.256 104.117L113.679 103.851C110.491 103.497 108.101 103.32 106.507 103.32C104.737 103.32 103.586 103.409 103.054 103.586L101.461 103.851ZM69.5883 104.382C68.703 104.56 66.1355 104.648 61.8858 104.648C59.5839 104.471 55.6884 104.382 50.1992 104.382H39.3094L34.5286 104.117C36.2993 100.753 39.7521 94.6437 44.8871 85.7902C50.1992 76.7596 55.4228 68.0832 60.5578 59.761C65.8699 51.4387 69.0571 47.2775 70.1195 47.2775C70.2966 47.2775 70.3851 47.3661 70.3851 47.5432L69.5883 104.382ZM67.4635 62.6826C58.2559 78.6189 51.2616 91.722 46.4808 101.992H61.089C62.6826 101.992 63.745 102.081 64.2762 102.258C64.8074 102.258 65.2501 102.258 65.6043 102.258C65.9584 102.258 66.1355 102.258 66.1355 102.258C66.3125 102.081 66.5781 101.992 66.9323 101.992L67.4635 62.6826Z" fill="#060E28"/>
<path d="M142.032 25.7636C146.99 18.1496 153.718 11.9522 162.218 7.17132C170.717 2.39044 179.925 0 189.841 0C205.777 0 218.969 4.78088 229.416 14.3426C240.04 23.7273 247.742 35.4139 252.523 49.4024C257.481 63.3909 259.96 77.2908 259.96 91.1023V100.664C259.96 115.538 257.57 130.589 252.789 145.817C248.008 160.868 240.66 173.44 230.744 183.533C221.005 193.626 208.876 198.672 194.356 198.672C184.44 198.672 175.587 196.813 167.796 193.094C160.182 189.376 154.073 184.684 149.469 179.017C143.271 173.528 138.668 167.065 135.657 159.628C132.647 152.014 130.699 144.489 129.814 137.052C129.106 129.438 128.575 119.61 128.22 107.57L127.955 100.664C127.601 93.9354 127.424 88.8889 127.424 85.5246C127.424 74.1921 128.486 63.6565 130.611 53.9177C132.736 44.1788 136.454 34.8827 141.766 26.0292L142.032 25.7636ZM130.08 85.5246C130.08 88.8889 130.257 93.9354 130.611 100.664L130.877 107.57C131.231 121.735 132.116 133.51 133.533 142.895C134.949 152.28 138.313 161.045 143.626 169.19C149.115 177.335 157.437 183.355 168.592 187.251C175.144 189.73 182.581 190.969 190.903 190.969C204.715 190.969 216.224 186.277 225.432 176.892C234.639 167.508 241.368 155.821 245.618 141.833C250.044 127.667 252.258 113.413 252.258 99.0704L251.992 92.1647C252.169 90.571 252.258 88.1806 252.258 84.9934C252.258 72.0673 250.133 59.3183 245.883 46.7463C241.811 34.1744 235.082 23.7273 225.697 15.405C216.49 6.90571 204.715 2.65604 190.372 2.65604C180.81 2.65604 171.78 4.95795 163.28 9.56176C154.958 13.9885 148.583 19.8318 144.157 27.0916C138.845 35.4139 135.126 44.4444 133.001 54.1833C131.054 63.745 130.08 74.1921 130.08 85.5246ZM147.078 31.3413V31.0757H147.344L147.078 31.3413ZM169.389 99.0704C169.389 80.4781 170.717 66.7552 173.373 57.9017C176.029 49.0483 181.518 44.6215 189.841 44.6215C196.923 44.6215 201.704 49.1368 204.183 58.1673C206.662 67.1979 207.902 78.7074 207.902 92.6959V103.32C207.902 116.6 206.751 127.313 204.449 135.458C202.147 143.426 197.278 147.41 189.841 147.41C187.185 147.41 185.148 147.056 183.732 146.348C178.42 145.463 174.701 140.062 172.576 130.146C170.452 120.23 169.389 109.872 169.389 99.0704ZM184.529 143.958C186.122 144.666 187.981 145.02 190.106 145.02C195.95 145.02 199.757 141.833 201.527 135.458C203.475 128.907 204.449 122.975 204.449 117.663C204.626 112.351 204.803 109.163 204.98 108.101C205.157 105.268 205.246 100.133 205.246 92.6959C205.246 74.9889 203.209 61.9743 199.137 53.6521C197.189 53.1208 195.33 52.8552 193.559 52.8552C190.372 52.8552 187.627 53.8291 185.325 55.7769C183.201 57.5476 181.341 62.1514 179.748 69.5883C178.331 77.0252 177.623 88.6233 177.623 104.382C177.623 115.538 178.862 125.631 181.341 134.661L181.076 134.396C181.607 135.635 182.05 137.229 182.404 139.177C182.935 140.947 183.378 142.452 183.732 143.692H184.263L184.529 143.958Z" fill="#060E28"/>
<path d="M363.731 6.6401C364.616 6.6401 366.475 6.81717 369.308 7.17132L369.043 14.6082C368.511 26.2948 368.069 40.2833 367.715 56.5737C367.36 72.687 367.183 87.3838 367.183 100.664V100.93C369.662 100.93 371.522 101.018 372.761 101.195L379.932 101.461L379.667 106.773L381.526 107.039L385.245 106.773L383.651 149.801C380.464 150.863 377.542 151.394 374.886 151.394L369.839 151.129C368.423 151.129 366.387 151.394 363.731 151.926H364.527C366.298 151.926 367.183 152.722 367.183 154.316C365.59 178.398 364.35 192.652 363.465 197.078C362.403 198.495 360.189 199.292 356.825 199.469C353.461 199.823 347.44 200 338.764 200H321.765C321.057 199.292 320.703 197.521 320.703 194.688H316.453C315.568 193.803 315.125 190.615 315.125 185.126C315.125 178.398 315.745 167.419 316.984 152.191L317.25 148.473H298.392C288.299 148.473 280.596 148.384 275.284 148.207C269.972 147.853 267.051 147.233 266.519 146.348C266.519 145.994 266.431 145.551 266.254 145.02C266.077 144.489 265.811 143.692 265.457 142.629C262.624 142.275 260.676 139.796 259.614 135.193C258.551 130.589 258.02 121.824 258.02 108.898C258.02 105.356 258.374 102.523 259.082 100.398C259.968 98.2736 261.65 94.9978 264.129 90.5711C264.837 88.9774 265.9 87.0297 267.316 84.7278C279.534 61.0004 296.356 33.4661 317.781 2.12484L326.015 1.85922C336.639 1.50509 345.669 1.32802 353.106 1.32802H357.622C360.278 1.32802 362.403 1.50509 363.996 1.85922L363.731 6.6401ZM359.481 103.851C359.304 103.143 359.215 100.221 359.215 95.0863C359.215 77.2023 359.835 48.7826 361.075 9.82736L361.34 4.24966H360.809C359.924 4.07259 357.445 3.98406 353.372 3.98406C344.873 3.98406 335.665 4.16113 325.749 4.51528L319.109 4.78088L318.843 5.04648C301.668 30.8986 285.731 57.1935 271.035 83.9309C266.077 93.4927 262.712 99.2475 260.942 101.195C260.765 103.143 260.676 105.799 260.676 109.163C260.676 116.6 261.03 123.152 261.738 128.818C262.447 134.484 263.066 138.114 263.598 139.708C263.775 139.885 267.493 140.062 274.753 140.239C282.013 140.416 287.414 140.505 290.955 140.505C309.193 140.505 319.02 140.682 320.437 141.036L319.64 152.988C318.047 172.112 317.25 184.683 317.25 190.704V191.766C317.25 191.943 317.338 192.032 317.515 192.032H333.452C341.597 192.032 347.175 191.943 350.185 191.766C353.195 191.589 355.054 191.058 355.762 190.173C356.294 187.694 357.445 173.971 359.215 149.004C359.215 147.41 359.215 146.171 359.215 145.286C359.392 144.223 359.481 143.603 359.481 143.426C360.012 143.249 361.163 143.161 362.934 143.161L370.105 143.426C372.053 143.426 373.912 143.161 375.683 142.629L377.276 104.117L371.699 103.851C368.511 103.497 366.121 103.32 364.527 103.32C362.757 103.32 361.606 103.409 361.075 103.586L359.481 103.851ZM327.608 104.382C326.723 104.56 324.155 104.648 319.906 104.648C317.604 104.471 313.708 104.382 308.219 104.382H297.329L292.549 104.117C294.319 100.753 297.772 94.6437 302.907 85.7902C308.219 76.7596 313.443 68.0832 318.578 59.761C323.89 51.4387 327.077 47.2775 328.14 47.2775C328.317 47.2775 328.405 47.3661 328.405 47.5432L327.608 104.382ZM325.484 62.6826C316.276 78.6189 309.282 91.722 304.501 101.992H319.109C320.703 101.992 321.765 102.081 322.296 102.258C322.827 102.258 323.27 102.258 323.624 102.258C323.978 102.258 324.156 102.258 324.156 102.258C324.333 102.081 324.598 101.992 324.952 101.992L325.484 62.6826Z" fill="#060E28"/>
</svg>
