<svg width="35" height="35" viewBox="0 0 35 35" fill="none" xmlns="http://www.w3.org/2000/svg">
<g clip-path="url(#clip0_8105_2798)">
<path d="M33.3923 1.53428C32.617 2.1679 31.6359 2.49444 30.6355 2.45179C30.0045 2.38088 29.3953 2.17894 28.8469 1.85889C28.2985 1.53885 27.8231 1.10777 27.4509 0.593272C27.3713 0.495754 27.2709 0.417171 27.1571 0.363208C27.0433 0.309244 26.9189 0.28125 26.793 0.28125C26.667 0.28125 26.5427 0.309244 26.4289 0.363208C26.3151 0.417171 26.2147 0.495754 26.135 0.593272C25.7629 1.10777 25.2874 1.53886 24.739 1.85891C24.1906 2.17896 23.5814 2.38091 22.9504 2.45182C21.9502 2.49344 20.9694 2.16701 20.1936 1.53431C20.0727 1.43864 19.9274 1.37894 19.7741 1.36205C19.6209 1.34515 19.466 1.37175 19.3272 1.43878C19.1884 1.50582 19.0713 1.61059 18.9892 1.7411C18.9072 1.87161 18.8635 2.02258 18.8633 2.17674V7.54349C18.8633 11.911 21.1555 15.7907 24.7027 17.4278L26.449 18.2343C26.5569 18.2839 26.6742 18.3096 26.793 18.3096C26.9117 18.3096 27.029 18.2839 27.1369 18.2343L28.8833 17.4278C32.4305 15.7907 34.7227 11.911 34.7227 7.54349V2.17674C34.7224 2.02259 34.6788 1.87162 34.5967 1.74113C34.5147 1.61063 34.3975 1.50586 34.2587 1.43883C34.1199 1.37179 33.965 1.3452 33.8118 1.36208C33.6586 1.37896 33.5132 1.43864 33.3923 1.53428ZM31.2011 7.40518L26.5526 12.0536C26.4765 12.1298 26.3861 12.1902 26.2866 12.2315C26.187 12.2727 26.0804 12.2939 25.9727 12.2939C25.8649 12.2939 25.7583 12.2727 25.6588 12.2315C25.5592 12.1902 25.4688 12.1298 25.3927 12.0536L22.9317 9.59268C22.7779 9.43886 22.6915 9.23023 22.6915 9.01269C22.6915 8.79516 22.7779 8.58653 22.9317 8.43271C23.0856 8.27888 23.2942 8.19247 23.5117 8.19247C23.7293 8.19247 23.9379 8.27889 24.0917 8.43271L25.9727 10.3137L30.0411 6.24521C30.1173 6.16904 30.2077 6.10863 30.3072 6.06741C30.4067 6.02619 30.5134 6.00497 30.6211 6.00497C30.7288 6.00497 30.8355 6.02618 30.935 6.0674C31.0345 6.10862 31.1249 6.16904 31.2011 6.24521C31.2772 6.32137 31.3377 6.41179 31.3789 6.51131C31.4201 6.61082 31.4413 6.71748 31.4413 6.82519C31.4413 6.93291 31.4201 7.03957 31.3789 7.13908C31.3377 7.23859 31.2772 7.32902 31.2011 7.40518Z" fill="#1263FF"/>
<path d="M34.6992 16.621C34.6926 16.5135 34.665 16.4083 34.6178 16.3115C34.5707 16.2147 34.5049 16.1281 34.4242 16.0566C34.3436 15.9852 34.2497 15.9304 34.1479 15.8953C34.046 15.8602 33.9383 15.8455 33.8308 15.852C33.7233 15.8585 33.6181 15.8861 33.5213 15.9333C33.4244 15.9805 33.3378 16.0463 33.2664 16.1269C33.195 16.2075 33.1402 16.3014 33.105 16.4033C33.0699 16.5051 33.0552 16.6128 33.0617 16.7204C33.2083 19.6257 32.528 22.5131 31.0997 25.0474C29.1537 25.8064 27.1475 26.4009 25.1022 26.8248C25.7594 24.8091 26.186 22.7254 26.3737 20.6136C26.3838 20.5064 26.3726 20.3982 26.3408 20.2953C26.309 20.1924 26.2573 20.0968 26.1886 20.0139C26.0497 19.8464 25.8501 19.7409 25.6335 19.7207C25.417 19.7004 25.2012 19.767 25.0338 19.9059C24.8663 20.0447 24.7608 20.2443 24.7406 20.4609C24.5441 22.7526 24.039 25.0073 23.2389 27.1638C19.4332 27.7576 15.5582 27.7537 11.7537 27.1523C10.7144 24.2809 10.1651 21.2553 10.1287 18.2018H20.3779C20.5954 18.2018 20.8041 18.1154 20.9579 17.9616C21.1118 17.8077 21.1982 17.5991 21.1982 17.3815C21.1982 17.164 21.1118 16.9553 20.9579 16.8015C20.8041 16.6476 20.5954 16.5612 20.3779 16.5612H10.1333C10.1893 13.5793 10.7375 10.6271 11.7556 7.82387C13.302 7.58264 14.862 7.43769 16.4264 7.38985C16.6438 7.38347 16.8498 7.29098 16.999 7.13274C17.1482 6.97449 17.2285 6.76344 17.2221 6.54602C17.2214 6.43761 17.1986 6.33048 17.1554 6.23108C17.1121 6.13169 17.0491 6.04209 16.9703 5.96768C16.8914 5.89328 16.7983 5.83561 16.6966 5.79816C16.5948 5.76071 16.4866 5.74425 16.3783 5.74977C15.104 5.78685 13.8182 5.89062 12.5394 6.05401C13.6784 3.86375 15.1208 2.42222 16.6106 2.03112C16.8135 1.97485 16.9882 1.84528 17.101 1.66754C17.2137 1.48979 17.2565 1.27651 17.221 1.06902C17.2066 0.851966 17.1065 0.64953 16.9429 0.506179C16.7793 0.362828 16.5655 0.290286 16.3484 0.304487C11.9916 0.604635 7.91047 2.54462 4.92694 5.73367C1.94341 8.92272 0.279206 13.1239 0.269531 17.491C0.270452 20.432 1.03218 23.3228 2.48069 25.8824C2.51689 26.035 2.59604 26.174 2.70877 26.2831C4.23375 28.8477 6.39782 30.973 8.98962 32.4513C11.5814 33.9296 14.5123 34.7104 17.4961 34.7175C27.4278 34.7175 35.2797 26.173 34.6992 16.621ZM22.4578 28.9249C21.4307 30.916 19.7467 33.0769 17.4961 33.0769C15.2547 33.059 13.5682 30.9261 12.5358 28.9266C15.8292 29.3566 19.1646 29.3561 22.4578 28.9249ZM9.88928 26.8159C7.84366 26.3953 5.83706 25.8034 3.89071 25.0463C2.71148 22.9492 2.03939 20.6052 1.92818 18.2018H8.48821C8.53014 21.1264 9.00222 24.0288 9.88928 26.8159ZM1.94093 16.5612C2.07908 14.239 2.73889 11.9778 3.87128 9.94575C5.82297 9.18546 7.83512 8.59059 9.88648 8.16742C9.01293 10.8819 8.54315 13.7101 8.49218 16.5612H1.94093ZM12.9072 2.59823C11.9352 3.72103 11.1483 4.99153 10.5761 6.36197C8.83309 6.67453 7.11333 7.10537 5.42879 7.6515C7.36978 5.2676 9.97129 3.50972 12.9072 2.59823ZM5.45509 27.3413C7.13247 27.8863 8.84504 28.3163 10.5809 28.6285C11.1519 29.9924 11.9364 31.2567 12.9049 32.374C9.98427 31.4582 7.3949 29.7089 5.45509 27.3413ZM22.095 32.367C23.0601 31.2503 23.8423 29.9878 24.4123 28.6264C26.1465 28.3151 27.8574 27.8861 29.5333 27.3425C27.5947 29.7044 25.0099 31.4504 22.095 32.367Z" fill="#060E28"/>
</g>
<defs>
<clipPath id="clip0_8105_2798">
<rect width="35" height="35" fill="white"/>
</clipPath>
</defs>
</svg>
