<svg width="70" height="70" viewBox="0 0 70 70" fill="none" xmlns="http://www.w3.org/2000/svg">
<path d="M32.642 15.1895L27.6427 10.675L22.1078 5.67579C21.9282 5.51808 21.6332 5.38802 17.806 3.15431C17.4135 2.92774 16.9066 2.95802 16.4213 3.23927C15.9447 3.50977 15.5062 4.00294 15.2182 4.59376L4.77186 26.2178C4.25233 27.2705 4.37928 28.3242 5.06971 28.7207C6.75341 29.6934 9.00786 31.0172 9.22206 31.1182C9.66942 31.3597 10.1325 31.2764 10.5765 31.0244L11.5277 30.476L11.5961 63.2305C11.5961 63.7813 11.8207 64.2295 12.2152 64.4629C13.3569 65.1271 15.7108 66.4885 16.3002 66.8399C16.7228 67.0917 17.2775 67.0273 17.7162 66.7627L24.5941 62.794C25.4428 62.3096 26.1068 61.166 26.1068 60.1895L26.0267 22.8008C26.0198 22.4354 26.3316 21.9239 26.6469 21.7432L31.5746 18.8945C32.8066 18.1899 33.6352 16.0752 32.642 15.1895ZM26.1488 20.877C25.4718 21.2629 25.0143 22.1412 25.0258 22.8115L25.1058 60.1904C25.1058 60.8169 24.6461 61.6128 24.0961 61.9277L17.2094 65.9014C16.8074 66.142 16.782 66.0152 16.7064 65.6094L16.6264 28.2305C16.6264 27.3449 15.8685 26.8245 15.0053 27.3076L10.0785 30.1563C9.43845 30.5265 9.46225 29.6926 9.7826 29.043L20.2289 7.417C20.4267 7.01125 20.843 6.50813 21.2391 6.4112C21.5076 6.3339 21.07 6.15477 26.7074 11.1777L31.973 15.9336C32.2953 16.2192 31.8831 17.566 31.0785 18.0254C31.0775 18.0264 31.0765 18.0264 31.0765 18.0274L26.1488 20.877Z" fill="#060E28"/>
<path d="M65.457 18.0601V18.0581C65.457 18.0516 65.4536 18.0462 65.4534 18.0398C65.4541 17.6217 65.2107 17.2424 64.7773 16.9976L59.2598 13.7983C58.5264 13.3696 57.3789 13.3696 56.6475 13.7964L51.0937 16.9995C50.6572 17.2554 50.4072 17.6382 50.4072 18.0503V18.0522V18.0552L50.4436 26.583L47.5293 24.8882C46.7978 24.4585 45.6484 24.4604 44.917 24.8862L39.3643 28.0884C38.9277 28.3442 38.6768 28.728 38.6768 29.1401V29.1489L38.7332 40.7586L35.7998 39.0581C35.0654 38.6284 33.917 38.6304 33.1865 39.0562L27.6338 42.2583C27.1914 42.5181 26.9473 42.8911 26.9473 43.3101V43.3218L27.0264 53.02C27.0264 53.4253 27.2773 53.8052 27.7158 54.062L33.2383 57.2632C33.9489 57.6707 35.1156 57.7022 35.8467 57.2632L41.4004 54.0601C41.8428 53.8003 42.0869 53.4272 42.0869 53.0103V53.0054L42.0478 48.7952L44.9687 50.4946C45.723 50.9238 46.8839 50.9068 47.5771 50.4937L53.1299 47.2915C53.5664 47.0356 53.8174 46.6519 53.8174 46.2397V46.2368L53.7954 42.0345L56.6992 43.7241C57.0391 43.9175 57.4687 44.0269 57.9434 44.0396H57.957C58.4658 44.0396 58.9443 43.9282 59.3076 43.7231L64.8594 40.522C65.2959 40.2651 65.5469 39.8823 65.5469 39.4702V39.4683L65.457 18.0601ZM51.5967 17.8638L57.1504 14.6616C57.5763 14.4115 58.3273 14.4113 58.7559 14.6626L64.2803 17.8657C64.4922 17.9851 64.5555 18.0478 64.2656 18.2173L58.7305 21.4194C58.1885 21.7079 57.454 21.6345 57.1074 21.4272L51.5107 18.1665C51.411 18.0663 51.3107 18.0301 51.5967 17.8638ZM39.8672 28.9536L45.4199 25.7515C45.8517 25.4991 46.5965 25.501 47.0254 25.7524L52.5508 28.9644C52.7967 29.1046 52.7579 29.1816 52.5361 29.3071L46.9844 32.5181C46.6394 32.721 45.8778 32.8091 45.3779 32.5171C45.2768 32.4582 39.5031 29.0948 39.8643 29.3052C39.63 29.1661 39.6018 29.108 39.8672 28.9536ZM28.1367 43.1235L33.6895 39.9214C34.1146 39.6718 34.8666 39.6706 35.2959 39.9224C35.555 40.0725 41.1642 43.3232 40.8213 43.1245C41.0448 43.2516 41.0237 43.3608 40.8066 43.4771L35.293 46.6724C34.7367 46.9505 34.0809 46.9169 33.6494 46.688L28.1367 43.4771C27.9325 43.3545 27.8547 43.2876 28.1367 43.1235ZM40.8975 53.1958L35.3389 56.4009C35.2432 56.4585 35.126 56.5034 34.9951 56.5337L34.959 47.8345C35.2825 47.7776 35.4838 47.6964 35.7676 47.5522L41.0073 44.5163L41.0371 47.9233C41.0371 47.9266 41.0395 47.9292 41.0395 47.9325L41.0869 53.0112C41.0859 53.0356 41.0381 53.1138 40.8975 53.1958ZM52.627 46.4263L47.0703 49.6304C46.9785 49.686 46.8613 49.73 46.7266 49.7603C46.7176 46.0464 46.6968 37.4853 46.6875 33.6596C46.8263 33.6368 47.2521 33.5208 47.4863 33.3833L52.7334 30.3572C52.7487 33.2573 52.7933 41.6792 52.8174 46.2388C52.8154 46.2573 52.7764 46.3394 52.627 46.4263ZM64.3564 39.6567L58.8115 42.854C58.7129 42.9097 58.5918 42.9546 58.4561 42.9858L58.418 22.571C58.6649 22.525 58.8585 22.4849 59.2158 22.2935L64.4619 19.2682L64.5469 39.4702C64.5449 39.4878 64.5068 39.5688 64.3564 39.6567Z" fill="#060E28"/>
</svg>
