<svg width="70" height="70" viewBox="0 0 70 70" fill="none" xmlns="http://www.w3.org/2000/svg">
<path d="M66.4 60.9C65.8 60 63.3 56.5 60.9 53.6C61.7 52.8 61.7 51.7 61.2 50.9L60.2 49.2C63.6 45 64.2 38.9 61.3 33.9C59.4 30.8 56.5 28.7 53.2 27.8V6.7C53.2 4.6 51.5 3 49.5 3H6.7C4.7 3 3 4.7 3 6.7V49.2C3 51.2 4.7 52.9 6.7 52.9H43.9C46.5 54.2 49.3 54.6 52.2 54.1L53.2 55.8C53.7 56.7 54.8 57.1 55.8 56.8C57.2 60.5 59 64.3 59.5 65.1C60.7 67.1 63.2 67.6 65 66.5C67 65.3 67.6 62.8 66.4 60.9ZM24.9 12.1H30.9L28 15C27.3 15.7 26.4 16 25.4 16H20.9L24.9 12.1ZM9.3 10.6H16.4C16.8 10.6 17.2 10.9 17.2 11.4C17.2 11.8 16.9 12.2 16.4 12.2H9.3C8.9 12.2 8.5 11.9 8.5 11.4C8.6 11 8.9 10.6 9.3 10.6ZM6.7 51.4C5.5 51.4 4.5 50.4 4.5 49.2V17.5H25.4C26.8 17.5 28.1 17 29 16L32.9 12.1H51.6V27.5C48.7 27.1 45.6 27.6 42.8 29.2C36.4 33 34.4 41.2 38.1 47.6C39 49.1 40.1 50.3 41.4 51.3H6.7V51.4ZM39.5 46.9C36.1 41.2 38 33.9 43.6 30.6C49.2 27.3 56.5 29.1 59.9 34.7C63.3 40.4 61.3 47.7 55.7 51C50.2 54.4 42.9 52.6 39.5 46.9ZM64.3 65.1C63.1 65.8 61.5 65.4 60.8 64.2C60.4 63.4 58.5 59.5 57.1 55.9L59.6 54.4C62.1 57.3 64.6 60.8 65.1 61.6C65.9 62.9 65.5 64.4 64.3 65.1Z" fill="#060E28"/>
<path d="M23.5992 25.6004H22.3992V22.2004C22.3992 21.8004 22.0992 21.4004 21.5992 21.4004C21.1992 21.4004 20.7992 21.7004 20.7992 22.2004V25.6004H19.5992C18.5992 25.6004 17.6992 26.4004 17.6992 27.5004V33.3004C17.6992 34.3004 18.4992 35.2004 19.5992 35.2004H20.7992V38.6004C20.7992 39.0004 21.0992 39.4004 21.5992 39.4004C21.9992 39.4004 22.3992 39.1004 22.3992 38.6004V35.2004H23.5992C24.5992 35.2004 25.4992 34.4004 25.4992 33.3004V27.5004C25.4992 26.4004 24.5992 25.6004 23.5992 25.6004Z" fill="#060E28"/>
<path d="M14.2008 34.9996H13.0008V31.3996C13.0008 30.9996 12.7008 30.5996 12.2008 30.5996C11.8008 30.5996 11.4008 30.8996 11.4008 31.3996V34.9996H10.2008C9.20078 34.9996 8.30078 35.7996 8.30078 36.8996V40.9996C8.30078 41.9996 9.10078 42.8996 10.2008 42.8996H11.4008V44.1996C11.4008 44.5996 11.7008 44.9996 12.2008 44.9996C12.6008 44.9996 13.0008 44.6996 13.0008 44.1996V42.8996H14.2008C15.2008 42.8996 16.1008 42.0996 16.1008 40.9996V36.7996C16.0008 35.7996 15.2008 34.9996 14.2008 34.9996Z" fill="#060E28"/>
<path d="M32.9996 30.4992H31.7996V27.9992C31.7996 27.5992 31.4996 27.1992 30.9996 27.1992C30.5996 27.1992 30.1996 27.4992 30.1996 27.9992V30.4992H28.9996C27.9996 30.4992 27.0996 31.2992 27.0996 32.3992V38.6992C27.0996 39.6992 27.8996 40.5992 28.9996 40.5992H30.1996V43.0992C30.1996 43.4992 30.4996 43.8992 30.9996 43.8992C31.3996 43.8992 31.7996 43.5992 31.7996 43.0992V40.5992H32.9996C33.9996 40.5992 34.8996 39.7992 34.8996 38.6992V32.3992C34.8996 31.2992 33.9996 30.4992 32.9996 30.4992Z" fill="#060E28"/>
<path d="M34.8996 19.1H47.6996C48.0996 19.1 48.4996 18.8 48.4996 18.3C48.4996 17.8 48.1996 17.5 47.6996 17.5H34.8996C34.4996 17.5 34.0996 17.8 34.0996 18.3C34.0996 18.8 34.3996 19.1 34.8996 19.1Z" fill="#060E28"/>
<path d="M34.8996 23.5H47.6996C48.0996 23.5 48.4996 23.2 48.4996 22.7C48.4996 22.2 48.0996 22 47.6996 22H34.8996C34.4996 22 34.0996 22.3 34.0996 22.8C34.0996 23.3 34.3996 23.5 34.8996 23.5Z" fill="#060E28"/>
<path d="M57.6998 36.0998C55.0998 31.6998 49.4998 30.2998 45.0998 32.8998C40.6998 35.4998 39.2998 41.0998 41.8998 45.4998C44.4998 49.7998 50.0998 51.2998 54.4998 48.6998C58.7998 46.0998 60.2998 40.4998 57.6998 36.0998Z" fill="#060E28"/>
</svg>
