<svg width="70" height="70" viewBox="0 0 70 70" fill="none" xmlns="http://www.w3.org/2000/svg">
<path d="M62.94 48.7774C63.5801 48.3374 63.98 47.7774 64.1201 47.1274C64.3599 46.0475 63.8701 44.7674 62.6499 43.3174C62.0701 42.6175 61.3501 42.0074 60.5701 41.4574C64.3902 35.6474 66.8401 28.7574 66.8201 22.6374C66.8101 18.2174 65.48 13.6674 61.68 11.4474C60.18 10.5874 56.8501 8.66745 56.6402 8.53744C53.2901 6.59744 48.8701 7.00742 44.2 9.70743C39.76 12.2674 35.74 16.5575 32.72 21.5074C31.8401 21.0074 30.99 20.5575 30.1699 20.1674L23.1599 17.2174C22.8001 15.7674 22.0501 14.6574 20.98 14.0274C20.97 14.0174 20.97 14.0074 20.96 14.0074L16.52 11.4275C14.94 10.5074 12.8799 10.6875 10.71 11.9375C6.44997 14.3974 2.99001 20.3774 3.00002 25.2674C3.01003 27.7274 3.8799 29.5874 5.43996 30.4875L9.84011 33.0475C10.5 33.4474 11.25 33.6474 12.0801 33.6474C12.23 33.6474 12.3799 33.6274 12.5301 33.6075C12.6099 33.9275 12.6599 34.2475 12.6599 34.5774V38.0674C12.6599 40.7574 13.46 43.3174 14.98 45.4674C18.1402 49.8874 20.6699 52.9774 25.25 55.1374C27.23 56.0774 29.8401 57.3575 31.8001 57.8075C32.3701 57.9375 32.8301 57.9875 33.21 57.9875C34.8599 57.9875 35.0401 57.0674 36.1699 57.4774L49.6201 62.3075C50.6201 62.5475 51.5 62.6674 52.26 62.6674C53.4099 62.6674 54.3001 62.3874 54.93 61.8274C55.6499 61.1974 56 60.2274 56 58.9474C59.1299 60.5374 61.3101 60.9474 62.8301 60.2375C63.8501 59.7574 64.53 58.7574 64.8701 57.2874C66.18 56.6075 66.8999 55.6974 66.99 54.5974C67.1699 52.4975 65.02 50.3474 62.94 48.7774ZM61.8902 43.9574C62.8799 45.1374 63.3101 46.1674 63.1402 46.9174C63.0401 47.3974 62.6499 47.8174 62.02 48.1574C61.3999 47.8075 59.5601 46.8575 57.02 46.0475C58.0801 44.8675 59.0701 43.6075 60 42.2674C60.71 42.7774 61.3599 43.3274 61.8902 43.9574ZM49.74 13.4875C54.0701 10.9774 58.1299 10.5575 61.1499 12.2975C64.1499 14.0274 65.8101 17.6974 65.8201 22.6474C65.8501 33.1875 58.3999 45.9474 49.3501 51.1775C40.25 56.4275 33.3001 52.0974 33.27 42.0174C33.24 31.5475 40.6299 18.7475 49.74 13.4875ZM7.98 30.8075L5.93996 29.6274C4.69997 28.9074 4.01003 27.3575 4.00002 25.2674C3.99001 20.6974 7.21999 15.1075 11.2 12.8075C12.69 11.9474 14.5401 11.4275 16.01 12.2874L18.0601 13.4774C17.0401 13.6075 16.0401 14.0174 15.1499 14.5274C11.4099 16.6775 8.40993 21.4375 7.64992 25.7375C7.35012 27.4174 7.34011 29.2174 7.98 30.8075ZM54.27 61.0774C53.49 61.7674 52.01 61.8575 49.9099 61.3474L36.51 56.5374C35.7901 56.2774 34.98 56.3575 34.21 56.7774C34.1599 56.8075 34.1099 56.8174 34.0601 56.8374C34.49 55.0475 33.8501 53.5374 32.0901 52.7874C29.52 51.7174 27.2901 52.6574 26.6299 54.6875C25.8701 54.3274 26.24 54.4975 25.6699 54.2375C21.3401 52.1875 18.95 49.2975 15.8001 44.8874C14.3999 42.9074 13.6599 40.5475 13.6599 38.0674V34.5774C13.6599 33.1574 13.1201 31.7274 11.75 30.5174C9.62014 28.6175 10.8999 24.5475 13 21.5774C15.1099 18.5974 18.5501 16.0274 21.1699 17.4674L29.76 21.0774C30.5301 21.4474 31.3501 21.8774 32.2 22.3575C29.1099 27.6875 27.21 33.6974 27.23 39.1075C27.24 44.4074 29.0701 48.3774 32.3701 50.2975C34.0301 51.2674 37.23 53.1075 37.44 53.2274C40.76 55.1374 44.6699 54.5374 48.1402 52.9275C51.52 54.9074 54.3501 57.6875 54.95 58.3075C55.0801 59.6175 54.8599 60.5575 54.27 61.0774ZM62.3999 59.3274C61.1001 59.9474 58.9199 59.3974 55.74 57.6775C55.3101 57.2274 52.6201 54.5074 49.2 52.3974C49.4199 52.2774 49.6299 52.1674 49.8501 52.0374C50.8999 51.4375 51.93 50.7174 52.93 49.9275C57.6599 51.0475 62.8501 56.0674 63.8701 57.0974C63.6099 58.2375 63.1299 58.9875 62.3999 59.3274ZM64.52 56.3274C63.3501 55.1474 58.5901 50.5974 53.8701 49.1374C54.7 48.4375 55.51 47.6775 56.28 46.8675C59.44 47.8075 61.6402 49.0774 61.74 49.1474C64.5701 51.1474 66.1201 53.0974 65.99 54.5174C65.93 55.2174 65.4199 55.8174 64.52 56.3274Z" fill="#060E28"/>
<path d="M49.2501 18.7183C42.8001 22.4483 37.5601 31.5283 37.5801 38.9483C37.6002 46.6083 43.16 49.7883 49.8301 45.9383C56.2901 42.2083 61.5301 33.1383 61.5101 25.7083C61.49 18.0583 55.92 14.8683 49.2501 18.7183ZM49.3301 45.0783C43.3101 48.5583 38.6002 45.7883 38.5801 38.9483C38.5601 31.8383 43.5701 23.1583 49.7501 19.5883C55.7501 16.1283 60.49 18.8283 60.5101 25.7083C60.5301 32.8183 55.5101 41.5083 49.3301 45.0783Z" fill="#060E28"/>
<path d="M53.8093 36.1088L45.7693 40.7489C45.3992 40.9688 44.9392 40.6388 45.0393 40.2088L46.3694 34.1688C45.6292 33.6488 45.2092 32.6789 45.2092 31.4289C45.1992 28.8188 46.9793 25.7389 49.2493 24.4289C51.6892 23.0188 53.8093 24.2389 53.8193 27.0388C53.8193 28.2989 53.4092 29.6988 52.6492 30.9989L54.0393 35.5388C54.1091 35.7588 54.0193 35.9989 53.8093 36.1088Z" fill="#060E28"/>
</svg>
