<svg width="70" height="70" viewBox="0 0 70 70" fill="none" xmlns="http://www.w3.org/2000/svg">
<path d="M53.6798 10.2881C53.6792 10.188 53.5551 9.93078 53.4346 9.85938C52.578 9.35218 43.8447 4.21653 40.6475 2.33643C40.4942 2.24756 40.3018 2.24707 40.1466 2.33594L18.7471 14.6855C17.3487 15.4889 16.206 17.4544 16.2169 19.0806L16.336 63.1792C16.336 64.0464 16.671 64.7393 17.2559 65.0815L21.4268 67.5024L21.4288 67.5034C21.4293 67.5036 21.4295 67.5035 21.43 67.5037C21.4322 67.5049 21.4334 67.5071 21.4356 67.5083C22.1093 67.8951 22.8952 67.7311 23.5626 67.3457L51.2471 51.3613C52.6739 50.5381 53.7891 48.6079 53.7843 46.9668L53.6798 10.2881ZM19.2462 15.5522L40.3956 3.34668L43.5711 5.18927C17.9684 19.965 23.8051 16.5965 22.919 17.1079C22.918 17.1084 22.918 17.1089 22.9171 17.1089C22.2784 17.4822 21.8113 18.0681 21.5821 18.3223C21.3092 18.1639 18.1364 16.3232 18.2794 16.4062C18.5792 16.0375 18.9073 15.7471 19.2462 15.5522ZM50.7471 50.4951L23.0626 66.4795C22.076 67.048 21.5147 66.5966 21.5108 65.5996L21.4859 56.8041L21.3897 21.4976C21.3808 20.2685 22.3222 18.6118 23.4229 17.9766C26.8869 15.9767 14.5015 23.1271 44.0704 6.05627L44.0889 12.6108C44.093 14.4784 45.5525 15.2693 47.1407 14.3535L52.6827 11.1543L52.7843 46.9697C52.7882 48.2417 51.8546 49.856 50.7471 50.4951Z" fill="#060E28"/>
<path d="M37.4024 42.0126C43.2867 38.6126 47.991 30.4528 47.9688 23.7001C47.9466 16.7539 42.9034 13.8408 36.8282 17.351C30.9796 20.7294 26.2403 28.9457 26.2618 35.6669C26.2814 42.4382 31.1992 45.595 37.4024 42.0126ZM36.9024 41.1464C34.504 42.5321 32.2598 42.8661 30.5206 42.1156L37.2999 30.3637L43.7764 34.0487C41.9034 37.1498 39.4766 39.6596 36.9024 41.1464ZM46.9688 23.703C46.9786 26.66 46.0245 30.0087 44.2764 33.1825L37.6143 29.392C37.6084 27.4802 37.5872 20.6592 37.5792 18.0756C42.8527 15.177 46.9489 17.6121 46.9688 23.703Z" fill="#060E28"/>
<path d="M48.2989 39.8523L25.5118 53.0085C25.2725 53.1467 25.1905 53.4524 25.3292 53.6916C25.4653 53.9298 25.7712 54.0129 26.0118 53.8747L48.7989 40.7185C49.0382 40.5803 49.1202 40.2746 48.9815 40.0354C48.8438 39.7951 48.5372 39.7146 48.2989 39.8523Z" fill="#060E28"/>
<path d="M48.2989 45.104L25.5118 58.2598C25.2725 58.398 25.1905 58.7036 25.3292 58.9429C25.4653 59.1811 25.7712 59.2641 26.0118 59.126L48.7989 45.9702C49.0382 45.832 49.1202 45.5264 48.9815 45.2871C48.8438 45.0469 48.5372 44.9668 48.2989 45.104Z" fill="#060E28"/>
</svg>
