<svg width="70" height="70" viewBox="0 0 70 70" fill="none" xmlns="http://www.w3.org/2000/svg">
<path d="M58.1701 8.92999V8.87C58.1701 7.54999 57.7001 6.54999 56.86 6.01996C56.7201 5.89996 57.2702 6.25 52.2502 3.32996C51.87 3.10999 51.4401 3 50.9902 3C50.37 3 49.6901 3.20001 49.0002 3.59998L15.86 22.69C13.5902 23.99 11.7301 27.16 11.7502 29.8V29.81C11.7502 29.99 11.7602 33.66 11.8202 56.63C11.8202 58 12.31 59.03 13.2001 59.55L17.7402 62.18C17.8002 62.19 18.2402 62.51 19.0202 62.51C19.5402 62.51 20.2001 62.37 21.0002 61.91L25.33 59.41L25.3202 61.17C25.3202 61.62 25.5902 62.03 26.06 62.28L33.6601 66.67C34.4201 67.1 35.6701 67.13 36.4902 66.66L51.62 57.88C52.2502 57.51 52.35 57.04 52.35 56.79L52.36 53.02V53.01C52.36 52.66 52.12 52.2 51.62 51.91L44.9902 48.08L54.13 42.82C56.4101 41.51 58.2502 38.32 58.2502 35.7C58.1801 10.31 58.1701 8.92999 58.1701 8.92999ZM16.4601 60.28L13.7001 58.68C13.1401 58.35 12.8202 57.62 12.8202 56.62V54.52L16.35 56.56L16.36 59.26C16.36 59.62 16.4001 59.95 16.4601 60.25V60.28ZM13.6 26.65C14.2802 25.3 15.3002 24.17 16.36 23.55L49.5002 4.46997C50.36 3.96997 51.1901 3.87 51.7502 4.19L54.5102 5.78998C54.5002 5.79999 54.5002 5.79999 54.4902 5.81C54.1701 5.89996 53.86 6.03998 53.5302 6.22998L20.4001 25.32C19.13 26.05 17.9301 27.5 17.2702 28.78C17.1401 28.7 13.81 26.78 13.6 26.65ZM17.2802 32.43C17.2702 30.15 18.9601 27.32 20.87 26.2C20.88 26.2 20.8901 26.19 20.9001 26.19L54.0402 7.09998C55.7802 6.08997 57.1701 6.76001 57.1701 8.88L57.2001 20.22L54.9301 19.59C52.4801 18.88 49.7602 20.62 47.9701 22.47L35.1401 35.8L33.5002 35.34C31.0402 34.64 28.31 36.38 26.5302 38.24L17.33 47.81L17.2802 32.43ZM27.2602 38.93C28.7402 37.37 31.1701 35.72 33.2301 36.3C36.4001 37.19 42.2602 38.83 44.85 39.56L17.35 55.4L17.3402 49.24L27.2602 38.93ZM34.4801 65.92C34.36 65.89 34.2502 65.85 34.1601 65.8L26.5502 61.41C26.3901 61.32 26.3202 61.23 26.3202 61.17L26.33 58.84L26.4801 58.75L33.6601 62.89V62.9C33.8402 63 33.85 63 34.4801 63.18V65.92ZM34.1501 55.94L34.1601 54.33L36.1701 53.17L36.1601 57.1L34.1501 55.94ZM37.1601 57.09L37.1701 52.74L43.11 49.3L43.1 53.65L37.1601 57.09ZM51.35 56.79C51.35 56.82 51.2802 56.92 51.12 57.02L35.9902 65.8C35.85 65.88 35.6701 65.94 35.4801 65.97V63.21C35.88 63.16 36.38 62.96 36.4902 62.89L51.36 54.27L51.35 56.79ZM53.63 41.95C45.0702 46.88 29.0102 56.14 20.5002 61.04C18.62 62.12 17.36 61.24 17.36 59.27L17.35 56.56L57.2402 33.58L57.2502 35.71C57.2502 38 55.63 40.8 53.63 41.95Z" fill="#060E28"/>
<path d="M37.8196 25.6799C37.8196 27.7599 36.4095 30.2099 34.5994 31.2599C32.5794 32.4199 30.8694 31.4399 30.8594 29.1199C30.8494 27.0399 32.2696 24.5899 34.0794 23.5399C36.0396 22.4099 37.8094 23.4299 37.8196 25.6799Z" fill="#060E28"/>
</svg>
