<svg width="70" height="70" viewBox="0 0 70 70" fill="none" xmlns="http://www.w3.org/2000/svg">
<path d="M66.2802 53.0251C64.2602 51.8851 64.08 51.7551 62.6701 50.9451L64.2402 48.495C64.4001 48.2551 64.32 47.935 64.07 47.795L55.2101 42.735C54.9001 42.555 54.5102 42.7551 54.4701 43.105L54.1301 45.975L50.0002 43.5751C53.58 36.6351 55.5502 29.295 55.5302 22.865C55.5102 16.7151 53.6701 10.415 48.37 7.39507L43.77 4.73503C39.1601 2.05504 33.07 2.63506 26.61 6.35503C13.54 13.8851 2.95013 32.1951 3.00018 47.165C3.01995 54.475 5.53997 59.9651 10.08 62.595L14.7602 65.295C14.86 65.305 17.1 66.925 21.1801 66.925C23.9601 66.925 27.58 66.175 31.9401 63.665C37.59 60.415 43.0102 54.975 47.2602 48.3251L53.1601 51.745L56.08 56.975C56.1301 57.055 56.1901 57.125 56.27 57.165L63.07 61.045C63.4701 61.2751 63.9501 60.8851 63.79 60.4451L62.61 57.235C63.4701 57.685 63.6301 57.9451 64.1901 57.9451C64.5002 57.9451 64.83 57.855 65.1601 57.665C66.2001 57.065 67.0002 55.665 67.0002 54.485C67.0002 53.8251 66.7402 53.295 66.2802 53.0251ZM31.4401 62.805C18.7502 70.105 8.73016 64.2651 8.68011 49.865C8.64007 35.2051 19.0002 17.295 31.7802 9.93504C42.1501 3.95506 47.7502 8.28502 47.9501 8.30504C50.06 9.53502 51.7001 11.435 52.82 13.9051C53.9301 16.375 54.52 19.3951 54.5302 22.865C54.5502 29.125 52.6301 36.285 49.1401 43.0751L46.4701 41.5251C49.11 36.2151 50.57 30.625 50.56 25.735C50.5502 19.935 48.54 15.5851 44.9001 13.485C41.2402 11.375 36.4001 11.8351 31.3002 14.7751C20.9902 20.7051 12.6201 35.165 12.6501 47.0051C12.6801 59.035 21.36 64.055 31.9201 57.9651C36.2402 55.485 40.4201 51.3351 43.7402 46.285L46.4001 47.8251C42.2302 54.3251 36.9401 59.6351 31.4401 62.805ZM42.7802 37.225C43.83 34.495 44.3801 31.7651 44.37 29.305C44.34 21.175 38.4201 17.785 31.31 21.875C24.4101 25.855 18.81 35.535 18.83 43.4451C18.85 51.595 24.79 54.975 31.8901 50.875C34.1401 49.5851 36.33 47.625 38.2602 45.2051C38.6701 45.1351 39.11 44.975 39.56 44.7151C39.79 44.5751 40.0002 44.4051 40.2101 44.235L42.87 45.7751C39.6401 50.685 35.59 54.6951 31.4201 57.105C21.4802 62.8251 13.6801 58.1951 13.6501 47.0051C13.62 35.485 21.7602 21.415 31.8002 15.6351C36.58 12.8851 41.06 12.425 44.4001 14.355C47.7101 16.2651 49.5502 20.305 49.56 25.735C49.57 30.4551 48.1601 35.865 45.6 41.0151L42.9802 39.495C43.0302 39.2151 43.06 38.935 43.06 38.6551C43.06 38.105 42.9601 37.6351 42.7802 37.225ZM30.82 36.435C30.4701 36.0051 30.54 35.5251 30.7402 35.225C30.9301 34.915 31.33 34.6351 31.86 34.7551C32.0102 34.795 39.37 36.535 38.9201 36.435C37.11 37.545 35.6601 40.0051 35.5302 42.115L30.82 36.435ZM37.58 35.0851C37.7302 34.4051 37.82 33.735 37.82 33.095C37.81 29.055 34.8002 27.3351 31.27 29.375C27.9501 31.285 25.2502 35.9451 25.2602 39.7551C25.27 43.785 28.2802 45.535 31.81 43.485C32.5502 43.055 33.27 42.485 33.9601 41.785C34.7101 42.685 35.83 44.055 35.9802 44.2151C36.1801 44.5151 36.4101 44.7751 36.7101 44.9551C36.82 45.0151 36.9401 45.055 37.06 45.095C35.32 47.175 33.37 48.875 31.3901 50.0151C24.9401 53.735 19.85 50.805 19.83 43.4451C19.81 35.845 25.1901 26.565 31.81 22.735C38.2402 19.035 43.34 21.9451 43.37 29.305C43.3801 31.475 42.9101 33.875 42.0502 36.285C41.9802 36.235 41.9301 36.165 41.85 36.125C41.5502 35.9551 41.2101 35.875 40.85 35.865L37.58 35.0851ZM62.83 56.2051C53.8901 51.0151 48.04 47.615 39.1701 42.4651C38.9802 42.365 38.9501 42.055 38.9501 41.875C38.9501 41.055 39.57 39.975 40.2802 39.565C40.58 39.3951 40.82 39.3951 40.9201 39.4451C46.86 42.9051 50.09 44.785 54.0102 47.065L53.84 48.485C53.82 48.685 53.9101 48.8851 54.09 48.985L60.8801 52.865C61.11 52.995 61.4101 52.925 61.5502 52.6951L62.1301 51.785L64.56 53.1951C63.6501 53.7751 62.8801 55.035 62.83 56.2051Z" fill="#060E28"/>
</svg>
