<svg width="35" height="35" viewBox="0 0 35 35" fill="none" xmlns="http://www.w3.org/2000/svg">
<g clip-path="url(#clip0_8105_2783)">
<path d="M25.7031 6.83594C26.4582 6.83594 27.0703 6.22383 27.0703 5.46875C27.0703 4.71367 26.4582 4.10156 25.7031 4.10156C24.948 4.10156 24.3359 4.71367 24.3359 5.46875C24.3359 6.22383 24.948 6.83594 25.7031 6.83594Z" fill="#1263FF"/>
<path d="M25.7026 8.47656C24.9524 8.47742 24.2296 8.7582 23.6755 9.26394C23.1215 9.76968 22.7761 10.464 22.707 11.2109H28.6981C28.629 10.464 28.2836 9.76968 27.7296 9.26394C27.1755 8.7582 26.4527 8.47742 25.7026 8.47656Z" fill="#1263FF"/>
<path d="M25.7031 0.273438C24.1348 0.273438 22.6017 0.738506 21.2976 1.60983C19.9936 2.48116 18.9772 3.7196 18.3771 5.16856C17.7769 6.61753 17.6198 8.21192 17.9258 9.75013C18.2318 11.2883 18.987 12.7013 20.096 13.8103C21.205 14.9192 22.6179 15.6745 24.1561 15.9804C25.6943 16.2864 27.2887 16.1294 28.7377 15.5292C30.1866 14.929 31.4251 13.9127 32.2964 12.6086C33.1677 11.3046 33.6328 9.77147 33.6328 8.20312C33.6304 6.10078 32.7942 4.08524 31.3076 2.59866C29.821 1.11208 27.8055 0.275853 25.7031 0.273438ZM30.3516 12.0312C30.3516 12.2488 30.2651 12.4575 30.1113 12.6113C29.9575 12.7651 29.7488 12.8516 29.5313 12.8516H21.875C21.6574 12.8516 21.4488 12.7651 21.295 12.6113C21.1411 12.4574 21.0547 12.2488 21.0547 12.0312C21.0778 11.9398 20.7248 8.95751 23.4308 7.43338C23.053 6.99769 22.8083 6.46255 22.7261 5.89172C22.6438 5.3209 22.7274 4.73846 22.9669 4.21381C23.2063 3.68915 23.5916 3.24441 24.0767 2.93256C24.5618 2.62071 25.1264 2.4549 25.7031 2.4549C26.2798 2.4549 26.8444 2.62071 27.3295 2.93256C27.8147 3.24441 28.1999 3.68915 28.4394 4.21381C28.6789 4.73846 28.7624 5.3209 28.6802 5.89172C28.5979 6.46255 28.3533 6.99769 27.9754 7.43338C30.6955 8.96547 30.3246 11.9247 30.3516 12.0312Z" fill="#1263FF"/>
<path d="M33.9062 13.7485C33.6887 13.7485 33.48 13.835 33.3262 13.9888C33.1724 14.1426 33.0859 14.3513 33.0859 14.5688V21.6016H1.91406V2.1875C1.91497 2.11526 1.94407 2.04624 1.99516 1.99516C2.04624 1.94407 2.11526 1.91497 2.1875 1.91406H18.1345C18.352 1.91406 18.5607 1.82764 18.7145 1.6738C18.8684 1.51996 18.9548 1.31131 18.9548 1.09375C18.9548 0.87619 18.8684 0.66754 18.7145 0.513701C18.5607 0.359863 18.352 0.273438 18.1345 0.273438H2.1875C1.68005 0.274051 1.19355 0.475908 0.834731 0.834731C0.475908 1.19355 0.274051 1.68005 0.273438 2.1875V24.6094C0.274051 25.1168 0.475908 25.6033 0.834731 25.9621C1.19355 26.321 1.68005 26.5228 2.1875 26.5234H13.3984V28.7165L8.60741 29.3692C7.5109 29.5199 6.50599 30.0624 5.77829 30.8963C5.05059 31.7303 4.64926 32.7994 4.64844 33.9062C4.64845 34.1238 4.73488 34.3325 4.88871 34.4863C5.04255 34.6401 5.25119 34.7266 5.46875 34.7266H29.5312C29.7488 34.7266 29.9575 34.6401 30.1113 34.4863C30.2651 34.3325 30.3516 34.1238 30.3516 33.9062C30.3507 32.7995 29.9495 31.7304 29.2219 30.8965C28.4943 30.0625 27.4895 29.52 26.3931 29.3692L21.6016 28.7165V26.5234H32.8125C33.32 26.5228 33.8064 26.321 34.1653 25.9621C34.5241 25.6033 34.7259 25.1168 34.7266 24.6094V14.5688C34.7266 14.3513 34.6401 14.1426 34.4863 13.9888C34.3325 13.835 34.1238 13.7485 33.9062 13.7485ZM20.6707 30.2455L26.1726 30.9948C26.7348 31.0728 27.2626 31.3117 27.6922 31.6827C28.1218 32.0537 28.435 32.541 28.594 33.0859H6.40602C6.56501 32.5409 6.87824 32.0535 7.30798 31.6825C7.73771 31.3114 8.26559 31.0726 8.82797 30.9948L14.3293 30.2456C14.5259 30.2188 14.7061 30.1217 14.8366 29.9722C14.9671 29.8228 15.039 29.6311 15.0391 29.4327V26.5234H19.9609V29.4327C19.961 29.6311 20.0329 29.8228 20.1634 29.9722C20.2939 30.1217 20.4741 30.2188 20.6707 30.2455ZM32.8125 24.8828H2.1875C2.11526 24.8819 2.04624 24.8528 1.99516 24.8017C1.94407 24.7506 1.91497 24.6816 1.91406 24.6094V23.2422H33.0859V24.6094C33.085 24.6816 33.0559 24.7506 33.0048 24.8017C32.9538 24.8528 32.8847 24.8819 32.8125 24.8828Z" fill="#060E28"/>
<path d="M9.59808 4.70572C9.40454 4.62934 9.18921 4.62934 8.99567 4.70572C7.50202 5.29389 5.92538 5.64422 4.32319 5.74392C4.115 5.75706 3.91963 5.84904 3.77686 6.00114C3.63409 6.15324 3.55464 6.35403 3.55469 6.56264V11.7587C3.55536 12.9751 3.90844 14.1651 4.57124 15.185C5.23403 16.2049 6.17813 17.0109 7.28935 17.5055L8.96363 18.2497C9.06853 18.2964 9.18206 18.3205 9.29688 18.3205C9.41169 18.3205 9.52523 18.2964 9.63013 18.2497L11.3044 17.5055C12.4156 17.0109 13.3597 16.2049 14.0225 15.185C14.6853 14.1651 15.0384 12.9751 15.0391 11.7587V6.56264C15.0391 6.35403 14.9597 6.15324 14.8169 6.00114C14.6741 5.84904 14.4788 5.75706 14.2706 5.74392C12.6684 5.64421 11.0917 5.29389 9.59808 4.70572ZM13.3984 11.7587C13.3979 12.6578 13.1369 13.5374 12.647 14.2912C12.1571 15.0451 11.4592 15.6408 10.6379 16.0064L9.29688 16.6024L7.95586 16.0064C7.1345 15.6408 6.43666 15.0451 5.94675 14.2912C5.45684 13.5374 5.19583 12.6578 5.19531 11.7587V7.31539C6.59739 7.16427 7.97518 6.83911 9.29688 6.34742C10.6186 6.83913 11.9964 7.16429 13.3984 7.31539V11.7587Z" fill="#060E28"/>
<path d="M8.23615 10.3582C8.08233 10.2044 7.8737 10.118 7.65617 10.118C7.43863 10.118 7.23 10.2044 7.07618 10.3582C6.92235 10.512 6.83594 10.7207 6.83594 10.9382C6.83594 11.1557 6.92235 11.3644 7.07618 11.5182L8.7168 13.1588C8.79835 13.2404 8.8962 13.3038 9.00394 13.345C9.11168 13.3862 9.2269 13.4042 9.34207 13.3978C9.45723 13.3914 9.56976 13.3608 9.6723 13.308C9.77484 13.2552 9.86508 13.1813 9.93713 13.0912L12.1246 10.3569C12.1921 10.2728 12.2423 10.1763 12.2725 10.0728C12.3026 9.96925 12.312 9.86083 12.3002 9.75368C12.2884 9.64653 12.2555 9.54277 12.2036 9.44831C12.1516 9.35386 12.0816 9.27058 11.9974 9.20323C11.9133 9.13588 11.8166 9.08578 11.7131 9.0558C11.6096 9.02582 11.5011 9.01654 11.394 9.0285C11.2869 9.04047 11.1831 9.07343 11.0888 9.12551C10.9944 9.17759 10.9112 9.24777 10.844 9.33203L9.22898 11.3508L8.23615 10.3582Z" fill="#060E28"/>
<path d="M16.6797 19.1406C16.6797 19.3582 16.7661 19.5668 16.92 19.7207C17.0738 19.8745 17.2824 19.9609 17.5 19.9609H30.625C30.8426 19.9609 31.0512 19.8745 31.205 19.7207C31.3589 19.5668 31.4453 19.3582 31.4453 19.1406C31.4453 18.9231 31.3589 18.7144 31.205 18.5606C31.0512 18.4067 30.8426 18.3203 30.625 18.3203H17.5C17.2824 18.3203 17.0738 18.4068 16.92 18.5606C16.7661 18.7144 16.6797 18.9231 16.6797 19.1406Z" fill="#060E28"/>
</g>
<defs>
<clipPath id="clip0_8105_2783">
<rect width="35" height="35" fill="white"/>
</clipPath>
</defs>
</svg>
