<svg width="35" height="35" viewBox="0 0 35 35" fill="none" xmlns="http://www.w3.org/2000/svg">
<g clip-path="url(#clip0_8105_2807)">
<path d="M33.9062 7.73088H27.4201V7.07986C27.4181 5.28929 26.7059 3.57264 25.4398 2.30652C24.1736 1.04039 22.457 0.328195 20.6664 0.326172H14.3336C12.543 0.328195 10.8264 1.04039 9.56024 2.30652C8.29411 3.57264 7.58191 5.28929 7.57988 7.07986V7.73088H1.09375C0.876207 7.73094 0.66759 7.81738 0.513764 7.97121C0.359938 8.12503 0.273494 8.33365 0.273438 8.55119V16.5519C0.273919 17.4496 0.466466 18.3367 0.838146 19.1538C1.20983 19.9708 1.75204 20.6989 2.42836 21.2891V29.4473C2.42896 30.0808 2.68087 30.6883 3.12882 31.1363C3.57677 31.5844 4.18417 31.8364 4.81773 31.8372H13.6008C13.8184 31.8372 14.0271 31.7508 14.1809 31.5969C14.3347 31.4431 14.4212 31.2344 14.4212 31.0169C14.4212 30.7993 14.3347 30.5907 14.1809 30.4368C14.0271 30.283 13.8184 30.1966 13.6008 30.1966H4.81773C4.61914 30.1963 4.42877 30.1172 4.2884 29.9768C4.14802 29.8363 4.06911 29.6459 4.06899 29.4473V22.3366C4.86213 22.6838 5.71858 22.863 6.5844 22.8629H9.99702C10.2146 22.8629 10.4232 22.7764 10.5771 22.6226C10.7309 22.4688 10.8173 22.2601 10.8173 22.0426C10.8173 21.825 10.7309 21.6163 10.5771 21.4625C10.4232 21.3087 10.2146 21.2222 9.99702 21.2222H6.58437C5.34616 21.2208 4.15907 20.7283 3.28352 19.8528C2.40797 18.9772 1.91547 17.7901 1.91406 16.5519V13.3582H33.0859V16.5519C33.0845 17.7901 32.592 18.9772 31.7165 19.8528C30.8409 20.7283 29.6538 21.2208 28.4156 21.2222H25.003C24.7854 21.2222 24.5768 21.3087 24.4229 21.4625C24.2691 21.6163 24.1827 21.825 24.1827 22.0425C24.1827 22.2601 24.2691 22.4688 24.4229 22.6226C24.5768 22.7764 24.7854 22.8629 25.003 22.8629H28.4156C29.2814 22.863 30.1379 22.6838 30.931 22.3366V29.4473C30.9309 29.6459 30.852 29.8363 30.7116 29.9768C30.5713 30.1172 30.3809 30.1963 30.1823 30.1966H21.3992C21.1816 30.1966 20.9729 30.283 20.8191 30.4368C20.6653 30.5907 20.5788 30.7993 20.5788 31.0169C20.5788 31.2344 20.6653 31.4431 20.8191 31.5969C20.9729 31.7508 21.1816 31.8372 21.3992 31.8372H30.1823C30.8158 31.8364 31.4232 31.5844 31.8712 31.1363C32.3191 30.6883 32.571 30.0808 32.5716 29.4473V21.2891C33.248 20.6989 33.7902 19.9708 34.1619 19.1538C34.5335 18.3367 34.7261 17.4496 34.7266 16.5519V8.55119C34.7265 8.33365 34.6401 8.12503 34.4862 7.97121C34.3324 7.81738 34.1238 7.73094 33.9062 7.73088ZM9.2205 7.07986C9.22206 5.72427 9.76126 4.42464 10.7198 3.46609C11.6784 2.50754 12.978 1.96835 14.3336 1.9668H20.6664C22.022 1.96835 23.3216 2.50755 24.2802 3.4661C25.2387 4.42465 25.7779 5.72427 25.7795 7.07986V7.73088H9.2205V7.07986ZM1.91406 9.37151H33.0859V11.7176H1.91406V9.37151ZM33.0859 11.7426V11.7498C33.0767 11.7473 33.0783 11.7449 33.0859 11.7426ZM33.0859 13.3261V13.3333C33.0783 13.331 33.0767 13.3286 33.0859 13.3261Z" fill="#060E28"/>
<path d="M18.6211 20.29C18.6211 20.0681 18.5553 19.8512 18.432 19.6666C18.3087 19.4821 18.1334 19.3383 17.9284 19.2534C17.7234 19.1685 17.4978 19.1462 17.2801 19.1895C17.0625 19.2328 16.8625 19.3397 16.7056 19.4966C16.5487 19.6535 16.4418 19.8535 16.3985 20.0711C16.3552 20.2888 16.3774 20.5144 16.4624 20.7194C16.5473 20.9244 16.6911 21.0997 16.8756 21.223C17.0601 21.3463 17.2771 21.4121 17.499 21.4121C17.7965 21.4117 18.0817 21.2934 18.292 21.083C18.5024 20.8727 18.6207 20.5875 18.6211 20.29Z" fill="#1263FF"/>
<path d="M17.8601 23.5367C18.5024 23.5372 19.1373 23.6734 19.7232 23.9365C20.3091 24.1997 20.8327 24.5837 21.2597 25.0635C22.0168 24.3175 22.5348 23.3631 22.7479 22.3218C22.9611 21.2805 22.8596 20.1993 22.4565 19.2159C22.0533 18.2324 21.3667 17.3911 20.4841 16.7989C19.6014 16.2068 18.5625 15.8906 17.4997 15.8906C16.4368 15.8906 15.3979 16.2068 14.5152 16.7989C13.6326 17.3911 12.946 18.2324 12.5429 19.2159C12.1397 20.1993 12.0383 21.2805 12.2514 22.3218C12.4645 23.3631 12.9825 24.3175 13.7396 25.0635C14.1666 24.5837 14.6902 24.1997 15.2761 23.9365C15.862 23.6734 16.4969 23.5372 17.1392 23.5367H17.8601ZM15.1194 20.2902C15.1194 19.8194 15.259 19.3592 15.5205 18.9678C15.7821 18.5763 16.1538 18.2712 16.5888 18.0911C17.0237 17.9109 17.5023 17.8638 17.964 17.9556C18.4258 18.0475 18.8499 18.2742 19.1828 18.6071C19.5157 18.94 19.7424 19.3641 19.8342 19.8258C19.9261 20.2876 19.8789 20.7662 19.6988 21.2011C19.5186 21.636 19.2135 22.0078 18.8221 22.2693C18.4306 22.5309 17.9704 22.6705 17.4997 22.6705C16.8686 22.6696 16.2637 22.4186 15.8175 21.9724C15.3713 21.5262 15.1202 20.9212 15.1194 20.2902Z" fill="#1263FF"/>
<path d="M17.139 24.7949C16.6895 24.796 16.2449 24.889 15.8327 25.0684C15.4205 25.2477 15.0494 25.5095 14.7422 25.8377C15.5731 26.3431 16.5269 26.6104 17.4995 26.6104C18.472 26.6104 19.4259 26.3431 20.2568 25.8377C19.9496 25.5095 19.5785 25.2477 19.1663 25.0684C18.7541 24.889 18.3095 24.796 17.86 24.7949H17.139Z" fill="#1263FF"/>
<path d="M18.4301 27.967H16.5684C16.3563 27.9618 16.1509 28.0409 15.9971 28.1869C15.8433 28.333 15.7537 28.5341 15.748 28.7461V33.896C15.7537 34.108 15.8433 34.3091 15.9971 34.4552C16.1509 34.6012 16.3563 34.6803 16.5684 34.675H18.4301C18.6421 34.6803 18.8476 34.6012 19.0014 34.4552C19.1552 34.3091 19.2447 34.108 19.2504 33.896V28.7461C19.2447 28.5341 19.1552 28.333 19.0014 28.1869C18.8476 28.0409 18.6421 27.9618 18.4301 27.967Z" fill="#1263FF"/>
</g>
<defs>
<clipPath id="clip0_8105_2807">
<rect width="35" height="35" fill="white"/>
</clipPath>
</defs>
</svg>
