<svg width="55" height="55" viewBox="0 0 55 55" fill="none" xmlns="http://www.w3.org/2000/svg">
<path d="M22.5517 49.2026C20.1067 48.649 17.774 47.6825 15.6537 46.3449C15.4026 46.1863 15.105 46.1178 14.8098 46.1508C14.5147 46.1838 14.2395 46.3163 14.0296 46.5265L12.6843 47.8718L7.12817 42.3157L8.47349 40.9704C8.68355 40.7604 8.81598 40.4853 8.84906 40.1902C8.88213 39.8951 8.81388 39.5975 8.65552 39.3463C7.31789 37.2259 6.35121 34.8932 5.79695 32.4483C5.73127 32.1586 5.56909 31.9 5.33702 31.7147C5.10495 31.5294 4.81679 31.4285 4.51982 31.4286H2.61905V23.5714H4.51982C4.81679 23.5715 5.10495 23.4706 5.33702 23.2853C5.56909 23.1 5.73127 22.8414 5.79695 22.5517C6.35075 20.1066 7.31748 17.7738 8.65556 15.6537C8.81393 15.4025 8.88218 15.1049 8.8491 14.8098C8.81602 14.5147 8.68359 14.2395 8.47354 14.0296L7.12822 12.6843L12.6843 7.12817L14.0296 8.47349C14.2395 8.68367 14.5147 8.81616 14.8098 8.84916C15.105 8.88217 15.4026 8.81372 15.6537 8.65508C17.774 7.31743 20.1067 6.35102 22.5517 5.79738C22.8413 5.73157 23.0999 5.56935 23.2852 5.33731C23.4704 5.10526 23.5714 4.81717 23.5714 4.52024V2.61905H31.4286V4.52024C31.4286 4.81717 31.5296 5.10526 31.7148 5.33731C31.9001 5.56935 32.1587 5.73157 32.4483 5.79738C34.8933 6.35104 37.226 7.31746 39.3463 8.65513C39.4917 8.74777 39.654 8.81077 39.8239 8.8405C39.9937 8.87023 40.1678 8.86612 40.336 8.8284C40.5043 8.79068 40.6634 8.72009 40.8043 8.62068C40.9452 8.52128 41.0651 8.39502 41.1571 8.24916C41.2491 8.1033 41.3113 7.9407 41.3403 7.77072C41.3692 7.60073 41.3643 7.4267 41.3258 7.25861C41.2873 7.09053 41.216 6.93171 41.1159 6.79127C41.0159 6.65083 40.8891 6.53153 40.7428 6.44024C38.6698 5.13186 36.4132 4.13993 34.0476 3.49718V1.30952C34.0476 0.962222 33.9096 0.62915 33.6641 0.383571C33.4185 0.137992 33.0854 1.85213e-05 32.7381 0H22.2619C21.9146 1.85213e-05 21.5815 0.137992 21.336 0.383571C21.0904 0.62915 20.9524 0.962222 20.9524 1.30952V3.49718C18.9266 4.0475 16.9794 4.85429 15.158 5.89797L13.6101 4.35059C13.4886 4.22896 13.3442 4.13247 13.1854 4.06665C13.0265 4.00082 12.8562 3.96693 12.6843 3.96693C12.5123 3.96693 12.342 4.00082 12.1832 4.06665C12.0243 4.13247 11.88 4.22896 11.7584 4.35059L4.35059 11.7584C4.22896 11.88 4.13247 12.0243 4.06665 12.1832C4.00082 12.3421 3.96693 12.5123 3.96693 12.6843C3.96693 12.8563 4.00082 13.0265 4.06665 13.1854C4.13247 13.3443 4.22896 13.4886 4.35059 13.6102L5.89844 15.1584C4.85429 16.9795 4.04732 18.9266 3.49718 20.9524H1.30952C0.962222 20.9524 0.62915 21.0904 0.383571 21.336C0.137992 21.5815 1.85213e-05 21.9146 0 22.2619V32.7381C1.62063e-05 33.0854 0.137989 33.4185 0.383569 33.6641C0.629148 33.9096 0.962222 34.0476 1.30952 34.0476H3.49718C4.04746 36.0734 4.85441 38.0205 5.8984 39.8416L4.35054 41.3898C4.22891 41.5114 4.13243 41.6557 4.0666 41.8146C4.00077 41.9735 3.96689 42.1437 3.96689 42.3157C3.96689 42.4877 4.00077 42.6579 4.0666 42.8168C4.13243 42.9757 4.22891 43.12 4.35054 43.2416L11.7584 50.6494C11.88 50.771 12.0243 50.8675 12.1832 50.9334C12.342 50.9992 12.5123 51.0331 12.6843 51.0331C12.8562 51.0331 13.0265 50.9992 13.1854 50.9334C13.3442 50.8675 13.4886 50.771 13.6101 50.6494L15.158 49.102C16.9794 50.1457 18.9266 50.9525 20.9524 51.5028V53.6905C20.9524 54.0378 21.0903 54.3709 21.3359 54.6165C21.5815 54.862 21.9146 55 22.2619 55C22.6092 55 22.9423 54.862 23.1879 54.6165C23.4335 54.3709 23.5714 54.0378 23.5714 53.6905V50.4798C23.5714 50.1828 23.4704 49.8947 23.2852 49.6627C23.0999 49.4307 22.8413 49.2684 22.5517 49.2026Z" fill="#060E28"/>
<path d="M53.6903 20.9529H51.5026C50.8598 18.5874 49.868 16.331 48.56 14.2578C48.3749 13.964 48.0805 13.7558 47.7418 13.6789C47.4031 13.6021 47.0477 13.663 46.7539 13.8482C46.4601 14.0333 46.2518 14.3277 46.175 14.6664C46.0982 15.0051 46.1591 15.3605 46.3443 15.6543C47.6819 17.7746 48.6486 20.1073 49.2029 22.5523C49.2685 22.8419 49.4307 23.1006 49.6628 23.2859C49.8949 23.4712 50.183 23.5721 50.48 23.572H53.6903C54.0376 23.572 54.3707 23.434 54.6163 23.1884C54.8619 22.9428 54.9998 22.6098 54.9998 22.2625C54.9998 21.9151 54.8619 21.5821 54.6163 21.3365C54.3707 21.0909 54.0376 20.9529 53.6903 20.9529Z" fill="#060E28"/>
<path d="M53.6908 0H45.7569C45.4096 5.17528e-09 45.0765 0.137967 44.8309 0.383551C44.5853 0.629134 44.4474 0.962216 44.4474 1.30952C44.4474 1.65683 44.5853 1.98991 44.8309 2.2355C45.0765 2.48108 45.4096 2.61905 45.7569 2.61905H50.5295L18.2993 34.8492C16.6749 32.8248 15.7652 30.3201 15.712 27.7251C15.6587 25.13 16.4648 22.5901 18.0048 20.5008C19.5448 18.4114 21.7323 16.8897 24.2268 16.1725C26.7214 15.4553 29.383 15.5828 31.7976 16.5353C32.1209 16.6623 32.4815 16.6556 32.7999 16.5167C33.1183 16.3778 33.3685 16.1182 33.4955 15.7948C33.6224 15.4715 33.6157 15.111 33.4769 14.7925C33.338 14.4741 33.0783 14.2239 32.755 14.097C29.2435 12.7184 25.3312 12.7729 21.8596 14.249C18.3879 15.725 15.6342 18.5045 14.1906 21.9898C12.7471 25.4751 12.729 29.3877 14.1403 32.8862C15.5516 36.3847 18.2796 39.1895 21.7374 40.6975C21.8951 40.7675 22.0651 40.8056 22.2375 40.8096C22.41 40.8137 22.5816 40.7836 22.7424 40.7212C22.9032 40.6587 23.05 40.5651 23.1745 40.4457C23.299 40.3263 23.3987 40.1835 23.4679 40.0255C23.537 39.8674 23.5742 39.6973 23.5774 39.5248C23.5806 39.3523 23.5496 39.1809 23.4864 39.0204C23.4231 38.86 23.3287 38.7136 23.2087 38.5897C23.0887 38.4658 22.9453 38.3668 22.7869 38.2985C21.8425 37.8832 20.9566 37.3458 20.152 36.7001L52.3812 4.47079V9.2434C52.3812 9.5907 52.5192 9.92379 52.7648 10.1694C53.0104 10.415 53.3434 10.5529 53.6908 10.5529C54.0381 10.5529 54.3711 10.415 54.6167 10.1694C54.8623 9.92379 55.0003 9.5907 55.0003 9.2434V1.30952C54.999 0.962597 54.8607 0.630231 54.6154 0.384915C54.37 0.139599 54.0377 0.00123538 53.6908 0Z" fill="#060E28"/>
<path d="M39.2052 21.5062C38.882 21.6332 38.6223 21.8833 38.4834 22.2016C38.3445 22.5199 38.3376 22.8803 38.4644 23.2037C39.0053 24.572 39.2839 26.03 39.2854 27.5014C39.2854 27.8487 39.4233 28.1818 39.6689 28.4274C39.9145 28.6729 40.2476 28.8109 40.5949 28.8109C40.9422 28.8109 41.2753 28.6729 41.5209 28.4274C41.7665 28.1818 41.9044 27.8487 41.9044 27.5014C41.9031 25.7026 41.5633 23.9202 40.9027 22.2471C40.7756 21.9239 40.5255 21.6643 40.2072 21.5254C39.889 21.3865 39.5286 21.3796 39.2052 21.5062Z" fill="#060E28"/>
<path d="M52.8174 26.1895H49.3253C48.7467 26.1901 48.1919 26.4202 47.7827 26.8294C47.3736 27.2385 47.1434 27.7933 47.1428 28.372V52.3799H44.5238V33.6101C44.5232 33.0314 44.293 32.4766 43.8838 32.0675C43.4747 31.6583 42.9199 31.4282 42.3412 31.4275H38.8492C38.2705 31.4282 37.7157 31.6583 37.3065 32.0675C36.8974 32.4766 36.6672 33.0314 36.6666 33.6101V52.3799H34.0476V38.8482C34.047 38.2695 33.8168 37.7147 33.4077 37.3056C32.9985 36.8964 32.4437 36.6663 31.865 36.6656H28.373C27.7943 36.6663 27.2395 36.8964 26.8304 37.3056C26.4212 37.7147 26.191 38.2695 26.1904 38.8482V53.6895C26.1904 54.0368 26.3284 54.3698 26.574 54.6154C26.8196 54.861 27.1527 54.999 27.5 54.999H53.6904C54.0377 54.999 54.3708 54.861 54.6164 54.6154C54.862 54.3698 54.9999 54.0368 55 53.6895V28.372C54.9993 27.7933 54.7692 27.2385 54.36 26.8294C53.9509 26.4202 53.3961 26.1901 52.8174 26.1895Z" fill="#1263FF"/>
</svg>
