<svg width="55" height="55" viewBox="0 0 55 55" fill="none" xmlns="http://www.w3.org/2000/svg">
<path d="M1.30952 50.6349H4.36508V53.6905C4.36508 54.0378 4.50305 54.3709 4.74863 54.6165C4.99421 54.862 5.3273 55 5.6746 55C6.02191 55 6.35499 54.862 6.60058 54.6165C6.84616 54.3709 6.98413 54.0378 6.98413 53.6905V50.6349H53.6905C54.0378 50.6349 54.3709 50.497 54.6165 50.2514C54.862 50.0058 55 49.6727 55 49.3254C55 48.9781 54.862 48.645 54.6165 48.3994C54.3709 48.1538 54.0378 48.0159 53.6905 48.0159H51.5079V27.5C51.507 26.6899 51.1847 25.9133 50.6119 25.3405C50.0391 24.7677 49.2625 24.4454 48.4524 24.4444H42.3413C41.5312 24.4454 40.7546 24.7677 40.1818 25.3405C39.6089 25.9133 39.2867 26.6899 39.2857 27.5V48.0159H36.6667V34.4841C36.6657 33.674 36.3434 32.8974 35.7706 32.3246C35.1978 31.7518 34.4212 31.4296 33.6111 31.4286H27.5C26.6899 31.4296 25.9133 31.7518 25.3405 32.3246C24.7677 32.8974 24.4454 33.674 24.4444 34.4841V48.0159H21.8254V39.7222C21.8244 38.9121 21.5022 38.1355 20.9294 37.5627C20.3565 36.9899 19.5799 36.6676 18.7698 36.6667H12.6587C11.8486 36.6676 11.072 36.9899 10.4992 37.5627C9.92639 38.1355 9.60415 38.9121 9.60317 39.7222V48.0159H6.98413V1.30952C6.98413 0.962216 6.84616 0.629134 6.60058 0.383551C6.35499 0.137967 6.02191 0 5.6746 0C5.3273 0 4.99421 0.137967 4.74863 0.383551C4.50305 0.629134 4.36508 0.962216 4.36508 1.30952V48.0159H1.30952C0.962216 48.0159 0.629134 48.1538 0.383551 48.3994C0.137967 48.645 0 48.9781 0 49.3254C0 49.6727 0.137967 50.0058 0.383551 50.2514C0.629134 50.497 0.962216 50.6349 1.30952 50.6349ZM41.9048 27.5C41.9049 27.3843 41.951 27.2733 42.0328 27.1915C42.1146 27.1097 42.2255 27.0636 42.3413 27.0635H48.4524C48.5681 27.0636 48.679 27.1097 48.7609 27.1915C48.8427 27.2733 48.8887 27.3843 48.8889 27.5V48.0159H41.9048V27.5ZM27.0635 34.4841C27.0636 34.3684 27.1097 34.2575 27.1915 34.1756C27.2733 34.0938 27.3843 34.0478 27.5 34.0476H33.6111C33.7268 34.0478 33.8378 34.0938 33.9196 34.1756C34.0014 34.2575 34.0475 34.3684 34.0476 34.4841V48.0159H27.0635V34.4841ZM12.2222 39.7222C12.2224 39.6065 12.2684 39.4956 12.3502 39.4137C12.4321 39.3319 12.543 39.2859 12.6587 39.2857H18.7698C18.8856 39.2859 18.9965 39.3319 19.0783 39.4137C19.1602 39.4956 19.2062 39.6065 19.2063 39.7222V48.0159H12.2222V39.7222Z" fill="#060E28"/>
<path d="M51.9424 21.8254H29.244C28.9034 21.8218 28.5659 21.7599 28.2462 21.6423L35.5708 13.5036L39.8669 16.3673C40.1286 16.5419 40.4445 16.6164 40.7566 16.5771C41.0688 16.5379 41.3564 16.3876 41.5668 16.1538L47.1409 9.96045V12.6587C47.1409 13.006 47.2788 13.3391 47.5244 13.5847C47.77 13.8303 48.1031 13.9683 48.4504 13.9683C48.7977 13.9683 49.1308 13.8303 49.3764 13.5847C49.6219 13.3391 49.7599 13.006 49.7599 12.6587V6.54762C49.7576 6.20101 49.6189 5.86925 49.3738 5.62415C49.1288 5.37906 48.797 5.24036 48.4504 5.23809H42.3393C41.992 5.23809 41.6589 5.37606 41.4133 5.62165C41.1677 5.86723 41.0297 6.20031 41.0297 6.54762C41.0297 6.89493 41.1677 7.22801 41.4133 7.47359C41.6589 7.71918 41.992 7.85714 42.3393 7.85714H45.5099L40.3775 13.5599L36.0815 10.6962C35.8198 10.5215 35.5039 10.447 35.1917 10.4862C34.8795 10.5254 34.5919 10.6758 34.3815 10.9098L26.3808 19.7994C26.2568 19.4702 26.1917 19.1217 26.1885 18.7698V3.05556C26.1895 2.24547 26.5117 1.46885 27.0845 0.896033C27.6573 0.323218 28.4339 0.000979579 29.244 0H51.9424C52.7525 0.000979579 53.5292 0.323218 54.102 0.896033C54.6748 1.46885 54.997 2.24547 54.998 3.05556V18.7698C54.997 19.5799 54.6748 20.3565 54.102 20.9294C53.5292 21.5022 52.7525 21.8244 51.9424 21.8254Z" fill="#1263FF"/>
</svg>
