<svg width="55" height="55" viewBox="0 0 55 55" fill="none" xmlns="http://www.w3.org/2000/svg">
<path d="M38.3164 38.877H16.4911C14.5625 38.877 12.999 40.4404 12.999 42.369C12.999 44.2976 14.5625 45.8611 16.4911 45.8611H38.3164C40.245 45.8611 41.8084 44.2976 41.8084 42.369C41.8084 40.4404 40.245 38.877 38.3164 38.877Z" fill="#1263FF"/>
<path d="M18.333 48.8887C18.333 50.5094 18.9769 52.0638 20.1229 53.2099C21.269 54.3559 22.8233 54.9998 24.4441 54.9998H30.5552C32.1759 54.9998 33.7303 54.3559 34.8764 53.2099C36.0224 52.0638 36.6663 50.5094 36.6663 48.8887H18.333Z" fill="#1263FF"/>
<path d="M25.225 0.59122C21.2853 1.04099 17.5682 2.6514 14.5457 5.21794C11.5231 7.78449 9.33147 11.1914 8.24905 15.006C7.16662 18.8206 7.24224 22.8709 8.46631 26.6424C9.69038 30.414 12.0077 33.7367 15.1239 36.1886C15.2589 36.295 15.4136 36.3738 15.5791 36.4205C15.7445 36.4671 15.9176 36.4807 16.0883 36.4605C16.259 36.4403 16.4241 36.3866 16.5741 36.3026C16.7241 36.2186 16.856 36.1058 16.9625 35.9708C17.0689 35.8358 17.1477 35.6811 17.1943 35.5156C17.2409 35.3502 17.2545 35.1771 17.2343 35.0064C17.2141 34.8357 17.1604 34.6706 17.0764 34.5206C16.9924 34.3707 16.8797 34.2387 16.7446 34.1323C13.9042 31.8972 11.8307 28.8327 10.8124 25.3648C9.79402 21.8969 9.88139 18.1978 11.0624 14.7818C12.2433 11.3659 14.4592 8.4027 17.4019 6.30421C20.3447 4.20572 23.8681 3.07618 27.4825 3.07261C31.0968 3.06903 34.6225 4.1916 37.5694 6.28426C40.5163 8.37692 42.738 11.3357 43.9258 14.7493C45.1135 18.163 45.2082 21.8618 44.1967 25.3317C43.1852 28.8017 41.1177 31.8703 38.2818 34.111C38.0102 34.3267 37.8352 34.6414 37.7954 34.986C37.7555 35.3306 37.854 35.6769 38.0691 35.949C38.2843 36.2211 38.5987 36.3967 38.9432 36.4373C39.2877 36.4779 39.6342 36.3802 39.9067 36.1656C43.321 33.4682 45.7627 29.7311 46.8618 25.521C47.961 21.3109 47.6575 16.8572 45.9976 12.835C44.3376 8.8129 41.4116 5.44157 37.663 3.23211C33.9145 1.02264 29.5479 0.0955017 25.225 0.59122Z" fill="#060E28"/>
<path d="M33.1752 12.6875C32.0179 12.6889 30.9084 13.1492 30.0901 13.9675C29.2718 14.7858 28.8115 15.8953 28.8101 17.0526V18.7986H26.1911V17.0526C26.1911 16.1892 25.9351 15.3453 25.4554 14.6275C24.9758 13.9096 24.2941 13.3502 23.4964 13.0198C22.6988 12.6894 21.8212 12.6029 20.9744 12.7714C20.1277 12.9398 19.3499 13.3555 18.7394 13.966C18.129 14.5765 17.7132 15.3542 17.5448 16.201C17.3764 17.0477 17.4628 17.9254 17.7932 18.723C18.1236 19.5206 18.6831 20.2023 19.4009 20.682C20.1187 21.1616 20.9627 21.4176 21.826 21.4176H23.572V34.9493C23.572 35.2966 23.71 35.6297 23.9556 35.8753C24.2012 36.1209 24.5342 36.2588 24.8815 36.2588C25.2289 36.2588 25.5619 36.1209 25.8075 35.8753C26.0531 35.6297 26.1911 35.2966 26.1911 34.9493V21.4176H28.8101V34.9493C28.8101 35.2966 28.9481 35.6297 29.1936 35.8753C29.4392 36.1209 29.7723 36.2588 30.1196 36.2588C30.4669 36.2588 30.8 36.1209 31.0456 35.8753C31.2912 35.6297 31.4291 35.2966 31.4291 34.9493V21.4176H33.1752C34.3328 21.4176 35.4431 20.9577 36.2617 20.1391C37.0803 19.3205 37.5402 18.2103 37.5402 17.0526C37.5402 15.8949 37.0803 14.7846 36.2617 13.966C35.4431 13.1474 34.3328 12.6875 33.1752 12.6875ZM20.08 17.0526C20.08 16.5895 20.2639 16.1454 20.5914 15.8179C20.9188 15.4905 21.3629 15.3065 21.826 15.3065C22.2891 15.3065 22.7332 15.4905 23.0606 15.8179C23.3881 16.1454 23.572 16.5895 23.572 17.0526V18.7986H21.826C21.3631 18.7981 20.9192 18.614 20.5919 18.2867C20.2645 17.9593 20.0804 17.5155 20.08 17.0526ZM33.1752 18.7986H31.4291V17.0526C31.4291 16.7072 31.5315 16.3697 31.7234 16.0825C31.9152 15.7954 32.1879 15.5716 32.507 15.4394C32.826 15.3073 33.1771 15.2727 33.5158 15.3401C33.8545 15.4075 34.1656 15.5738 34.4098 15.8179C34.654 16.0621 34.8203 16.3732 34.8876 16.7119C34.955 17.0506 34.9204 17.4017 34.7883 17.7207C34.6561 18.0398 34.4323 18.3125 34.1452 18.5043C33.8581 18.6962 33.5205 18.7986 33.1752 18.7986Z" fill="#060E28"/>
<path d="M3.92856 19.6719H1.30952C0.962213 19.6719 0.629132 19.8098 0.383549 20.0554C0.137967 20.301 0 20.6341 0 20.9814C0 21.3287 0.137967 21.6618 0.383549 21.9074C0.629132 22.1529 0.962213 22.2909 1.30952 22.2909H3.92856C4.27586 22.2909 4.60894 22.1529 4.85453 21.9074C5.10011 21.6618 5.23807 21.3287 5.23807 20.9814C5.23807 20.6341 5.10011 20.301 4.85453 20.0554C4.60894 19.8098 4.27586 19.6719 3.92856 19.6719Z" fill="#060E28"/>
<path d="M53.6903 18.7988H51.0712C50.7239 18.7988 50.3908 18.9368 50.1453 19.1824C49.8997 19.428 49.7617 19.761 49.7617 20.1083C49.7617 20.4557 49.8997 20.7887 50.1453 21.0343C50.3908 21.2799 50.7239 21.4179 51.0712 21.4179H53.6903C54.0376 21.4179 54.3707 21.2799 54.6162 21.0343C54.8618 20.7887 54.9998 20.4557 54.9998 20.1083C54.9998 19.761 54.8618 19.428 54.6162 19.1824C54.3707 18.9368 54.0376 18.7988 53.6903 18.7988Z" fill="#060E28"/>
<path d="M10.215 36.5944L8.36286 38.4462C8.24088 38.5677 8.14407 38.7121 8.07795 38.871C8.01183 39.03 7.97771 39.2004 7.97754 39.3726C7.97737 39.5448 8.01116 39.7153 8.07696 39.8744C8.14277 40.0335 8.23931 40.178 8.36105 40.2997C8.48279 40.4215 8.62734 40.518 8.78643 40.5838C8.94553 40.6496 9.11603 40.6834 9.2882 40.6833C9.46037 40.6831 9.63081 40.649 9.78977 40.5828C9.94874 40.5167 10.0931 40.4199 10.2146 40.2979L12.0668 38.4462C12.1884 38.3246 12.2848 38.1803 12.3506 38.0214C12.4164 37.8625 12.4503 37.6923 12.4503 37.5203C12.4503 37.3484 12.4164 37.1781 12.3506 37.0192C12.2848 36.8604 12.1884 36.716 12.0668 36.5944C11.9452 36.4729 11.8008 36.3764 11.642 36.3106C11.4831 36.2448 11.3129 36.2109 11.1409 36.2109C10.969 36.2109 10.7987 36.2448 10.6398 36.3106C10.481 36.3764 10.3366 36.4729 10.215 36.5944Z" fill="#060E28"/>
<path d="M44.7851 4.08742L46.6372 2.23525C46.8828 1.9897 47.0207 1.65665 47.0207 1.30938C47.0207 0.962114 46.8828 0.629067 46.6372 0.383511C46.3917 0.137954 46.0586 8.18612e-07 45.7114 0C45.3641 -8.18604e-07 45.031 0.137951 44.7855 0.383506L42.9333 2.23565C42.8117 2.35723 42.7153 2.50158 42.6495 2.66044C42.5837 2.8193 42.5498 2.98957 42.5498 3.16152C42.5498 3.50879 42.6878 3.84183 42.9333 4.08739C43.1789 4.33294 43.5119 4.47089 43.8592 4.47089C44.2065 4.47089 44.5395 4.33298 44.7851 4.08742Z" fill="#060E28"/>
<path d="M9.59798 4.08742C9.71957 4.209 9.86392 4.30545 10.0228 4.37125C10.1816 4.43706 10.3519 4.47092 10.5239 4.47092C10.6958 4.47092 10.8661 4.43705 11.0249 4.37124C11.1838 4.30544 11.3281 4.20899 11.4497 4.0874C11.5713 3.96581 11.6678 3.82147 11.7336 3.6626C11.7994 3.50374 11.8332 3.33347 11.8332 3.16152C11.8332 2.98957 11.7994 2.8193 11.7336 2.66044C11.6678 2.50158 11.5713 2.35723 11.4497 2.23565L9.59755 0.383506C9.47597 0.261919 9.33162 0.165471 9.17276 0.0996694C9.0139 0.0338673 8.84363 -4.0533e-07 8.67168 0C8.32441 8.18612e-07 7.99137 0.137954 7.74581 0.383511C7.50025 0.629067 7.3623 0.962114 7.3623 1.30938C7.36231 1.65665 7.50026 1.9897 7.74581 2.23525L9.59798 4.08742Z" fill="#060E28"/>
<path d="M45.4013 35.9773C45.1557 35.7317 44.8227 35.5937 44.4754 35.5938C44.1281 35.5938 43.7951 35.7317 43.5495 35.9773C43.304 36.2228 43.166 36.5559 43.166 36.9031C43.166 37.2504 43.304 37.5834 43.5495 37.829L45.4017 39.6807C45.5232 39.8027 45.6676 39.8995 45.8265 39.9657C45.9855 40.0318 46.1559 40.0659 46.3281 40.0661C46.5003 40.0662 46.6708 40.0324 46.8299 39.9666C46.989 39.9008 47.1335 39.8043 47.2552 39.6826C47.377 39.5608 47.4735 39.4163 47.5393 39.2572C47.6051 39.0981 47.6389 38.9276 47.6388 38.7554C47.6386 38.5832 47.6045 38.4128 47.5383 38.2538C47.4722 38.0949 47.3754 37.9505 47.2534 37.829L45.4013 35.9773Z" fill="#060E28"/>
</svg>
