<svg width="12" height="20" viewBox="0 0 12 20" fill="none" xmlns="http://www.w3.org/2000/svg">
<path d="M11.1317 0.00416134L8.52321 0C5.59269 0 3.69886 1.9319 3.69886 4.92203V7.19141H1.07617C0.849539 7.19141 0.666016 7.37409 0.666016 7.59943V10.8875C0.666016 11.1128 0.849749 11.2953 1.07617 11.2953H3.69886V19.5922C3.69886 19.8175 3.88238 20 4.10902 20H7.53088C7.75751 20 7.94104 19.8173 7.94104 19.5922V11.2953H11.0076C11.2342 11.2953 11.4177 11.1128 11.4177 10.8875L11.419 7.59943C11.419 7.49124 11.3757 7.38762 11.2989 7.31105C11.2221 7.23448 11.1174 7.19141 11.0086 7.19141H7.94104V5.26763C7.94104 4.34298 8.16265 3.87358 9.37407 3.87358L11.1312 3.87295C11.3577 3.87295 11.5412 3.69027 11.5412 3.46514V0.411972C11.5412 0.187052 11.3579 0.00457747 11.1317 0.00416134Z" fill="#060E28"/>
</svg>
