<svg width="70" height="70" viewBox="0 0 70 70" fill="none" xmlns="http://www.w3.org/2000/svg">
<path d="M66.6133 31.6133H51.9359V16.9359C51.9349 16.0379 51.5778 15.177 50.9428 14.542C50.3078 13.907 49.4468 13.5498 48.5488 13.5488H35.0004C34.1024 13.5498 33.2415 13.907 32.6065 14.542C31.9715 15.177 31.6143 16.0379 31.6133 16.9359V31.6133H16.9359C16.0379 31.6143 15.177 31.9715 14.542 32.6065C13.907 33.2415 13.5498 34.1024 13.5488 35.0004V48.5488C13.5498 49.4468 13.907 50.3078 14.542 50.9428C15.177 51.5778 16.0379 51.9349 16.9359 51.9359H31.6133V66.6133C31.6143 67.5114 31.9715 68.3723 32.6065 69.0073C33.2415 69.6423 34.1024 69.9995 35.0004 70.0004H48.5488C49.4468 69.9995 50.3078 69.6423 50.9428 69.0073C51.5778 68.3723 51.9349 67.5114 51.9359 66.6133V51.9359H66.6133C67.5114 51.9349 68.3723 51.5778 69.0073 50.9428C69.6423 50.3078 69.9995 49.4468 70.0004 48.5488V35.0004C69.9995 34.1024 69.6423 33.2415 69.0073 32.6065C68.3723 31.9715 67.5114 31.6143 66.6133 31.6133Z" fill="#1263FF" fill-opacity="0.4"/>
<path d="M52.4749 20.1818C52.8582 18.6268 53.0561 17.032 53.0645 15.4305C53.0645 6.7775 47.3615 0 40.0806 0C37.8089 0.0206015 35.5695 0.540294 33.5209 1.52229C31.4724 2.50429 29.6647 3.92459 28.2258 5.68264C26.787 3.92459 24.9793 2.50429 22.9307 1.52229C20.8821 0.540294 18.6427 0.0206015 16.371 0C9.09014 0 3.3871 6.7775 3.3871 15.4305C3.40032 17.4729 3.71674 19.5021 4.326 21.4516H1.12903C0.829594 21.4516 0.54242 21.5706 0.330686 21.7823C0.118951 21.994 0 22.2812 0 22.5806C0 22.8801 0.118951 23.1673 0.330686 23.379C0.54242 23.5907 0.829594 23.7097 1.12903 23.7097H5.1406C7.73285 29.9044 13.8679 37.6298 27.6933 45.0279C27.8571 45.1155 28.04 45.1613 28.2258 45.1613C28.4116 45.1613 28.5945 45.1155 28.7583 45.0279C33.1105 42.7455 37.2134 40.0166 41.0009 36.8853C43.2173 38.2449 45.871 38.7016 48.4144 38.1612C50.9578 37.6209 53.1966 36.1247 54.6688 33.9815C56.1411 31.8383 56.7343 29.2117 56.326 26.6438C55.9178 24.0759 54.5392 21.7628 52.4749 20.1818ZM5.64516 15.4305C5.64516 7.92087 10.2561 2.25806 16.371 2.25806C18.5274 2.29437 20.6434 2.84959 22.5398 3.87674C24.4363 4.90389 26.0574 6.37274 27.266 8.15902C27.3744 8.31282 27.5182 8.43832 27.6852 8.52495C27.8522 8.61158 28.0376 8.6568 28.2258 8.6568C28.414 8.6568 28.5994 8.61158 28.7664 8.52495C28.9334 8.43832 29.0772 8.31282 29.1856 8.15902C30.4038 6.38218 32.027 4.92045 33.9214 3.89445C35.8157 2.86844 37.9269 2.30755 40.0806 2.25806C46.1955 2.25806 50.8064 7.92087 50.8064 15.4305C50.8023 16.6163 50.6799 17.7988 50.4408 18.9603C48.4793 18.074 46.2859 17.8376 44.1807 18.2858C42.0754 18.734 40.1684 19.8432 38.7381 21.4516H28.2258C28.0048 21.4516 27.7887 21.5164 27.6042 21.6381C27.4198 21.7599 27.2751 21.9331 27.1883 22.1363L25.0664 27.0857L20.2812 9.85918C20.2149 9.62109 20.0723 9.41134 19.8753 9.2621C19.6783 9.11286 19.4378 9.03238 19.1906 9.033C18.9435 9.03363 18.7034 9.11532 18.5071 9.26556C18.3109 9.4158 18.1693 9.62627 18.1042 9.86469L14.9442 21.4516H6.69184C6.01462 19.5157 5.66099 17.4814 5.64516 15.4305ZM28.2258 42.75C15.9349 36.0674 10.1837 29.2546 7.60071 23.7097H15.8065C16.0542 23.7097 16.2951 23.6282 16.492 23.4778C16.6889 23.3274 16.8307 23.1163 16.8958 22.8772L19.2035 14.4161L23.7511 30.7859C23.8137 31.0112 23.9447 31.2115 24.126 31.359C24.3073 31.5066 24.53 31.5943 24.7633 31.6099C24.9966 31.6255 25.2289 31.5683 25.4283 31.4462C25.6277 31.3241 25.7842 31.1431 25.8763 30.9282L28.97 23.7097H37.2012C36.24 25.6259 35.9134 27.7983 36.2687 29.9125C36.6239 32.0267 37.6425 33.973 39.1772 35.47C35.7679 38.2413 32.1007 40.6791 28.2258 42.75ZM46.2903 36.129C44.7272 36.129 43.1992 35.6655 41.8995 34.7971C40.5998 33.9287 39.5869 32.6944 38.9887 31.2502C38.3905 29.8061 38.234 28.217 38.539 26.684C38.8439 25.1509 39.5966 23.7427 40.7019 22.6374C41.8072 21.5321 43.2154 20.7794 44.7485 20.4744C46.2816 20.1695 47.8706 20.326 49.3148 20.9242C50.7589 21.5224 51.9932 22.5353 52.8616 23.835C53.73 25.1347 54.1936 26.6627 54.1936 28.2258C54.1911 30.3211 53.3577 32.3299 51.876 33.8115C50.3944 35.2931 48.3856 36.1266 46.2903 36.129Z" fill="#060E28"/>
<path d="M49.6767 27.0971H47.4186V24.839C47.4186 24.5396 47.2996 24.2524 47.0879 24.0406C46.8762 23.8289 46.589 23.71 46.2896 23.71C45.9901 23.71 45.703 23.8289 45.4912 24.0406C45.2795 24.2524 45.1605 24.5396 45.1605 24.839V27.0971H42.9025C42.603 27.0971 42.3159 27.216 42.1041 27.4277C41.8924 27.6395 41.7734 27.9267 41.7734 28.2261C41.7734 28.5255 41.8924 28.8127 42.1041 29.0244C42.3159 29.2362 42.603 29.3551 42.9025 29.3551H45.1605V31.6132C45.1605 31.9126 45.2795 32.1998 45.4912 32.4115C45.703 32.6233 45.9901 32.7422 46.2896 32.7422C46.589 32.7422 46.8762 32.6233 47.0879 32.4115C47.2996 32.1998 47.4186 31.9126 47.4186 31.6132V29.3551H49.6767C49.9761 29.3551 50.2633 29.2362 50.475 29.0244C50.6867 28.8127 50.8057 28.5255 50.8057 28.2261C50.8057 27.9267 50.6867 27.6395 50.475 27.4277C50.2633 27.216 49.9761 27.0971 49.6767 27.0971Z" fill="#060E28"/>
</svg>
