<svg width="70" height="70" viewBox="0 0 70 70" fill="none" xmlns="http://www.w3.org/2000/svg">
<path d="M45.1612 50.8068C50.1496 50.8068 54.1935 46.7629 54.1935 41.7745C54.1935 36.7861 50.1496 32.7422 45.1612 32.7422C40.1728 32.7422 36.1289 36.7861 36.1289 41.7745C36.1289 46.7629 40.1728 50.8068 45.1612 50.8068Z" fill="#1263FF" fill-opacity="0.4"/>
<path d="M51.9068 50.8066C49.9634 52.2721 47.5955 53.0647 45.1615 53.0647C42.7274 53.0647 40.3596 52.2721 38.4161 50.8066C37.0073 51.8541 35.8627 53.2162 35.0736 54.7844C34.2845 56.3526 33.8727 58.0834 33.8711 59.839V70.0003H56.4519V59.839C56.4502 58.0834 56.0384 56.3526 55.2493 54.7844C54.4602 53.2162 53.3156 51.8541 51.9068 50.8066Z" fill="#1263FF" fill-opacity="0.4"/>
<path d="M67.7423 47.419C67.7422 46.0043 67.4098 44.6094 66.7719 43.3467C66.134 42.0839 65.2084 40.9887 64.0697 40.1491C62.931 39.3096 61.6111 38.7493 60.2162 38.5133C58.8213 38.2773 57.3904 38.3722 56.0389 38.7905C56.5452 40.5992 56.5867 42.5065 56.1596 44.3355C55.7325 46.1645 54.8507 47.8562 53.5957 49.2536C55.8828 51.0803 57.5186 53.5969 58.2595 56.4285C59.4815 56.4911 60.7034 56.3045 61.851 55.88C62.9985 55.4555 64.0477 54.802 64.9348 53.9592C65.8218 53.1165 66.5281 52.102 67.0108 50.9777C67.4934 49.8534 67.7423 48.6426 67.7423 47.419Z" fill="#1263FF" fill-opacity="0.4"/>
<path d="M36.7267 49.2536C35.4717 47.8561 34.5898 46.1645 34.1627 44.3355C33.7356 42.5064 33.7771 40.5991 34.2834 38.7904C33.0236 38.3994 31.6934 38.2893 30.3864 38.4678C29.0794 38.6462 27.8274 39.1089 26.7185 39.8233C25.6096 40.5378 24.6707 41.4865 23.9679 42.6028C23.2651 43.7192 22.8156 44.9759 22.6508 46.2847C22.486 47.5935 22.6101 48.9225 23.0142 50.1782C23.4183 51.4339 24.0928 52.5857 24.99 53.5527C25.8872 54.5197 26.9855 55.2783 28.2074 55.7751C29.4294 56.272 30.7454 56.495 32.0628 56.4285C32.8038 53.5968 34.4396 51.0803 36.7267 49.2536Z" fill="#1263FF" fill-opacity="0.4"/>
<path d="M58.7071 70.0003H58.7103L58.707 69.9639L58.7071 70.0003Z" fill="#1263FF" fill-opacity="0.4"/>
<path d="M65.4563 56.4512C63.5126 57.9156 61.1446 58.7066 58.7109 58.7041C58.7122 60.132 58.7115 59.2928 58.7109 69.9996H68.8723C69.0206 69.9997 69.1674 69.9705 69.3044 69.9138C69.4414 69.857 69.5659 69.7739 69.6707 69.669C69.7756 69.5642 69.8587 69.4397 69.9155 69.3027C69.9722 69.1657 70.0014 69.0189 70.0013 68.8706V65.4835C69.9997 63.728 69.5879 61.9971 68.7988 60.4289C68.0097 58.8607 66.8651 57.4986 65.4563 56.4512Z" fill="#1263FF" fill-opacity="0.4"/>
<path d="M31.6165 70.0003H31.6133L31.6166 69.9639L31.6165 70.0003Z" fill="#1263FF" fill-opacity="0.4"/>
<path d="M24.8673 56.4512C26.811 57.9156 29.179 58.7066 31.6127 58.7041C31.6114 60.132 31.6121 59.2928 31.6127 69.9996H21.4513C21.303 69.9997 21.1562 69.9705 21.0192 69.9138C20.8822 69.857 20.7577 69.7739 20.6529 69.669C20.548 69.5642 20.4649 69.4397 20.4081 69.3027C20.3514 69.1657 20.3222 69.0189 20.3223 68.8706V65.4835C20.3239 63.728 20.7357 61.9971 21.5248 60.4289C22.3139 58.8607 23.4585 57.4986 24.8673 56.4512Z" fill="#1263FF" fill-opacity="0.4"/>
<path d="M54.9326 6.84179C34.8436 14.2436 29.4967 1.27361 29.28 0.72176C29.1977 0.509494 29.0533 0.327023 28.8656 0.198238C28.6778 0.0694536 28.4556 0.000358915 28.2279 1.39449e-06C28.0003 -0.000356126 27.7778 0.0680402 27.5897 0.196234C27.4015 0.324429 27.2565 0.506446 27.1736 0.718452C26.9552 1.27361 21.6039 14.2408 1.51935 6.84179C1.34867 6.77898 1.16534 6.75832 0.984963 6.78157C0.804583 6.80482 0.632487 6.87129 0.483311 6.97532C0.334135 7.07936 0.212292 7.21789 0.128145 7.37912C0.0439985 7.54035 3.70097e-05 7.71953 0 7.9014C0 8.28179 0.318096 46.0627 27.8296 56.3798C28.0852 56.4754 28.3667 56.4754 28.6223 56.3798C56.1339 46.0627 56.4519 8.28179 56.4519 7.9014C56.4519 7.71954 56.4079 7.54039 56.3237 7.37917C56.2396 7.21796 56.1177 7.07945 55.9686 6.97542C55.8194 6.87139 55.6473 6.80492 55.467 6.78165C55.2866 6.75839 55.1033 6.77902 54.9326 6.84179ZM33.2762 35.9008C35.2198 34.7876 36.7412 33.0634 37.6037 30.9962C38.4663 28.9291 38.6216 26.6349 38.0457 24.4703C37.4697 22.3057 36.1947 20.3922 34.4188 19.0271C32.643 17.662 30.4659 16.9219 28.226 16.9219C25.9861 16.9219 23.809 17.662 22.0332 19.0271C20.2574 20.3922 18.9823 22.3057 18.4064 24.4703C17.8304 26.6349 17.9858 28.9291 18.8483 30.9962C19.7108 33.0634 21.2322 34.7876 23.1759 35.9008C20.8096 36.7692 18.7067 38.2322 17.0697 40.1489C10.8948 32.1563 8.43373 21.8287 7.47221 15.4372C15.0677 16.6759 22.5353 15.4087 28.2266 10.3679C33.916 15.4062 41.3797 16.6766 48.9798 15.4372C48.0168 21.8362 45.5552 32.1591 39.383 40.1496C37.7459 38.2325 35.6428 36.7693 33.2762 35.9008ZM28.226 34.9991C26.6628 34.9992 25.1347 34.5357 23.835 33.6673C22.5352 32.7988 21.5221 31.5645 20.9239 30.1203C20.3257 28.6761 20.1691 27.087 20.4741 25.5539C20.779 24.0207 21.5317 22.6124 22.637 21.5071C23.7423 20.4017 25.1506 19.649 26.6838 19.344C28.2169 19.039 29.806 19.1955 31.2502 19.7937C32.6944 20.3919 33.9288 21.4049 34.7973 22.7046C35.6657 24.0044 36.1292 25.5324 36.1292 27.0956C36.1269 29.191 35.2935 31.1999 33.8119 32.6816C32.3302 34.1633 30.3214 34.9967 28.226 34.9991ZM28.226 54.114C23.7282 52.3608 19.6652 49.6513 16.318 46.1728C17.0731 43.5997 18.6414 41.3404 20.7881 39.7331C22.9348 38.1259 25.5443 37.2573 28.226 37.2573C30.9076 37.2573 33.5172 38.1259 35.6638 39.7331C37.8105 41.3404 39.3788 43.5997 40.1339 46.1728C36.7868 49.6513 32.7237 52.3608 28.226 54.114ZM41.8622 44.2687C41.5582 43.4992 41.1892 42.7568 40.7592 42.0498C48.0965 32.8957 50.5995 20.7101 51.4336 14.1863C51.4563 14.008 51.4362 13.827 51.3749 13.6581C51.3136 13.4892 51.2129 13.3373 51.0811 13.2152C50.9494 13.093 50.7904 13.004 50.6174 12.9557C50.4443 12.9073 50.2622 12.9009 50.0862 12.937C41.281 14.747 34.0774 12.9943 29.0182 8.01938C28.807 7.81164 28.5227 7.69521 28.2265 7.69521C27.9303 7.69521 27.646 7.81164 27.4349 8.01938C22.3768 12.9938 15.1715 14.7492 6.36572 12.937C6.18973 12.901 6.00768 12.9074 5.83469 12.9559C5.66169 13.0043 5.50273 13.0932 5.371 13.2154C5.23927 13.3375 5.13856 13.4893 5.07723 13.6582C5.01591 13.827 4.99573 14.0081 5.01837 14.1863C5.85041 20.699 8.34982 32.8951 15.6917 42.0515C15.2623 42.7581 14.8936 43.4998 14.5897 44.2688C4.36579 32.1708 2.61441 14.8343 2.31817 9.51231C18.5249 14.8511 25.754 7.25249 28.226 3.46231C30.6985 7.25362 37.9309 14.8534 54.1338 9.51233C53.8375 14.8343 52.0862 32.1708 41.8622 44.2687Z" fill="#060E28"/>
</svg>
