<svg width="55" height="55" viewBox="0 0 55 55" fill="none" xmlns="http://www.w3.org/2000/svg">
<path d="M49.6777 45.2422H55.0003V48.7906H49.6777V45.2422Z" fill="#1263FF" fill-opacity="0.4"/>
<path d="M49.6777 34.5967H55.0003V38.1451H49.6777V34.5967Z" fill="#1263FF" fill-opacity="0.4"/>
<path d="M49.6777 39.9189H55.0003V43.4673H49.6777V39.9189Z" fill="#1263FF" fill-opacity="0.4"/>
<path d="M24.8379 39.9189H29.2734V43.4673H24.8379V39.9189Z" fill="#1263FF" fill-opacity="0.4"/>
<path d="M39.9191 41.6937C41.3889 41.6937 42.5804 40.5022 42.5804 39.0324C42.5804 37.5626 41.3889 36.3711 39.9191 36.3711C38.4493 36.3711 37.2578 37.5626 37.2578 39.0324C37.2578 40.5022 38.4493 41.6937 39.9191 41.6937Z" fill="#1263FF" fill-opacity="0.4"/>
<path d="M53.225 28.3874H50.5637V21.6024C50.595 18.9161 49.6287 16.3137 47.852 14.2986C46.0752 12.2836 43.6142 10.9992 40.9451 10.6939C39.4678 10.5526 37.9772 10.7214 36.5689 11.1895C35.1606 11.6576 33.8656 12.4147 32.7668 13.4123C31.668 14.4098 30.7897 15.6259 30.1882 16.9826C29.5866 18.3392 29.275 19.8066 29.2734 21.2907V28.3874H26.6121C26.1415 28.3874 25.6903 28.5744 25.3575 28.9071C25.0248 29.2398 24.8379 29.6911 24.8379 30.1616V32.8229H30.1605C30.3957 32.8229 30.6214 32.9164 30.7877 33.0828C30.9541 33.2491 31.0476 33.4748 31.0476 33.71V49.6778C31.0476 49.913 30.9541 50.1387 30.7877 50.305C30.6214 50.4714 30.3957 50.5649 30.1605 50.5649H24.8379V53.2262C24.8379 53.6967 25.0248 54.148 25.3575 54.4807C25.6903 54.8134 26.1415 55.0003 26.6121 55.0003H53.225C53.6955 55.0003 54.1468 54.8134 54.4795 54.4807C54.8123 54.148 54.9992 53.6967 54.9992 53.2262V50.5649H48.7895C48.5542 50.5649 48.3286 50.4714 48.1622 50.305C47.9959 50.1387 47.9024 49.913 47.9024 49.6778V33.71C47.9024 33.4748 47.9959 33.2491 48.1622 33.0828C48.3286 32.9164 48.5542 32.8229 48.7895 32.8229H54.9992V30.1616C54.9992 29.6911 54.8123 29.2398 54.4795 28.9071C54.1468 28.5744 53.6955 28.3874 53.225 28.3874ZM32.8218 21.2907C32.8218 19.4085 33.5695 17.6034 34.9004 16.2725C36.2313 14.9416 38.0364 14.1939 39.9185 14.1939C41.8007 14.1939 43.6058 14.9416 44.9367 16.2725C46.2676 17.6034 47.0153 19.4085 47.0153 21.2907V28.3874H32.8218V21.2907ZM40.8056 43.3784V49.6778C40.8056 49.913 40.7122 50.1387 40.5458 50.305C40.3794 50.4714 40.1538 50.5649 39.9185 50.5649C39.6833 50.5649 39.4576 50.4714 39.2913 50.305C39.1249 50.1387 39.0314 49.913 39.0314 49.6778V43.3784C37.9545 43.1586 36.9975 42.5467 36.346 41.6614C35.6946 40.7761 35.395 39.6804 35.5055 38.5868C35.616 37.4931 36.1286 36.4795 36.944 35.7424C37.7593 35.0052 38.8194 34.5971 39.9185 34.5971C41.0177 34.5971 42.0777 35.0052 42.8931 35.7424C43.7085 36.4795 44.2211 37.4931 44.3316 38.5868C44.442 39.6804 44.1425 40.7761 43.4911 41.6614C42.8396 42.5467 41.8826 43.1586 40.8056 43.3784Z" fill="#1263FF" fill-opacity="0.4"/>
<path d="M24.8379 34.5967H29.2734V38.1451H24.8379V34.5967Z" fill="#1263FF" fill-opacity="0.4"/>
<path d="M24.8379 45.2422H29.2734V48.7906H24.8379V45.2422Z" fill="#1263FF" fill-opacity="0.4"/>
<path d="M43.4678 7.07686H36.371C33.7555 7.07068 31.1769 6.45879 28.8375 5.28915C26.498 4.1195 24.4613 2.4239 22.8869 0.335265C22.8008 0.23044 22.6925 0.146006 22.5698 0.088036C22.4471 0.030066 22.3131 0 22.1774 0C22.0417 0 21.9078 0.030066 21.7851 0.088036C21.6624 0.146006 21.5541 0.23044 21.4679 0.335265C19.8936 2.4239 17.8568 4.1195 15.5174 5.28915C13.178 6.45879 10.5994 7.07068 7.98389 7.07686H0.887111C0.770607 7.07682 0.655238 7.09975 0.547596 7.14432C0.439954 7.18889 0.342149 7.25423 0.259768 7.33661C0.177387 7.41899 0.112046 7.5168 0.067476 7.62444C0.0229063 7.73208 -1.76723e-05 7.84745 1.37966e-05 7.96395V13.9094C-0.00622874 20.632 2.1061 27.1856 6.03691 32.6393C9.96773 38.0929 15.5171 42.1692 21.8967 44.289C22.0789 44.3502 22.276 44.3502 22.4581 44.289C28.8377 42.1692 34.3871 38.0929 38.318 32.6393C42.2488 27.1856 44.3611 20.632 44.3549 13.9094V7.96395C44.3549 7.84745 44.332 7.73208 44.2874 7.62444C44.2428 7.5168 44.1775 7.41899 44.0951 7.33661C44.0127 7.25423 43.9149 7.18889 43.8073 7.14432C43.6996 7.09975 43.5843 7.07682 43.4678 7.07686ZM5.49542 28.418L11.3997 24.7276C12.194 24.8642 13.0075 24.8426 13.7934 24.6643C14.5794 24.486 15.3225 24.1544 15.9801 23.6885C15.9336 24.8109 16.194 25.9248 16.7333 26.9103C17.2726 27.8958 18.0703 28.7156 19.0407 29.2817L15.6511 31.4001C15.1938 31.6879 14.8343 32.1074 14.6201 32.6035C14.4059 33.0996 14.3471 33.649 14.4513 34.1792L15.4578 39.2121C11.2988 36.4895 7.8766 32.7816 5.49542 28.418ZM31.9355 23.0446C31.0582 23.0446 30.2007 22.7845 29.4713 22.2971C28.7419 21.8097 28.1734 21.117 27.8376 20.3065C27.5019 19.496 27.4141 18.6042 27.5852 17.7438C27.7564 16.8834 28.1788 16.0931 28.7991 15.4728C29.4195 14.8524 30.2098 14.43 31.0702 14.2589C31.9306 14.0877 32.8224 14.1756 33.6329 14.5113C34.4434 14.847 35.1361 15.4155 35.6235 16.1449C36.1109 16.8743 36.371 17.7319 36.371 18.6091C36.3696 19.7851 35.9019 20.9124 35.0703 21.7439C34.2388 22.5755 33.1114 23.0432 31.9355 23.0446ZM22.1774 28.3672C21.3002 28.3672 20.4426 28.107 19.7132 27.6197C18.9838 27.1323 18.4153 26.4396 18.0796 25.6291C17.7439 24.8186 17.656 23.9268 17.8272 23.0664C17.9983 22.206 18.4208 21.4156 19.0411 20.7953C19.6614 20.175 20.4517 19.7526 21.3121 19.5814C22.1725 19.4103 23.0643 19.4981 23.8748 19.8338C24.6853 20.1696 25.378 20.7381 25.8654 21.4675C26.3528 22.1969 26.6129 23.0544 26.6129 23.9317C26.6115 25.1076 26.1438 26.235 25.3123 27.0665C24.4808 27.898 23.3534 28.3658 22.1774 28.3672ZM7.98389 18.6091C7.98389 17.7319 8.24402 16.8743 8.7314 16.1449C9.21878 15.4155 9.9115 14.847 10.722 14.5113C11.5325 14.1756 12.4243 14.0877 13.2847 14.2589C14.1451 14.43 14.9354 14.8524 15.5557 15.4728C16.176 16.0931 16.5985 16.8834 16.7696 17.7438C16.9408 18.6042 16.8529 19.496 16.5172 20.3065C16.1815 21.117 15.613 21.8097 14.8836 22.2971C14.1542 22.7845 13.2966 23.0446 12.4194 23.0446C11.2434 23.0432 10.116 22.5755 9.28453 21.7439C8.45302 20.9124 7.98527 19.7851 7.98389 18.6091ZM22.1774 42.5113C20.5674 41.9541 19.0071 41.2622 17.5132 40.4431L16.1908 33.831C16.1562 33.6542 16.1759 33.4712 16.2473 33.3059C16.3188 33.1405 16.4386 33.0008 16.5911 32.9049L21.158 30.0502C21.8322 30.1717 22.5227 30.1717 23.1969 30.0502L27.7647 32.9057C27.9169 33.0015 28.0366 33.1412 28.1078 33.3064C28.1791 33.4716 28.1987 33.6544 28.164 33.8309L26.8417 40.4431C25.3477 41.2622 23.7875 41.9541 22.1774 42.5113ZM28.897 39.2121L29.9036 34.1792C30.0079 33.6492 29.9491 33.1001 29.7351 32.6041C29.521 32.1082 29.1618 31.6887 28.7046 31.401L25.3141 29.2817C26.2846 28.7157 27.0823 27.8959 27.6216 26.9104C28.1609 25.9248 28.4213 24.8109 28.3747 23.6885C29.0324 24.1544 29.7754 24.486 30.5614 24.6643C31.3474 24.8426 32.1608 24.8641 32.9551 24.7276L38.8594 28.418C36.4783 32.7816 33.0561 36.4894 28.897 39.2121ZM42.5807 13.9094C42.5784 18.3795 41.5838 22.7933 39.6687 26.8324L35.072 23.9593C36.0197 23.4046 36.8033 22.6084 37.3427 21.6518C37.882 20.6953 38.1579 19.6127 38.142 18.5147C38.1262 17.4167 37.8192 16.3426 37.2525 15.402C36.6858 14.4614 35.8796 13.6881 34.9162 13.161C33.9528 12.6339 32.8668 12.3719 31.7691 12.4017C30.6714 12.4316 29.6013 12.7523 28.668 13.331C27.7347 13.9097 26.9718 14.7257 26.457 15.6958C25.9423 16.6658 25.6942 17.755 25.7381 18.8523C24.6964 18.1168 23.4526 17.722 22.1774 17.722C20.9023 17.722 19.6584 18.1168 18.6168 18.8523C18.6611 17.7546 18.4132 16.6649 17.8985 15.6944C17.3838 14.7239 16.6208 13.9074 15.6873 13.3283C14.7537 12.7492 13.6833 12.4283 12.5851 12.3983C11.487 12.3683 10.4006 12.6303 9.43685 13.1576C8.47314 13.6849 7.66665 14.4586 7.09978 15.3996C6.53291 16.3406 6.22598 17.4152 6.21032 18.5136C6.19467 19.612 6.47086 20.6949 7.01068 21.6517C7.55051 22.6084 8.33461 23.4048 9.28292 23.9593L4.68613 26.8324C2.77105 22.7933 1.77649 18.3795 1.77421 13.9094V8.85105H7.98389C10.683 8.84445 13.3488 8.25447 15.7986 7.12151C18.2484 5.98856 20.4244 4.33941 22.1774 2.28706C23.9305 4.33941 26.1064 5.98856 28.5563 7.12151C31.0061 8.25447 33.6719 8.84445 36.371 8.85105H42.5807V13.9094Z" fill="#060E28"/>
</svg>
