<svg width="70" height="70" viewBox="0 0 70 70" fill="none" xmlns="http://www.w3.org/2000/svg">
<path d="M46.291 60.9678H37.2587C35.1634 60.9702 33.1546 61.8036 31.6729 63.2852C30.1913 64.7669 29.3579 66.7757 29.3555 68.871C29.3555 69.1705 29.4744 69.4576 29.6862 69.6694C29.8979 69.8811 30.1851 70.0001 30.4845 70.0001H53.0652C53.3647 70.0001 53.6519 69.8811 53.8636 69.6694C54.0753 69.4576 54.1943 69.1705 54.1943 68.871C54.1919 66.7757 53.3585 64.7669 51.8768 63.2852C50.3952 61.8036 48.3864 60.9702 46.291 60.9678Z" fill="#1263FF" fill-opacity="0.4"/>
<path d="M66.6136 29.3544H53.0651C50.2649 29.3511 47.5223 30.15 45.1619 31.6565V28.2253C45.1574 24.334 43.6096 20.6033 40.858 17.8517C38.1064 15.1001 34.3757 13.5523 30.4844 13.5479H16.9359C16.0376 13.5479 15.1761 13.9047 14.5409 14.5399C13.9057 15.1751 13.5488 16.0366 13.5488 16.935V21.4511C13.5533 25.3424 15.1011 29.0731 17.8527 31.8247C20.6043 34.5763 24.335 36.1241 28.2263 36.1286H38.3876V58.7093H45.1619V51.9351H55.3232C59.2145 51.9306 62.9452 50.3828 65.6968 47.6312C68.4484 44.8796 69.9962 41.149 70.0007 37.2576V32.7415C70.0007 31.8432 69.6438 30.9816 69.0086 30.3464C68.3734 29.7112 67.5119 29.3544 66.6136 29.3544ZM28.2263 31.6124C25.5323 31.6094 22.9494 30.5379 21.0445 28.633C19.1395 26.728 18.068 24.1451 18.065 21.4511C18.065 21.1517 18.1839 20.8645 18.3957 20.6528C18.6074 20.441 18.8946 20.3221 19.194 20.3221C19.4935 20.3221 19.7806 20.441 19.9924 20.6528C20.2041 20.8645 20.323 21.1517 20.323 21.4511C20.3254 23.5464 21.1589 25.5553 22.6405 27.0369C24.1221 28.5185 26.131 29.352 28.2263 29.3544C28.5257 29.3544 28.8129 29.4733 29.0247 29.6851C29.2364 29.8968 29.3553 30.184 29.3553 30.4834C29.3553 30.7828 29.2364 31.07 29.0247 31.2818C28.8129 31.4935 28.5257 31.6124 28.2263 31.6124ZM55.3232 47.419C55.0237 47.419 54.7366 47.3 54.5248 47.0883C54.3131 46.8765 54.1941 46.5894 54.1941 46.2899C54.1941 45.9905 54.3131 45.7033 54.5248 45.4916C54.7366 45.2798 55.0237 45.1609 55.3232 45.1609C57.4185 45.1585 59.4274 44.3251 60.909 42.8434C62.3906 41.3618 63.2241 39.353 63.2264 37.2576C63.2264 36.9582 63.3454 36.671 63.5571 36.4593C63.7689 36.2475 64.056 36.1286 64.3555 36.1286C64.6549 36.1286 64.9421 36.2475 65.1538 36.4593C65.3656 36.671 65.4845 36.9582 65.4845 37.2576C65.4815 39.9517 64.41 42.5345 62.505 44.4395C60.6001 46.3444 58.0172 47.416 55.3232 47.419Z" fill="#1263FF" fill-opacity="0.4"/>
<path d="M54.8712 16.3313L53.0648 15.1841V6.77396C53.0648 5.87564 52.7079 5.01411 52.0727 4.37891C51.4375 3.7437 50.576 3.38685 49.6777 3.38685H45.1615C44.2632 3.38685 43.4017 3.7437 42.7665 4.37891C42.1313 5.01411 41.7744 5.87564 41.7744 6.77396V7.99783L30.0324 0.522479C29.493 0.18118 28.8677 0 28.2294 0C27.591 0 26.9657 0.18118 26.4263 0.522479L1.58747 16.329C1.09852 16.6392 0.696349 17.0684 0.41869 17.5765C0.141032 18.0847 -0.00301915 18.655 4.83669e-05 19.234V21.4085C-0.00476043 22.3123 0.349184 23.181 0.984201 23.8241C1.61922 24.4671 2.48343 24.832 3.38716 24.8385V53.0645C3.38716 53.9628 3.74401 54.8243 4.37922 55.4595C5.01443 56.0947 5.87595 56.4516 6.77427 56.4516H49.6777C50.576 56.4516 51.4375 56.0947 52.0727 55.4595C52.7079 54.8243 53.0648 53.9628 53.0648 53.0645V24.8385C53.9681 24.832 54.832 24.4674 55.4669 23.8249C56.1019 23.1823 56.4561 22.3141 56.4519 21.4108V19.234C56.4553 18.656 56.3121 18.0866 56.0357 17.5789C55.7592 17.0713 55.3586 16.642 54.8712 16.3313ZM44.0325 6.77396C44.0325 6.47452 44.1514 6.18734 44.3632 5.97561C44.5749 5.76387 44.8621 5.64492 45.1615 5.64492H49.6777C49.9771 5.64492 50.2643 5.76387 50.476 5.97561C50.6877 6.18734 50.8067 6.47452 50.8067 6.77396V13.7503L44.0325 9.43509V6.77396ZM20.3227 54.1935V46.2902C20.3227 44.1942 21.1554 42.1839 22.6375 40.7018C24.1197 39.2196 26.1299 38.387 28.226 38.387C30.322 38.387 32.3323 39.2196 33.8144 40.7018C35.2966 42.1839 36.1292 44.1942 36.1292 46.2902V54.1935H20.3227ZM50.8067 53.0645C50.8067 53.3639 50.6877 53.6511 50.476 53.8628C50.2643 54.0745 49.9771 54.1935 49.6777 54.1935H38.3873V46.2902C38.3873 43.5953 37.3167 41.0107 35.4111 39.1051C33.5055 37.1995 30.9209 36.1289 28.226 36.1289C25.531 36.1289 22.9464 37.1995 21.0408 39.1051C19.1352 41.0107 18.0646 43.5953 18.0646 46.2902V54.1935H6.77427C6.47483 54.1935 6.18765 54.0745 5.97592 53.8628C5.76418 53.6511 5.64523 53.3639 5.64523 53.0645V24.8385H50.8067V53.0645ZM54.1938 21.4085C54.1967 21.5596 54.1697 21.7098 54.1145 21.8505C54.0593 21.9911 53.9769 22.1196 53.8721 22.2284C53.7672 22.3372 53.642 22.4243 53.5034 22.4847C53.3649 22.5451 53.2159 22.5777 53.0648 22.5805H3.38716C3.08241 22.5748 2.79236 22.4485 2.58067 22.2292C2.36899 22.0099 2.25298 21.7155 2.25812 21.4108V19.234C2.25767 19.0358 2.30682 18.8407 2.40108 18.6664C2.49534 18.492 2.63172 18.3441 2.7978 18.2359L27.6366 2.42942C27.8121 2.31556 28.0168 2.25497 28.226 2.25497C28.4351 2.25497 28.6398 2.31556 28.8153 2.42942L53.6541 18.2359C53.8202 18.3441 53.9566 18.492 54.0508 18.6664C54.1451 18.8407 54.1943 19.0358 54.1938 19.234V21.4085Z" fill="#060E28"/>
</svg>
