<svg width="55" height="55" viewBox="0 0 55 55" fill="none" xmlns="http://www.w3.org/2000/svg">
<path d="M32.7612 46.4766C29.0265 46.4766 27.6843 42.6522 26.8274 42.0268C26.2207 41.749 25.59 41.5269 24.9431 41.3633L21.2705 49.2399C21.2027 49.3854 21.1757 49.5465 21.1922 49.7062C21.2088 49.8659 21.2684 50.018 21.3646 50.1465C21.4609 50.2749 21.5901 50.3749 21.7387 50.4357C21.8873 50.4964 22.0495 50.5158 22.2082 50.4916L27.9469 49.6143L30.9631 54.575C31.0467 54.7121 31.166 54.824 31.3083 54.8986C31.4505 54.9733 31.6104 55.0079 31.7707 54.9988C31.9311 54.9897 32.086 54.9372 32.2189 54.8469C32.3518 54.7566 32.4577 54.632 32.5252 54.4862L36.7053 45.5203C35.4459 46.0346 34.1164 46.357 32.7612 46.4766Z" fill="#1263FF" fill-opacity="0.4"/>
<path d="M43.2911 46.2388C44.7921 45.626 46.0424 44.5245 46.8395 43.1127C47.7869 41.7421 47.5439 42.0126 49.5745 41.3633L53.2471 49.2399C53.3149 49.3854 53.3419 49.5465 53.3254 49.7062C53.3088 49.8659 53.2492 50.018 53.153 50.1465C53.0568 50.2749 52.9275 50.3749 52.7789 50.4357C52.6304 50.4964 52.4681 50.5158 52.3094 50.4916L46.5734 49.6143L43.5572 54.575C43.4736 54.7121 43.3543 54.824 43.212 54.8986C43.0698 54.9733 42.9099 55.0079 42.7495 54.9988C42.5892 54.9897 42.4343 54.9372 42.3014 54.8469C42.1685 54.7566 42.0626 54.632 41.995 54.4862L37.8105 45.5229C39.2406 45.9283 41.1496 46.9281 43.2911 46.2388Z" fill="#1263FF" fill-opacity="0.4"/>
<path d="M37.2594 19.5166C35.646 19.5164 34.0688 19.9947 32.7273 20.8909C31.3858 21.7872 30.3401 23.0611 29.7226 24.5516C29.1052 26.0421 28.9435 27.6823 29.2583 29.2647C29.573 30.847 30.3499 32.3006 31.4907 33.4414C32.6315 34.5822 34.085 35.3591 35.6674 35.6738C37.2498 35.9885 38.8899 35.8269 40.3804 35.2094C41.871 34.5919 43.1449 33.5463 44.0411 32.2047C44.9374 30.8632 45.4156 29.286 45.4155 27.6727C45.414 25.51 44.5543 23.4363 43.025 21.907C41.4958 20.3778 39.4221 19.518 37.2594 19.5166ZM37.2594 33.8824C37.0241 33.8824 36.7985 33.7889 36.6321 33.6226C36.4658 33.4562 36.3723 33.2306 36.3723 32.9953C36.3723 32.76 36.4658 32.5344 36.6321 32.368C36.7985 32.2017 37.0241 32.1082 37.2594 32.1082C38.4353 32.1068 39.5627 31.639 40.3942 30.8075C41.2258 29.976 41.6935 28.8486 41.6949 27.6727C41.6949 27.4374 41.7884 27.2117 41.9548 27.0454C42.1211 26.879 42.3468 26.7856 42.582 26.7856C42.8173 26.7856 43.043 26.879 43.2093 27.0454C43.3757 27.2117 43.4691 27.4374 43.4691 27.6727C43.4673 29.319 42.8124 30.8974 41.6483 32.0615C40.4841 33.2257 38.9058 33.8805 37.2594 33.8824Z" fill="#1263FF" fill-opacity="0.4"/>
<path d="M53.4741 24.3735C52.335 22.8805 52.2614 22.688 52.2995 20.7213C52.4546 19.5179 52.2132 18.2968 51.612 17.243C50.79 16.3402 49.6958 15.7303 48.4956 15.506C46.6327 14.9436 46.4686 14.8185 45.3792 13.2439C44.7926 12.1602 43.8659 11.2996 42.7418 10.7946C41.5673 10.5489 40.3446 10.697 39.2626 11.216C37.3846 11.8653 37.1336 11.868 35.2529 11.216C34.1711 10.6967 32.9482 10.5486 31.7737 10.7946C30.6502 11.2996 29.7238 12.1599 29.1372 13.243C28.0469 14.8176 27.8837 14.9427 26.0208 15.506C24.8201 15.7296 23.7254 16.3396 22.9035 17.243C22.3027 18.2967 22.0613 19.5174 22.216 20.7204C22.2532 22.6836 22.1805 22.8805 21.0406 24.3735C20.1826 25.2752 19.6466 26.435 19.5156 27.6727C19.6464 28.9107 20.1825 30.0708 21.0406 30.9727C22.1769 32.4684 22.2541 32.6626 22.216 34.6249C22.061 35.8283 22.3024 37.0494 22.9035 38.1033C24.1312 39.7888 26.6604 39.7107 27.8713 40.5925C29.194 41.555 30.05 44.7025 32.761 44.7025C34.2851 44.7025 36.0477 43.6379 37.2578 43.6379C38.7969 43.6379 40.8062 45.1744 42.7418 44.5481C43.8655 44.0434 44.792 43.183 45.3783 42.0997C47.4134 39.1572 50.1119 40.1605 51.612 38.1006C52.2125 37.0468 52.4538 35.8262 52.2995 34.6232C52.2623 32.6609 52.3332 32.4657 53.4741 30.9709C54.3321 30.0696 54.8685 28.9101 54.9999 27.6727C54.8692 26.4347 54.3327 25.2748 53.4741 24.3735ZM37.2578 37.6038C35.2935 37.604 33.3733 37.0217 31.7401 35.9306C30.1068 34.8394 28.8337 33.2884 28.0819 31.4738C27.3301 29.6591 27.1333 27.6623 27.5164 25.7357C27.8995 23.8092 28.8453 22.0396 30.2342 20.6506C31.623 19.2616 33.3926 18.3157 35.3191 17.9324C37.2456 17.5491 39.2424 17.7458 41.0572 18.4974C42.8719 19.249 44.423 20.5219 45.5143 22.1551C46.6056 23.7883 47.188 25.7084 47.188 27.6727C47.1852 30.3056 46.1381 32.8298 44.2765 34.6916C42.4148 36.5535 39.8906 37.6008 37.2578 37.6038Z" fill="#1263FF" fill-opacity="0.4"/>
<path d="M31.0487 0H13.7856C13.6586 0.0182634 13.5332 0.0461395 13.4104 0.083388C13.3164 0.126856 0.407182 6.15208 0.495893 6.10773C0.349442 6.1832 0.226073 6.2968 0.138796 6.43654C0.0515184 6.57627 0.00356745 6.73697 0 6.90169V41.694C0 42.3998 0.280388 43.0768 0.779483 43.5758C1.27858 44.0749 1.95549 44.3553 2.66132 44.3553H31.0487C31.7546 44.3553 32.4315 44.0749 32.9306 43.5758C33.4297 43.0768 33.7101 42.3998 33.7101 41.694V2.66132C33.7101 1.95549 33.4297 1.27858 32.9306 0.779483C32.4315 0.280388 31.7546 0 31.0487 0ZM10.5335 3.38254L5.38829 9.51777L2.52382 7.11726L10.5335 3.38254ZM31.9358 41.694C31.9358 41.9293 31.8424 42.1549 31.676 42.3213C31.5096 42.4877 31.284 42.5811 31.0487 42.5811H2.66132C2.42604 42.5811 2.20041 42.4877 2.03404 42.3213C1.86768 42.1549 1.77421 41.9293 1.77421 41.694V8.80365L4.92433 11.4437C5.1042 11.5953 5.33694 11.6693 5.57134 11.6493C5.80574 11.6293 6.02262 11.5171 6.17426 11.3372L14.199 1.77421H31.0487C31.284 1.77421 31.5096 1.86768 31.676 2.03404C31.8424 2.20041 31.9358 2.42604 31.9358 2.66132V41.694Z" fill="#060E28"/>
<path d="M28.3878 7.09668H13.307C13.0718 7.09668 12.8461 7.19014 12.6797 7.35651C12.5134 7.52287 12.4199 7.74851 12.4199 7.98379C12.4199 8.21906 12.5134 8.4447 12.6797 8.61107C12.8461 8.77743 13.0718 8.87089 13.307 8.87089H28.3878C28.6231 8.87089 28.8488 8.77743 29.0151 8.61107C29.1815 8.4447 29.2749 8.21906 29.2749 7.98379C29.2749 7.74851 29.1815 7.52287 29.0151 7.35651C28.8488 7.19014 28.6231 7.09668 28.3878 7.09668Z" fill="#060E28"/>
<path d="M28.3874 14.1934H5.32265C5.08738 14.1934 4.86174 14.2868 4.69537 14.4532C4.52901 14.6196 4.43555 14.8452 4.43555 15.0805C4.43555 15.3157 4.52901 15.5414 4.69537 15.7077C4.86174 15.8741 5.08738 15.9676 5.32265 15.9676H28.3874C28.6227 15.9676 28.8483 15.8741 29.0147 15.7077C29.1811 15.5414 29.2745 15.3157 29.2745 15.0805C29.2745 14.8452 29.1811 14.6196 29.0147 14.4532C28.8483 14.2868 28.6227 14.1934 28.3874 14.1934Z" fill="#060E28"/>
<path d="M28.3874 21.291H5.32265C5.08738 21.291 4.86174 21.3845 4.69537 21.5508C4.52901 21.7172 4.43555 21.9428 4.43555 22.1781C4.43555 22.4134 4.52901 22.639 4.69537 22.8054C4.86174 22.9718 5.08738 23.0652 5.32265 23.0652H28.3874C28.6227 23.0652 28.8483 22.9718 29.0147 22.8054C29.1811 22.639 29.2745 22.4134 29.2745 22.1781C29.2745 21.9428 29.1811 21.7172 29.0147 21.5508C28.8483 21.3845 28.6227 21.291 28.3874 21.291Z" fill="#060E28"/>
<path d="M28.3874 28.3877H5.32265C5.08738 28.3877 4.86174 28.4812 4.69537 28.6475C4.52901 28.8139 4.43555 29.0395 4.43555 29.2748C4.43555 29.5101 4.52901 29.7357 4.69537 29.9021C4.86174 30.0684 5.08738 30.1619 5.32265 30.1619H28.3874C28.6227 30.1619 28.8483 30.0684 29.0147 29.9021C29.1811 29.7357 29.2745 29.5101 29.2745 29.2748C29.2745 29.0395 29.1811 28.8139 29.0147 28.6475C28.8483 28.4812 28.6227 28.3877 28.3874 28.3877Z" fill="#060E28"/>
<path d="M28.3874 35.4844H5.32265C5.08738 35.4844 4.86174 35.5778 4.69537 35.7442C4.52901 35.9106 4.43555 36.1362 4.43555 36.3715C4.43555 36.6068 4.52901 36.8324 4.69537 36.9988C4.86174 37.1651 5.08738 37.2586 5.32265 37.2586H28.3874C28.6227 37.2586 28.8483 37.1651 29.0147 36.9988C29.1811 36.8324 29.2745 36.6068 29.2745 36.3715C29.2745 36.1362 29.1811 35.9106 29.0147 35.7442C28.8483 35.5778 28.6227 35.4844 28.3874 35.4844Z" fill="#060E28"/>
</svg>
