<svg width="67" height="70" viewBox="0 0 67 70" fill="none" xmlns="http://www.w3.org/2000/svg">
<path d="M56.4525 67.7416H50.3557C55.2738 62.9816 66.6138 50.1286 66.6138 32.7415C66.6138 27.651 64.5916 22.769 60.9921 19.1695C57.3926 15.57 52.5107 13.5479 47.4202 13.5479C42.3297 13.5479 37.4477 15.57 33.8482 19.1695C30.2487 22.769 28.2266 27.651 28.2266 32.7415C28.2266 50.1286 39.5666 62.9816 44.4903 67.7416H38.3879C38.0885 67.7416 37.8013 67.8606 37.5895 68.0723C37.3778 68.284 37.2589 68.5712 37.2589 68.8706C37.2589 69.1701 37.3778 69.4573 37.5895 69.669C37.8013 69.8807 38.0885 69.9997 38.3879 69.9997H56.4525C56.7519 69.9997 57.0391 69.8807 57.2508 69.669C57.4626 69.4573 57.5815 69.1701 57.5815 68.8706C57.5815 68.5712 57.4626 68.284 57.2508 68.0723C57.0391 67.8606 56.7519 67.7416 56.4525 67.7416ZM38.3879 32.7415C38.3879 30.9551 38.9176 29.2088 39.9101 27.7234C40.9026 26.238 42.3132 25.0804 43.9637 24.3967C45.6141 23.7131 47.4302 23.5342 49.1823 23.8827C50.9344 24.2312 52.5438 25.0915 53.807 26.3547C55.0702 27.6179 55.9304 29.2273 56.2789 30.9794C56.6274 32.7315 56.4486 34.5475 55.7649 36.198C55.0813 37.8484 53.9236 39.2591 52.4383 40.2516C50.9529 41.244 49.2066 41.7738 47.4202 41.7738C45.0247 41.7738 42.7273 40.8222 41.0334 39.1283C39.3395 37.4344 38.3879 35.137 38.3879 32.7415Z" fill="#1263FF" fill-opacity="0.4"/>
<path d="M54.2525 20.9705L38.1739 14.9482C37.3153 10.3775 35.4545 6.05383 32.7251 2.2883C32.2085 1.5794 31.5316 1.0026 30.7498 0.604942C29.9679 0.207279 29.1031 0 28.2259 0C27.3487 0 26.4839 0.207279 25.7021 0.604942C24.9202 1.0026 24.2433 1.5794 23.7267 2.2883C20.9975 6.0538 19.137 10.3775 18.2791 14.9482L2.19936 20.9705C1.55465 21.2144 0.999191 21.6483 0.606467 22.2149C0.213742 22.7814 0.00226079 23.4537 0 24.1431V26.7997C9.4374e-05 27.2793 0.102051 27.7535 0.299123 28.1907C0.496194 28.628 0.783887 29.0184 1.14316 29.3362C1.50243 29.6539 1.92509 29.8918 2.38317 30.0339C2.84125 30.1761 3.32429 30.2193 3.80034 30.1608L18.5907 28.3431L21.7599 45.0923L15.242 48.642C14.5537 49.0221 14.0259 49.6381 13.7559 50.3765C13.4858 51.1149 13.4917 51.926 13.7724 52.6605C14.0531 53.3949 14.5897 54.0032 15.2834 54.3733C15.9771 54.7434 16.7812 54.8503 17.5475 54.6745L23.3056 53.3196L23.3744 53.6888C23.5203 54.4663 23.9336 55.1682 24.5428 55.6729C25.152 56.1775 25.9186 56.453 26.7096 56.4516H29.7422C30.5313 56.4517 31.2956 56.1763 31.9033 55.6729C32.511 55.1695 32.9238 54.4698 33.0706 53.6945L33.1395 53.3253L38.8976 54.6801C39.6638 54.8555 40.4675 54.7481 41.1609 54.3779C41.8542 54.0077 42.3905 53.3994 42.671 52.6652C42.9514 51.9309 42.9572 51.1201 42.6873 50.3819C42.4174 49.6437 41.8899 49.0278 41.2019 48.6477L34.6964 45.0935L37.8656 28.3386L52.656 30.1563C53.1313 30.2141 53.6135 30.1704 54.0707 30.0282C54.5279 29.886 54.9498 29.6485 55.3085 29.3313C55.6672 29.0141 55.9545 28.6245 56.1516 28.1881C56.3487 27.7517 56.451 27.2785 56.4518 26.7997V24.1431C56.4497 23.4537 56.2383 22.7812 55.8456 22.2147C55.4528 21.6482 54.8973 21.2143 54.2525 20.9705ZM3.52485 27.9197C3.3662 27.9392 3.20522 27.9248 3.05255 27.8774C2.89989 27.8301 2.75902 27.7508 2.63927 27.6449C2.51952 27.5391 2.42361 27.409 2.3579 27.2632C2.29218 27.1175 2.25816 26.9595 2.25807 26.7997V24.1431C2.25888 23.9133 2.32934 23.6892 2.46017 23.5003C2.59099 23.3114 2.77601 23.1667 2.99082 23.0852L17.902 17.4998C17.5969 20.3715 17.69 23.2715 18.1786 26.1177L3.52485 27.9197ZM17.0349 52.4762C16.7995 52.5308 16.5523 52.4983 16.339 52.3847C16.1257 52.2712 15.9607 52.0842 15.8745 51.8585C15.7884 51.6327 15.7868 51.3834 15.8702 51.1566C15.9536 50.9298 16.1162 50.7408 16.3281 50.6246L22.1991 47.4249L22.8957 51.1011L17.0349 52.4762ZM29.7422 54.1935H26.7096C26.4465 54.1936 26.1917 54.1019 25.989 53.9341C25.7864 53.7663 25.6487 53.533 25.5998 53.2745L20.4796 26.2058C19.7459 22.2927 19.8174 18.2712 20.6898 14.3867C21.5622 10.5022 23.2171 6.83626 25.5535 3.61266C25.8605 3.1916 26.2626 2.84902 26.7271 2.61284C27.1916 2.37666 27.7054 2.25355 28.2265 2.25355C28.7476 2.25355 29.2613 2.37666 29.7258 2.61284C30.1903 2.84902 30.5925 3.1916 30.8995 3.61266C33.2354 6.83586 34.8899 10.5013 35.762 14.3852C36.6342 18.2691 36.7057 22.29 35.9722 26.2024L30.8521 53.2711C30.8038 53.5302 30.6665 53.7643 30.4637 53.9328C30.261 54.1012 30.0058 54.1935 29.7422 54.1935ZM40.1237 50.628C40.334 50.7453 40.495 50.9344 40.5773 51.1607C40.6595 51.387 40.6574 51.6354 40.5714 51.8603C40.4854 52.0852 40.3213 52.2716 40.109 52.3854C39.8968 52.4991 39.6507 52.5326 39.4158 52.4796L33.5606 51.1045L34.2561 47.4283L40.1237 50.628ZM54.1938 26.7997C54.1937 26.9595 54.1597 27.1175 54.0939 27.2632C54.0282 27.409 53.9323 27.5391 53.8126 27.6449C53.6928 27.7508 53.5519 27.8301 53.3993 27.8774C53.2466 27.9248 53.0856 27.9392 52.927 27.9197L38.2743 26.1177C38.7635 23.2716 38.8566 20.3715 38.551 17.4998L53.4621 23.0852C53.6769 23.1667 53.862 23.3114 53.9928 23.5003C54.1236 23.6892 54.1941 23.9133 54.1949 24.1431L54.1938 26.7997Z" fill="#060E28"/>
<path d="M28.2267 46.29C27.9273 46.29 27.6401 46.409 27.4283 46.6207C27.2166 46.8325 27.0977 47.1196 27.0977 47.4191V49.6771C27.0977 49.9766 27.2166 50.2638 27.4283 50.4755C27.6401 50.6872 27.9273 50.8062 28.2267 50.8062C28.5261 50.8062 28.8133 50.6872 29.025 50.4755C29.2368 50.2638 29.3557 49.9766 29.3557 49.6771V47.4191C29.3557 47.1196 29.2368 46.8325 29.025 46.6207C28.8133 46.409 28.5261 46.29 28.2267 46.29Z" fill="#060E28"/>
<path d="M24.0401 10.4887C23.8482 10.7041 23.7459 10.9848 23.7544 11.2731C23.7629 11.5615 23.8814 11.8357 24.0857 12.0395C24.29 12.2432 24.5646 12.361 24.853 12.3686C25.1414 12.3763 25.4218 12.2732 25.6366 12.0806C26.3241 11.3957 27.255 11.0112 28.2255 11.0112C29.1959 11.0112 30.1268 11.3957 30.8144 12.0806C31.0273 12.2863 31.3125 12.4001 31.6085 12.3975C31.9046 12.395 32.1877 12.2762 32.3971 12.0669C32.6064 11.8576 32.7251 11.5744 32.7277 11.2784C32.7303 10.9823 32.6165 10.6971 32.4108 10.4842C31.2992 9.37656 29.7938 8.75501 28.2245 8.75586C26.6553 8.75671 25.1505 9.37988 24.0401 10.4887Z" fill="#060E28"/>
</svg>
