<svg width="70" height="70" viewBox="0 0 70 70" fill="none" xmlns="http://www.w3.org/2000/svg">
<path d="M59.8387 45.1615C59.8387 45.0132 59.8678 44.8664 59.9246 44.7294C59.9813 44.5924 60.0645 44.4679 60.1693 44.3631C60.2742 44.2582 60.3986 44.1751 60.5356 44.1183C60.6726 44.0616 60.8195 44.0324 60.9677 44.0325H62.0968V41.7744H35V62.097H62.0968V59.8389H60.9677C60.6683 59.8389 60.3811 59.72 60.1694 59.5082C59.9577 59.2965 59.8387 59.0093 59.8387 58.7099C59.8387 58.4105 59.9577 58.1233 60.1694 57.9116C60.3811 57.6998 60.6683 57.5809 60.9677 57.5809H62.0968V46.2905H60.9677C60.8195 46.2906 60.6726 46.2614 60.5356 46.2047C60.3986 46.148 60.2742 46.0648 60.1693 45.9599C60.0645 45.8551 59.9813 45.7306 59.9246 45.5936C59.8678 45.4566 59.8387 45.3098 59.8387 45.1615ZM48.5484 59.8389C46.9853 59.8389 45.4573 59.3754 44.1576 58.507C42.8579 57.6386 41.8449 56.4043 41.2468 54.9601C40.6486 53.516 40.4921 51.9269 40.797 50.3939C41.102 48.8608 41.8547 47.4526 42.96 46.3473C44.0652 45.242 45.4735 44.4893 47.0065 44.1843C48.5396 43.8794 50.1287 44.0359 51.5728 44.6341C53.0169 45.2323 54.2513 46.2452 55.1197 47.5449C55.9881 48.8446 56.4516 50.3726 56.4516 51.9357C56.4492 54.031 55.6157 56.0398 54.1341 57.5214C52.6525 59.003 50.6437 59.8365 48.5484 59.8389Z" fill="#1263FF" fill-opacity="0.4"/>
<path d="M66.6138 33.8711H30.4848C29.5867 33.8721 28.7258 34.2292 28.0908 34.8642C27.4558 35.4992 27.0986 36.3602 27.0977 37.2582V66.613C27.0986 67.511 27.4558 68.372 28.0908 69.007C28.7258 69.642 29.5867 69.9991 30.4848 70.0001H66.6138C67.5118 69.9991 68.3727 69.642 69.0077 69.007C69.6427 68.372 69.9999 67.511 70.0009 66.613V37.2582C69.9999 36.3602 69.6427 35.4992 69.0077 34.8642C68.3727 34.2292 67.5118 33.8721 66.6138 33.8711ZM65.4848 57.5808C65.7842 57.5808 66.0714 57.6997 66.2831 57.9115C66.4948 58.1232 66.6138 58.4104 66.6138 58.7098C66.6138 59.0092 66.4948 59.2964 66.2831 59.5082C66.0714 59.7199 65.7842 59.8388 65.4848 59.8388H64.3557V63.2259C64.3558 63.3742 64.3266 63.521 64.2699 63.658C64.2131 63.795 64.13 63.9195 64.0251 64.0244C63.9203 64.1292 63.7958 64.2124 63.6588 64.2691C63.5218 64.3258 63.375 64.355 63.2267 64.355H33.8719C33.5724 64.355 33.2852 64.236 33.0735 64.0243C32.8618 63.8125 32.7428 63.5254 32.7428 63.2259V40.6453C32.7428 40.3458 32.8618 40.0587 33.0735 39.8469C33.2852 39.6352 33.5724 39.5163 33.8719 39.5163H63.2267C63.375 39.5162 63.5218 39.5454 63.6588 39.6021C63.7958 39.6588 63.9203 39.742 64.0251 39.8469C64.13 39.9517 64.2131 40.0762 64.2699 40.2132C64.3266 40.3502 64.3558 40.497 64.3557 40.6453V44.0324H65.4848C65.7842 44.0324 66.0714 44.1513 66.2831 44.3631C66.4948 44.5748 66.6138 44.862 66.6138 45.1614C66.6138 45.4609 66.4948 45.748 66.2831 45.9598C66.0714 46.1715 65.7842 46.2904 65.4848 46.2904H64.3557V57.5808H65.4848Z" fill="#1263FF" fill-opacity="0.4"/>
<path d="M51.9347 53.0642C51.6352 53.0642 51.348 52.9453 51.1363 52.7336C50.9246 52.5218 50.8056 52.2347 50.8056 51.9352C50.8056 51.6358 50.9246 51.3486 51.1363 51.1369C51.348 50.9251 51.6352 50.8062 51.9347 50.8062H54.0786C53.7988 49.4355 53.02 48.2175 51.8933 47.3884C50.7665 46.5592 49.372 46.178 47.9801 46.3186C46.5882 46.4592 45.2982 47.1117 44.36 48.1494C43.4218 49.1871 42.9023 50.5363 42.9023 51.9352C42.9023 53.3342 43.4218 54.6833 44.36 55.721C45.2982 56.7588 46.5882 57.4112 47.9801 57.5518C49.372 57.6924 50.7665 57.3112 51.8933 56.4821C53.02 55.6529 53.7988 54.4349 54.0786 53.0642H51.9347Z" fill="#1263FF" fill-opacity="0.4"/>
<path d="M30.9646 25.9002C30.3199 25.6724 29.7467 25.4589 29.2104 25.2518V16.6837C30.2348 16.8069 31.2043 17.2147 32.0088 17.8608C32.2299 18.0603 32.521 18.1644 32.8185 18.1503C33.116 18.1362 33.396 18.0051 33.5973 17.7855C33.7986 17.566 33.905 17.2758 33.8932 16.9781C33.8815 16.6805 33.7526 16.3995 33.5347 16.1965C32.3063 15.1797 30.7986 14.5589 29.2104 14.4158V12.4191C29.2104 12.1196 29.0915 11.8325 28.8797 11.6207C28.668 11.409 28.3808 11.29 28.0814 11.29C27.782 11.29 27.4948 11.409 27.283 11.6207C27.0713 11.8325 26.9524 12.1196 26.9524 12.4191V14.5109C25.653 14.6782 24.4415 15.258 23.4962 16.165C22.5509 17.0721 21.9216 18.2586 21.7008 19.5499C21.4807 20.4971 21.5247 21.4864 21.8279 22.4103C22.131 23.3342 22.6818 24.1573 23.4203 24.7899C24.5076 25.5993 25.6948 26.2652 26.9524 26.7711V37.2953C25.4069 37.2945 23.903 36.7942 22.665 35.8691C22.4144 35.7052 22.109 35.6475 21.8159 35.7088C21.5228 35.7701 21.266 35.9454 21.1021 36.196C20.9382 36.4466 20.8806 36.752 20.9419 37.0451C21.0032 37.3382 21.1784 37.595 21.429 37.7589C23.03 38.9344 24.9662 39.5647 26.9524 39.5567V41.7739C26.9524 42.0733 27.0713 42.3605 27.283 42.5723C27.4948 42.784 27.782 42.9029 28.0814 42.9029C28.3808 42.9029 28.668 42.784 28.8797 42.5723C29.0915 42.3605 29.2104 42.0733 29.2104 41.7739V39.4753C30.7669 39.2416 32.2087 38.5191 33.3275 37.4121C34.4464 36.3051 35.1842 34.8711 35.4344 33.3172C35.7342 31.7474 35.4437 30.1222 34.6188 28.7534C33.7939 27.3846 32.4926 26.3685 30.9646 25.9002ZM24.8139 23.0131C24.4031 22.6342 24.1029 22.1508 23.9454 21.6145C23.788 21.0782 23.7791 20.5093 23.9197 19.9684C24.044 19.1964 24.4009 18.4807 24.9428 17.9169C25.4847 17.3532 26.1858 16.9684 26.9523 16.8138V24.29C26.1958 23.9422 25.4789 23.5141 24.8139 23.0131ZM33.2078 32.9429C33.0411 33.9679 32.5712 34.9196 31.8588 35.6753C31.1463 36.4309 30.2239 36.9559 29.2104 37.1826V27.6658C29.5328 27.7849 29.8598 27.9048 30.2121 28.0293C31.235 28.326 32.1098 28.9949 32.6642 29.9043C33.2186 30.8137 33.4126 31.8977 33.2078 32.9429Z" fill="#060E28"/>
<path d="M53.0645 0H3.38712C2.48911 0.000980221 1.62815 0.358149 0.993164 0.99314C0.358172 1.62813 0.00100344 2.48908 2.32209e-05 3.3871V20.6175C-0.00921499 28.8496 2.73829 36.8477 7.80438 43.3363C12.8705 49.8249 19.9633 54.4303 27.9518 56.418C28.1317 56.4629 28.3199 56.4629 28.4998 56.418C36.4883 54.4303 43.5812 49.8249 48.6473 43.3363C53.7134 36.8477 56.4609 28.8496 56.4516 20.6175V3.3871C56.4507 2.48908 56.0935 1.62813 55.4585 0.99314C54.8235 0.358149 53.9626 0.000980221 53.0645 0ZM54.1936 3.3871V13.5484H49.6774V7.90323C49.6775 7.75495 49.6483 7.60812 49.5916 7.47112C49.5349 7.33412 49.4517 7.20964 49.3468 7.10479C49.242 6.99995 49.1175 6.91678 48.9805 6.86006C48.8435 6.80333 48.6967 6.77416 48.5484 6.77419H42.9032V2.25806H53.0645C53.3639 2.25836 53.6509 2.37741 53.8626 2.58908C54.0742 2.80075 54.1933 3.08775 54.1936 3.3871ZM28.2258 47.1035C22.6322 45.2931 17.7586 41.752 14.3087 36.9913C10.8588 32.2306 9.01107 26.4967 9.03228 20.6175V9.03226H47.4194V20.6175C47.4406 26.4968 45.5928 32.2306 42.1429 36.9913C38.693 41.752 33.8194 45.2931 28.2258 47.1035ZM15.8065 6.77419V2.25806H40.6452V6.77419H15.8065ZM3.38712 2.25806H13.5484V6.77419H7.90325C7.60381 6.77419 7.31664 6.89315 7.1049 7.10488C6.89317 7.31661 6.77422 7.60379 6.77422 7.90323V13.5484H2.25809V3.3871C2.25848 3.08778 2.37755 2.80083 2.5892 2.58918C2.80085 2.37753 3.0878 2.25845 3.38712 2.25806ZM2.25809 20.6175V15.8065H6.77422V20.6175C6.76176 25.0669 7.73951 29.4633 9.63658 33.488C11.5336 37.5127 14.3025 41.0648 17.7424 43.8869L14.5569 47.0724C10.7023 43.8259 7.60424 39.7759 5.47973 35.2061C3.35523 30.6362 2.25567 25.6571 2.25809 20.6175ZM28.2258 54.1577C23.9374 53.044 19.9028 51.1167 16.3416 48.4807L19.5568 45.2655C22.1066 47.0531 24.9171 48.4363 27.889 49.3665C28.1083 49.4348 28.3433 49.4348 28.5627 49.3665C31.5345 48.4363 34.345 47.0531 36.8949 45.2655L40.11 48.4807C36.5487 51.1166 32.5142 53.0439 28.2258 54.1577ZM41.8947 47.0723L38.7093 43.8869C42.1492 41.0648 44.918 37.5127 46.8151 33.488C48.7122 29.4633 49.6899 25.0669 49.6774 20.6175V15.8065H54.1936V20.6175C54.196 25.6571 53.0964 30.6362 50.9718 35.206C48.8473 39.7759 45.7492 43.8258 41.8947 47.0723Z" fill="#060E28"/>
</svg>
