<svg width="55" height="55" viewBox="0 0 55 55" fill="none" xmlns="http://www.w3.org/2000/svg">
<path d="M32.8229 23.9521C31.3819 23.9518 29.9857 24.4527 28.8736 25.369C27.7615 26.2853 27.0028 27.56 26.7276 28.9744C26.4524 30.3889 26.6778 31.855 27.3652 33.1215C28.0526 34.3879 29.1592 35.3758 30.4952 35.9157C30.6587 35.9822 30.7987 36.0959 30.8973 36.2424C30.9959 36.3888 31.0486 36.5613 31.0487 36.7379V43.4681H34.5971V36.7379C34.5971 36.5613 34.6498 36.3888 34.7484 36.2424C34.847 36.0959 34.9871 35.9822 35.1506 35.9157C36.4866 35.3758 37.5932 34.3879 38.2806 33.1215C38.968 31.855 39.1934 30.3889 38.9182 28.9744C38.643 27.56 37.8843 26.2853 36.7722 25.369C35.6601 24.4527 34.2639 23.9518 32.8229 23.9521Z" fill="#1263FF" fill-opacity="0.4"/>
<path d="M54.1119 28.3873H50.9179C50.4675 26.5466 49.7359 24.7863 48.7487 23.1687L51.0123 20.9042C51.0947 20.8219 51.1601 20.7241 51.2047 20.6165C51.2492 20.5089 51.2722 20.3935 51.2722 20.277C51.2722 20.1605 51.2492 20.0452 51.2047 19.9376C51.1601 19.8299 51.0947 19.7322 51.0123 19.6498L45.9947 14.6322C45.9124 14.5498 45.8146 14.4845 45.707 14.4399C45.5994 14.3953 45.484 14.3723 45.3675 14.3723C45.251 14.3723 45.1357 14.3953 45.0281 14.4399C44.9204 14.4845 44.8227 14.5498 44.7403 14.6322L42.4758 16.8959C40.8582 15.9087 39.098 15.177 37.2572 14.7266V11.5326C37.2573 11.4161 37.2344 11.3007 37.1898 11.193C37.1453 11.0854 37.0799 10.9876 36.9976 10.9052C36.9152 10.8228 36.8173 10.7575 36.7097 10.7129C36.602 10.6683 36.4866 10.6454 36.3701 10.6455H29.2734C29.1569 10.6454 29.0415 10.6683 28.9339 10.7129C28.8262 10.7575 28.7284 10.8228 28.646 10.9052C28.5636 10.9876 28.4983 11.0854 28.4537 11.193C28.4092 11.3007 28.3863 11.4161 28.3863 11.5326V14.7266C26.5456 15.1771 24.7854 15.9087 23.1677 16.8959L20.9037 14.6322C20.8213 14.5498 20.7235 14.4845 20.6159 14.4399C20.5083 14.3953 20.393 14.3723 20.2765 14.3723C20.16 14.3723 20.0446 14.3953 19.937 14.4399C19.8294 14.4845 19.7316 14.5498 19.6493 14.6322L14.6312 19.6498C14.5488 19.7322 14.4835 19.8299 14.4389 19.9376C14.3943 20.0452 14.3713 20.1605 14.3713 20.277C14.3713 20.3935 14.3943 20.5089 14.4389 20.6165C14.4835 20.7241 14.5488 20.8219 14.6312 20.9042L16.8949 23.1687C15.9075 24.7862 15.1758 26.5465 14.7257 28.3873H11.5316C11.4151 28.3873 11.2998 28.4102 11.1921 28.4548C11.0845 28.4993 10.9867 28.5647 10.9043 28.6471C10.8219 28.7294 10.7566 28.8272 10.712 28.9349C10.6674 29.0425 10.6445 29.1579 10.6445 29.2744V36.3711C10.6445 36.4876 10.6674 36.603 10.712 36.7106C10.7566 36.8183 10.8219 36.9161 10.9043 36.9984C10.9867 37.0808 11.0845 37.1462 11.1921 37.1907C11.2998 37.2353 11.4151 37.2582 11.5316 37.2582H14.7257C15.1758 39.099 15.9075 40.8593 16.8949 42.4768L14.6312 44.7413C14.5488 44.8236 14.4835 44.9214 14.4389 45.029C14.3943 45.1367 14.3713 45.252 14.3713 45.3685C14.3713 45.485 14.3943 45.6003 14.4389 45.7079C14.4835 45.8156 14.5488 45.9133 14.6312 45.9957L19.6493 51.0133C19.7316 51.0957 19.8294 51.161 19.937 51.2056C20.0446 51.2502 20.16 51.2732 20.2765 51.2732C20.393 51.2732 20.5083 51.2502 20.6159 51.2056C20.7235 51.161 20.8213 51.0957 20.9037 51.0133L23.1673 48.7497C24.7852 49.7366 26.5455 50.4683 28.3863 50.9189V54.1129C28.3863 54.2294 28.4092 54.3448 28.4537 54.4525C28.4983 54.5601 28.5636 54.6579 28.646 54.7403C28.7284 54.8227 28.8262 54.8881 28.9339 54.9326C29.0415 54.9772 29.1569 55.0001 29.2734 55H36.3701C36.4866 55.0001 36.602 54.9772 36.7097 54.9326C36.8173 54.8881 36.9152 54.8227 36.9976 54.7403C37.0799 54.6579 37.1453 54.5601 37.1898 54.4525C37.2344 54.3448 37.2573 54.2294 37.2572 54.1129V50.9189C39.098 50.4685 40.8582 49.7368 42.4758 48.7497L44.7403 51.0133C44.8227 51.0957 44.9204 51.161 45.0281 51.2056C45.1357 51.2502 45.251 51.2732 45.3675 51.2732C45.484 51.2732 45.5994 51.2502 45.707 51.2056C45.8146 51.161 45.9124 51.0957 45.9947 51.0133L51.0123 45.9957C51.0947 45.9133 51.1601 45.8156 51.2047 45.7079C51.2492 45.6003 51.2722 45.485 51.2722 45.3685C51.2722 45.252 51.2492 45.1367 51.2047 45.029C51.1601 44.9214 51.0947 44.8236 51.0123 44.7413L48.7487 42.4768C49.7359 40.8592 50.4675 39.0989 50.9179 37.2582H54.1119C54.2284 37.2583 54.3438 37.2354 54.4515 37.1908C54.5591 37.1463 54.657 37.0809 54.7393 36.9985C54.8217 36.9161 54.8871 36.8183 54.9316 36.7107C54.9762 36.603 54.9991 36.4876 54.999 36.3711V29.2744C54.9991 29.1579 54.9762 29.0425 54.9316 28.9348C54.8871 28.8272 54.8217 28.7294 54.7393 28.647C54.657 28.5646 54.5591 28.4993 54.4515 28.4547C54.3438 28.4101 54.2284 28.3872 54.1119 28.3873ZM36.3701 37.311V44.3549C36.3702 44.4714 36.3473 44.5868 36.3027 44.6945C36.2582 44.8021 36.1929 44.8999 36.1105 44.9823C36.0281 45.0647 35.9303 45.1301 35.8226 45.1746C35.7149 45.2192 35.5996 45.2421 35.483 45.242H30.1605C30.044 45.2421 29.9286 45.2192 29.821 45.1746C29.7133 45.1301 29.6155 45.0647 29.5331 44.9823C29.4507 44.8999 29.3854 44.8021 29.3408 44.6945C29.2963 44.5868 29.2733 44.4714 29.2734 44.3549V37.311C27.6604 36.5108 26.3653 35.1887 25.5984 33.5596C24.8314 31.9305 24.6377 30.0899 25.0487 28.3368C25.4597 26.5837 26.4512 25.021 27.8623 23.9025C29.2734 22.784 31.0212 22.1753 32.8218 22.1753C34.6224 22.1753 36.3702 22.784 37.7812 23.9025C39.1923 25.021 40.1838 26.5837 40.5948 28.3368C41.0058 30.0899 40.8121 31.9305 40.0452 33.5596C39.2783 35.1887 37.9831 36.5108 36.3701 37.311Z" fill="#1263FF" fill-opacity="0.4"/>
<path d="M38.7727 20.6631L22.8051 4.69544C22.7227 4.61305 22.6249 4.54769 22.5173 4.50309C22.4097 4.4585 22.2944 4.43555 22.1779 4.43555C22.0614 4.43555 21.946 4.4585 21.8384 4.50309C21.7308 4.54769 21.633 4.61305 21.5507 4.69544L5.58305 20.6631C5.45933 20.7872 5.37515 20.9453 5.34111 21.1172C5.30708 21.2892 5.32471 21.4674 5.39179 21.6293C5.45887 21.7913 5.5724 21.9297 5.71806 22.0272C5.86371 22.1248 6.03498 22.177 6.21027 22.1773H8.87154V34.5966C8.87151 34.7131 8.89444 34.8284 8.93901 34.9361C8.98358 35.0437 9.04892 35.1415 9.1313 35.2239C9.21368 35.3063 9.31148 35.3716 9.41912 35.4162C9.52676 35.4608 9.64213 35.4837 9.75863 35.4837H34.5971C34.7137 35.4837 34.829 35.4608 34.9367 35.4163C35.0444 35.3717 35.1422 35.3064 35.2246 35.224C35.3069 35.1416 35.3723 35.0438 35.4168 34.9361C35.4614 34.8285 35.4843 34.7131 35.4842 34.5966V22.1773H38.1455C38.3208 22.177 38.4921 22.1248 38.6378 22.0273C38.7835 21.9298 38.897 21.7913 38.9641 21.6294C39.0312 21.4674 39.0488 21.2892 39.0147 21.1172C38.9807 20.9452 38.8964 20.7872 38.7727 20.6631ZM24.8392 33.7095H19.5166V27.4999H24.8392V33.7095ZM33.7101 33.7095H26.6133V26.6128C26.6134 26.4963 26.5904 26.3809 26.5459 26.2733C26.5013 26.1656 26.436 26.0678 26.3536 25.9854C26.2712 25.9031 26.1734 25.8377 26.0658 25.7931C25.9581 25.7486 25.8428 25.7256 25.7262 25.7257H18.6295C18.513 25.7256 18.3977 25.7486 18.29 25.7931C18.1824 25.8377 18.0846 25.9031 18.0022 25.9854C17.9198 26.0678 17.8545 26.1656 17.8099 26.2733C17.7653 26.3809 17.7424 26.4963 17.7424 26.6128V33.7095H10.6457V22.1773H33.7101V33.7095ZM8.35176 20.4031L22.1779 6.57701L36.004 20.4031C32.4143 20.4014 6.74205 20.3997 8.35176 20.4031Z" fill="#060E28"/>
<path d="M22.1772 0.000432462C18.6759 0.00461802 15.225 0.836076 12.106 2.42704L7.02486 0.0818673C6.90839 0.0279356 6.78157 0 6.65322 0C6.52486 0 6.39805 0.0279356 6.28157 0.0818673L0.515488 2.74314C0.361638 2.81423 0.231347 2.92787 0.140004 3.07063C0.0486604 3.21339 7.99417e-05 3.37931 0 3.54879V5.74659C0.00673572 8.1101 0.850578 10.3948 2.38178 12.1953C0.209585 16.5061 -0.496454 21.408 0.370892 26.1566C1.23824 30.9052 3.63158 35.241 7.18744 38.5055C10.7433 41.7701 15.2674 43.785 20.0727 44.2443C24.8779 44.7036 29.7018 43.5821 33.8117 41.0503C37.9215 38.5184 41.0929 34.7145 42.8441 30.2162C44.5952 25.7179 44.8305 20.7709 43.5143 16.1267C42.198 11.4825 39.402 7.39469 35.551 4.48415C31.7 1.57361 27.0044 -0.000659996 22.1772 0.000432462ZM1.77418 5.74659V4.11622L6.65317 1.86471L11.5322 4.11622V5.74659C11.5302 7.33302 11.0683 8.88483 10.2023 10.2141C9.33634 11.5433 8.10352 12.5929 6.65317 13.2357C5.20283 12.5929 3.97 11.5433 3.10404 10.2141C2.23808 8.88483 1.77614 7.33302 1.77418 5.74659ZM22.1772 42.5807C18.7417 42.5806 15.3618 41.713 12.3509 40.0583C9.34008 38.4037 6.7958 36.0155 4.954 33.1154C3.1122 30.2152 2.03253 26.8969 1.81509 23.4683C1.59766 20.0396 2.24951 16.6115 3.71019 13.5019C4.50005 14.143 5.38572 14.6559 6.33481 15.0221C6.53979 15.1006 6.76656 15.1006 6.97154 15.0221C8.83648 14.2905 10.4381 13.0145 11.5679 11.3602C12.6977 9.70595 13.3035 7.74989 13.3063 5.74659V3.81048C16.0671 2.47693 19.0928 1.78277 22.1588 1.77961C25.2247 1.77645 28.2519 2.46437 31.0154 3.79224C33.7788 5.1201 36.2074 7.05376 38.1207 9.44945C40.0339 11.8452 41.3826 14.6413 42.0664 17.63C42.7503 20.6187 42.7517 23.723 42.0706 26.7124C41.3894 29.7017 40.0433 32.499 38.1322 34.8964C36.2211 37.2939 33.7943 39.2297 31.032 40.5601C28.2698 41.8905 25.2432 42.5811 22.1772 42.5807Z" fill="#060E28"/>
</svg>
