<svg width="74" height="70" viewBox="0 0 74 70" fill="none" xmlns="http://www.w3.org/2000/svg">
<path d="M55.6943 15.4239C51.3491 15.4117 47.1511 16.9977 43.8994 19.88C40.6477 16.9977 36.4497 15.4117 32.1045 15.4239C27.3617 15.4352 22.8171 17.3274 19.4677 20.6853C16.1183 24.0431 14.2376 28.5925 14.2383 33.3353C14.2383 59.4794 43.2181 69.8335 43.5101 69.9349C43.7623 70.0221 44.0365 70.0221 44.2887 69.9349C44.5807 69.8335 73.5605 59.4794 73.5605 33.3353C73.5612 28.5925 71.6805 24.0431 68.3311 20.6852C64.9817 17.3274 60.4371 15.4352 55.6943 15.4239ZM55.7638 42.7121H46.2723V52.2037C46.2723 52.833 46.0223 53.4366 45.5773 53.8816C45.1323 54.3266 44.5287 54.5766 43.8994 54.5766C43.2701 54.5766 42.6665 54.3266 42.2215 53.8816C41.7765 53.4366 41.5265 52.833 41.5265 52.2037V42.7121H32.035C31.4056 42.7121 30.8021 42.4621 30.3571 42.0171C29.9121 41.5721 29.6621 40.9686 29.6621 40.3392C29.6621 39.7099 29.9121 39.1064 30.3571 38.6614C30.8021 38.2163 31.4056 37.9663 32.035 37.9663H41.5265V28.4748C41.5265 27.8455 41.7765 27.2419 42.2215 26.7969C42.6665 26.3519 43.2701 26.1019 43.8994 26.1019C44.5287 26.1019 45.1323 26.3519 45.5773 26.7969C46.0223 27.2419 46.2723 27.8455 46.2723 28.4748V37.9663H55.7638C56.3932 37.9663 56.9967 38.2163 57.4417 38.6614C57.8867 39.1064 58.1367 39.7099 58.1367 40.3392C58.1367 40.9686 57.8867 41.5721 57.4417 42.0171C56.9967 42.4621 56.3932 42.7121 55.7638 42.7121Z" fill="#1263FF" fill-opacity="0.4"/>
<path d="M29.6617 26.1016C21.6775 26.1016 11.7353 32.4492 8.17823 44.5813C5.69264 53.0635 10.7953 59.322 18.3592 59.322C19.7261 59.3799 21.087 59.1079 22.3266 58.5289C23.5663 57.9499 24.6483 57.081 25.4813 55.9956C26.6457 54.7286 27.4857 53.8134 29.6617 53.8134C31.8376 53.8134 32.6776 54.7287 33.8421 55.9956C34.675 57.081 35.7571 57.9499 36.9967 58.5289C38.2364 59.1079 39.5972 59.3799 40.9642 59.322C48.5247 59.322 53.6317 53.067 51.1451 44.5813C47.5881 32.4492 37.6458 26.1016 29.6617 26.1016ZM40.9642 56.9491C39.9256 57.0072 38.8891 56.8033 37.9499 56.3562C37.0107 55.9091 36.199 55.2331 35.5893 54.3903C34.8965 53.4738 34.0007 52.7305 32.9722 52.2186C31.9437 51.7068 30.8105 51.4404 29.6617 51.4404C28.5129 51.4404 27.3797 51.7068 26.3512 52.2186C25.3227 52.7305 24.4268 53.4738 23.7341 54.3903C23.1244 55.2331 22.3126 55.9091 21.3734 56.3562C20.4342 56.8033 19.3977 57.0072 18.3592 56.9491C12.2818 56.9491 8.44216 52.1151 10.4561 45.2486C12.8394 37.1167 20.381 28.4745 29.6617 28.4745C38.9424 28.4745 46.4839 37.1167 48.8672 45.2486C50.8812 52.115 47.0416 56.9491 40.9642 56.9491Z" fill="#060E28"/>
<path d="M28.9112 20.5957C29.123 20.7681 29.3878 20.8622 29.6609 20.8622C29.9339 20.8622 30.1987 20.7681 30.4105 20.5957C30.7175 20.3454 37.9428 14.3894 37.9428 8.11948C37.8998 5.95138 37.0084 3.88658 35.4599 2.36847C33.9114 0.850358 31.8294 0 29.6608 0C27.4923 0 25.4103 0.850358 23.8618 2.36847C22.3133 3.88658 21.4219 5.95138 21.3789 8.11948C21.3789 14.3894 28.6042 20.3454 28.9112 20.5957ZM29.6609 2.37262C31.2059 2.35319 32.6956 2.94725 33.8034 4.02455C34.9111 5.10185 35.5464 6.57446 35.5699 8.11946C35.5699 12.2071 31.4011 16.486 29.6597 18.0942C27.9194 16.4889 23.7518 12.2181 23.7518 8.11946C23.7754 6.57446 24.4107 5.10186 25.5184 4.02456C26.6261 2.94726 28.1158 2.35319 29.6609 2.37262Z" fill="#060E28"/>
<path d="M17.6843 25.006C17.7272 24.6166 18.6842 15.4182 14.2259 10.9152C9.1052 5.74126 0.119971 9.24737 0.00126711 16.4378C-0.0178367 17.5101 0.179248 18.5752 0.580762 19.5696C0.982276 20.564 1.57999 21.4674 2.33824 22.2258C5.75737 25.678 12.1102 26.1049 15.0439 26.1049C16.2256 26.1049 17.5488 26.2402 17.6843 25.006ZM4.02517 20.5562C3.49004 20.0221 3.06804 19.3856 2.78436 18.6848C2.50069 17.984 2.36116 17.2332 2.37411 16.4772C2.42865 15.3238 2.81807 14.2113 3.49476 13.2757C4.17145 12.3401 5.10608 11.622 6.18439 11.2091C7.2627 10.7961 8.43796 10.7064 9.56648 10.9507C10.695 11.195 11.7279 11.7629 12.5388 12.5848C15.4354 15.5092 15.4992 21.365 15.3937 23.7257C13.0023 23.7616 6.94262 23.502 4.02517 20.5562Z" fill="#060E28"/>
<path d="M45.0968 10.9143C40.6384 15.4173 41.5954 24.6158 41.6383 25.0051C41.6686 25.2809 41.7947 25.5374 41.9945 25.7299C42.1943 25.9224 42.4553 26.0388 42.7321 26.0588C47.1585 26.367 53.7166 25.5249 56.9845 22.2249C57.7427 21.4665 58.3404 20.5632 58.7419 19.5687C59.1434 18.5743 59.3405 17.5092 59.3214 16.4369C59.2024 9.23424 50.2042 5.75277 45.0968 10.9143ZM55.2975 20.5553C52.38 23.5012 46.3481 23.7439 43.9266 23.7248C43.82 21.3664 43.8791 15.5164 46.7838 12.5839C47.5949 11.7624 48.6278 11.1949 49.7561 10.9508C50.8845 10.7068 52.0596 10.7966 53.1377 11.2095C54.2159 11.6223 55.1504 12.3403 55.8271 13.2756C56.5039 14.211 56.8936 15.3232 56.9485 16.4763C56.9615 17.2323 56.8219 17.9831 56.5383 18.6839C56.2546 19.3847 55.8326 20.0212 55.2975 20.5553Z" fill="#060E28"/>
<path d="M34.4065 40.3386H30.8472V36.7792C30.8472 36.4646 30.7222 36.1628 30.4997 35.9403C30.2772 35.7178 29.9754 35.5928 29.6607 35.5928C29.3461 35.5928 29.0443 35.7178 28.8218 35.9403C28.5993 36.1628 28.4743 36.4646 28.4743 36.7792V40.3386H24.915C24.6003 40.3386 24.2985 40.4636 24.076 40.6861C23.8535 40.9086 23.7285 41.2103 23.7285 41.525C23.7285 41.8397 23.8535 42.1414 24.076 42.3639C24.2985 42.5864 24.6003 42.7114 24.915 42.7114H28.4743V46.2708C28.4743 46.5854 28.5993 46.8872 28.8218 47.1097C29.0443 47.3322 29.3461 47.4572 29.6607 47.4572C29.9754 47.4572 30.2772 47.3322 30.4997 47.1097C30.7222 46.8872 30.8472 46.5854 30.8472 46.2708V42.7114H34.4065C34.7212 42.7114 35.023 42.5864 35.2455 42.3639C35.468 42.1414 35.593 41.8397 35.593 41.525C35.593 41.2103 35.468 40.9086 35.2455 40.6861C35.023 40.4636 34.7212 40.3386 34.4065 40.3386Z" fill="#060E28"/>
</svg>
