<svg width="40" height="40" viewBox="0 0 40 40" fill="none" xmlns="http://www.w3.org/2000/svg">
<rect x="0.5" y="0.5" width="39" height="39" rx="19.5" stroke="#1E263D"/>
<path fill-rule="evenodd" clip-rule="evenodd" d="M20 9.5C20.8284 9.5 21.5 10.1716 21.5 11V18.5H29C29.8284 18.5 30.5 19.1716 30.5 20C30.5 20.8284 29.8284 21.5 29 21.5H21.5V29C21.5 29.8284 20.8284 30.5 20 30.5C19.1716 30.5 18.5 29.8284 18.5 29V21.5H11C10.1716 21.5 9.5 20.8284 9.5 20C9.5 19.1716 10.1716 18.5 11 18.5L18.5 18.5V11C18.5 10.1716 19.1716 9.5 20 9.5Z" fill="#1E263D"/>
</svg>
