<svg width="70" height="70" viewBox="0 0 70 70" fill="none" xmlns="http://www.w3.org/2000/svg">
<path d="M58.2845 60.5019C58.1301 60.6564 57.9468 60.7789 57.745 60.8625C57.5432 60.9461 57.3269 60.9892 57.1085 60.9892H48.2373C47.7962 60.9892 47.3731 60.8139 47.0612 60.502C46.7492 60.1901 46.574 59.767 46.574 59.3259V50.4547C46.5741 50.0136 46.7494 49.5905 47.0613 49.2786L58.0455 38.2944C54.6079 37.3368 50.9498 37.5449 47.6429 38.8861C44.336 40.2273 41.5665 42.6261 39.767 45.7077C37.9675 48.7893 37.2394 52.3801 37.6965 55.9193C38.1536 59.4584 39.77 62.7465 42.2934 65.2698C44.8167 67.7931 48.1048 69.4096 51.6439 69.8667C55.1831 70.3237 58.7739 69.5956 61.8555 67.7961C64.9371 65.9967 67.3359 63.2271 68.6771 59.9202C70.0183 56.6133 70.2263 52.9553 69.2688 49.5176L58.2845 60.5019Z" fill="#1263FF"/>
<path d="M67.931 46.1519C66.4355 43.3931 64.1707 41.1283 61.4118 39.6328L52.2529 48.7917L58.7721 55.3109L67.931 46.1519Z" fill="#1263FF"/>
<path d="M49.9004 57.6628H56.4196L49.9004 51.1436V57.6628Z" fill="#1263FF"/>
<path d="M64.8706 0H4.99005C3.66705 0.00144118 2.39865 0.52764 1.46314 1.46314C0.52764 2.39865 0.00144118 3.66705 0 4.99005V60.435C0.00144118 61.758 0.52764 63.0265 1.46314 63.962C2.39865 64.8975 3.66705 65.4237 4.99005 65.4251H34.9303C35.3715 65.4251 35.7946 65.2499 36.1065 64.9379C36.4185 64.626 36.5937 64.2029 36.5937 63.7617C36.5937 63.3206 36.4185 62.8975 36.1065 62.5856C35.7946 62.2736 35.3715 62.0984 34.9303 62.0984H14.4157V20.5146C14.4162 20.0736 14.5916 19.6508 14.9034 19.339C15.2152 19.0272 15.638 18.8518 16.0791 18.8513H53.7816C54.2226 18.8518 54.6454 19.0272 54.9573 19.339C55.2691 19.6508 55.4445 20.0736 55.445 20.5146V33.0017C55.445 33.4428 55.6202 33.8659 55.9322 34.1778C56.2441 34.4898 56.6672 34.665 57.1083 34.665C57.5495 34.665 57.9726 34.4898 58.2845 34.1778C58.5965 33.8659 58.7717 33.4428 58.7717 33.0017V20.5146C58.7703 19.1916 58.2441 17.9232 57.3086 16.9877C56.3731 16.0522 55.1046 15.526 53.7816 15.5246H16.0791C14.756 15.526 13.4876 16.0522 12.5521 16.9877C11.6166 17.9232 11.0904 19.1916 11.089 20.5146V62.0984H4.99005C4.54905 62.0979 4.12625 61.9225 3.81442 61.6107C3.50258 61.2988 3.32718 60.876 3.3267 60.435V12.1979H66.534V38.4585C66.534 38.8996 66.7092 39.3227 67.0212 39.6346C67.3331 39.9466 67.7562 40.1218 68.1973 40.1218C68.6385 40.1218 69.0616 39.9466 69.3735 39.6346C69.6855 39.3227 69.8607 38.8996 69.8607 38.4585V4.99005C69.8593 3.66705 69.3331 2.39865 68.3976 1.46314C67.4621 0.52764 66.1936 0.00144118 64.8706 0ZM3.3267 8.8712V4.99005C3.32718 4.54905 3.50258 4.12625 3.81442 3.81442C4.12625 3.50258 4.54905 3.32718 4.99005 3.3267H64.8706C65.3116 3.32718 65.7344 3.50258 66.0463 3.81442C66.3581 4.12625 66.5335 4.54905 66.534 4.99005V8.8712H3.3267Z" fill="#060E28"/>
<path d="M19.4055 26.6138H30.4945C30.9357 26.6138 31.3588 26.4386 31.6707 26.1266C31.9826 25.8147 32.1579 25.3916 32.1579 24.9505C32.1579 24.5093 31.9826 24.0862 31.6707 23.7743C31.3588 23.4624 30.9357 23.2871 30.4945 23.2871H19.4055C18.9644 23.2871 18.5413 23.4624 18.2294 23.7743C17.9174 24.0862 17.7422 24.5093 17.7422 24.9505C17.7422 25.3916 17.9174 25.8147 18.2294 26.1266C18.5413 26.4386 18.9644 26.6138 19.4055 26.6138Z" fill="#060E28"/>
<path d="M38.8113 40.4749C38.8113 40.0337 38.636 39.6107 38.3241 39.2987C38.0121 38.9868 37.5891 38.8115 37.1479 38.8115H19.4055C18.9644 38.8115 18.5413 38.9868 18.2294 39.2987C17.9174 39.6106 17.7422 40.0337 17.7422 40.4749C17.7422 40.916 17.9174 41.3391 18.2294 41.651C18.5413 41.963 18.9644 42.1382 19.4055 42.1382H37.1479C37.5891 42.1382 38.0121 41.9629 38.3241 41.651C38.636 41.3391 38.8113 40.916 38.8113 40.4749Z" fill="#060E28"/>
<path d="M19.4055 52.1182C18.9644 52.1182 18.5413 52.2934 18.2294 52.6053C17.9174 52.9173 17.7422 53.3404 17.7422 53.7815C17.7422 54.2227 17.9174 54.6457 18.2294 54.9577C18.5413 55.2696 18.9644 55.4449 19.4055 55.4449H32.7123C33.1535 55.4449 33.5766 55.2696 33.8885 54.9577C34.2004 54.6457 34.3757 54.2227 34.3757 53.7815C34.3757 53.3404 34.2004 52.9173 33.8885 52.6053C33.5766 52.2934 33.1535 52.1182 32.7123 52.1182H19.4055Z" fill="#060E28"/>
<path d="M35.4846 47.1282C35.4846 46.6871 35.3093 46.264 34.9974 45.9521C34.6854 45.6401 34.2624 45.4649 33.8212 45.4648H19.4055C18.9644 45.4648 18.5413 45.6401 18.2294 45.952C17.9174 46.264 17.7422 46.687 17.7422 47.1282C17.7422 47.5693 17.9174 47.9924 18.2294 48.3044C18.5413 48.6163 18.9644 48.7915 19.4055 48.7915H33.8212C34.2624 48.7915 34.6854 48.6163 34.9974 48.3043C35.3093 47.9924 35.4846 47.5693 35.4846 47.1282Z" fill="#060E28"/>
<path d="M19.4055 33.2671H30.4945C30.9357 33.2671 31.3588 33.0919 31.6707 32.7799C31.9826 32.468 32.1579 32.0449 32.1579 31.6038C32.1579 31.1626 31.9826 30.7396 31.6707 30.4276C31.3588 30.1157 30.9357 29.9404 30.4945 29.9404H19.4055C18.9644 29.9404 18.5413 30.1157 18.2294 30.4276C17.9174 30.7396 17.7422 31.1626 17.7422 31.6038C17.7422 32.0449 17.9174 32.468 18.2294 32.7799C18.5413 33.0919 18.9644 33.2671 19.4055 33.2671Z" fill="#060E28"/>
</svg>
