<svg width="70" height="70" viewBox="0 0 70 70" fill="none" xmlns="http://www.w3.org/2000/svg">
<path d="M50.5554 56.6666C53.9305 56.6666 56.6666 53.9305 56.6666 50.5554C56.6666 47.1804 53.9305 44.4443 50.5554 44.4443C47.1804 44.4443 44.4443 47.1804 44.4443 50.5554C44.4443 53.9305 47.1804 56.6666 50.5554 56.6666Z" fill="#1263FF"/>
<path d="M52.7779 35.5557C49.3717 35.5557 46.0419 36.5657 43.2097 38.4581C40.3776 40.3505 38.1701 43.0403 36.8666 46.1872C35.5631 49.3342 35.2221 52.797 35.8866 56.1378C36.5511 59.4786 38.1914 62.5473 40.5999 64.9558C43.0085 67.3644 46.0772 69.0047 49.418 69.6692C52.7588 70.3337 56.2216 69.9927 59.3686 68.6891C62.5155 67.3856 65.2052 65.1782 67.0976 62.346C68.9901 59.5139 70.0001 56.1841 70.0001 52.7779C69.995 48.2118 68.1789 43.8343 64.9502 40.6056C61.7215 37.3769 57.3439 35.5608 52.7779 35.5557ZM62.8452 62.8452C62.6905 63 62.5067 63.1228 62.3046 63.2065C62.1024 63.2903 61.8856 63.3334 61.6668 63.3334C61.4479 63.3334 61.2312 63.2903 61.029 63.2065C60.8268 63.1228 60.6431 63 60.4884 62.8452L55.9444 58.3012C54.003 59.6535 51.6256 60.23 49.2804 59.9169C46.9352 59.6038 44.7922 58.4239 43.2736 56.6096C41.755 54.7953 40.9707 52.4781 41.0754 50.1144C41.18 47.7508 42.1659 45.5119 43.8389 43.8389C45.5119 42.1659 47.7508 41.18 50.1145 41.0754C52.4781 40.9707 54.7953 41.755 56.6096 43.2736C58.4239 44.7922 59.6038 46.9352 59.9169 49.2804C60.23 51.6256 59.6536 54.003 58.3012 55.9444L62.8452 60.4884C63 60.6431 63.1228 60.8268 63.2065 61.029C63.2903 61.2312 63.3334 61.4479 63.3334 61.6668C63.3334 61.8856 63.2903 62.1024 63.2065 62.3045C63.1228 62.5067 63 62.6904 62.8452 62.8452Z" fill="#1263FF"/>
<path d="M65 0H5C3.67436 0.00144406 2.40343 0.528692 1.46606 1.46606C0.528692 2.40343 0.00144406 3.67436 0 5V56.1111C0.00144406 57.4367 0.528692 58.7077 1.46606 59.645C2.40343 60.5824 3.67436 61.1097 5 61.1111H30.5556C30.9976 61.1111 31.4215 60.9355 31.7341 60.6229C32.0466 60.3104 32.2222 59.8865 32.2222 59.4444C32.2222 59.0024 32.0466 58.5785 31.7341 58.2659C31.4215 57.9534 30.9976 57.7778 30.5556 57.7778H5C4.55812 57.7773 4.13448 57.6015 3.82202 57.2891C3.50957 56.9766 3.33382 56.553 3.33333 56.1111V12.2222H66.6667V35C66.6667 35.442 66.8423 35.8659 67.1548 36.1785C67.4674 36.4911 67.8913 36.6667 68.3333 36.6667C68.7754 36.6667 69.1993 36.4911 69.5118 36.1785C69.8244 35.8659 70 35.442 70 35V5C69.9986 3.67436 69.4713 2.40343 68.5339 1.46606C67.5966 0.528692 66.3256 0.00144406 65 0ZM3.33333 8.88889V5C3.33382 4.55812 3.50957 4.13448 3.82202 3.82202C4.13448 3.50956 4.55812 3.33382 5 3.33333H65C65.4419 3.33382 65.8655 3.50956 66.178 3.82202C66.4904 4.13448 66.6662 4.55812 66.6667 5V8.88889H3.33333Z" fill="#060E28"/>
<path d="M21.1109 19.444C21.1109 19.2251 21.0678 19.0084 20.9841 18.8062C20.9003 18.6039 20.7776 18.4202 20.6228 18.2654C20.468 18.1107 20.2843 17.9879 20.0821 17.9041C19.8798 17.8204 19.6631 17.7773 19.4442 17.7773H10.5553C10.3365 17.7773 10.1197 17.8204 9.91749 17.9041C9.71527 17.9879 9.53152 18.1107 9.37675 18.2654C9.22198 18.4202 9.09922 18.6039 9.01547 18.8062C8.93173 19.0084 8.88864 19.2251 8.88867 19.444V28.3329C8.88864 28.5518 8.93173 28.7685 9.01547 28.9707C9.09922 29.173 9.22198 29.3567 9.37675 29.5115C9.53152 29.6663 9.71527 29.789 9.91749 29.8728C10.1197 29.9565 10.3365 29.9996 10.5553 29.9996H19.4442C19.6631 29.9996 19.8798 29.9565 20.0821 29.8728C20.2843 29.789 20.468 29.6663 20.6228 29.5115C20.7776 29.3567 20.9003 29.173 20.9841 28.9707C21.0678 28.7685 21.1109 28.5518 21.1109 28.3329V19.444ZM17.7776 26.6662H12.222V21.1107H17.7776V26.6662Z" fill="#060E28"/>
<path d="M27.2223 21.1107H52.7779C53.2199 21.1107 53.6438 20.9351 53.9564 20.6225C54.269 20.31 54.4445 19.886 54.4445 19.444C54.4445 19.002 54.269 18.5781 53.9564 18.2655C53.6438 17.9529 53.2199 17.7773 52.7779 17.7773H27.2223C26.7803 17.7773 26.3564 17.9529 26.0438 18.2655C25.7313 18.5781 25.5557 19.002 25.5557 19.444C25.5557 19.886 25.7313 20.31 26.0438 20.6225C26.3564 20.9351 26.7803 21.1107 27.2223 21.1107Z" fill="#060E28"/>
<path d="M27.2223 28.889H43.889C44.331 28.889 44.7549 28.7134 45.0675 28.4008C45.3801 28.0883 45.5557 27.6644 45.5557 27.2223C45.5557 26.7803 45.3801 26.3564 45.0675 26.0438C44.7549 25.7313 44.331 25.5557 43.889 25.5557H27.2223C26.7803 25.5557 26.3564 25.7313 26.0438 26.0438C25.7313 26.3564 25.5557 26.7803 25.5557 27.2223C25.5557 27.6644 25.7313 28.0883 26.0438 28.4008C26.3564 28.7134 26.7803 28.889 27.2223 28.889Z" fill="#060E28"/>
<path d="M19.4442 35.5557H10.5553C10.1133 35.5557 9.68941 35.7313 9.37685 36.0438C9.0643 36.3564 8.8887 36.7803 8.88867 37.2223V46.1112C8.88869 46.5532 9.06429 46.9771 9.37685 47.2897C9.68941 47.6023 10.1133 47.7779 10.5553 47.7779H19.4442C19.8862 47.7779 20.3102 47.6023 20.6227 47.2897C20.9353 46.9771 21.1109 46.5532 21.1109 46.1112V37.2223C21.1109 36.7803 20.9353 36.3564 20.6227 36.0438C20.3102 35.7313 19.8862 35.5557 19.4442 35.5557ZM17.7776 44.4446H12.222V38.889H17.7776V44.4446Z" fill="#060E28"/>
<path d="M27.2223 38.889H37.2223C37.6644 38.889 38.0883 38.7134 38.4008 38.4008C38.7134 38.0883 38.889 37.6644 38.889 37.2223C38.889 36.7803 38.7134 36.3564 38.4008 36.0438C38.0883 35.7313 37.6644 35.5557 37.2223 35.5557H27.2223C26.7803 35.5557 26.3564 35.7313 26.0438 36.0438C25.7313 36.3564 25.5557 36.7803 25.5557 37.2223C25.5557 37.6644 25.7313 38.0883 26.0438 38.4008C26.3564 38.7134 26.7803 38.889 27.2223 38.889Z" fill="#060E28"/>
<path d="M27.2223 46.6663H31.6668C32.1088 46.6663 32.5327 46.4907 32.8453 46.1782C33.1578 45.8656 33.3334 45.4417 33.3334 44.9997C33.3334 44.5576 33.1578 44.1337 32.8453 43.8212C32.5327 43.5086 32.1088 43.333 31.6668 43.333H27.2223C26.7803 43.333 26.3564 43.5086 26.0438 43.8212C25.7313 44.1337 25.5557 44.5576 25.5557 44.9997C25.5557 45.4417 25.7313 45.8656 26.0438 46.1782C26.3564 46.4907 26.7803 46.6663 27.2223 46.6663Z" fill="#060E28"/>
</svg>
