<svg width="70" height="70" viewBox="0 0 70 70" fill="none" xmlns="http://www.w3.org/2000/svg">
<path d="M35.0003 16.667C31.3743 16.667 27.8298 17.7422 24.8149 19.7567C21.8 21.7712 19.4501 24.6345 18.0625 27.9845C16.6749 31.3344 16.3119 35.0207 17.0193 38.577C17.7267 42.1333 19.4727 45.4 22.0367 47.964C24.6007 50.5279 27.8674 52.274 31.4237 52.9814C34.98 53.6888 38.6662 53.3257 42.0162 51.9381C45.3662 50.5505 48.2295 48.2007 50.2439 45.1858C52.2584 42.1709 53.3337 38.6263 53.3337 35.0003C53.3281 30.1397 51.3947 25.4798 47.9578 22.0429C44.5208 18.6059 39.8609 16.6726 35.0003 16.667ZM44.4285 27.2388H42.1667L42.464 27.5361C44.0663 29.1333 45.114 31.2024 45.4531 33.4392C45.7922 35.676 45.4048 37.9626 44.3478 39.9629C43.2908 41.9632 41.6201 43.5717 39.5811 44.552C37.5421 45.5322 35.2425 45.8325 33.0201 45.4088C30.7978 44.985 28.77 43.8595 27.2348 42.1978C25.6996 40.536 24.738 38.4255 24.4913 36.1766C24.2446 33.9277 24.7258 31.659 25.8642 29.7039C27.0026 27.7488 28.7382 26.2105 30.8158 25.315C31.2215 25.1398 31.6803 25.1329 32.0912 25.2959C32.502 25.4589 32.8313 25.7784 33.0065 26.1842C33.1818 26.5899 33.1887 27.0487 33.0257 27.4596C32.8627 27.8704 32.5431 28.1997 32.1374 28.3749C30.7203 28.9882 29.5372 30.0397 28.7618 31.375C27.9864 32.7103 27.6596 34.259 27.8293 35.7938C27.999 37.3285 28.6563 38.7684 29.7047 39.9021C30.7531 41.0357 32.1373 41.8033 33.6541 42.0922C35.171 42.3811 36.7405 42.1761 38.1322 41.5072C39.5239 40.8384 40.6645 39.7409 41.3865 38.376C42.1085 37.0111 42.3738 35.4507 42.1436 33.9238C41.9133 32.397 41.1996 30.9842 40.1072 29.8929L39.8099 29.5956V31.858C39.8099 32.3 39.6343 32.724 39.3217 33.0365C39.0092 33.3491 38.5853 33.5247 38.1432 33.5247C37.7012 33.5247 37.2773 33.3491 36.9647 33.0365C36.6522 32.724 36.4766 32.3 36.4766 31.858V25.5722C36.4779 25.1305 36.6539 24.7074 36.9662 24.3951C37.2784 24.0828 37.7016 23.9068 38.1432 23.9055H44.4285C44.8705 23.9055 45.2945 24.0811 45.607 24.3936C45.9196 24.7062 46.0952 25.1301 46.0952 25.5722C46.0952 26.0142 45.9196 26.4381 45.607 26.7507C45.2945 27.0632 44.8705 27.2388 44.4285 27.2388Z" fill="#1263FF"/>
<path d="M40 70H30C29.1162 69.999 28.269 69.6475 27.644 69.0226C27.0191 68.3977 26.6676 67.5504 26.6667 66.6667V65.5447C24.091 64.8422 21.6155 63.8139 19.3001 62.4848L18.501 63.2845C17.8753 63.908 17.028 64.2582 16.1447 64.2584C15.2614 64.2586 14.414 63.9088 13.788 63.2856L6.71603 56.2131C6.40644 55.9037 6.16084 55.5363 5.99328 55.1319C5.82572 54.7275 5.73948 54.2941 5.73948 53.8563C5.73948 53.4186 5.82572 52.9852 5.99328 52.5808C6.16084 52.1764 6.40644 51.809 6.71603 51.4996L7.51519 50.6999C6.18611 48.3845 5.15785 45.909 4.4553 43.3333H3.33333C2.44957 43.3324 1.60229 42.9809 0.977376 42.356C0.352464 41.731 0.000964662 40.8838 0 40V30C0.000964662 29.1162 0.352464 28.269 0.977376 27.644C1.60229 27.0191 2.44957 26.6676 3.33333 26.6667H4.4553C5.15785 24.091 6.18611 21.6155 7.51519 19.3001L6.71556 18.5004C6.40587 18.191 6.16021 17.8236 5.99262 17.4192C5.82503 17.0148 5.73879 16.5813 5.73884 16.1436C5.73889 15.7058 5.82523 15.2723 5.99291 14.868C6.16059 14.4636 6.40634 14.0962 6.71609 13.7869L13.7869 6.71556C14.4126 6.09207 15.2598 5.7419 16.1432 5.74169C17.0265 5.74148 17.8739 6.09126 18.4999 6.71445L19.3001 7.51522C21.6155 6.18613 24.091 5.15786 26.6667 4.4553V3.33333C26.6676 2.44957 27.0191 1.60229 27.644 0.977376C28.269 0.352464 29.1162 0.000964662 30 0H40C40.8838 0.000964662 41.731 0.352464 42.356 0.977376C42.9809 1.60229 43.3324 2.44957 43.3333 3.33333V4.4553C45.909 5.15785 48.3845 6.18611 50.6999 7.51519L51.499 6.7155C52.1247 6.09202 52.972 5.74185 53.8553 5.74164C54.7386 5.74143 55.586 6.0912 56.212 6.71439L63.284 13.7869C63.9081 14.4124 64.2586 15.2598 64.2589 16.1434C64.2591 17.027 63.9089 17.8746 63.2851 18.5004L62.4848 19.3001C63.8139 21.6155 64.8422 24.091 65.5447 26.6667H66.6667C67.5504 26.6676 68.3977 27.0191 69.0226 27.644C69.6475 28.269 69.999 29.1162 70 30V40C69.999 40.8838 69.6475 41.731 69.0226 42.356C68.3977 42.9809 67.5504 43.3324 66.6667 43.3333H65.5447C64.8422 45.909 63.8139 48.3845 62.4848 50.6999L63.2845 51.4996C63.9085 52.1252 64.2589 52.9728 64.2588 53.8565C64.2587 54.7401 63.9081 55.5876 63.284 56.2131L56.2131 63.2845C55.5874 63.908 54.7402 64.2582 53.8568 64.2584C52.9735 64.2586 52.1261 63.9088 51.5001 63.2856L50.6999 62.4848C48.3845 63.8139 45.909 64.8422 43.3333 65.5447V66.6667C43.3324 67.5504 42.9809 68.3977 42.356 69.0226C41.731 69.6475 40.8838 69.999 40 70ZM19.9316 58.9757C22.6277 60.6792 25.5942 61.911 28.7039 62.6183C29.072 62.7025 29.4007 62.9091 29.6362 63.2044C29.8716 63.4996 29.9999 63.8661 30 64.2437V66.6667H40V64.2437C40.0001 63.8661 40.1284 63.4996 40.3638 63.2044C40.5993 62.9091 40.928 62.7025 41.2961 62.6183C44.4058 61.911 47.3723 60.6792 50.0683 58.9757C50.3881 58.7738 50.7671 58.6867 51.1429 58.7287C51.5188 58.7707 51.8691 58.9393 52.1365 59.2068L53.8569 60.9278L60.9272 53.8564L59.2068 52.1355C58.9394 51.8681 58.7709 51.5177 58.7289 51.1419C58.6869 50.7661 58.7739 50.3871 58.9757 50.0673C60.679 47.3716 61.9111 44.4057 62.6194 41.2967C62.7032 40.9284 62.9097 40.5995 63.2049 40.364C63.5001 40.1284 63.8666 40.0001 64.2442 40H66.6667V30H64.2442C63.8666 29.9999 63.5001 29.8716 63.2049 29.636C62.9097 29.4005 62.7032 29.0716 62.6194 28.7033C61.9111 25.5943 60.679 22.6284 58.9757 19.9327C58.7739 19.6129 58.6869 19.234 58.7289 18.8582C58.7709 18.4823 58.9394 18.132 59.2068 17.8646L60.9278 16.1437L53.8563 9.07222L52.1365 10.7931C51.869 11.0604 51.5187 11.2288 51.1429 11.2708C50.7671 11.3128 50.3882 11.2259 50.0684 11.0243C47.3723 9.32072 44.4058 8.08891 41.2961 7.38167C40.928 7.29749 40.5993 7.09088 40.3639 6.79562C40.1284 6.50036 40.0001 6.13393 40 5.75629V3.33333H30V5.75629C29.9999 6.13394 29.8716 6.50037 29.6362 6.79565C29.4007 7.09092 29.072 7.29754 28.7039 7.38172C25.5942 8.08896 22.6277 9.32078 19.9317 11.0243C19.6118 11.226 19.2329 11.313 18.8571 11.271C18.4813 11.229 18.131 11.0605 17.8635 10.7932L16.1431 9.07222L9.07281 16.1437L10.7937 17.8646C11.0609 18.1321 11.2292 18.4825 11.2711 18.8583C11.313 19.2341 11.226 19.6129 11.0243 19.9327C9.32104 22.6284 8.08889 25.5943 7.38064 28.7033C7.29678 29.0716 7.09034 29.4005 6.79513 29.636C6.49991 29.8716 6.13344 29.9999 5.75576 30H3.33333V40H5.75576C6.13344 40.0001 6.49991 40.1284 6.79512 40.364C7.09033 40.5995 7.29678 40.9284 7.38064 41.2967C8.08889 44.4057 9.32103 47.3716 11.0243 50.0673C11.226 50.3871 11.313 50.766 11.2711 51.1417C11.2292 51.5175 11.0609 51.8679 10.7937 52.1354L9.07333 53.8563L16.1437 60.9278L17.8635 59.2069C18.1309 58.9394 18.4813 58.7709 18.8571 58.7289C19.2329 58.6869 19.6118 58.7739 19.9316 58.9757Z" fill="#060E28"/>
<path d="M17.3225 52.678C12.6409 47.9859 10.0117 41.6283 10.0117 35C10.0117 28.3718 12.6409 22.0142 17.3225 17.3221C17.635 17.0096 18.0589 16.834 18.5009 16.834C18.9429 16.834 19.3668 17.0096 19.6793 17.3221C19.9918 17.6346 20.1674 18.0585 20.1674 18.5005C20.1674 18.9425 19.9918 19.3663 19.6793 19.6789C15.622 23.7456 13.3434 29.2555 13.3434 35C13.3434 40.7446 15.622 46.2545 19.6793 50.3212C19.9918 50.6338 20.1674 51.0576 20.1674 51.4996C20.1674 51.9416 19.9918 52.3655 19.6793 52.678C19.3668 52.9905 18.9429 53.1661 18.5009 53.1661C18.0589 53.1661 17.635 52.9905 17.3225 52.678Z" fill="#060E28"/>
<path d="M50.3203 52.678C50.1655 52.5233 50.0427 52.3396 49.9589 52.1374C49.8752 51.9352 49.832 51.7185 49.832 51.4996C49.832 51.2807 49.8752 51.064 49.9589 50.8618C50.0427 50.6596 50.1655 50.4759 50.3203 50.3212C54.3776 46.2545 56.6562 40.7446 56.6562 35C56.6562 29.2555 54.3776 23.7456 50.3203 19.6789C50.1656 19.5241 50.0428 19.3404 49.9591 19.1382C49.8753 18.936 49.8322 18.7193 49.8322 18.5005C49.8322 18.2816 49.8753 18.0649 49.9591 17.8627C50.0428 17.6605 50.1656 17.4768 50.3203 17.3221C50.6328 17.0096 51.0567 16.834 51.4987 16.834C51.7175 16.834 51.9342 16.8771 52.1364 16.9608C52.3386 17.0446 52.5223 17.1673 52.6771 17.3221C57.3587 22.0142 59.9879 28.3718 59.9879 35C59.9879 41.6283 57.3587 47.9859 52.6771 52.678C52.5224 52.8328 52.3387 52.9556 52.1365 53.0394C51.9343 53.1231 51.7176 53.1663 51.4987 53.1663C51.2798 53.1663 51.0631 53.1231 50.8609 53.0394C50.6587 52.9556 50.475 52.8328 50.3203 52.678Z" fill="#060E28"/>
</svg>
