<svg width="70" height="70" viewBox="0 0 70 70" fill="none" xmlns="http://www.w3.org/2000/svg">
<path d="M52.5726 23.3737C55.8563 23.3737 58.5182 20.7117 58.5182 17.428C58.5182 14.1444 55.8563 11.4824 52.5726 11.4824C49.2889 11.4824 46.627 14.1444 46.627 17.428C46.627 20.7117 49.2889 23.3737 52.5726 23.3737Z" fill="#1263FF"/>
<path d="M68.375 13.6958H65.248C64.9846 12.7951 64.6245 11.9256 64.1739 11.1024L66.385 8.89185C66.5359 8.74102 66.6555 8.56195 66.7372 8.36487C66.8188 8.16778 66.8608 7.95655 66.8608 7.74323C66.8608 7.5299 66.8188 7.31867 66.7372 7.12159C66.6555 6.9245 66.5359 6.74543 66.385 6.5946L63.405 3.61454C63.0946 3.32112 62.6836 3.15765 62.2564 3.15765C61.8292 3.15765 61.4183 3.32112 61.1078 3.61454L58.8973 5.82562C58.074 5.37512 57.2045 5.01501 56.3038 4.75158V1.62454C56.3039 1.41119 56.2619 1.19992 56.1802 1.00281C56.0986 0.805693 55.9789 0.626591 55.8281 0.475732C55.6772 0.324873 55.4981 0.205212 55.301 0.123585C55.1038 0.0419579 54.8926 -3.66143e-05 54.6792 2.39531e-08H50.4649C50.2516 -3.66143e-05 50.0403 0.0419579 49.8432 0.123585C49.6461 0.205212 49.467 0.324873 49.3161 0.475732C49.1652 0.626591 49.0456 0.805693 48.9639 1.00281C48.8823 1.19992 48.8403 1.41119 48.8403 1.62454V4.75158C47.9396 5.01501 47.0701 5.37512 46.2469 5.82562L44.0358 3.61456C43.7254 3.32115 43.3144 3.15767 42.8872 3.15767C42.46 3.15767 42.0491 3.32115 41.7386 3.61456L38.7592 6.59462C38.6083 6.74544 38.4886 6.9245 38.4069 7.12159C38.3253 7.31867 38.2832 7.52991 38.2832 7.74325C38.2832 7.95658 38.3253 8.16783 38.4069 8.36491C38.4886 8.562 38.6083 8.74106 38.7592 8.89187L40.9697 11.1024C40.5193 11.9257 40.1592 12.7952 39.8956 13.6958H36.7691C36.5558 13.6958 36.3445 13.7378 36.1474 13.8194C35.9503 13.901 35.7712 14.0207 35.6203 14.1716C35.4694 14.3224 35.3498 14.5015 35.2681 14.6987C35.1865 14.8958 35.1445 15.1071 35.1445 15.3204V19.5347C35.1445 19.7481 35.1865 19.9593 35.2681 20.1565C35.3498 20.3536 35.4694 20.5327 35.6203 20.6835C35.7712 20.8344 35.9503 20.9541 36.1474 21.0357C36.3445 21.1173 36.5558 21.1593 36.7691 21.1593H39.8956C40.1592 22.0599 40.5193 22.9294 40.9697 23.7527L38.7592 25.9637C38.6083 26.1145 38.4886 26.2936 38.4069 26.4907C38.3252 26.6878 38.2832 26.899 38.2832 27.1123C38.2832 27.3257 38.3252 27.5369 38.4069 27.734C38.4886 27.9311 38.6083 28.1102 38.7592 28.261L41.7385 31.2405C41.8893 31.3913 42.0684 31.511 42.2655 31.5927C42.4626 31.6744 42.6738 31.7164 42.8871 31.7164C43.1005 31.7164 43.3117 31.6744 43.5088 31.5927C43.7059 31.511 43.885 31.3913 44.0358 31.2405L46.2468 29.0299C47.0701 29.4803 47.9396 29.8404 48.8403 30.104V33.2305C48.8402 33.4438 48.8822 33.6551 48.9639 33.8522C49.0455 34.0494 49.1651 34.2285 49.316 34.3793C49.4669 34.5302 49.646 34.6499 49.8431 34.7315C50.0402 34.8131 50.2515 34.8551 50.4649 34.8551H54.6792C54.8925 34.8551 55.1038 34.8131 55.3009 34.7315C55.4981 34.6499 55.6772 34.5302 55.8281 34.3794C55.9789 34.2285 56.0986 34.0494 56.1802 33.8522C56.2619 33.6551 56.3039 33.4438 56.3038 33.2305V30.104C57.2045 29.8404 58.074 29.4803 58.8973 29.0299L61.1078 31.2405C61.2586 31.3913 61.4376 31.511 61.6347 31.5927C61.8318 31.6744 62.0431 31.7164 62.2564 31.7164C62.4697 31.7164 62.681 31.6744 62.8781 31.5927C63.0751 31.511 63.2542 31.3913 63.405 31.2405L66.385 28.261C66.5358 28.1102 66.6555 27.9311 66.7372 27.734C66.8188 27.5369 66.8608 27.3257 66.8608 27.1124C66.8608 26.899 66.8188 26.6878 66.7372 26.4907C66.6555 26.2936 66.5358 26.1146 66.385 25.9637L64.1739 23.7527C64.6245 22.9295 64.9846 22.06 65.248 21.1593H68.375C68.5884 21.1593 68.7996 21.1173 68.9968 21.0357C69.1939 20.9541 69.373 20.8344 69.5238 20.6835C69.6747 20.5327 69.7944 20.3536 69.876 20.1565C69.9577 19.9593 69.9997 19.7481 69.9996 19.5347V15.3204C69.9997 15.107 69.9577 14.8958 69.876 14.6986C69.7944 14.5015 69.6747 14.3224 69.5239 14.1715C69.373 14.0207 69.1939 13.901 68.9968 13.8194C68.7996 13.7378 68.5884 13.6958 68.375 13.6958ZM52.5721 26.1626C50.8445 26.1626 49.1556 25.6503 47.7192 24.6904C46.2827 23.7306 45.1631 22.3664 44.502 20.7703C43.8408 19.1742 43.6679 17.4179 44.0049 15.7234C44.3419 14.029 45.1739 12.4726 46.3955 11.251C47.6171 10.0293 49.1735 9.19741 50.868 8.86037C52.5624 8.52333 54.3187 8.69631 55.9148 9.35744C57.5109 10.0186 58.8752 11.1382 59.835 12.5746C60.7948 14.0111 61.3071 15.6999 61.3071 17.4275C61.3046 19.7435 60.3835 21.9638 58.7459 23.6014C57.1083 25.239 54.888 26.1601 52.5721 26.1626Z" fill="#1263FF"/>
<path d="M47.7816 36.1569C47.3461 36.0748 46.8958 36.1677 46.5284 36.4155C46.161 36.6634 45.9062 37.0462 45.8194 37.4807C44.5567 43.8309 41.1016 49.535 36.0585 53.5954C35.8574 53.7518 35.6948 53.9521 35.5829 54.1809C35.471 54.4098 35.4129 54.6612 35.4129 54.9159V58.8427H14.2144V54.9159C14.2144 54.6611 14.1562 54.4097 14.0442 54.1809C13.9322 53.952 13.7695 53.7517 13.5683 53.5954C10.4517 51.109 7.92032 47.9672 6.15389 44.3929C4.38746 40.8186 3.42922 36.8994 3.34713 32.9133C3.34878 29.5399 4.14504 26.2143 5.67141 23.206C7.19778 20.1977 9.41132 17.5912 12.1327 15.5978C14.8541 13.6043 18.0068 12.28 21.3354 11.732C24.664 11.184 28.0749 11.4278 31.2917 12.4437C31.7147 12.5779 32.1738 12.5386 32.5678 12.3344C32.9619 12.1301 33.2587 11.7777 33.3929 11.3547C33.5271 10.9316 33.4878 10.4726 33.2836 10.0785C33.0793 9.68447 32.7269 9.38769 32.3039 9.25346C28.5855 8.07835 24.6425 7.79582 20.7946 8.42877C16.9466 9.06172 13.3019 10.5923 10.1558 12.8966C7.00972 15.2008 4.45076 18.2139 2.68631 21.6915C0.921863 25.1692 0.00156492 29.0136 0 32.9133C0.0885086 37.2681 1.10342 41.5541 2.9772 45.4862C4.85099 49.4182 7.54067 52.9061 10.8673 55.7178V67.2105C10.8681 67.9501 11.1622 68.6591 11.6851 69.182C12.208 69.7049 12.9171 69.999 13.6566 69.9998H35.9708C36.7104 69.9991 37.4194 69.705 37.9424 69.1821C38.4653 68.6591 38.7594 67.9501 38.7601 67.2105V55.7167C44.0865 51.1788 47.7306 44.9802 49.1055 38.1192C49.1901 37.6835 49.0981 37.2319 48.8499 36.864C48.6016 36.496 48.2174 36.2417 47.7816 36.1569ZM14.2144 66.6527V62.1898H35.4129V66.6527H14.2144Z" fill="#060E28"/>
<path d="M30.5185 25.832H30.178V22.8542C30.178 22.4104 30.0017 21.9847 29.6878 21.6708C29.3739 21.357 28.9483 21.1807 28.5044 21.1807C28.0606 21.1807 27.6349 21.357 27.321 21.6708C27.0072 21.9847 26.8308 22.4104 26.8308 22.8542V25.832H22.7771V22.8542C22.7771 22.4104 22.6008 21.9847 22.2869 21.6708C21.9731 21.357 21.5474 21.1807 21.1036 21.1807C20.6597 21.1807 20.234 21.357 19.9202 21.6708C19.6063 21.9847 19.43 22.4104 19.43 22.8542V25.832H19.0895C18.1331 25.8331 17.2161 26.2135 16.5398 26.8898C15.8635 27.5661 15.483 28.4831 15.482 29.4395V29.7806H12.5036C12.0598 29.7806 11.6341 29.9569 11.3203 30.2708C11.0064 30.5846 10.8301 31.0103 10.8301 31.4541C10.8301 31.898 11.0064 32.3237 11.3203 32.6375C11.6341 32.9514 12.0598 33.1277 12.5036 33.1277H15.482V37.1809H12.5036C12.0598 37.1809 11.6341 37.3572 11.3203 37.6711C11.0064 37.9849 10.8301 38.4106 10.8301 38.8544C10.8301 39.2983 11.0064 39.724 11.3203 40.0378C11.6341 40.3517 12.0598 40.528 12.5036 40.528H15.482V40.868C15.483 41.8245 15.8634 42.7416 16.5397 43.4181C17.2159 44.0946 18.1329 44.4753 19.0895 44.4766H19.43V47.4544C19.43 47.8982 19.6063 48.3239 19.9202 48.6378C20.234 48.9516 20.6597 49.1279 21.1036 49.1279C21.5474 49.1279 21.9731 48.9516 22.2869 48.6378C22.6008 48.3239 22.7771 47.8982 22.7771 47.4544V44.4766H26.8308V47.4544C26.8308 47.8982 27.0072 48.3239 27.321 48.6378C27.6349 48.9516 28.0606 49.1279 28.5044 49.1279C28.9483 49.1279 29.3739 48.9516 29.6878 48.6378C30.0017 48.3239 30.178 47.8982 30.178 47.4544V44.4766H30.5185C31.475 44.4753 32.392 44.0946 33.0683 43.4181C33.7446 42.7416 34.125 41.8245 34.126 40.868V40.528H37.1038C37.5476 40.528 37.9733 40.3517 38.2872 40.0378C38.601 39.724 38.7773 39.2983 38.7773 38.8544C38.7773 38.4106 38.601 37.9849 38.2872 37.6711C37.9733 37.3572 37.5476 37.1809 37.1038 37.1809H34.126V33.1277H37.1038C37.5476 33.1277 37.9733 32.9514 38.2872 32.6375C38.601 32.3237 38.7773 31.898 38.7773 31.4541C38.7773 31.0103 38.601 30.5846 38.2872 30.2708C37.9733 29.9569 37.5476 29.7806 37.1038 29.7806H34.126V29.4395C34.1249 28.4831 33.7445 27.5661 33.0682 26.8898C32.3919 26.2135 31.4749 25.8331 30.5185 25.832ZM30.7789 40.868C30.7781 40.9369 30.7504 41.0028 30.7018 41.0516C30.6532 41.1004 30.5874 41.1284 30.5185 41.1294H19.0895C19.0206 41.1284 18.9548 41.1004 18.9062 41.0516C18.8575 41.0028 18.8299 40.9369 18.8291 40.868V29.4395C18.8291 29.3705 18.8565 29.3042 18.9054 29.2554C18.9542 29.2066 19.0204 29.1791 19.0895 29.1791H30.5185C30.5875 29.1791 30.6538 29.2066 30.7026 29.2554C30.7514 29.3042 30.7789 29.3705 30.7789 29.4395V40.868Z" fill="#060E28"/>
</svg>
