<svg width="20" height="20" viewBox="0 0 20 20" fill="none" xmlns="http://www.w3.org/2000/svg">
<path d="M13.6763 0.400391H6.4349C3.10264 0.400391 0.400391 3.08719 0.400391 6.40039V13.6004C0.400391 16.9136 3.10264 19.6004 6.4349 19.6004H13.6763C17.0086 19.6004 19.7108 16.9136 19.7108 13.6004V6.40039C19.7108 3.08719 17.0086 0.400391 13.6763 0.400391ZM17.9005 13.6004C17.9005 15.9164 16.0056 17.8004 13.6763 17.8004H6.4349C4.10558 17.8004 2.21074 15.9164 2.21074 13.6004V6.40039C2.21074 4.08439 4.10558 2.20039 6.4349 2.20039H13.6763C16.0056 2.20039 17.9005 4.08439 17.9005 6.40039V13.6004Z" fill="white"/>
<path d="M9.97311 5.14648C7.30707 5.14648 5.14551 7.29568 5.14551 9.94649C5.14551 12.5973 7.30707 14.7465 9.97311 14.7465C12.6392 14.7465 14.8007 12.5973 14.8007 9.94649C14.8007 7.29568 12.6392 5.14648 9.97311 5.14648ZM9.97311 12.9465C8.31 12.9465 6.95586 11.6001 6.95586 9.94649C6.95586 8.29169 8.31 6.94648 9.97311 6.94648C11.6362 6.94648 12.9904 8.29169 12.9904 9.94649C12.9904 11.6001 11.6362 12.9465 9.97311 12.9465Z" fill="white"/>
<path d="M15.2318 5.49632C15.5885 5.49632 15.8776 5.20923 15.8776 4.85509C15.8776 4.50095 15.5885 4.21387 15.2318 4.21387C14.8751 4.21387 14.5859 4.50095 14.5859 4.85509C14.5859 5.20923 14.8751 5.49632 15.2318 5.49632Z" fill="white"/>
</svg>
