<svg width="70" height="70" viewBox="0 0 70 70" fill="none" xmlns="http://www.w3.org/2000/svg">
<path d="M45.2244 33.9356C45.1528 33.6936 45.0273 33.471 44.8572 33.2846C44.6871 33.0982 44.4769 32.9528 44.2424 32.8595C44.0079 32.7661 43.7554 32.7272 43.5037 32.7457C43.252 32.7642 43.0078 32.8395 42.7895 32.9661C42.0701 33.3839 25.1477 43.2787 22.0937 50.9524C21.4193 52.6471 21.0853 54.458 21.1107 56.2818C21.1362 58.1056 21.5206 59.9065 22.242 61.5817C23.699 64.9649 26.4403 67.6308 29.8629 68.9929C33.2855 70.355 37.109 70.3016 40.4922 68.8446C43.8755 67.3876 46.5413 64.6463 47.9034 61.2237C50.9568 53.5501 45.4598 34.7326 45.2244 33.9356ZM41.3485 59.5278C40.668 60.7837 39.6305 61.8096 38.367 62.4758C37.1035 63.1421 35.6708 63.4187 34.2501 63.2707C32.8294 63.1227 31.4845 62.5568 30.3855 61.6444C29.2864 60.7321 28.4826 59.5143 28.0756 58.1452C27.6687 56.776 27.6768 55.3169 28.0991 53.9523C28.5214 52.5878 29.3388 51.3791 30.448 50.4791C31.5572 49.5792 32.9083 49.0283 34.3306 48.8962C35.7529 48.7641 37.1823 49.0568 38.4383 49.7371C39.2729 50.1882 40.0103 50.7995 40.6084 51.5359C41.2065 52.2724 41.6535 53.1195 41.9238 54.0289C42.1941 54.9383 42.2825 55.8921 42.1837 56.8356C42.085 57.7792 41.8012 58.694 41.3485 59.5278Z" fill="#1263FF"/>
<path d="M36.8512 52.6697C36.1749 52.3033 35.4053 52.1458 34.6395 52.2168C33.8737 52.2879 33.1462 52.5845 32.5489 53.0691C31.9517 53.5536 31.5116 54.2044 31.2842 54.9391C31.0568 55.6738 31.0524 56.4595 31.2715 57.1967C31.4906 57.9339 31.9235 58.5895 32.5152 59.0808C33.107 59.572 33.8311 59.8767 34.5961 59.9564C35.361 60.0361 36.1324 59.8871 36.8127 59.5284C37.493 59.1696 38.0516 58.6172 38.418 57.941L38.4191 57.9399C38.6624 57.4909 38.8148 56.9984 38.8677 56.4905C38.9206 55.9826 38.8729 55.4693 38.7273 54.9799C38.5816 54.4904 38.341 54.0345 38.0191 53.6381C37.6972 53.2417 37.3003 52.9126 36.8512 52.6697Z" fill="#1263FF"/>
<path d="M65.5525 35.7143V16.6314H68.3301C68.6317 16.6309 68.9276 16.5486 69.1862 16.3933C69.4447 16.238 69.6564 16.0156 69.7987 15.7496C69.9409 15.4836 70.0084 15.1841 69.994 14.8828C69.9796 14.5815 69.8838 14.2897 69.7168 14.0386L60.8283 0.696319C60.6674 0.480239 60.4582 0.304752 60.2175 0.183856C59.9767 0.0629593 59.711 0 59.4416 0C59.1722 0 58.9065 0.0629593 58.6658 0.183856C58.425 0.304752 58.2158 0.480239 58.0549 0.696319L49.1665 14.0386C48.9995 14.2897 48.9036 14.5815 48.8892 14.8828C48.8747 15.1841 48.9422 15.4837 49.0845 15.7497C49.2267 16.0157 49.4384 16.2381 49.6971 16.3934C49.9557 16.5487 50.2515 16.6309 50.5532 16.6314H53.3308V22.9483C47.8214 19.5455 41.4737 17.7433 34.9983 17.7433C28.5228 17.7433 22.1752 19.5455 16.6658 22.9483V16.6314H19.4435C19.7451 16.6309 20.041 16.5486 20.2996 16.3934C20.5582 16.2381 20.7699 16.0156 20.9121 15.7496C21.0544 15.4836 21.1219 15.1841 21.1074 14.8828C21.093 14.5815 20.9972 14.2897 20.8302 14.0386L11.9417 0.696319C11.7808 0.480239 11.5716 0.304752 11.3309 0.183856C11.0901 0.0629593 10.8244 0 10.555 0C10.2856 0 10.02 0.0629593 9.77919 0.183856C9.53844 0.304752 9.32926 0.480239 9.16836 0.696319L0.279942 14.0386C0.112897 14.2897 0.0170562 14.5815 0.00261382 14.8828C-0.0118286 15.1841 0.0556678 15.4837 0.197923 15.7497C0.340179 16.0157 0.551874 16.2381 0.810491 16.3934C1.06911 16.5487 1.36497 16.6309 1.66662 16.6314H4.44424V35.7143C1.60032 40.8069 0.0735526 46.5293 0.00259196 52.3617C-0.0683687 58.1942 1.31872 63.9519 4.03791 69.1122C4.14429 69.3135 4.29078 69.4909 4.46836 69.6333C4.64593 69.7758 4.85081 69.8804 5.07037 69.9406C5.28992 70.0009 5.51949 70.0155 5.74491 69.9835C5.97032 69.9516 6.18681 69.8738 6.381 69.755L13.6468 65.3076C14.0241 65.077 14.2942 64.7059 14.3979 64.2761C14.5016 63.8462 14.4302 63.3928 14.1996 63.0156C13.9689 62.6383 13.5979 62.3681 13.168 62.2645C12.7382 62.1608 12.2848 62.2322 11.9075 62.4628L6.19926 65.9569C4.39282 61.9854 3.42234 57.685 3.34812 53.3226H10.555C10.9973 53.3226 11.4216 53.1469 11.7343 52.8341C12.0471 52.5213 12.2228 52.0971 12.2228 51.6548C12.2228 51.2125 12.0471 50.7883 11.7343 50.4755C11.4216 50.1627 10.9973 49.987 10.555 49.987H3.46224C4.08543 42.8768 7.09846 36.1872 12.0103 31.0086L16.5362 35.5378C16.849 35.8504 17.273 36.0258 17.7152 36.0257C18.1573 36.0255 18.5812 35.8497 18.8937 35.537C19.2063 35.2243 19.3817 34.8002 19.3816 34.3581C19.3814 33.916 19.2056 33.492 18.8929 33.1795L14.4248 28.7082C19.7133 24.1559 26.3634 21.488 33.3318 21.1232V28.3059C33.3318 28.7479 33.5073 29.1718 33.8199 29.4844C34.1324 29.7969 34.5563 29.9725 34.9983 29.9725C35.4404 29.9725 35.8643 29.7969 36.1768 29.4844C36.4894 29.1718 36.6649 28.7479 36.6649 28.3059V21.1232C43.6333 21.488 50.2834 24.1559 55.5719 28.7083L51.1043 33.1795C50.7916 33.492 50.6158 33.916 50.6157 34.3581C50.6155 34.8002 50.791 35.2243 51.1035 35.537C51.416 35.8497 51.84 36.0255 52.2821 36.0257C52.7242 36.0258 53.1483 35.8504 53.461 35.5378L57.9865 31.0086C62.8983 36.1873 65.9113 42.8768 66.5345 49.987H59.4416C58.9993 49.987 58.5751 50.1628 58.2623 50.4755C57.9496 50.7883 57.7738 51.2125 57.7738 51.6548C57.7738 52.0972 57.9496 52.5214 58.2623 52.8341C58.5751 53.1469 58.9993 53.3226 59.4416 53.3226H66.6485C66.5745 57.6849 65.6043 61.9854 63.798 65.9569L58.0886 62.4628C57.9018 62.3487 57.6943 62.2724 57.4781 62.2385C57.2618 62.2045 57.041 62.2135 56.8282 62.2649C56.6155 62.3162 56.4149 62.409 56.2379 62.5379C56.061 62.6668 55.9112 62.8293 55.7971 63.0161C55.6829 63.2029 55.6067 63.4103 55.5728 63.6266C55.5388 63.8428 55.5478 64.0636 55.5991 64.2764C55.6505 64.4892 55.7433 64.6898 55.8722 64.8667C56.0011 65.0436 56.1636 65.1934 56.3504 65.3076L63.6167 69.755C63.8109 69.8738 64.0273 69.9516 64.2527 69.9835C64.4781 70.0155 64.7076 70.0009 64.9271 69.9406C65.1467 69.8804 65.3515 69.7758 65.529 69.6333C65.7065 69.4908 65.853 69.3135 65.9593 69.1122C68.6782 63.9518 70.0651 58.194 69.9941 52.3616C69.923 46.5292 68.3963 40.8069 65.5525 35.7143ZM7.77742 30.7871V14.9637C7.77753 14.7447 7.73451 14.5279 7.65081 14.3256C7.56711 14.1233 7.44437 13.9394 7.28961 13.7845C7.13484 13.6297 6.95108 13.5068 6.74883 13.423C6.54657 13.3391 6.32977 13.2959 6.11082 13.2959H4.7806L10.5551 4.62804L16.3296 13.2959H14.9993C14.7804 13.2959 14.5636 13.3391 14.3613 13.423C14.1591 13.5068 13.9753 13.6297 13.8205 13.7845C13.6658 13.9394 13.543 14.1233 13.4593 14.3256C13.3756 14.5279 13.3326 14.7447 13.3327 14.9637V25.2917C11.2833 26.9123 9.42015 28.7554 7.77742 30.7871ZM56.664 25.2917V14.9637C56.6641 14.5215 56.4886 14.0974 56.1761 13.7846C55.8635 13.4719 55.4396 13.296 54.9974 13.2959H53.6672L59.4417 4.62802L65.2162 13.2959H63.8859C63.4438 13.2961 63.0198 13.4719 62.7072 13.7846C62.3947 14.0974 62.2192 14.5215 62.2193 14.9637V30.7871C60.5766 28.7554 58.7134 26.9123 56.664 25.2917Z" fill="#060E28"/>
</svg>
