<svg width="68" height="70" viewBox="0 0 68 70" fill="none" xmlns="http://www.w3.org/2000/svg">
<path d="M53.3332 48.3333V45C53.3332 43.6739 52.8064 42.4021 51.8688 41.4645C50.9311 40.5268 49.6593 40 48.3332 40H19.4443C18.1183 40 16.8465 40.5268 15.9088 41.4645C14.9711 42.4021 14.4443 43.6739 14.4443 45V48.3333C14.4443 49.6594 14.9711 50.9312 15.9088 51.8689C16.8465 52.8065 18.1183 53.3333 19.4443 53.3333H48.3332C49.6593 53.3333 50.9311 52.8065 51.8688 51.8689C52.8064 50.9312 53.3332 49.6594 53.3332 48.3333ZM41.6666 45H43.8888C44.3308 45 44.7547 45.1756 45.0673 45.4882C45.3799 45.8007 45.5554 46.2246 45.5554 46.6667C45.5554 47.1087 45.3799 47.5326 45.0673 47.8452C44.7547 48.1577 44.3308 48.3333 43.8888 48.3333H41.6666C41.2245 48.3333 40.8006 48.1577 40.488 47.8452C40.1755 47.5326 39.9999 47.1087 39.9999 46.6667C39.9999 46.2246 40.1755 45.8007 40.488 45.4882C40.8006 45.1756 41.2245 45 41.6666 45ZM23.8888 45H34.9999C35.4419 45 35.8658 45.1756 36.1784 45.4882C36.491 45.8007 36.6666 46.2246 36.6666 46.6667C36.6666 47.1087 36.491 47.5326 36.1784 47.8452C35.8658 48.1577 35.4419 48.3333 34.9999 48.3333H23.8888C23.4468 48.3333 23.0228 48.1577 22.7103 47.8452C22.3977 47.5326 22.2221 47.1087 22.2221 46.6667C22.2221 46.2246 22.3977 45.8007 22.7103 45.4882C23.0228 45.1756 23.4468 45 23.8888 45Z" fill="#1263FF"/>
<path d="M14.4443 61.667V65.0003C14.4443 66.3264 14.9711 67.5982 15.9088 68.5359C16.8465 69.4735 18.1183 70.0003 19.4443 70.0003H48.3332C49.6593 70.0003 50.9311 69.4735 51.8688 68.5359C52.8064 67.5982 53.3332 66.3264 53.3332 65.0003V61.667C53.3332 60.3409 52.8064 59.0691 51.8688 58.1315C50.9311 57.1938 49.6593 56.667 48.3332 56.667H19.4443C18.1183 56.667 16.8465 57.1938 15.9088 58.1315C14.9711 59.0691 14.4443 60.3409 14.4443 61.667ZM34.9999 65.0003H23.8888C23.4468 65.0003 23.0228 64.8247 22.7103 64.5122C22.3977 64.1996 22.2221 63.7757 22.2221 63.3337C22.2221 62.8916 22.3977 62.4677 22.7103 62.1551C23.0228 61.8426 23.4468 61.667 23.8888 61.667H34.9999C35.4419 61.667 35.8658 61.8426 36.1784 62.1551C36.491 62.4677 36.6666 62.8916 36.6666 63.3337C36.6666 63.7757 36.491 64.1996 36.1784 64.5122C35.8658 64.8247 35.4419 65.0003 34.9999 65.0003ZM43.8888 65.0003H41.6666C41.2245 65.0003 40.8006 64.8247 40.488 64.5122C40.1755 64.1996 39.9999 63.7757 39.9999 63.3337C39.9999 62.8916 40.1755 62.4677 40.488 62.1551C40.8006 61.8426 41.2245 61.667 41.6666 61.667H43.8888C44.3308 61.667 44.7547 61.8426 45.0673 62.1551C45.3799 62.4677 45.5554 62.8916 45.5554 63.3337C45.5554 63.7757 45.3799 64.1996 45.0673 64.5122C44.7547 64.8247 44.3308 65.0003 43.8888 65.0003Z" fill="#1263FF"/>
<path d="M10.5556 0H3.88889C2.85787 0.00124674 1.86944 0.411368 1.14041 1.14041C0.411368 1.86944 0.00124674 2.85787 0 3.88889V10.5556C0.00124674 11.5866 0.411368 12.575 1.14041 13.304C1.86944 14.0331 2.85787 14.4432 3.88889 14.4444H10.5556C11.5866 14.4432 12.575 14.0331 13.304 13.304C14.0331 12.575 14.4432 11.5866 14.4444 10.5556V3.88889C14.4432 2.85787 14.0331 1.86944 13.304 1.14041C12.575 0.411368 11.5866 0.00124674 10.5556 0ZM11.1111 10.5556C11.111 10.7029 11.0524 10.8441 10.9483 10.9483C10.8441 11.0524 10.7029 11.111 10.5556 11.1111H3.88889C3.74158 11.111 3.60033 11.0524 3.49616 10.9483C3.392 10.8441 3.33343 10.7029 3.33333 10.5556V3.88889C3.33343 3.74158 3.392 3.60033 3.49616 3.49616C3.60033 3.392 3.74158 3.33343 3.88889 3.33333H10.5556C10.7029 3.33343 10.8441 3.392 10.9483 3.49616C11.0524 3.60033 11.111 3.74158 11.1111 3.88889V10.5556Z" fill="#060E28"/>
<path d="M30.5559 14.4444H37.2225C38.2536 14.4432 39.242 14.0331 39.971 13.304C40.7001 12.575 41.1102 11.5866 41.1114 10.5556V3.88889C41.1102 2.85787 40.7001 1.86944 39.971 1.14041C39.242 0.411368 38.2536 0.00124674 37.2225 0H30.5559C29.5249 0.00124674 28.5364 0.411368 27.8074 1.14041C27.0784 1.86944 26.6682 2.85787 26.667 3.88889V10.5556C26.6682 11.5866 27.0784 12.575 27.8074 13.304C28.5364 14.0331 29.5249 14.4432 30.5559 14.4444ZM30.0003 3.88889C30.0004 3.74158 30.059 3.60033 30.1632 3.49616C30.2673 3.392 30.4086 3.33343 30.5559 3.33333H37.2225C37.3699 3.33343 37.5111 3.392 37.6153 3.49616C37.7194 3.60033 37.778 3.74158 37.7781 3.88889V10.5556C37.778 10.7029 37.7194 10.8441 37.6153 10.9483C37.5111 11.0524 37.3699 11.111 37.2225 11.1111H30.5559C30.4086 11.111 30.2673 11.0524 30.1632 10.9483C30.059 10.8441 30.0004 10.7029 30.0003 10.5556V3.88889Z" fill="#060E28"/>
<path d="M67.7775 3.88889C67.7762 2.85787 67.3661 1.86944 66.637 1.14041C65.908 0.411368 64.9196 0.00124674 63.8886 0H57.2219C56.1909 0.00124674 55.2025 0.411368 54.4734 1.14041C53.7444 1.86944 53.3343 2.85787 53.333 3.88889V10.5556C53.3343 11.5866 53.7444 12.575 54.4734 13.304C55.2025 14.0331 56.1909 14.4432 57.2219 14.4444H63.8886C64.9196 14.4432 65.908 14.0331 66.637 13.304C67.3661 12.575 67.7762 11.5866 67.7775 10.5556V3.88889ZM64.4441 10.5556C64.444 10.7029 64.3855 10.8441 64.2813 10.9483C64.1771 11.0524 64.0359 11.111 63.8886 11.1111H57.2219C57.0746 11.111 56.9333 11.0524 56.8292 10.9483C56.725 10.8441 56.6664 10.7029 56.6663 10.5556V3.88889C56.6664 3.74158 56.725 3.60033 56.8292 3.49616C56.9333 3.392 57.0746 3.33343 57.2219 3.33333H63.8886C64.0359 3.33343 64.1771 3.392 64.2813 3.49616C64.3855 3.60033 64.444 3.74158 64.4441 3.88889V10.5556Z" fill="#060E28"/>
<path d="M8.889 17.2223C8.889 16.7803 8.7134 16.3564 8.40084 16.0438C8.08828 15.7313 7.66436 15.5557 7.22233 15.5557C6.7803 15.5557 6.35638 15.7313 6.04382 16.0438C5.73126 16.3564 5.55566 16.7803 5.55566 17.2223C5.5575 18.8425 6.20193 20.3959 7.34759 21.5415C8.49325 22.6872 10.0466 23.3316 11.6668 23.3334H27.2223C28.548 23.3349 29.8189 23.8621 30.7563 24.7995C31.6936 25.7369 32.2209 27.0078 32.2223 28.3334V30.9767L30.6229 29.3773C30.3104 29.0647 29.8865 28.8892 29.4446 28.8892C29.0026 28.8892 28.5787 29.0647 28.2662 29.3773C27.9536 29.6898 27.7781 30.1137 27.7781 30.5557C27.7781 30.9976 27.9536 31.4215 28.2662 31.7341L32.7085 36.1764C33.0218 36.4891 33.4464 36.6647 33.889 36.6647C34.3316 36.6647 34.7562 36.4891 35.0695 36.1764L39.5118 31.7341C39.8244 31.4215 39.9999 30.9976 39.9999 30.5557C39.9999 30.1137 39.8244 29.6898 39.5118 29.3773C39.1993 29.0647 38.7754 28.8892 38.3334 28.8892C37.8915 28.8892 37.4676 29.0647 37.1551 29.3773L35.5557 30.9767V28.3334C35.5571 27.0078 36.0844 25.7369 37.0217 24.7995C37.9591 23.8621 39.23 23.3349 40.5557 23.3334H56.1112C57.7314 23.3316 59.2847 22.6872 60.4304 21.5415C61.5761 20.3959 62.2205 18.8425 62.2223 17.2223C62.2223 16.7803 62.0467 16.3564 61.7342 16.0438C61.4216 15.7313 60.9977 15.5557 60.5557 15.5557C60.1136 15.5557 59.6897 15.7313 59.3772 16.0438C59.0646 16.3564 58.889 16.7803 58.889 17.2223C58.8881 17.9588 58.5952 18.6648 58.0745 19.1856C57.5537 19.7063 56.8477 19.9992 56.1112 20.0001H40.5557C38.7501 20.0008 36.9943 20.5916 35.5557 21.6825V17.2223C35.5557 16.7803 35.3801 16.3564 35.0675 16.0438C34.755 15.7313 34.331 15.5557 33.889 15.5557C33.447 15.5557 33.023 15.7313 32.7105 16.0438C32.3979 16.3564 32.2223 16.7803 32.2223 17.2223V21.6825C30.7837 20.5916 29.0279 20.0008 27.2223 20.0001H11.6668C10.9303 19.9992 10.2243 19.7063 9.70354 19.1856C9.1828 18.6648 8.88986 17.9588 8.889 17.2223Z" fill="#060E28"/>
</svg>
