<svg width="60" height="60" viewBox="0 0 60 60" fill="none" xmlns="http://www.w3.org/2000/svg">
<path d="M44.4224 47.6193C46.7894 47.6193 48.7081 45.7005 48.7081 43.3336C48.7081 40.9666 46.7894 39.0479 44.4224 39.0479C42.0555 39.0479 40.1367 40.9666 40.1367 43.3336C40.1367 45.7005 42.0555 47.6193 44.4224 47.6193Z" fill="#1263FF"/>
<path d="M29.1508 48.4197C28.9741 48.644 28.8688 48.9162 28.8484 49.2011C28.828 49.4859 28.8935 49.7703 29.0364 50.0175L30.9411 53.3164C31.0837 53.5638 31.2972 53.7627 31.554 53.8875C31.8109 54.0123 32.0992 54.0571 32.3818 54.0163L36.9684 53.355L39.4703 54.7994L41.1913 59.1024C41.2973 59.3674 41.4804 59.5946 41.7167 59.7547C41.9531 59.9148 42.2321 60.0003 42.5176 60.0003H46.3271C46.6126 60.0003 46.8915 59.9148 47.1279 59.7547C47.3643 59.5947 47.5473 59.3674 47.6534 59.1024L49.3744 54.7994L51.8763 53.355L56.4629 54.0163C56.7455 54.0571 57.0339 54.0123 57.2907 53.8875C57.5475 53.7628 57.761 53.5638 57.9036 53.3164L59.8084 50.0175C59.9512 49.7703 60.0167 49.4859 59.9963 49.2011C59.9759 48.9162 59.8706 48.644 59.694 48.4197L56.8284 44.778V41.8893L59.6939 38.2476C59.8706 38.0233 59.9759 37.7511 59.9963 37.4663C60.0167 37.1814 59.9512 36.897 59.8083 36.6498L57.9035 33.3509C57.7605 33.104 57.5469 32.9054 57.2902 32.7807C57.0335 32.656 56.7454 32.6108 56.4629 32.651L51.8763 33.3123L49.3744 31.8679L47.6533 27.565C47.5473 27.2999 47.3643 27.0727 47.1279 26.9126C46.8915 26.7526 46.6126 26.667 46.3271 26.667H42.5176C42.2321 26.667 41.9531 26.7525 41.7167 26.9126C41.4803 27.0727 41.2973 27.2999 41.1913 27.565L39.4702 31.8679L36.9683 33.3123L32.3818 32.651C32.0993 32.6108 31.8112 32.6559 31.5545 32.7807C31.2978 32.9054 31.0842 33.1039 30.9411 33.3509L29.0364 36.6498C28.8935 36.897 28.828 37.1814 28.8484 37.4663C28.8688 37.7511 28.9741 38.0233 29.1508 38.2476L32.0163 41.8893V44.778L29.1508 48.4197ZM44.4223 36.1908C45.835 36.1908 47.216 36.6097 48.3907 37.3946C49.5653 38.1795 50.4808 39.295 51.0215 40.6002C51.5621 41.9054 51.7035 43.3416 51.4279 44.7272C51.1523 46.1127 50.472 47.3855 49.4731 48.3844C48.4741 49.3834 47.2014 50.0637 45.8158 50.3393C44.4302 50.6149 42.9941 50.4734 41.6889 49.9328C40.3837 49.3922 39.2681 48.4767 38.4833 47.302C37.6984 46.1274 37.2795 44.7464 37.2795 43.3337C37.2815 41.4399 38.0347 39.6243 39.3738 38.2852C40.7129 36.9461 42.5286 36.1929 44.4223 36.1908Z" fill="#1263FF"/>
<path d="M55.7143 0H4.28571C3.14945 0.00123776 2.06008 0.453165 1.25662 1.25662C0.453165 2.06008 0.00123776 3.14945 0 4.28571V50C0.00123776 51.1363 0.453165 52.2256 1.25662 53.0291C2.06008 53.8326 3.14945 54.2845 4.28571 54.2857H26.1905C26.5694 54.2857 26.9327 54.1352 27.2006 53.8673C27.4685 53.5994 27.619 53.236 27.619 52.8571C27.619 52.4783 27.4685 52.1149 27.2006 51.847C26.9327 51.5791 26.5694 51.4286 26.1905 51.4286H4.28571C3.90696 51.4282 3.54384 51.2775 3.27602 51.0097C3.0082 50.7419 2.85756 50.3788 2.85714 50V10.4762H57.1429V30C57.1429 30.3789 57.2934 30.7422 57.5613 31.0102C57.8292 31.2781 58.1925 31.4286 58.5714 31.4286C58.9503 31.4286 59.3137 31.2781 59.5816 31.0102C59.8495 30.7422 60 30.3789 60 30V4.28571C59.9988 3.14945 59.5468 2.06008 58.7434 1.25662C57.9399 0.453165 56.8505 0.00123776 55.7143 0ZM2.85714 7.61905V4.28571C2.85756 3.90696 3.0082 3.54384 3.27602 3.27602C3.54384 3.0082 3.90696 2.85756 4.28571 2.85714H55.7143C56.093 2.85756 56.4562 3.0082 56.724 3.27602C56.9918 3.54384 57.1424 3.90696 57.1429 4.28571V7.61905H2.85714Z" fill="#060E28"/>
<path d="M7.14244 16.1902H14.7615C15.1404 16.1902 15.5037 16.0396 15.7716 15.7717C16.0395 15.5038 16.1901 15.1405 16.1901 14.7616C16.1901 14.3827 16.0395 14.0193 15.7716 13.7514C15.5037 13.4835 15.1404 13.333 14.7615 13.333H7.14244C6.76356 13.333 6.4002 13.4835 6.13229 13.7514C5.86438 14.0193 5.71387 14.3827 5.71387 14.7616C5.71387 15.1405 5.86438 15.5038 6.13229 15.7717C6.4002 16.0396 6.76356 16.1902 7.14244 16.1902Z" fill="#060E28"/>
<path d="M52.8567 16.1902C53.2356 16.1902 53.599 16.0396 53.8669 15.7717C54.1348 15.5038 54.2853 15.1405 54.2853 14.7616C54.2853 14.3827 54.1348 14.0193 53.8669 13.7514C53.599 13.4835 53.2356 13.333 52.8567 13.333H47.1424C46.7636 13.333 46.4002 13.4835 46.1323 13.7514C45.8644 14.0193 45.7139 14.3827 45.7139 14.7616C45.7139 15.1405 45.8644 15.5038 46.1323 15.7717C46.4002 16.0396 46.7636 16.1902 47.1424 16.1902H52.8567Z" fill="#060E28"/>
<path d="M41.429 16.1902C41.8079 16.1902 42.1712 16.0396 42.4391 15.7717C42.7071 15.5038 42.8576 15.1405 42.8576 14.7616C42.8576 14.3827 42.7071 14.0193 42.4391 13.7514C42.1712 13.4835 41.8079 13.333 41.429 13.333H35.7147C35.3358 13.333 34.9725 13.4835 34.7046 13.7514C34.4366 14.0193 34.2861 14.3827 34.2861 14.7616C34.2861 15.1405 34.4366 15.5038 34.7046 15.7717C34.9725 16.0396 35.3358 16.1902 35.7147 16.1902H41.429Z" fill="#060E28"/>
<path d="M5.71387 37.6188C5.71384 37.8064 5.75077 37.9922 5.82255 38.1655C5.89433 38.3389 5.99956 38.4964 6.13222 38.629C6.26488 38.7617 6.42238 38.8669 6.59571 38.9387C6.76905 39.0105 6.95483 39.0474 7.14244 39.0474H24.2853C24.6642 39.0474 25.0275 38.8969 25.2954 38.629C25.5634 38.3611 25.7139 37.9977 25.7139 37.6188C25.7139 37.2399 25.5634 36.8766 25.2954 36.6087C25.0275 36.3408 24.6642 36.1902 24.2853 36.1902H8.57101V23.8093H51.4282V28.095C51.4282 28.4739 51.5787 28.8372 51.8466 29.1052C52.1145 29.3731 52.4778 29.5236 52.8567 29.5236C53.2356 29.5236 53.599 29.3731 53.8669 29.1052C54.1348 28.8372 54.2853 28.4739 54.2853 28.095V22.3807C54.2853 22.1931 54.2484 22.0073 54.1766 21.834C54.1048 21.6607 53.9996 21.5032 53.8669 21.3705C53.7343 21.2378 53.5768 21.1326 53.4034 21.0608C53.2301 20.9891 53.0443 20.9521 52.8567 20.9521H7.14244C6.95483 20.9521 6.76905 20.9891 6.59571 21.0608C6.42238 21.1326 6.26488 21.2378 6.13222 21.3705C5.99956 21.5032 5.89433 21.6607 5.82255 21.834C5.75077 22.0073 5.71384 22.1931 5.71387 22.3807V37.6188Z" fill="#060E28"/>
<path d="M7.14244 46.6667H26.1901C26.5689 46.6667 26.9323 46.5162 27.2002 46.2483C27.4681 45.9804 27.6186 45.617 27.6186 45.2381C27.6186 44.8593 27.4681 44.4959 27.2002 44.228C26.9323 43.9601 26.5689 43.8096 26.1901 43.8096H7.14244C6.76356 43.8096 6.4002 43.9601 6.13229 44.228C5.86438 44.4959 5.71387 44.8593 5.71387 45.2381C5.71387 45.617 5.86438 45.9804 6.13229 46.2483C6.4002 46.5162 6.76356 46.6667 7.14244 46.6667Z" fill="#060E28"/>
</svg>
