<svg width="60" height="60" viewBox="0 0 60 60" fill="none" xmlns="http://www.w3.org/2000/svg">
<path d="M33.8448 28.6135C35.1582 28.6135 36.2229 27.5488 36.2229 26.2355C36.2229 24.9221 35.1582 23.8574 33.8448 23.8574C32.5315 23.8574 31.4668 24.9221 31.4668 26.2355C31.4668 27.5488 32.5315 28.6135 33.8448 28.6135Z" fill="#1263FF"/>
<path d="M48.1759 40.451C51.6976 35.0207 53.0844 28.4789 52.069 22.0868C51.0536 15.6946 47.7078 9.90462 42.6766 5.83301C37.6454 1.7614 31.2851 -0.303588 24.8217 0.0361376C18.3583 0.375863 12.2495 3.09625 7.67286 7.67286C3.09625 12.2495 0.375863 18.3583 0.0361376 24.8217C-0.303588 31.2851 1.7614 37.6454 5.83301 42.6766C9.90462 47.7078 15.6946 51.0536 22.0868 52.069C28.4789 53.0844 35.0207 51.6976 40.451 48.1759L50.6786 58.4035C51.7033 59.4264 53.0922 60.0006 54.5401 60C55.9879 59.9994 57.3763 59.4239 58.4001 58.4001C59.4239 57.3763 59.9994 55.9879 60 54.5401C60.0006 53.0922 59.4264 51.7033 58.4035 50.6786L48.1759 40.451ZM2.93036 26.2351C2.93036 21.6258 4.29716 17.1201 6.85791 13.2877C9.41866 9.45522 13.0584 6.4682 17.3167 4.70432C21.5751 2.94045 26.2609 2.47893 30.7816 3.37815C35.3022 4.27737 39.4548 6.49693 42.714 9.75615C45.9732 13.0154 48.1928 17.1679 49.092 21.6885C49.9912 26.2092 49.5297 30.895 47.7658 35.1534C46.0019 39.4118 43.0149 43.0515 39.1825 45.6122C35.35 48.173 30.8443 49.5398 26.2351 49.5398C20.0564 49.5328 14.1328 47.0753 9.7638 42.7063C5.39482 38.3373 2.93729 32.4137 2.93036 26.2351ZM54.5411 57.1495C54.1983 57.1504 53.8589 57.0834 53.5422 56.9524C53.2255 56.8213 52.938 56.6288 52.6962 56.3859L42.7852 46.4748C44.134 45.3699 45.3699 44.1339 46.4749 42.7852L56.3859 52.6962C56.7506 53.0611 56.9989 53.526 57.0994 54.032C57.2 54.5379 57.1483 55.0624 56.9508 55.539C56.7534 56.0156 56.4191 56.423 55.9901 56.7096C55.5612 56.9963 55.0569 57.1493 54.5411 57.1495Z" fill="#060E28"/>
<path d="M42.8813 26.2351C42.8813 22.9428 41.905 19.7244 40.0759 16.9869C38.2468 14.2495 35.647 12.1159 32.6053 10.856C29.5636 9.59608 26.2166 9.26643 22.9876 9.90873C19.7585 10.551 16.7925 12.1364 14.4644 14.4644C12.1364 16.7925 10.551 19.7585 9.90873 22.9876C9.26643 26.2166 9.59608 29.5636 10.856 32.6053C12.1159 35.647 14.2495 38.2468 16.9869 40.0759C19.7244 41.905 22.9428 42.8813 26.2351 42.8813C30.6484 42.8763 34.8795 41.1209 38.0002 38.0002C41.1209 34.8795 42.8763 30.6484 42.8813 26.2351ZM33.8448 31.4668C32.7071 31.4648 31.6009 31.0924 30.6936 30.4059C29.7863 29.7195 29.1272 28.7562 28.816 27.6619H22.9058V30.9911C22.9058 31.3696 22.7555 31.7325 22.4879 32.0001C22.2204 32.2676 21.8574 32.418 21.479 32.418C21.1006 32.418 20.7377 32.2676 20.4701 32.0001C20.2025 31.7325 20.0522 31.3696 20.0522 30.9911V27.6619H17.1986V30.9911C17.1986 31.3696 17.0482 31.7325 16.7807 32.0001C16.5131 32.2676 16.1502 32.418 15.7718 32.418C15.3933 32.418 15.0304 32.2676 14.7628 32.0001C14.4953 31.7325 14.3449 31.3696 14.3449 30.9911V26.2351C14.345 25.8567 14.4953 25.4938 14.7629 25.2262C15.0304 24.9586 15.3933 24.8083 15.7718 24.8083H28.816C29.0818 23.8724 29.6033 23.0292 30.3221 22.3735C31.0408 21.7178 31.9282 21.2756 32.8844 21.0965C33.8407 20.9175 34.828 21.0088 35.7352 21.3601C36.6425 21.7114 37.4337 22.3088 38.0201 23.0851C38.6064 23.8615 38.9646 24.786 39.0543 25.7547C39.144 26.7235 38.9617 27.6981 38.5279 28.5689C38.0941 29.4397 37.426 30.1723 36.5987 30.6842C35.7714 31.1961 34.8177 31.4671 33.8448 31.4668Z" fill="#1263FF"/>
</svg>
