<svg width="60" height="60" viewBox="0 0 60 60" fill="none" xmlns="http://www.w3.org/2000/svg">
<path d="M46.1863 48.6367L59.8638 40.2201C59.5903 39.5932 60.1729 40.1251 46.9349 31.9562C46.7098 31.8175 46.4506 31.7441 46.1863 31.7441C45.9219 31.7441 45.6628 31.8175 45.4377 31.9562C32.0827 40.1973 32.7737 39.6131 32.5088 40.2201L46.1863 48.6367Z" fill="#1263FF"/>
<path d="M47.6143 51.1123V59.6829L59.3143 52.4829C59.522 52.3551 59.6936 52.1761 59.8126 51.9632C59.9316 51.7503 59.9941 51.5104 59.9941 51.2665V43.4941L47.6143 51.1123Z" fill="#1263FF"/>
<path d="M44.7578 51.1123L32.3779 43.4941V51.2665C32.378 51.5104 32.4405 51.7502 32.5595 51.9632C32.6785 52.1761 32.85 52.355 33.0577 52.4829L44.7578 59.6829V51.1123Z" fill="#1263FF"/>
<path d="M58.8126 6.97505L47.9923 0.50009C47.4466 0.172851 46.8222 0 46.1859 0C45.5495 0 44.9251 0.172851 44.3794 0.50009L33.5601 6.97505C33.2054 7.19438 32.9114 7.49912 32.7049 7.8614C32.4984 8.22369 32.386 8.63196 32.3781 9.04889V12.3819H27.6166V9.04889C27.6084 8.632 27.496 8.2238 27.2895 7.86155C27.083 7.49929 26.7891 7.19452 26.4346 6.97505L15.6143 0.50009C15.0686 0.172851 14.4442 0 13.8078 0C13.1715 0 12.5471 0.172851 12.0014 0.50009L1.18204 6.97505C0.827378 7.19438 0.533361 7.49912 0.326873 7.8614C0.120385 8.22369 0.00801618 8.63196 4.16154e-05 9.04889V18.6355C-0.00280568 19.2075 0.140499 19.7707 0.416365 20.2717C0.692231 20.7728 1.09151 21.195 1.57635 21.4985C10.6012 27.1434 12.0461 28.079 12.3799 28.2401V31.733C12.0357 31.8863 10.474 32.8516 1.18204 38.4008C0.827378 38.6201 0.533361 38.9248 0.326873 39.2871C0.120385 39.6494 0.00801618 40.0577 4.16154e-05 40.4746V50.0613C-0.00280568 50.6332 0.140499 51.1964 0.416365 51.6975C0.692231 52.1985 1.09151 52.6208 1.57635 52.9242L12.0516 59.4908C12.5771 59.8234 13.1863 60 13.8083 60C14.4303 60 15.0395 59.8234 15.565 59.4908L26.0403 52.9242C26.5251 52.6208 26.9244 52.1985 27.2003 51.6975C27.4761 51.1964 27.6194 50.6332 27.6166 50.0613V47.6168H29.045C29.4239 47.6168 29.7872 47.4663 30.0551 47.1984C30.323 46.9306 30.4735 46.5672 30.4735 46.1884C30.4735 45.8095 30.323 45.4462 30.0551 45.1783C29.7872 44.9104 29.4239 44.7599 29.045 44.7599H27.6166V40.4746C27.6084 40.0577 27.496 39.6495 27.2895 39.2873C27.083 38.925 26.7891 38.6202 26.4346 38.4008C17.105 32.8296 15.5809 31.8869 15.2368 31.7334V28.24C15.5712 28.0786 16.9969 27.1549 26.0403 21.4985C26.5251 21.195 26.9244 20.7728 27.2003 20.2717C27.4761 19.7707 27.6194 19.2075 27.6166 18.6355V15.2388H32.3781V18.6355C32.3752 19.2075 32.5185 19.7707 32.7944 20.2717C33.0703 20.7728 33.4695 21.195 33.9544 21.4985C42.9793 27.1434 44.4241 28.079 44.7579 28.2401V29.0471C44.7579 29.4259 44.9084 29.7893 45.1763 30.0571C45.4442 30.325 45.8075 30.4755 46.1863 30.4755C46.5652 30.4755 46.9285 30.325 47.1964 30.0571C47.4643 29.7893 47.6148 29.4259 47.6148 29.0471V28.24C47.9492 28.0786 49.3749 27.1549 58.4183 21.4985C58.9031 21.195 59.3024 20.7728 59.5783 20.2717C59.8541 19.7707 59.9975 19.2075 59.9946 18.6355V9.04889C59.9864 8.632 59.874 8.2238 59.6675 7.86155C59.4611 7.49929 59.1671 7.19452 58.8126 6.97505ZM3.09405 19.0777C3.02059 19.0299 2.96037 18.9642 2.91894 18.887C2.8775 18.8097 2.85617 18.7232 2.85693 18.6355V12.125L12.0023 17.5977C12.1242 17.6693 12.2503 17.7336 12.3799 17.79V24.8987L3.09405 19.0777ZM12.3799 56.3244L3.09405 50.5035C3.02059 50.4556 2.96037 50.39 2.91894 50.3127C2.8775 50.2354 2.85617 50.149 2.85693 50.0613V43.5507C12.4955 49.3042 11.9559 49.0268 12.3799 49.2158V56.3244ZM24.7597 50.0613C24.7605 50.149 24.7391 50.2354 24.6977 50.3127C24.6563 50.39 24.596 50.4556 24.5226 50.5035L15.2368 56.3244V49.2162C15.6599 49.0279 15.1027 49.3158 24.7597 43.5508V50.0613ZM24.3366 40.4746L14.1487 46.572C14.0457 46.6327 13.9283 46.6648 13.8088 46.6648C13.6892 46.6648 13.5718 46.6327 13.4689 46.572L3.28007 40.4746L13.4679 34.3772C13.571 34.3166 13.6883 34.2846 13.8079 34.2846C13.9274 34.2846 14.0447 34.3166 14.1478 34.3772L24.3366 40.4746ZM14.1487 15.1463C14.0457 15.207 13.9283 15.239 13.8088 15.239C13.6892 15.239 13.5718 15.207 13.4689 15.1463L3.28007 9.04889L13.4679 2.95151C13.5709 2.89077 13.6883 2.85874 13.8079 2.85874C13.9274 2.85874 14.0448 2.89077 14.1478 2.95151L24.3366 9.04889L14.1487 15.1463ZM24.7597 18.6355C24.7605 18.7232 24.7391 18.8097 24.6977 18.887C24.6563 18.9642 24.596 19.0299 24.5226 19.0777L15.2368 24.8987V17.7905C15.3667 17.7339 15.4931 17.6695 15.6153 17.5977L24.7597 12.1251V18.6355ZM45.846 2.95151C45.9489 2.89077 46.0663 2.85874 46.1859 2.85874C46.3054 2.85874 46.4228 2.89077 46.5258 2.95151L56.7146 9.04889L46.5267 15.1463C46.4237 15.207 46.3064 15.239 46.1868 15.239C46.0672 15.239 45.9499 15.207 45.8469 15.1463L35.6581 9.04889L45.846 2.95151ZM35.4721 19.0777C35.3986 19.0299 35.3384 18.9642 35.297 18.887C35.2555 18.8097 35.2342 18.7232 35.2349 18.6355V12.125C44.8736 17.8785 44.3339 17.6011 44.7579 17.7901V24.8987L35.4721 19.0777ZM57.1377 18.6355C57.1385 18.7232 57.1171 18.8097 57.0757 18.887C57.0343 18.9642 56.9741 19.0299 56.9006 19.0777L47.6148 24.8987V17.7905C48.0379 17.6021 47.4807 17.8901 57.1377 12.1251V18.6355Z" fill="#060E28"/>
</svg>
