<svg width="8" height="13" viewBox="0 0 8 13" fill="none" xmlns="http://www.w3.org/2000/svg">
<path d="M6.79742 0.00270487L5.10323 0C3.19987 0 1.96983 1.25573 1.96983 3.19932V4.67442H0.266395C0.119198 4.67442 0 4.79316 0 4.93963V7.07688C0 7.22335 0.119334 7.34196 0.266395 7.34196H1.96983V12.7349C1.96983 12.8814 2.08903 13 2.23622 13H4.45872C4.60592 13 4.72511 12.8813 4.72511 12.7349V7.34196H6.71683C6.86402 7.34196 6.98322 7.22335 6.98322 7.07688L6.98403 4.93963C6.98403 4.8693 6.9559 4.80195 6.90602 4.75218C6.85614 4.70241 6.78818 4.67442 6.7175 4.67442H4.72511V3.42396C4.72511 2.82294 4.86905 2.51783 5.65587 2.51783L6.79715 2.51742C6.94421 2.51742 7.06341 2.39868 7.06341 2.25234V0.267782C7.06341 0.121584 6.94435 0.00297535 6.79742 0.00270487Z" fill="white"/>
</svg>
