<svg width="60" height="60" viewBox="0 0 60 60" fill="none" xmlns="http://www.w3.org/2000/svg">
<circle cx="30" cy="30" r="30" fill="url(#paint0_linear_8011_1514)"/>
<path d="M24.151 41.5488C24.151 41.5488 34.6042 35.918 37.8587 32.6635C46.0461 24.4761 46.0047 14.028 46.0047 14.028C38.1612 14.3703 31.8245 17.7785 27.3991 22.2039C22.9736 26.6293 18.5713 35.9691 18.5713 35.9691L24.151 41.5488Z" stroke="white" stroke-width="1.14258" stroke-miterlimit="10" stroke-linecap="round" stroke-linejoin="round"/>
<path d="M28.5005 31.5624L21.3325 38.7305" stroke="white" stroke-width="1.14258" stroke-miterlimit="10" stroke-linecap="round" stroke-linejoin="round"/>
<path d="M35.5737 16.5133L43.4999 24.4395" stroke="white" stroke-width="1.14258" stroke-miterlimit="10" stroke-linecap="round" stroke-linejoin="round"/>
<path d="M36.3403 28.3355C35.0662 29.6095 33.0006 29.6095 31.7266 28.3355C30.4525 27.0614 30.4525 24.9958 31.7266 23.7217C33.0006 22.4477 35.0662 22.4477 36.3403 23.7217C37.6143 24.9958 37.6143 27.0614 36.3403 28.3355Z" stroke="white" stroke-width="1.14258" stroke-miterlimit="10" stroke-linecap="round" stroke-linejoin="round"/>
<path d="M20.8266 42.7847L20.8266 42.7847C21.0069 42.6771 21.1771 42.5459 21.3323 42.3906C22.343 41.38 22.343 39.7413 21.3323 38.7306C20.3216 37.7199 18.683 37.7199 17.6723 38.7306C17.4367 38.9662 17.2567 39.2362 17.1309 39.5241L17.1309 39.5241L13.0435 46.9512L20.5492 42.9274C20.6433 42.8858 20.7356 42.8389 20.8252 42.7855L20.8266 42.7847Z" stroke="white" stroke-width="1.14258" stroke-miterlimit="10" stroke-linecap="round" stroke-linejoin="round"/>
<path d="M20.667 31.917L28.0821 39.332" stroke="white" stroke-width="1.14258" stroke-miterlimit="10" stroke-linecap="round" stroke-linejoin="round"/>
<path d="M20.6684 31.916L13 30.2578L18.4662 24.7917L24.9485 25.1068" stroke="white" stroke-width="1.14258" stroke-miterlimit="10" stroke-linecap="round" stroke-linejoin="round"/>
<path d="M28.0835 39.3316L29.7417 47L35.2078 41.5338L34.8927 35.0515" stroke="white" stroke-width="1.14258" stroke-miterlimit="10" stroke-linecap="round" stroke-linejoin="round"/>
<defs>
<linearGradient id="paint0_linear_8011_1514" x1="60" y1="0" x2="0" y2="60" gradientUnits="userSpaceOnUse">
<stop stop-color="#1263FF"/>
<stop offset="1" stop-color="#27AFF9"/>
</linearGradient>
</defs>
</svg>
