<svg width="60" height="60" viewBox="0 0 60 60" fill="none" xmlns="http://www.w3.org/2000/svg">
<circle cx="30" cy="30" r="30" fill="url(#paint0_linear_8011_1563)"/>
<path d="M45.7944 38.0624L40.4055 32.6754C41.0521 31.3661 41.2626 29.8846 41.0063 28.4474C40.75 27.0101 40.0402 25.6924 38.9808 24.6867V17.8524C38.9801 17.1574 38.7034 16.4911 38.2114 15.9997C37.7195 15.5082 37.0524 15.2318 36.3567 15.2311H32.2024V14.6559C32.2021 14.2962 32.0589 13.9513 31.8044 13.6968C31.5499 13.4424 31.2047 13.2991 30.8446 13.2985H29.1653C28.842 12.8294 28.4093 12.4458 27.9046 12.1808C27.3999 11.9158 26.8383 11.7773 26.2681 11.7773C25.6979 11.7773 25.1363 11.9158 24.6315 12.1808C24.1268 12.4458 23.6942 12.8294 23.3708 13.2985H21.6929C21.3326 13.2988 20.9872 13.442 20.7325 13.6965C20.4777 13.9509 20.3344 14.296 20.3341 14.6559V15.2311H16.1798C15.4841 15.2319 14.8171 15.5083 14.3252 15.9998C13.8332 16.4912 13.5565 17.1574 13.5557 17.8524V42.0449C13.5565 42.7399 13.8332 43.4061 14.3252 43.8975C14.8171 44.389 15.4841 44.6654 16.1798 44.6662H36.3567C37.0524 44.6655 37.7195 44.3891 38.2114 43.8977C38.7034 43.4062 38.9801 42.7399 38.9808 42.0449V37.5072L42.6676 41.1893C42.8732 41.3945 43.1172 41.5572 43.3857 41.6682C43.6542 41.7792 43.942 41.8363 44.2326 41.8361C44.5232 41.836 44.8109 41.7787 45.0793 41.6675C45.3478 41.5564 45.5916 41.3934 45.797 41.1881C46.0024 40.9828 46.1653 40.739 46.2764 40.4708C46.3875 40.2026 46.4447 39.9151 46.4446 39.6248C46.4444 39.3345 46.3871 39.0471 46.2758 38.779C46.1645 38.5108 46.0014 38.2672 45.7958 38.062L45.7944 38.0624ZM38.7561 33.018C38.0772 33.9242 37.1406 34.605 36.0685 34.9713C34.9964 35.3376 33.8386 35.3725 32.7464 35.0714C31.6541 34.7703 30.6781 34.1472 29.9459 33.2834C29.2136 32.4196 28.7591 31.3554 28.6417 30.2296C28.5243 29.1038 28.7495 27.9688 29.2878 26.9729C29.8261 25.9769 30.6525 25.1662 31.6592 24.6467C32.6659 24.1271 33.806 23.9229 34.9307 24.0606C36.0553 24.1983 37.1123 24.6716 37.9635 25.4187C39.0278 26.3539 39.7004 27.6552 39.8472 29.0635C39.9941 30.4718 39.6045 31.8837 38.7561 33.018ZM21.5652 14.6559C21.5653 14.6221 21.5788 14.5897 21.6027 14.5658C21.6267 14.5419 21.6591 14.5284 21.6929 14.5283H23.7145C23.8253 14.5283 23.934 14.4984 24.0292 14.4419C24.1244 14.3853 24.2026 14.3041 24.2555 14.2068C24.4513 13.8439 24.7418 13.5406 25.0961 13.3293C25.4505 13.1179 25.8555 13.0063 26.2682 13.0063C26.681 13.0063 27.086 13.1179 27.4404 13.3293C27.7947 13.5406 28.0852 13.8439 28.281 14.2068C28.3338 14.3041 28.412 14.3853 28.5072 14.4419C28.6025 14.4985 28.7112 14.5284 28.822 14.5283H30.8446C30.8785 14.5283 30.911 14.5417 30.9349 14.5657C30.9589 14.5896 30.9723 14.622 30.9723 14.6559V17.651C30.9715 17.6584 30.97 17.6657 30.9678 17.6728C30.963 17.6981 30.9506 17.7213 30.9324 17.7395C30.9141 17.7576 30.8907 17.7698 30.8654 17.7744C30.8586 17.7763 30.8517 17.7777 30.8446 17.7786H21.6929C21.679 17.7781 21.6652 17.7753 21.6521 17.7705C21.6216 17.7593 21.5964 17.737 21.5818 17.708C21.5799 17.7056 21.5783 17.7032 21.5768 17.7006C21.5767 17.6982 21.5767 17.6959 21.5768 17.6935C21.5714 17.68 21.5684 17.6656 21.568 17.651V14.6559H21.5652ZM37.7497 42.0449C37.7493 42.4139 37.6024 42.7676 37.3413 43.0284C37.0801 43.2893 36.726 43.436 36.3567 43.4364H16.1798C15.8105 43.436 15.4564 43.2893 15.1952 43.0284C14.9341 42.7676 14.7872 42.4139 14.7868 42.0449V17.8524C14.7872 17.4834 14.9341 17.1297 15.1952 16.8689C15.4564 16.608 15.8105 16.4613 16.1798 16.4609H20.3341V17.6521C20.3344 18.0117 20.4776 18.3565 20.7322 18.6107C20.9867 18.865 21.3319 19.008 21.6919 19.0084H30.8446C31.2046 19.0079 31.5497 18.8649 31.8042 18.6106C32.0588 18.3564 32.202 18.0117 32.2024 17.6521V16.4609H36.3567C36.726 16.4613 37.0801 16.608 37.3413 16.8689C37.6024 17.1297 37.7493 17.4834 37.7497 17.8524V23.7531C36.7268 23.1464 35.5636 22.8156 34.3742 22.7931C33.1848 22.7705 32.0099 23.0571 30.9647 23.6246C29.9195 24.1921 29.0398 25.0212 28.4119 26.0305C27.7839 27.0398 27.4292 28.1947 27.3826 29.3822C27.336 30.5696 27.5989 31.7488 28.1458 32.8042C28.6926 33.8595 29.5045 34.7549 30.502 35.4025C31.4995 36.05 32.6483 36.4277 33.8358 36.4983C35.0233 36.569 36.2088 36.3302 37.2762 35.8055L37.7497 36.2788V42.0449ZM44.9256 40.32C44.7387 40.4983 44.4902 40.5978 44.2317 40.5978C43.9733 40.5978 43.7248 40.4983 43.5379 40.32L38.9808 35.7679V34.6115C39.2607 34.35 39.5162 34.0636 39.7441 33.7559L44.9256 38.9321C45.0168 39.0232 45.0892 39.1313 45.1386 39.2504C45.1881 39.3695 45.2135 39.4971 45.2135 39.626C45.2135 39.7549 45.1881 39.8826 45.1386 40.0016C45.0892 40.1207 45.0168 40.2289 44.9256 40.32Z" fill="white"/>
<path d="M18.2427 25.8164H25.5524C25.6974 25.8164 25.8365 25.7588 25.9391 25.6562C26.0416 25.5537 26.0992 25.4146 26.0992 25.2695C26.0992 25.1245 26.0416 24.9854 25.9391 24.8828C25.8365 24.7803 25.6974 24.7227 25.5524 24.7227H18.2427C18.0976 24.7227 17.9585 24.7803 17.856 24.8828C17.7534 24.9854 17.6958 25.1245 17.6958 25.2695C17.6958 25.4146 17.7534 25.5537 17.856 25.6562C17.9585 25.7588 18.0976 25.8164 18.2427 25.8164Z" fill="white"/>
<path d="M18.2427 30.4023H23.4442C23.5893 30.4023 23.7284 30.3447 23.8309 30.2422C23.9335 30.1396 23.9911 30.0005 23.9911 29.8555C23.9911 29.7104 23.9335 29.5713 23.8309 29.4688C23.7284 29.3662 23.5893 29.3086 23.4442 29.3086H18.2427C18.0976 29.3086 17.9585 29.3662 17.856 29.4688C17.7534 29.5713 17.6958 29.7104 17.6958 29.8555C17.6958 30.0005 17.7534 30.1396 17.856 30.2422C17.9585 30.3447 18.0976 30.4023 18.2427 30.4023Z" fill="white"/>
<path d="M18.2422 34.9844H23.4437C23.5888 34.9844 23.7279 34.9268 23.8304 34.8242C23.933 34.7216 23.9906 34.5825 23.9906 34.4375C23.9906 34.2925 23.933 34.1534 23.8304 34.0508C23.7279 33.9482 23.5888 33.8906 23.4437 33.8906H18.2422C18.0971 33.8906 17.958 33.9482 17.8555 34.0508C17.7529 34.1534 17.6953 34.2925 17.6953 34.4375C17.6953 34.5825 17.7529 34.7216 17.8555 34.8242C17.958 34.9268 18.0971 34.9844 18.2422 34.9844Z" fill="white"/>
<path d="M29.7933 38.4727H18.2427C18.0976 38.4727 17.9585 38.5303 17.856 38.6328C17.7534 38.7354 17.6958 38.8745 17.6958 39.0195C17.6958 39.1646 17.7534 39.3037 17.856 39.4062C17.9585 39.5088 18.0976 39.5664 18.2427 39.5664H29.7933C29.9383 39.5664 30.0774 39.5088 30.18 39.4062C30.2826 39.3037 30.3402 39.1646 30.3402 39.0195C30.3402 38.8745 30.2826 38.7354 30.18 38.6328C30.0774 38.5303 29.9383 38.4727 29.7933 38.4727Z" fill="white"/>
<defs>
<linearGradient id="paint0_linear_8011_1563" x1="60" y1="0" x2="0" y2="60" gradientUnits="userSpaceOnUse">
<stop stop-color="#1263FF"/>
<stop offset="1" stop-color="#27AFF9"/>
</linearGradient>
</defs>
</svg>
