<svg width="78" height="70" viewBox="0 0 78 70" fill="none" xmlns="http://www.w3.org/2000/svg">
<path d="M38.6843 49.1225C45.8059 49.1225 51.579 43.3493 51.579 36.2277C51.579 29.1062 45.8059 23.333 38.6843 23.333C31.5627 23.333 25.7896 29.1062 25.7896 36.2277C25.7896 43.3493 31.5627 49.1225 38.6843 49.1225Z" fill="#1263FF"/>
<path d="M49.8158 46.7676C48.3869 48.2867 46.6621 49.4973 44.7476 50.3248C42.8332 51.1522 40.7697 51.5791 38.6841 51.5791C36.5985 51.5791 34.5349 51.1522 32.6205 50.3248C30.7061 49.4973 28.9813 48.2867 27.5523 46.7676C24.8379 47.9723 22.5308 49.9379 20.9102 52.4265C19.2896 54.915 18.425 57.82 18.4209 60.7897V68.1581C18.4209 68.4 18.4685 68.6396 18.561 68.8631C18.6536 69.0866 18.7893 69.2897 18.9604 69.4607C19.1314 69.6318 19.3345 69.7675 19.558 69.8601C19.7815 69.9526 20.0211 70.0002 20.263 70.0002H57.1051C57.5937 70.0002 58.0622 69.8061 58.4076 69.4606C58.7531 69.1152 58.9472 68.6467 58.9472 68.1581V60.7897C58.9431 57.82 58.0785 54.915 56.4579 52.4265C54.8373 49.9379 52.5302 47.9723 49.8158 46.7676Z" fill="#1263FF"/>
<path d="M57.1052 25.7895C54.5549 25.7895 52.0618 25.0332 49.9413 23.6163C47.8207 22.1994 46.168 20.1855 45.192 17.8293C44.216 15.4731 43.9607 12.8804 44.4582 10.3791C44.9558 7.87777 46.1839 5.58015 47.9872 3.77679C49.7906 1.97343 52.0882 0.745321 54.5896 0.247775C57.0909 -0.249772 59.6836 0.00558704 62.0398 0.981559C64.396 1.95753 66.4099 3.61028 67.8268 5.73081C69.2437 7.85134 69.9999 10.3444 69.9999 12.8947C69.9961 16.3135 68.6363 19.5911 66.2189 22.0085C63.8015 24.4259 60.5239 25.7856 57.1052 25.7895ZM57.1052 3.68422C55.2835 3.68422 53.5028 4.2244 51.9881 5.23647C50.4734 6.24854 49.2929 7.68702 48.5958 9.37003C47.8987 11.053 47.7163 12.905 48.0716 14.6916C48.427 16.4783 49.3042 18.1195 50.5924 19.4076C51.8805 20.6957 53.5216 21.5729 55.3083 21.9283C57.095 22.2837 58.9469 22.1013 60.6299 21.4042C62.3129 20.707 63.7514 19.5265 64.7635 18.0118C65.7755 16.4972 66.3157 14.7164 66.3157 12.8947C66.3131 10.4528 65.3418 8.11159 63.6151 6.38486C61.8883 4.65813 59.5472 3.68688 57.1052 3.68422Z" fill="#060E28"/>
<path d="M75.5264 46.6666H56.4913C56.0027 46.6666 55.5342 46.4725 55.1887 46.1271C54.8433 45.7816 54.6492 45.3131 54.6492 44.8245C54.6492 44.336 54.8433 43.8674 55.1887 43.5219C55.5342 43.1765 56.0027 42.9824 56.4913 42.9824H73.5392C73.0974 40.2437 71.6958 37.7515 69.5849 35.9515C67.4741 34.1516 64.7917 33.1613 62.0176 33.1578H55.8773C55.3887 33.1578 54.9202 32.9638 54.5747 32.6183C54.2292 32.2728 54.0352 31.8043 54.0352 31.3157C54.0352 30.8272 54.2292 30.3586 54.5747 30.0132C54.9202 29.6677 55.3887 29.4736 55.8773 29.4736H62.0176C66.0875 29.4782 69.9894 31.097 72.8673 33.9749C75.7451 36.8527 77.3639 40.7546 77.3685 44.8245C77.3685 45.3131 77.1744 45.7816 76.8289 46.127C76.4835 46.4725 76.0149 46.6666 75.5264 46.6666Z" fill="#060E28"/>
<path d="M20.2634 25.7895C17.7131 25.7895 15.22 25.0332 13.0995 23.6163C10.9789 22.1994 9.32618 20.1855 8.35021 17.8293C7.37424 15.4731 7.11888 12.8804 7.61643 10.3791C8.11397 7.87777 9.34208 5.58015 11.1454 3.77679C12.9488 1.97343 15.2464 0.745321 17.7478 0.247775C20.2491 -0.249772 22.8418 0.00558704 25.198 0.981559C27.5542 1.95753 29.5681 3.61028 30.985 5.73081C32.4019 7.85134 33.1581 10.3444 33.1581 12.8947C33.1542 16.3134 31.7944 19.591 29.377 22.0084C26.9596 24.4257 23.6821 25.7855 20.2634 25.7895ZM20.2634 3.68422C18.4417 3.68422 16.661 4.2244 15.1463 5.23647C13.6316 6.24854 12.4511 7.68702 11.754 9.37003C11.0569 11.053 10.8745 12.905 11.2298 14.6916C11.5852 16.4783 12.4625 18.1195 13.7506 19.4076C15.0387 20.6957 16.6798 21.5729 18.4665 21.9283C20.2532 22.2837 22.1051 22.1013 23.7881 21.4042C25.4711 20.707 26.9096 19.5265 27.9217 18.0118C28.9337 16.4972 29.4739 14.7164 29.4739 12.8947C29.4713 10.4528 28.5 8.11159 26.7733 6.38486C25.0465 4.65813 22.7054 3.68688 20.2634 3.68422Z" fill="#060E28"/>
<path d="M20.8772 46.6666H1.84211C1.60019 46.6667 1.36063 46.619 1.13712 46.5265C0.913607 46.4339 0.71052 46.2982 0.539457 46.1272C0.368395 45.9561 0.232708 45.753 0.140146 45.5295C0.0475851 45.306 -3.70811e-05 45.0664 2.16636e-08 44.8245C0.00457663 40.7546 1.62337 36.8527 4.50122 33.9749C7.37908 31.097 11.281 29.4782 15.3509 29.4736H21.4912C21.9798 29.4736 22.4483 29.6677 22.7938 30.0132C23.1393 30.3586 23.3333 30.8272 23.3333 31.3157C23.3333 31.8043 23.1393 32.2728 22.7938 32.6183C22.4483 32.9638 21.9798 33.1578 21.4912 33.1578H15.3509C12.5768 33.1613 9.89443 34.1516 7.78357 35.9516C5.67271 37.7515 4.27106 40.2437 3.82932 42.9824H20.8772C21.3658 42.9824 21.8343 43.1765 22.1798 43.5219C22.5252 43.8674 22.7193 44.336 22.7193 44.8245C22.7193 45.3131 22.5252 45.7816 22.1798 46.1271C21.8343 46.4725 21.3658 46.6666 20.8772 46.6666Z" fill="#060E28"/>
</svg>
