<svg width="64" height="81" viewBox="0 0 64 81" fill="none" xmlns="http://www.w3.org/2000/svg">
<path d="M49.4368 25.6022L38.3447 23.9905L33.3798 13.9334C33.2364 13.6432 33.0148 13.3989 32.7398 13.2281C32.4649 13.0573 32.1477 12.9668 31.8241 12.9668C31.5004 12.9668 31.1832 13.0573 30.9083 13.2281C30.6334 13.3989 30.4118 13.6432 30.2684 13.9334L25.3035 23.9905L14.2165 25.6022C13.8961 25.6491 13.5952 25.7846 13.3478 25.9935C13.1003 26.2024 12.9162 26.4763 12.8163 26.7842C12.7163 27.0922 12.7044 27.422 12.782 27.7364C12.8596 28.0508 13.0236 28.3372 13.2553 28.5633L21.2819 36.3862L19.3864 47.4338C19.3321 47.753 19.3681 48.081 19.4903 48.3809C19.6125 48.6808 19.8161 48.9405 20.078 49.1309C20.34 49.3212 20.6499 49.4346 20.9728 49.4582C21.2958 49.4818 21.6189 49.4147 21.9057 49.2644L31.8266 44.0475L41.7475 49.267C42.0344 49.4172 42.3575 49.4843 42.6804 49.4607C43.0034 49.4371 43.3133 49.3237 43.5753 49.1334C43.8372 48.9431 44.0408 48.6833 44.163 48.3834C44.2852 48.0836 44.3212 47.7556 44.2669 47.4363L42.3713 36.3888L50.3979 28.5659C50.6305 28.3398 50.7951 28.0532 50.8731 27.7385C50.9511 27.4238 50.9394 27.0934 50.8394 26.785C50.7394 26.4765 50.555 26.2023 50.3071 25.9932C50.0592 25.7842 49.7577 25.6487 49.4368 25.6022Z" fill="#1263FF"/>
<path d="M52.9946 55.5922C57.812 51.3014 61.2117 45.6478 62.743 39.3809C64.2744 33.1141 63.8651 26.5298 61.5694 20.5008C59.2736 14.4719 55.2 9.28289 49.8882 5.62171C44.5765 1.96052 38.2776 0 31.8263 0C25.3751 0 19.0761 1.96052 13.7644 5.62171C8.45269 9.28289 4.379 14.4719 2.0833 20.5008C-0.212398 26.5298 -0.621709 33.1141 0.909623 39.3809C2.44096 45.6478 5.84062 51.3014 10.658 55.5922L2.75489 68.8854C2.5729 69.1917 2.4802 69.5427 2.48728 69.8989C2.49436 70.2551 2.60093 70.6022 2.79495 70.901C2.98897 71.1998 3.2627 71.4383 3.5852 71.5897C3.9077 71.741 4.26611 71.7991 4.61992 71.7574L16.8641 70.3125L24.9977 79.5791C25.2329 79.8475 25.5387 80.0446 25.8802 80.148C26.2218 80.2515 26.5855 80.2571 26.9302 80.1643C27.2748 80.0716 27.5865 79.8841 27.83 79.6231C28.0735 79.3621 28.2389 79.0382 28.3076 78.688L31.3006 63.6659H32.3597L35.3527 78.688C35.4214 79.0382 35.5868 79.3621 35.8303 79.6231C36.0738 79.8841 36.3855 80.0716 36.7301 80.1643C37.0747 80.2571 37.4385 80.2515 37.78 80.148C38.1216 80.0446 38.4274 79.8475 38.6626 79.5791L46.7962 70.3125L59.0404 71.7574C59.3942 71.7991 59.7526 71.741 60.0751 71.5897C60.3976 71.4383 60.6713 71.1998 60.8653 70.901C61.0594 70.6022 61.1659 70.2551 61.173 69.8989C61.1801 69.5427 61.0874 69.1917 60.9054 68.8854L52.9946 55.5922ZM25.3159 74.1521L19.078 67.0395C18.8757 66.8055 18.6189 66.6249 18.3302 66.5139C18.0415 66.4029 17.7299 66.3648 17.423 66.403L8.02024 67.5118L13.6866 57.9792C17.7891 60.8415 22.5119 62.6901 27.4674 63.3731L25.3159 74.1521ZM31.8263 59.8608C26.287 59.8608 20.8721 58.2182 16.2664 55.1407C11.6606 52.0632 8.07088 47.6891 5.95108 42.5715C3.83129 37.4538 3.27665 31.8225 4.35732 26.3897C5.43798 20.9568 8.1054 15.9664 12.0223 12.0495C15.9391 8.13266 20.9295 5.46523 26.3624 4.38457C31.7953 3.30391 37.4266 3.85854 42.5442 5.97834C47.6618 8.09813 52.036 11.6879 55.1134 16.2936C58.1909 20.8994 59.8335 26.3143 59.8335 31.8536C59.8251 39.279 56.8716 46.3978 51.6211 51.6483C46.3705 56.8989 39.2517 59.8523 31.8263 59.8608ZM46.2386 66.403C45.9317 66.3652 45.6202 66.4035 45.3316 66.5145C45.043 66.6256 44.7861 66.8058 44.5836 67.0395L38.3393 74.1533L36.1929 63.3731C41.1484 62.6901 45.8712 60.8415 49.9737 57.9792L55.6324 67.5118L46.2386 66.403Z" fill="#060E28"/>
</svg>
