<svg width="60" height="60" viewBox="0 0 60 60" fill="none" xmlns="http://www.w3.org/2000/svg">
<circle cx="30" cy="30" r="30" fill="url(#paint0_linear_8011_1548)"/>
<path d="M44.445 15.9239L44.7356 14.7611L43.8295 15.5457C39.7291 19.0967 35.1331 22.0313 30.1864 24.2569C25.2881 26.4549 20.0993 27.9377 14.7792 28.6596C14.7627 28.6618 14.7462 28.6628 14.7296 28.6629C14.6407 28.663 14.5551 28.6293 14.4901 28.5686L14.2326 28.8445L14.4901 28.5686C14.4251 28.508 14.3856 28.4249 14.3796 28.3362C14.3736 28.2475 14.4015 28.1599 14.4577 28.091C14.5139 28.0221 14.5942 27.9772 14.6823 27.9653L14.6825 27.9652C19.9366 27.2527 25.0611 25.7887 29.8986 23.6181L29.899 23.6179C34.911 21.3623 39.5581 18.371 43.6866 14.7429L44.4414 14.0795H43.4366H39.5217C39.4287 14.0795 39.3396 14.0426 39.2739 13.9769C39.2082 13.9112 39.1713 13.8221 39.1713 13.7292C39.1713 13.6362 39.2082 13.5471 39.2739 13.4814C39.3396 13.4157 39.4287 13.3788 39.5217 13.3788H45.3547C45.4078 13.3789 45.4602 13.3911 45.508 13.4144C45.5558 13.4378 45.5976 13.4717 45.6303 13.5136C45.663 13.5556 45.6858 13.6044 45.6968 13.6564C45.7079 13.7085 45.7069 13.7624 45.694 13.814L44.2358 19.6471L44.2357 19.6473C44.2168 19.7231 44.1731 19.7904 44.1116 19.8385C44.0503 19.8864 43.9748 19.9126 43.897 19.9129C43.868 19.9127 43.8392 19.9091 43.811 19.9022C43.7212 19.8795 43.6441 19.8222 43.5964 19.7428C43.5486 19.6631 43.5344 19.5678 43.5569 19.4777L44.445 15.9239Z" stroke="white" stroke-width="0.757576"/>
<path d="M44.3734 44.7663V45.0188H44.626H45.3551C45.4816 45.0188 45.6028 45.069 45.6922 45.1584C45.7816 45.2478 45.8318 45.369 45.8318 45.4954C45.8318 45.6219 45.7816 45.7431 45.6922 45.8325C45.6028 45.9219 45.4816 45.9721 45.3551 45.9721H14.7301C14.6037 45.9721 14.4825 45.9219 14.3931 45.8325C14.3037 45.7431 14.2535 45.6219 14.2535 45.4954C14.2535 45.369 14.3037 45.2478 14.3931 45.1584C14.4825 45.069 14.6037 45.0188 14.7301 45.0188H15.4593H15.7118V44.7663V33.8288C15.7118 33.7024 15.7621 33.5811 15.8514 33.4917C15.9408 33.4024 16.0621 33.3521 16.1885 33.3521H23.4801C23.6066 33.3521 23.7278 33.4024 23.8172 33.4917C23.9066 33.5811 23.9568 33.7024 23.9568 33.8288V44.7663V45.0188H24.2093H25.6676H25.9202V44.7663V29.4538C25.9202 29.3274 25.9704 29.2061 26.0598 29.1167C26.1492 29.0274 26.2704 28.9771 26.3968 28.9771H33.6885C33.8149 28.9771 33.9361 29.0274 34.0255 29.1167C34.1149 29.2061 34.1651 29.3274 34.1651 29.4538V44.7663V45.0188H34.4176H35.876H36.1285V44.7663V25.0788C36.1285 24.9524 36.1787 24.8311 36.2681 24.7417C36.3575 24.6524 36.4787 24.6021 36.6051 24.6021H43.8968C44.0232 24.6021 44.1445 24.6524 44.2338 24.7417C44.3232 24.8311 44.3734 24.9524 44.3734 25.0788V44.7663ZM37.3343 25.5554H37.0818V25.8079V44.7663V45.0188H37.3343H43.1676H43.4202V44.7663V25.8079V25.5554H43.1676H37.3343ZM27.126 29.9304H26.8735V30.1829V44.7663V45.0188H27.126H32.9593H33.2118V44.7663V30.1829V29.9304H32.9593H27.126ZM16.9176 34.3054H16.6651V34.5579V44.7663V45.0188H16.9176H22.751H23.0035V44.7663V34.5579V34.3054H22.751H16.9176Z" fill="white" stroke="white" stroke-width="0.505051"/>
<defs>
<linearGradient id="paint0_linear_8011_1548" x1="60" y1="0" x2="0" y2="60" gradientUnits="userSpaceOnUse">
<stop stop-color="#1263FF"/>
<stop offset="1" stop-color="#27AFF9"/>
</linearGradient>
</defs>
</svg>
