<svg width="12" height="12" viewBox="0 0 12 12" fill="none" xmlns="http://www.w3.org/2000/svg">
<path d="M11.3172 11.2584V11.2579H11.32V7.1246C11.32 5.10255 10.8826 3.54492 8.50688 3.54492C7.36482 3.54492 6.59842 4.16854 6.28553 4.75975H6.2525V3.7337H4V11.2579H6.34547V7.53221C6.34547 6.55124 6.53235 5.60266 7.75322 5.60266C8.95615 5.60266 8.97409 6.72217 8.97409 7.59513V11.2584H11.3172Z" fill="white"/>
<path d="M0.179688 3.74609H2.52799V11.2703H0.179688V3.74609Z" fill="white"/>
<path d="M1.36009 0C0.609255 0 0 0.60624 0 1.35336C0 2.10048 0.609255 2.71939 1.36009 2.71939C2.11092 2.71939 2.72017 2.10048 2.72017 1.35336C2.7197 0.60624 2.11045 0 1.36009 0V0Z" fill="white"/>
</svg>
