<svg width="18" height="19" viewBox="0 0 18 19" fill="none" xmlns="http://www.w3.org/2000/svg">
<path d="M14.1855 13.2688C13.3538 14.1005 11.6428 15.8115 10.4135 17.0408C9.63246 17.8219 8.36733 17.8215 7.58628 17.0404C6.37871 15.8329 4.70058 14.1547 3.81463 13.2688C0.950787 10.4049 0.950787 5.76173 3.81463 2.89788C6.67848 0.0340389 11.3217 0.0340389 14.1855 2.89788C17.0494 5.76173 17.0494 10.4049 14.1855 13.2688Z" stroke="white" stroke-width="1.5" stroke-linecap="round" stroke-linejoin="round"/>
<path d="M11.7501 8.08333C11.7501 9.60212 10.5189 10.8333 9.00008 10.8333C7.4813 10.8333 6.25008 9.60212 6.25008 8.08333C6.25008 6.56455 7.4813 5.33333 9.00008 5.33333C10.5189 5.33333 11.7501 6.56455 11.7501 8.08333Z" stroke="white" stroke-width="1.5" stroke-linecap="round" stroke-linejoin="round"/>
</svg>
