<svg width="173" height="36" viewBox="0 0 173 36" fill="none" xmlns="http://www.w3.org/2000/svg">
<g clip-path="url(#clip0_8011_1599)">
<path d="M4.99169 5.03804C7.32196 2.78717 10.4862 1.47339 13.6931 1.30997C14.7907 1.30997 15.8917 1.31663 16.9893 1.30664C16.9331 2.49709 16.9893 3.69088 16.9562 4.88128C16.8013 7.54226 15.829 10.1432 14.1909 12.2307C12.0616 15.0384 8.80518 16.9224 5.34767 17.4093C3.83811 17.6561 2.30542 17.4993 0.785972 17.5427C0.812317 16.2321 0.729934 14.9184 0.83213 13.6112C1.12879 10.37 2.64165 7.26552 4.99169 5.03804Z" fill="#060E28"/>
<path d="M18.0049 1.30664C19.1815 1.31997 20.3583 1.29998 21.5383 1.3133C24.475 1.52336 27.3722 2.66378 29.5836 4.64124C32.0228 6.75866 33.6938 9.78646 34.1226 13.021C34.31 14.5216 34.1917 16.0387 34.2643 17.546C33.2356 17.5427 32.2109 17.5393 31.1822 17.546C28.6543 17.476 26.1692 16.6491 24.0531 15.2551C23.0775 14.5482 22.0755 13.8313 21.3438 12.8509C19.7387 11.037 18.6477 8.75943 18.2357 6.35854C17.9258 4.69121 18.051 2.99062 18.0049 1.30664Z" fill="#060E28"/>
<path d="M0.787569 18.498C1.83242 18.5581 2.88057 18.448 3.92208 18.5647C8.38158 18.6614 12.7093 21.1957 15.0198 25.0538C16.3449 27.2146 17.0568 29.7757 16.9645 32.3201C16.9611 33.1536 16.9744 33.9836 16.9512 34.8143C15.2967 34.764 13.6256 34.9007 11.9874 34.5772C8.34865 33.9571 5.00321 31.7661 2.98929 28.6385C1.46326 26.3643 0.701891 23.5866 0.78098 20.8423C0.78098 20.0587 0.780983 19.2784 0.787569 18.498Z" fill="#060E28"/>
<path d="M28.6958 18.8527C30.4892 18.4491 32.3378 18.5158 34.1606 18.5158L34.2399 18.5959C34.2002 20.3398 34.3352 22.104 33.9893 23.8278C33.2608 27.696 30.7297 31.1508 27.3248 33.0481C25.2054 34.2419 22.7729 34.8286 20.3504 34.802C19.5758 34.8054 18.7979 34.7885 18.0233 34.8122C18.0233 33.3683 17.964 31.9176 18.1256 30.4806C18.5013 27.0024 20.3602 23.7646 23.0333 21.5771C24.6879 20.2565 26.6326 19.2996 28.6958 18.8527Z" fill="#060E28"/>
<path d="M47.7704 28.3559C47.7704 28.9429 47.5695 29.4397 47.1682 29.846C46.7887 30.23 46.3087 30.4219 45.7287 30.4219C45.1706 30.4219 44.7017 30.23 44.3227 29.846C43.9432 29.4397 43.7534 28.9429 43.7534 28.3559V7.4253C43.7534 6.83827 43.9432 6.35281 44.3227 5.969C44.724 5.56261 45.2153 5.35938 45.7958 5.35938C46.3757 5.35938 46.8445 5.56261 47.2016 5.969C47.5807 6.35281 47.7704 6.83827 47.7704 7.4253V28.3559Z" fill="#060E28"/>
<path d="M63.8953 12.3027C64.4751 12.3027 64.9551 12.5059 65.3347 12.9124C65.7136 13.2961 65.9034 13.7816 65.9034 14.3686V22.9712C65.9034 25.3645 65.2454 27.2611 63.9287 28.6611C62.6115 30.0609 60.7148 30.7611 58.2372 30.7611C55.7601 30.7611 53.8631 30.0609 52.5464 28.6611C51.252 27.2611 50.6045 25.3645 50.6045 22.9712V14.3686C50.6045 13.7816 50.7943 13.2961 51.1739 12.9124C51.5535 12.5059 52.0328 12.3027 52.6134 12.3027C53.1938 12.3027 53.6732 12.5059 54.0529 12.9124C54.4324 13.2961 54.6222 13.7816 54.6222 14.3686V22.9712C54.6222 24.3485 54.9235 25.3758 55.5258 26.0532C56.1285 26.708 57.0322 27.0353 58.2372 27.0353C59.4651 27.0353 60.38 26.708 60.9828 26.0532C61.585 25.3758 61.8864 24.3485 61.8864 22.9712V14.3686C61.8864 13.7816 62.0761 13.2961 62.4558 12.9124C62.8347 12.5059 63.3147 12.3027 63.8953 12.3027Z" fill="#060E28"/>
<path d="M77.9851 11.9648C79.7707 11.9648 81.0873 12.4051 81.9358 13.2857C82.7835 14.1437 83.3417 15.2613 83.6091 16.6386L83.0403 16.3338L83.3082 15.792C83.5755 15.2727 83.9886 14.7195 84.5468 14.1324C85.1043 13.5228 85.774 13.0148 86.5549 12.6084C87.3587 12.1793 88.2511 11.9648 89.2335 11.9648C90.8405 11.9648 92.0566 12.3148 92.8822 13.0148C93.7306 13.7147 94.3105 14.6517 94.623 15.8258C94.9355 16.9773 95.0919 18.2643 95.0919 19.6867V28.357C95.0919 28.9442 94.9021 29.4408 94.5226 29.8471C94.143 30.2311 93.6636 30.4231 93.0831 30.4231C92.5032 30.4231 92.0232 30.2311 91.6436 29.8471C91.2641 29.4408 91.0743 28.9442 91.0743 28.357V19.6867C91.0743 18.9416 90.9855 18.2756 90.8069 17.6886C90.6283 17.0789 90.3046 16.5935 89.8358 16.2322C89.3675 15.871 88.6977 15.6904 87.8275 15.6904C86.9792 15.6904 86.2542 15.871 85.6513 16.2322C85.0485 16.5935 84.5914 17.0789 84.2788 17.6886C83.9886 18.2756 83.8434 18.9416 83.8434 19.6867V28.357C83.8434 28.9442 83.6537 29.4408 83.2748 29.8471C82.8951 30.2311 82.4151 30.4231 81.8353 30.4231C81.2547 30.4231 80.7747 30.2311 80.3957 29.8471C80.0162 29.4408 79.8264 28.9442 79.8264 28.357V19.6867C79.8264 18.9416 79.7371 18.2756 79.5585 17.6886C79.38 17.0789 79.0562 16.5935 78.5879 16.2322C78.119 15.871 77.4493 15.6904 76.5791 15.6904C75.7314 15.6904 75.0057 15.871 74.4029 16.2322C73.8006 16.5935 73.3431 17.0789 73.0304 17.6886C72.7407 18.2756 72.5957 18.9416 72.5957 19.6867V28.357C72.5957 28.9442 72.4059 29.4408 72.0264 29.8471C71.6468 30.2311 71.1673 30.4231 70.5869 30.4231C70.0064 30.4231 69.527 30.2311 69.1474 29.8471C68.7679 29.4408 68.5781 28.9442 68.5781 28.357V14.3695C68.5781 13.7824 68.7679 13.2969 69.1474 12.9132C69.527 12.5067 70.0064 12.3035 70.5869 12.3035C71.1673 12.3035 71.6468 12.5067 72.0264 12.9132C72.4059 13.2969 72.5957 13.7824 72.5957 14.3695V15.8258L72.0934 15.7242C72.2943 15.3404 72.5734 14.934 72.93 14.5049C73.2872 14.0534 73.7226 13.6357 74.236 13.2519C74.749 12.868 75.3183 12.5632 75.9429 12.3374C76.568 12.089 77.249 11.9648 77.9851 11.9648Z" fill="#060E28"/>
<path d="M101.55 28.3556C101.55 28.9427 101.36 29.4394 100.98 29.8457C100.601 30.2297 100.121 30.4216 99.5408 30.4216C98.9609 30.4216 98.4809 30.2297 98.1012 29.8457C97.7224 29.4394 97.5326 28.9427 97.5326 28.3556V14.3681C97.5326 13.781 97.7224 13.2956 98.1012 12.9117C98.4809 12.5053 98.9609 12.3021 99.5408 12.3021C100.121 12.3021 100.601 12.5053 100.98 12.9117C101.36 13.2956 101.55 13.781 101.55 14.3681V28.3556ZM99.5073 10.1006C98.7487 10.1006 98.213 9.97648 97.9003 9.72807C97.5883 9.47972 97.4321 9.03945 97.4321 8.40723V7.76372C97.4321 7.10898 97.5996 6.66864 97.9339 6.44288C98.2911 6.19455 98.8269 6.07031 99.5408 6.07031C100.322 6.07031 100.869 6.19455 101.181 6.44288C101.494 6.69123 101.65 7.13151 101.65 7.76372V8.40723C101.65 9.06204 101.483 9.51361 101.148 9.76196C100.813 9.98777 100.266 10.1006 99.5073 10.1006Z" fill="#060E28"/>
<path d="M113.577 11.9648C115.229 11.9648 116.479 12.3148 117.326 13.0148C118.197 13.7147 118.788 14.6517 119.101 15.8258C119.436 16.9773 119.603 18.2643 119.603 19.6867V28.357C119.603 28.9442 119.413 29.4408 119.034 29.8471C118.654 30.2311 118.175 30.4231 117.594 30.4231C117.014 30.4231 116.534 30.2311 116.155 29.8471C115.775 29.4408 115.586 28.9442 115.586 28.357V19.6867C115.586 18.9416 115.486 18.2756 115.285 17.6886C115.106 17.0789 114.771 16.5935 114.28 16.2322C113.789 15.871 113.086 15.6904 112.171 15.6904C111.278 15.6904 110.52 15.871 109.895 16.2322C109.292 16.5935 108.824 17.0789 108.489 17.6886C108.176 18.2756 108.02 18.9416 108.02 19.6867V28.357C108.02 28.9442 107.831 29.4408 107.451 29.8471C107.072 30.2311 106.592 30.4231 106.012 30.4231C105.431 30.4231 104.951 30.2311 104.572 29.8471C104.193 29.4408 104.003 28.9442 104.003 28.357V14.3695C104.003 13.7824 104.193 13.2969 104.572 12.9132C104.951 12.5067 105.431 12.3035 106.012 12.3035C106.592 12.3035 107.072 12.5067 107.451 12.9132C107.831 13.2969 108.02 13.7824 108.02 14.3695V15.8258L107.518 15.7242C107.719 15.3404 108.009 14.934 108.388 14.5049C108.768 14.0534 109.214 13.6357 109.727 13.2519C110.241 12.868 110.821 12.5632 111.468 12.3374C112.116 12.089 112.818 11.9648 113.577 11.9648Z" fill="#060E28"/>
<path d="M139.479 21.3802C139.479 23.2316 139.067 24.8686 138.241 26.2911C137.438 27.6909 136.344 28.786 134.96 29.5761C133.599 30.3667 132.07 30.7619 130.374 30.7619C128.677 30.7619 127.138 30.3667 125.754 29.5761C124.393 28.786 123.3 27.6909 122.474 26.2911C121.67 24.8686 121.269 23.2316 121.269 21.3802C121.269 19.5287 121.67 17.9031 122.474 16.5032C123.3 15.0807 124.393 13.9744 125.754 13.1841C127.138 12.3712 128.677 11.9648 130.374 11.9648C132.07 11.9648 133.599 12.3712 134.96 13.1841C136.344 13.9744 137.438 15.0807 138.241 16.5032C139.067 17.9031 139.479 19.5287 139.479 21.3802ZM135.463 21.3802C135.463 20.2287 135.229 19.2352 134.76 18.3998C134.313 17.5418 133.699 16.8758 132.919 16.4015C132.16 15.9275 131.312 15.6904 130.374 15.6904C129.437 15.6904 128.577 15.9275 127.797 16.4015C127.038 16.8758 126.424 17.5418 125.955 18.3998C125.509 19.2352 125.285 20.2287 125.285 21.3802C125.285 22.5092 125.509 23.5027 125.955 24.3606C126.424 25.1961 127.038 25.8508 127.797 26.3249C128.577 26.7991 129.437 27.0362 130.374 27.0362C131.312 27.0362 132.16 26.7991 132.919 26.3249C133.699 25.8508 134.313 25.1961 134.76 24.3606C135.229 23.5027 135.463 22.5092 135.463 21.3802Z" fill="#060E28"/>
<path d="M154.451 12.3027C155.031 12.3027 155.512 12.5059 155.891 12.9124C156.27 13.2961 156.46 13.7816 156.46 14.3686V22.9712C156.46 25.3645 155.801 27.2611 154.484 28.6611C153.168 30.0609 151.272 30.7611 148.794 30.7611C146.317 30.7611 144.419 30.0609 143.103 28.6611C141.809 27.2611 141.161 25.3645 141.161 22.9712V14.3686C141.161 13.7816 141.35 13.2961 141.731 12.9124C142.11 12.5059 142.589 12.3027 143.17 12.3027C143.75 12.3027 144.229 12.5059 144.609 12.9124C144.989 13.2961 145.179 13.7816 145.179 14.3686V22.9712C145.179 24.3485 145.479 25.3758 146.082 26.0532C146.685 26.708 147.589 27.0353 148.794 27.0353C150.021 27.0353 150.936 26.708 151.538 26.0532C152.142 25.3758 152.443 24.3485 152.443 22.9712V14.3686C152.443 13.7816 152.633 13.2961 153.012 12.9124C153.391 12.5059 153.872 12.3027 154.451 12.3027Z" fill="#060E28"/>
<path d="M158.099 27.6119C157.876 27.2959 157.775 26.8894 157.798 26.3927C157.819 25.8959 158.11 25.467 158.668 25.1056C159.024 24.8799 159.404 24.7896 159.806 24.8348C160.208 24.8573 160.597 25.0606 160.978 25.4444C161.625 26.0991 162.305 26.6072 163.019 26.9684C163.734 27.3297 164.627 27.5104 165.697 27.5104C166.033 27.4877 166.401 27.4426 166.803 27.3749C167.204 27.2846 167.55 27.1039 167.84 26.8329C168.152 26.5394 168.309 26.0991 168.309 25.5121C168.309 25.0154 168.142 24.6203 167.806 24.3268C167.472 24.0332 167.026 23.7848 166.467 23.5816C165.932 23.3785 165.329 23.1865 164.661 23.0059C163.969 22.8027 163.254 22.5769 162.517 22.3285C161.803 22.0802 161.145 21.764 160.542 21.3802C159.94 20.9737 159.449 20.4432 159.069 19.7884C158.691 19.1336 158.5 18.3094 158.5 17.316C158.5 16.187 158.812 15.2275 159.438 14.4372C160.063 13.6469 160.866 13.0373 161.848 12.6084C162.853 12.1793 163.901 11.9648 164.995 11.9648C165.687 11.9648 166.412 12.0551 167.171 12.2358C167.929 12.3938 168.655 12.6648 169.346 13.0486C170.038 13.4099 170.619 13.8954 171.088 14.5049C171.333 14.8437 171.479 15.25 171.522 15.7242C171.567 16.1983 171.356 16.6273 170.887 17.0112C170.552 17.2821 170.161 17.4063 169.714 17.3838C169.268 17.3386 168.901 17.1805 168.61 16.9096C168.23 16.4129 167.718 16.0177 167.071 15.7242C166.445 15.4307 165.72 15.2839 164.894 15.2839C164.559 15.2839 164.192 15.3292 163.789 15.4194C163.41 15.4872 163.076 15.6565 162.786 15.9275C162.495 16.1758 162.35 16.5822 162.35 17.1467C162.35 17.666 162.517 18.0838 162.853 18.3998C163.187 18.6933 163.633 18.9416 164.192 19.1449C164.771 19.3256 165.386 19.5061 166.033 19.6867C166.702 19.8674 167.383 20.0819 168.074 20.3302C168.766 20.5787 169.403 20.906 169.983 21.3125C170.564 21.7189 171.031 22.2495 171.389 22.9043C171.746 23.5365 171.924 24.3493 171.924 25.3428C171.924 26.4943 171.59 27.4764 170.92 28.2892C170.251 29.1022 169.413 29.7229 168.41 30.152C167.405 30.5586 166.378 30.7619 165.329 30.7619C164.012 30.7619 162.696 30.5361 161.379 30.0843C160.063 29.6099 158.969 28.786 158.099 27.6119Z" fill="#060E28"/>
</g>
<defs>
<clipPath id="clip0_8011_1599">
<rect width="171.7" height="35.3793" fill="white" transform="translate(0.400391 0.0234375)"/>
</clipPath>
</defs>
</svg>
