<svg width="175" height="31" viewBox="0 0 175 31" fill="none" xmlns="http://www.w3.org/2000/svg">
<path fill-rule="evenodd" clip-rule="evenodd" d="M18.886 2.05859C16.1289 2.05859 13.894 4.31974 13.894 7.10896C13.894 9.89822 16.1289 12.1593 18.886 12.1593C21.6431 12.1593 23.878 9.89822 23.878 7.10896C23.878 4.31974 21.6431 2.05859 18.886 2.05859ZM9.12554 11.8838C14.3218 11.8838 18.5344 16.1455 18.5344 21.4026V29.2045H13.8544V21.4026C13.8544 20.8427 13.7593 20.3054 13.5847 19.8061L6.71046 26.7607L3.40121 23.4127L10.0305 16.706C9.73757 16.6485 9.43501 16.6185 9.12554 16.6185H1.41406V11.8838H9.12554ZM28.7629 11.8838C23.5666 11.8838 19.354 16.1455 19.354 21.4026V29.2045H24.0339V21.4026C24.0339 20.9641 24.0924 20.5393 24.2015 20.1359L31.3925 27.411L34.7018 24.0628L27.5109 16.7879C27.9096 16.6775 28.3295 16.6185 28.7629 16.6185H36.4743V11.8838H28.7629Z" fill="#060E28"/>
<path d="M43.9614 29.4783V2.26367H51.5798L59.7479 25.5848H60.3369V2.26367H64.6959V29.4783H57.2348L48.87 6.11742H48.3203V29.4783H43.9614Z" fill="#060E28"/>
<path d="M82.1599 25.8998L83.2594 25.7808L83.3381 28.9989C80.3534 29.6081 77.7092 29.9126 75.4055 29.9126C72.4995 29.9126 70.405 29.1047 69.1224 27.4891C67.8657 25.8733 67.2373 23.291 67.2373 19.7418C67.2373 12.6965 70.0778 9.17383 75.7589 9.17383C81.2566 9.17383 84.0056 12.2065 84.0056 18.2719L83.7308 21.3706H71.557C71.5831 23.0129 71.9366 24.2181 72.6174 24.986C73.2979 25.7544 74.5678 26.1382 76.4266 26.1382C78.2852 26.1382 80.1965 26.0589 82.1599 25.8998ZM79.8037 18.0336C79.8037 16.0735 79.4895 14.7095 78.8612 13.9413C78.2593 13.1468 77.225 12.7495 75.7589 12.7495C74.2929 12.7495 73.2195 13.16 72.5387 13.9811C71.8842 14.8021 71.5438 16.1529 71.5179 18.0336H79.8037Z" fill="#060E28"/>
<path d="M96.7217 13.3071H91.3023V22.0476C91.3023 23.6634 91.4202 24.7359 91.6557 25.2656C91.8914 25.7952 92.4935 26.0604 93.4623 26.0604L96.6825 25.9411L96.8786 29.3975C95.1246 29.7418 93.7896 29.9142 92.8733 29.9142C90.6481 29.9142 89.1165 29.3975 88.2788 28.3647C87.4669 27.3316 87.0613 25.3849 87.0613 22.5245V13.3071H84.5479V9.61234H87.0613V3.85156H91.3023V9.61234H96.7217V13.3071Z" fill="#060E28"/>
<path d="M96.7373 9.61328H100.939L104.041 25.7833H104.827L108.558 10.0106H112.956L116.686 25.7833H117.472L120.535 9.61328H124.776L120.613 29.4779H113.82L110.757 15.8508L107.694 29.4779H100.9L96.7373 9.61328Z" fill="#060E28"/>
<path d="M127.508 11.7562C128.869 10.0346 131.121 9.17383 134.262 9.17383C137.403 9.17383 139.642 10.0346 140.977 11.7562C142.339 13.4779 143.019 16.0602 143.019 19.5035C143.019 22.9467 142.364 25.5422 141.055 27.2902C139.747 29.0386 137.483 29.9126 134.262 29.9126C131.042 29.9126 128.777 29.0386 127.468 27.2902C126.159 25.5422 125.505 22.9467 125.505 19.5035C125.505 16.0602 126.172 13.4779 127.508 11.7562ZM130.727 24.6682C131.329 25.7278 132.508 26.2574 134.262 26.2574C136.017 26.2574 137.194 25.7278 137.796 24.6682C138.399 23.6088 138.7 21.874 138.7 19.4638C138.7 17.0534 138.372 15.3451 137.718 14.3386C137.089 13.3322 135.937 12.8289 134.262 12.8289C132.586 12.8289 131.422 13.3322 130.767 14.3386C130.139 15.3451 129.824 17.0534 129.824 19.4638C129.824 21.874 130.125 23.6088 130.727 24.6682Z" fill="#060E28"/>
<path d="M145.308 29.4755V9.61084H149.549V11.9946C151.774 10.5379 153.999 9.59759 156.225 9.17383V13.5043C153.974 13.9546 152.049 14.5373 150.453 15.2525L149.589 15.6099V29.4755H145.308Z" fill="#060E28"/>
<path d="M161.814 29.4761H157.535V1.34766H161.814V17.5969L164.25 17.3587L168.884 9.61135H173.675L168.02 18.9081L173.988 29.4761H169.158L164.368 21.093L161.814 21.3711V29.4761Z" fill="#060E28"/>
</svg>
