<svg width="18" height="18" viewBox="0 0 18 18" fill="none" xmlns="http://www.w3.org/2000/svg">
<path d="M0.75 2.58333C0.75 1.57081 1.57081 0.75 2.58333 0.75H5.5893C5.98387 0.75 6.33416 1.00248 6.45893 1.37679L7.83193 5.49578C7.97618 5.92855 7.78026 6.40153 7.37225 6.60554L5.30309 7.64012C6.31348 9.88112 8.11888 11.6865 10.3599 12.6969L11.3945 10.6278C11.5985 10.2197 12.0715 10.0238 12.5042 10.1681L16.6232 11.5411C16.9975 11.6658 17.25 12.0161 17.25 12.4107V15.4167C17.25 16.4292 16.4292 17.25 15.4167 17.25H14.5C6.90608 17.25 0.75 11.0939 0.75 3.5V2.58333Z" stroke="white" stroke-width="1.5" stroke-linecap="round" stroke-linejoin="round"/>
</svg>
