<svg width="60" height="60" viewBox="0 0 60 60" fill="none" xmlns="http://www.w3.org/2000/svg">
<path d="M30 60C13.4314 60 0 46.5684 0 30C0 13.4314 13.4314 0 30 0C46.5684 0 60 13.4314 60 30C60 46.5684 46.5684 60 30 60ZM25.8657 19.2438C25.6686 19.1123 25.437 19.0422 25.2 19.0422C24.5373 19.0422 24 19.5795 24 20.2422V39.7578C24 39.9948 24.0702 40.2264 24.2016 40.4235C24.5691 40.9749 25.3143 41.124 25.8657 40.7562L40.5024 30.9984C40.6341 30.9105 40.7472 30.7974 40.8351 30.6657C41.2029 30.1143 41.0538 29.3691 40.5024 29.0016L25.8657 19.2438Z" fill="white"/>
</svg>
