<svg width="29" height="29" viewBox="0 0 29 29" fill="none" xmlns="http://www.w3.org/2000/svg">
<path d="M1.375 4.29167C1.375 2.68084 2.68084 1.375 4.29167 1.375H9.07389C9.7016 1.375 10.2589 1.77667 10.4574 2.37217L12.6417 8.9251C12.8712 9.6136 12.5595 10.3661 11.9104 10.6906L8.61855 12.3366C10.226 15.9018 13.0982 18.774 16.6634 20.3815L18.3094 17.0896C18.6339 16.4405 19.3864 16.1288 20.0749 16.3583L26.6278 18.5426C27.2233 18.7411 27.625 19.2984 27.625 19.9261V24.7083C27.625 26.3192 26.3192 27.625 24.7083 27.625H23.25C11.1688 27.625 1.375 17.8312 1.375 5.75V4.29167Z" stroke="#060E28" stroke-width="2" stroke-linecap="round" stroke-linejoin="round"/>
</svg>
